<?xml version="1.0" encoding="utf-8" standalone="no"?>
<!DOCTYPE svg PUBLIC "-//W3C//DTD SVG 1.1//EN"
  "http://www.w3.org/Graphics/SVG/1.1/DTD/svg11.dtd">
<svg xmlns:xlink="http://www.w3.org/1999/xlink" width="720pt" height="576pt" viewBox="0 0 720 576" xmlns="http://www.w3.org/2000/svg" version="1.1">
 <metadata>
  <rdf:RDF xmlns:dc="http://purl.org/dc/elements/1.1/" xmlns:cc="http://creativecommons.org/ns#" xmlns:rdf="http://www.w3.org/1999/02/22-rdf-syntax-ns#">
   <cc:Work>
    <dc:type rdf:resource="http://purl.org/dc/dcmitype/StillImage"/>
    <dc:date>2023-01-30T18:14:44.263776</dc:date>
    <dc:format>image/svg+xml</dc:format>
    <dc:creator>
     <cc:Agent>
      <dc:title>Matplotlib v3.5.1, https://matplotlib.org/</dc:title>
     </cc:Agent>
    </dc:creator>
   </cc:Work>
  </rdf:RDF>
 </metadata>
 <defs>
  <style type="text/css">*{stroke-linejoin: round; stroke-linecap: butt}</style>
 </defs>
 <g id="figure_1">
  <g id="patch_1">
   <path d="M 0 576 
L 720 576 
L 720 0 
L 0 0 
L 0 576 
z
" style="fill: none"/>
  </g>
  <g id="axes_1">
   <g id="patch_2">
    <path d="M 90 504 
L 648 504 
L 648 69.12 
L 90 69.12 
z
" style="fill: #ffffff"/>
   </g>
   <g id="matplotlib.axis_1">
    <g id="xtick_1">
     <g id="line2d_1">
      <defs>
       <path id="m9a74a84232" d="M 0 0 
L 0 3.5 
" style="stroke: #000000; stroke-width: 0.8"/>
      </defs>
      <g>
       <use xlink:href="#m9a74a84232" x="116.571429" y="504" style="stroke: #000000; stroke-width: 0.8"/>
      </g>
     </g>
     <g id="text_1">
      <!-- 0.0 -->
      <g transform="translate(99.077991 527.716563)scale(0.22 -0.22)">
       <defs>
        <path id="DejaVuSans-30" d="M 2034 4250 
Q 1547 4250 1301 3770 
Q 1056 3291 1056 2328 
Q 1056 1369 1301 889 
Q 1547 409 2034 409 
Q 2525 409 2770 889 
Q 3016 1369 3016 2328 
Q 3016 3291 2770 3770 
Q 2525 4250 2034 4250 
z
M 2034 4750 
Q 2819 4750 3233 4129 
Q 3647 3509 3647 2328 
Q 3647 1150 3233 529 
Q 2819 -91 2034 -91 
Q 1250 -91 836 529 
Q 422 1150 422 2328 
Q 422 3509 836 4129 
Q 1250 4750 2034 4750 
z
" transform="scale(0.015625)"/>
        <path id="DejaVuSans-2e" d="M 684 794 
L 1344 794 
L 1344 0 
L 684 0 
L 684 794 
z
" transform="scale(0.015625)"/>
       </defs>
       <use xlink:href="#DejaVuSans-30"/>
       <use xlink:href="#DejaVuSans-2e" x="63.623047"/>
       <use xlink:href="#DejaVuSans-30" x="95.410156"/>
      </g>
     </g>
    </g>
    <g id="xtick_2">
     <g id="line2d_2">
      <g>
       <use xlink:href="#m9a74a84232" x="222.857143" y="504" style="stroke: #000000; stroke-width: 0.8"/>
      </g>
     </g>
     <g id="text_2">
      <!-- 0.2 -->
      <g transform="translate(205.363705 527.716563)scale(0.22 -0.22)">
       <defs>
        <path id="DejaVuSans-32" d="M 1228 531 
L 3431 531 
L 3431 0 
L 469 0 
L 469 531 
Q 828 903 1448 1529 
Q 2069 2156 2228 2338 
Q 2531 2678 2651 2914 
Q 2772 3150 2772 3378 
Q 2772 3750 2511 3984 
Q 2250 4219 1831 4219 
Q 1534 4219 1204 4116 
Q 875 4013 500 3803 
L 500 4441 
Q 881 4594 1212 4672 
Q 1544 4750 1819 4750 
Q 2544 4750 2975 4387 
Q 3406 4025 3406 3419 
Q 3406 3131 3298 2873 
Q 3191 2616 2906 2266 
Q 2828 2175 2409 1742 
Q 1991 1309 1228 531 
z
" transform="scale(0.015625)"/>
       </defs>
       <use xlink:href="#DejaVuSans-30"/>
       <use xlink:href="#DejaVuSans-2e" x="63.623047"/>
       <use xlink:href="#DejaVuSans-32" x="95.410156"/>
      </g>
     </g>
    </g>
    <g id="xtick_3">
     <g id="line2d_3">
      <g>
       <use xlink:href="#m9a74a84232" x="329.142857" y="504" style="stroke: #000000; stroke-width: 0.8"/>
      </g>
     </g>
     <g id="text_3">
      <!-- 0.4 -->
      <g transform="translate(311.64942 527.716563)scale(0.22 -0.22)">
       <defs>
        <path id="DejaVuSans-34" d="M 2419 4116 
L 825 1625 
L 2419 1625 
L 2419 4116 
z
M 2253 4666 
L 3047 4666 
L 3047 1625 
L 3713 1625 
L 3713 1100 
L 3047 1100 
L 3047 0 
L 2419 0 
L 2419 1100 
L 313 1100 
L 313 1709 
L 2253 4666 
z
" transform="scale(0.015625)"/>
       </defs>
       <use xlink:href="#DejaVuSans-30"/>
       <use xlink:href="#DejaVuSans-2e" x="63.623047"/>
       <use xlink:href="#DejaVuSans-34" x="95.410156"/>
      </g>
     </g>
    </g>
    <g id="xtick_4">
     <g id="line2d_4">
      <g>
       <use xlink:href="#m9a74a84232" x="435.428571" y="504" style="stroke: #000000; stroke-width: 0.8"/>
      </g>
     </g>
     <g id="text_4">
      <!-- 0.6 -->
      <g transform="translate(417.935134 527.716563)scale(0.22 -0.22)">
       <defs>
        <path id="DejaVuSans-36" d="M 2113 2584 
Q 1688 2584 1439 2293 
Q 1191 2003 1191 1497 
Q 1191 994 1439 701 
Q 1688 409 2113 409 
Q 2538 409 2786 701 
Q 3034 994 3034 1497 
Q 3034 2003 2786 2293 
Q 2538 2584 2113 2584 
z
M 3366 4563 
L 3366 3988 
Q 3128 4100 2886 4159 
Q 2644 4219 2406 4219 
Q 1781 4219 1451 3797 
Q 1122 3375 1075 2522 
Q 1259 2794 1537 2939 
Q 1816 3084 2150 3084 
Q 2853 3084 3261 2657 
Q 3669 2231 3669 1497 
Q 3669 778 3244 343 
Q 2819 -91 2113 -91 
Q 1303 -91 875 529 
Q 447 1150 447 2328 
Q 447 3434 972 4092 
Q 1497 4750 2381 4750 
Q 2619 4750 2861 4703 
Q 3103 4656 3366 4563 
z
" transform="scale(0.015625)"/>
       </defs>
       <use xlink:href="#DejaVuSans-30"/>
       <use xlink:href="#DejaVuSans-2e" x="63.623047"/>
       <use xlink:href="#DejaVuSans-36" x="95.410156"/>
      </g>
     </g>
    </g>
    <g id="xtick_5">
     <g id="line2d_5">
      <g>
       <use xlink:href="#m9a74a84232" x="541.714286" y="504" style="stroke: #000000; stroke-width: 0.8"/>
      </g>
     </g>
     <g id="text_5">
      <!-- 0.8 -->
      <g transform="translate(524.220848 527.716563)scale(0.22 -0.22)">
       <defs>
        <path id="DejaVuSans-38" d="M 2034 2216 
Q 1584 2216 1326 1975 
Q 1069 1734 1069 1313 
Q 1069 891 1326 650 
Q 1584 409 2034 409 
Q 2484 409 2743 651 
Q 3003 894 3003 1313 
Q 3003 1734 2745 1975 
Q 2488 2216 2034 2216 
z
M 1403 2484 
Q 997 2584 770 2862 
Q 544 3141 544 3541 
Q 544 4100 942 4425 
Q 1341 4750 2034 4750 
Q 2731 4750 3128 4425 
Q 3525 4100 3525 3541 
Q 3525 3141 3298 2862 
Q 3072 2584 2669 2484 
Q 3125 2378 3379 2068 
Q 3634 1759 3634 1313 
Q 3634 634 3220 271 
Q 2806 -91 2034 -91 
Q 1263 -91 848 271 
Q 434 634 434 1313 
Q 434 1759 690 2068 
Q 947 2378 1403 2484 
z
M 1172 3481 
Q 1172 3119 1398 2916 
Q 1625 2713 2034 2713 
Q 2441 2713 2670 2916 
Q 2900 3119 2900 3481 
Q 2900 3844 2670 4047 
Q 2441 4250 2034 4250 
Q 1625 4250 1398 4047 
Q 1172 3844 1172 3481 
z
" transform="scale(0.015625)"/>
       </defs>
       <use xlink:href="#DejaVuSans-30"/>
       <use xlink:href="#DejaVuSans-2e" x="63.623047"/>
       <use xlink:href="#DejaVuSans-38" x="95.410156"/>
      </g>
     </g>
    </g>
    <g id="xtick_6">
     <g id="line2d_6">
      <g>
       <use xlink:href="#m9a74a84232" x="648" y="504" style="stroke: #000000; stroke-width: 0.8"/>
      </g>
     </g>
     <g id="text_6">
      <!-- 1.0 -->
      <g transform="translate(630.506563 527.716563)scale(0.22 -0.22)">
       <defs>
        <path id="DejaVuSans-31" d="M 794 531 
L 1825 531 
L 1825 4091 
L 703 3866 
L 703 4441 
L 1819 4666 
L 2450 4666 
L 2450 531 
L 3481 531 
L 3481 0 
L 794 0 
L 794 531 
z
" transform="scale(0.015625)"/>
       </defs>
       <use xlink:href="#DejaVuSans-31"/>
       <use xlink:href="#DejaVuSans-2e" x="63.623047"/>
       <use xlink:href="#DejaVuSans-30" x="95.410156"/>
      </g>
     </g>
    </g>
    <g id="text_7">
     <!-- Recall -->
     <g transform="translate(336.182187 553.008438)scale(0.22 -0.22)">
      <defs>
       <path id="DejaVuSans-52" d="M 2841 2188 
Q 3044 2119 3236 1894 
Q 3428 1669 3622 1275 
L 4263 0 
L 3584 0 
L 2988 1197 
Q 2756 1666 2539 1819 
Q 2322 1972 1947 1972 
L 1259 1972 
L 1259 0 
L 628 0 
L 628 4666 
L 2053 4666 
Q 2853 4666 3247 4331 
Q 3641 3997 3641 3322 
Q 3641 2881 3436 2590 
Q 3231 2300 2841 2188 
z
M 1259 4147 
L 1259 2491 
L 2053 2491 
Q 2509 2491 2742 2702 
Q 2975 2913 2975 3322 
Q 2975 3731 2742 3939 
Q 2509 4147 2053 4147 
L 1259 4147 
z
" transform="scale(0.015625)"/>
       <path id="DejaVuSans-65" d="M 3597 1894 
L 3597 1613 
L 953 1613 
Q 991 1019 1311 708 
Q 1631 397 2203 397 
Q 2534 397 2845 478 
Q 3156 559 3463 722 
L 3463 178 
Q 3153 47 2828 -22 
Q 2503 -91 2169 -91 
Q 1331 -91 842 396 
Q 353 884 353 1716 
Q 353 2575 817 3079 
Q 1281 3584 2069 3584 
Q 2775 3584 3186 3129 
Q 3597 2675 3597 1894 
z
M 3022 2063 
Q 3016 2534 2758 2815 
Q 2500 3097 2075 3097 
Q 1594 3097 1305 2825 
Q 1016 2553 972 2059 
L 3022 2063 
z
" transform="scale(0.015625)"/>
       <path id="DejaVuSans-63" d="M 3122 3366 
L 3122 2828 
Q 2878 2963 2633 3030 
Q 2388 3097 2138 3097 
Q 1578 3097 1268 2742 
Q 959 2388 959 1747 
Q 959 1106 1268 751 
Q 1578 397 2138 397 
Q 2388 397 2633 464 
Q 2878 531 3122 666 
L 3122 134 
Q 2881 22 2623 -34 
Q 2366 -91 2075 -91 
Q 1284 -91 818 406 
Q 353 903 353 1747 
Q 353 2603 823 3093 
Q 1294 3584 2113 3584 
Q 2378 3584 2631 3529 
Q 2884 3475 3122 3366 
z
" transform="scale(0.015625)"/>
       <path id="DejaVuSans-61" d="M 2194 1759 
Q 1497 1759 1228 1600 
Q 959 1441 959 1056 
Q 959 750 1161 570 
Q 1363 391 1709 391 
Q 2188 391 2477 730 
Q 2766 1069 2766 1631 
L 2766 1759 
L 2194 1759 
z
M 3341 1997 
L 3341 0 
L 2766 0 
L 2766 531 
Q 2569 213 2275 61 
Q 1981 -91 1556 -91 
Q 1019 -91 701 211 
Q 384 513 384 1019 
Q 384 1609 779 1909 
Q 1175 2209 1959 2209 
L 2766 2209 
L 2766 2266 
Q 2766 2663 2505 2880 
Q 2244 3097 1772 3097 
Q 1472 3097 1187 3025 
Q 903 2953 641 2809 
L 641 3341 
Q 956 3463 1253 3523 
Q 1550 3584 1831 3584 
Q 2591 3584 2966 3190 
Q 3341 2797 3341 1997 
z
" transform="scale(0.015625)"/>
       <path id="DejaVuSans-6c" d="M 603 4863 
L 1178 4863 
L 1178 0 
L 603 0 
L 603 4863 
z
" transform="scale(0.015625)"/>
      </defs>
      <use xlink:href="#DejaVuSans-52"/>
      <use xlink:href="#DejaVuSans-65" x="64.982422"/>
      <use xlink:href="#DejaVuSans-63" x="126.505859"/>
      <use xlink:href="#DejaVuSans-61" x="181.486328"/>
      <use xlink:href="#DejaVuSans-6c" x="242.765625"/>
      <use xlink:href="#DejaVuSans-6c" x="270.548828"/>
     </g>
    </g>
   </g>
   <g id="matplotlib.axis_2">
    <g id="ytick_1">
     <g id="line2d_7">
      <defs>
       <path id="m50b039027e" d="M 0 0 
L -3.5 0 
" style="stroke: #000000; stroke-width: 0.8"/>
      </defs>
      <g>
       <use xlink:href="#m50b039027e" x="90" y="504" style="stroke: #000000; stroke-width: 0.8"/>
      </g>
     </g>
     <g id="text_8">
      <!-- 0.75 -->
      <g transform="translate(34.015625 512.358281)scale(0.22 -0.22)">
       <defs>
        <path id="DejaVuSans-37" d="M 525 4666 
L 3525 4666 
L 3525 4397 
L 1831 0 
L 1172 0 
L 2766 4134 
L 525 4134 
L 525 4666 
z
" transform="scale(0.015625)"/>
        <path id="DejaVuSans-35" d="M 691 4666 
L 3169 4666 
L 3169 4134 
L 1269 4134 
L 1269 2991 
Q 1406 3038 1543 3061 
Q 1681 3084 1819 3084 
Q 2600 3084 3056 2656 
Q 3513 2228 3513 1497 
Q 3513 744 3044 326 
Q 2575 -91 1722 -91 
Q 1428 -91 1123 -41 
Q 819 9 494 109 
L 494 744 
Q 775 591 1075 516 
Q 1375 441 1709 441 
Q 2250 441 2565 725 
Q 2881 1009 2881 1497 
Q 2881 1984 2565 2268 
Q 2250 2553 1709 2553 
Q 1456 2553 1204 2497 
Q 953 2441 691 2322 
L 691 4666 
z
" transform="scale(0.015625)"/>
       </defs>
       <use xlink:href="#DejaVuSans-30"/>
       <use xlink:href="#DejaVuSans-2e" x="63.623047"/>
       <use xlink:href="#DejaVuSans-37" x="95.410156"/>
       <use xlink:href="#DejaVuSans-35" x="159.033203"/>
      </g>
     </g>
    </g>
    <g id="ytick_2">
     <g id="line2d_8">
      <g>
       <use xlink:href="#m50b039027e" x="90" y="420.046332" style="stroke: #000000; stroke-width: 0.8"/>
      </g>
     </g>
     <g id="text_9">
      <!-- 0.80 -->
      <g transform="translate(34.015625 428.404613)scale(0.22 -0.22)">
       <use xlink:href="#DejaVuSans-30"/>
       <use xlink:href="#DejaVuSans-2e" x="63.623047"/>
       <use xlink:href="#DejaVuSans-38" x="95.410156"/>
       <use xlink:href="#DejaVuSans-30" x="159.033203"/>
      </g>
     </g>
    </g>
    <g id="ytick_3">
     <g id="line2d_9">
      <g>
       <use xlink:href="#m50b039027e" x="90" y="336.092664" style="stroke: #000000; stroke-width: 0.8"/>
      </g>
     </g>
     <g id="text_10">
      <!-- 0.85 -->
      <g transform="translate(34.015625 344.450945)scale(0.22 -0.22)">
       <use xlink:href="#DejaVuSans-30"/>
       <use xlink:href="#DejaVuSans-2e" x="63.623047"/>
       <use xlink:href="#DejaVuSans-38" x="95.410156"/>
       <use xlink:href="#DejaVuSans-35" x="159.033203"/>
      </g>
     </g>
    </g>
    <g id="ytick_4">
     <g id="line2d_10">
      <g>
       <use xlink:href="#m50b039027e" x="90" y="252.138996" style="stroke: #000000; stroke-width: 0.8"/>
      </g>
     </g>
     <g id="text_11">
      <!-- 0.90 -->
      <g transform="translate(34.015625 260.497277)scale(0.22 -0.22)">
       <defs>
        <path id="DejaVuSans-39" d="M 703 97 
L 703 672 
Q 941 559 1184 500 
Q 1428 441 1663 441 
Q 2288 441 2617 861 
Q 2947 1281 2994 2138 
Q 2813 1869 2534 1725 
Q 2256 1581 1919 1581 
Q 1219 1581 811 2004 
Q 403 2428 403 3163 
Q 403 3881 828 4315 
Q 1253 4750 1959 4750 
Q 2769 4750 3195 4129 
Q 3622 3509 3622 2328 
Q 3622 1225 3098 567 
Q 2575 -91 1691 -91 
Q 1453 -91 1209 -44 
Q 966 3 703 97 
z
M 1959 2075 
Q 2384 2075 2632 2365 
Q 2881 2656 2881 3163 
Q 2881 3666 2632 3958 
Q 2384 4250 1959 4250 
Q 1534 4250 1286 3958 
Q 1038 3666 1038 3163 
Q 1038 2656 1286 2365 
Q 1534 2075 1959 2075 
z
" transform="scale(0.015625)"/>
       </defs>
       <use xlink:href="#DejaVuSans-30"/>
       <use xlink:href="#DejaVuSans-2e" x="63.623047"/>
       <use xlink:href="#DejaVuSans-39" x="95.410156"/>
       <use xlink:href="#DejaVuSans-30" x="159.033203"/>
      </g>
     </g>
    </g>
    <g id="ytick_5">
     <g id="line2d_11">
      <g>
       <use xlink:href="#m50b039027e" x="90" y="168.185328" style="stroke: #000000; stroke-width: 0.8"/>
      </g>
     </g>
     <g id="text_12">
      <!-- 0.95 -->
      <g transform="translate(34.015625 176.543609)scale(0.22 -0.22)">
       <use xlink:href="#DejaVuSans-30"/>
       <use xlink:href="#DejaVuSans-2e" x="63.623047"/>
       <use xlink:href="#DejaVuSans-39" x="95.410156"/>
       <use xlink:href="#DejaVuSans-35" x="159.033203"/>
      </g>
     </g>
    </g>
    <g id="ytick_6">
     <g id="line2d_12">
      <g>
       <use xlink:href="#m50b039027e" x="90" y="84.23166" style="stroke: #000000; stroke-width: 0.8"/>
      </g>
     </g>
     <g id="text_13">
      <!-- 1.00 -->
      <g transform="translate(34.015625 92.589941)scale(0.22 -0.22)">
       <use xlink:href="#DejaVuSans-31"/>
       <use xlink:href="#DejaVuSans-2e" x="63.623047"/>
       <use xlink:href="#DejaVuSans-30" x="95.410156"/>
       <use xlink:href="#DejaVuSans-30" x="159.033203"/>
      </g>
     </g>
    </g>
    <g id="text_14">
     <!-- Precision -->
     <g transform="translate(25.440312 335.635469)rotate(-90)scale(0.22 -0.22)">
      <defs>
       <path id="DejaVuSans-50" d="M 1259 4147 
L 1259 2394 
L 2053 2394 
Q 2494 2394 2734 2622 
Q 2975 2850 2975 3272 
Q 2975 3691 2734 3919 
Q 2494 4147 2053 4147 
L 1259 4147 
z
M 628 4666 
L 2053 4666 
Q 2838 4666 3239 4311 
Q 3641 3956 3641 3272 
Q 3641 2581 3239 2228 
Q 2838 1875 2053 1875 
L 1259 1875 
L 1259 0 
L 628 0 
L 628 4666 
z
" transform="scale(0.015625)"/>
       <path id="DejaVuSans-72" d="M 2631 2963 
Q 2534 3019 2420 3045 
Q 2306 3072 2169 3072 
Q 1681 3072 1420 2755 
Q 1159 2438 1159 1844 
L 1159 0 
L 581 0 
L 581 3500 
L 1159 3500 
L 1159 2956 
Q 1341 3275 1631 3429 
Q 1922 3584 2338 3584 
Q 2397 3584 2469 3576 
Q 2541 3569 2628 3553 
L 2631 2963 
z
" transform="scale(0.015625)"/>
       <path id="DejaVuSans-69" d="M 603 3500 
L 1178 3500 
L 1178 0 
L 603 0 
L 603 3500 
z
M 603 4863 
L 1178 4863 
L 1178 4134 
L 603 4134 
L 603 4863 
z
" transform="scale(0.015625)"/>
       <path id="DejaVuSans-73" d="M 2834 3397 
L 2834 2853 
Q 2591 2978 2328 3040 
Q 2066 3103 1784 3103 
Q 1356 3103 1142 2972 
Q 928 2841 928 2578 
Q 928 2378 1081 2264 
Q 1234 2150 1697 2047 
L 1894 2003 
Q 2506 1872 2764 1633 
Q 3022 1394 3022 966 
Q 3022 478 2636 193 
Q 2250 -91 1575 -91 
Q 1294 -91 989 -36 
Q 684 19 347 128 
L 347 722 
Q 666 556 975 473 
Q 1284 391 1588 391 
Q 1994 391 2212 530 
Q 2431 669 2431 922 
Q 2431 1156 2273 1281 
Q 2116 1406 1581 1522 
L 1381 1569 
Q 847 1681 609 1914 
Q 372 2147 372 2553 
Q 372 3047 722 3315 
Q 1072 3584 1716 3584 
Q 2034 3584 2315 3537 
Q 2597 3491 2834 3397 
z
" transform="scale(0.015625)"/>
       <path id="DejaVuSans-6f" d="M 1959 3097 
Q 1497 3097 1228 2736 
Q 959 2375 959 1747 
Q 959 1119 1226 758 
Q 1494 397 1959 397 
Q 2419 397 2687 759 
Q 2956 1122 2956 1747 
Q 2956 2369 2687 2733 
Q 2419 3097 1959 3097 
z
M 1959 3584 
Q 2709 3584 3137 3096 
Q 3566 2609 3566 1747 
Q 3566 888 3137 398 
Q 2709 -91 1959 -91 
Q 1206 -91 779 398 
Q 353 888 353 1747 
Q 353 2609 779 3096 
Q 1206 3584 1959 3584 
z
" transform="scale(0.015625)"/>
       <path id="DejaVuSans-6e" d="M 3513 2113 
L 3513 0 
L 2938 0 
L 2938 2094 
Q 2938 2591 2744 2837 
Q 2550 3084 2163 3084 
Q 1697 3084 1428 2787 
Q 1159 2491 1159 1978 
L 1159 0 
L 581 0 
L 581 3500 
L 1159 3500 
L 1159 2956 
Q 1366 3272 1645 3428 
Q 1925 3584 2291 3584 
Q 2894 3584 3203 3211 
Q 3513 2838 3513 2113 
z
" transform="scale(0.015625)"/>
      </defs>
      <use xlink:href="#DejaVuSans-50"/>
      <use xlink:href="#DejaVuSans-72" x="58.552734"/>
      <use xlink:href="#DejaVuSans-65" x="97.416016"/>
      <use xlink:href="#DejaVuSans-63" x="158.939453"/>
      <use xlink:href="#DejaVuSans-69" x="213.919922"/>
      <use xlink:href="#DejaVuSans-73" x="241.703125"/>
      <use xlink:href="#DejaVuSans-69" x="293.802734"/>
      <use xlink:href="#DejaVuSans-6f" x="321.585938"/>
      <use xlink:href="#DejaVuSans-6e" x="382.767578"/>
     </g>
    </g>
   </g>
   <g id="line2d_13">
    <path d="M 494.193328 577 
L 494.193328 576.507966 
L 493.659925 577 
M 493.486171 577 
L 493.486171 574.797582 
L 493.132592 575.123539 
L 493.132592 574.333525 
L 492.779013 574.659607 
L 492.779013 573.075803 
L 492.425435 573.401699 
L 492.425435 572.607901 
L 492.071856 572.93392 
L 492.071856 570.545215 
L 491.718278 570.870726 
L 491.718278 566.062523 
L 491.364699 566.386552 
L 491.364699 565.581089 
L 491.011121 565.90523 
L 491.011121 563.481344 
L 490.657542 563.804942 
L 490.657542 561.370233 
L 489.950385 562.016762 
L 489.950385 560.386792 
L 488.889649 561.357876 
L 488.889649 554.78537 
L 488.182492 555.429523 
L 488.182492 554.602211 
L 487.475335 555.247438 
L 487.475335 553.588018 
L 486.768178 554.233625 
L 486.768178 552.568238 
L 486.414599 552.891006 
L 486.414599 552.056238 
L 485.707442 552.702404 
L 485.707442 550.189042 
L 485.353864 550.511727 
L 485.353864 549.671261 
L 485.000285 549.994034 
L 485.000285 549.152042 
L 484.646707 549.474903 
L 484.646707 548.63138 
L 483.939549 549.277726 
L 483.939549 548.432303 
L 483.232392 549.079724 
L 483.232392 540.552861 
L 482.878814 540.873537 
L 482.878814 533.962263 
L 482.525235 534.280319 
L 482.525235 533.410521 
L 482.171657 533.728636 
L 482.171657 531.984556 
L 481.818078 532.302337 
L 481.818078 528.797703 
L 481.4645 529.114345 
L 481.4645 526.471539 
L 481.110921 526.787424 
L 481.110921 525.903566 
L 480.757342 526.219497 
L 480.757342 525.333967 
L 480.403764 525.649943 
L 480.403764 524.762735 
L 479.696607 525.395228 
L 479.696607 522.72348 
L 479.343028 523.039169 
L 479.343028 522.145605 
L 478.98945 522.461333 
L 478.98945 521.566063 
L 478.282293 522.198049 
L 478.282293 520.401947 
L 477.575135 521.034078 
L 477.575135 520.133228 
L 477.221557 520.449558 
L 477.221557 518.643082 
L 476.867978 518.959017 
L 476.867978 518.05338 
L 476.5144 518.369346 
L 476.5144 516.553247 
L 475.807243 517.184835 
L 475.807243 508.938451 
L 475.453664 509.250965 
L 475.453664 505.548961 
L 475.100086 505.860126 
L 475.100086 504 
L 474.392928 504.621879 
L 474.392928 503.68883 
L 472.271457 505.562801 
L 472.271457 504.625586 
L 471.917879 504.939079 
L 471.917879 499.283502 
L 471.5643 499.594635 
L 471.5643 498.646615 
L 470.857143 499.269328 
L 470.857143 491.625877 
L 470.503564 491.934042 
L 470.503564 488.075556 
L 470.149986 488.382195 
L 470.149986 487.413409 
L 469.796407 487.720011 
L 469.796407 485.777003 
L 469.442829 486.083059 
L 469.442829 481.196976 
L 469.08925 481.500931 
L 469.08925 479.534974 
L 468.735672 479.838353 
L 468.735672 478.852588 
L 468.382093 479.155909 
L 468.382093 478.168102 
L 466.6142 479.689092 
L 466.6142 478.697117 
L 465.553464 479.613768 
L 465.553464 477.622005 
L 465.199886 477.927432 
L 465.199886 476.928693 
L 463.785572 478.153002 
L 463.785572 476.146519 
L 463.431993 476.452703 
L 463.431993 470.392174 
L 462.724836 470.999344 
L 462.724836 469.982581 
L 462.371257 470.286322 
L 462.371257 468.246861 
L 461.6641 468.85352 
L 461.6641 465.778813 
L 461.310522 466.081148 
L 461.310522 457.805398 
L 460.603365 458.402161 
L 460.603365 457.359073 
L 460.249786 457.657575 
L 460.249786 456.612221 
L 459.18905 457.508803 
L 459.18905 454.357244 
L 458.481893 454.95374 
L 458.481893 451.78326 
L 458.128315 452.080391 
L 458.128315 446.758863 
L 457.774736 447.053361 
L 457.774736 444.911373 
L 457.421158 445.205086 
L 457.421158 438.733237 
L 457.067579 439.023574 
L 457.067579 436.85084 
L 456.714001 437.140347 
L 456.714001 434.959155 
L 454.592529 436.698299 
L 454.592529 434.501931 
L 454.238951 434.79213 
L 454.238951 433.690543 
L 453.531794 434.27104 
L 453.531794 430.951221 
L 452.824636 431.529569 
L 452.824636 429.304381 
L 452.471058 429.592903 
L 452.471058 428.476826 
L 452.117479 428.765138 
L 452.117479 424.27929 
L 451.763901 424.565285 
L 451.763901 417.775396 
L 451.056744 418.340246 
L 451.056744 414.915038 
L 450.703165 415.195993 
L 450.703165 412.901339 
L 450.349587 413.181296 
L 450.349587 412.030296 
L 449.642429 412.590157 
L 449.642429 411.435699 
L 449.288851 411.7156 
L 449.288851 410.558418 
L 448.935272 410.838046 
L 448.935272 409.678126 
L 448.581694 409.957479 
L 448.581694 407.63014 
L 447.874537 408.187244 
L 447.874537 404.676576 
L 447.520958 404.953538 
L 447.520958 403.778493 
L 447.16738 404.055157 
L 447.16738 400.515444 
L 446.460222 401.065503 
L 446.460222 399.879916 
L 445.753065 400.430305 
L 445.753065 398.049738 
L 445.045908 398.598851 
L 445.045908 397.403837 
L 444.69233 397.678308 
L 444.69233 394.078238 
L 444.338751 394.35075 
L 444.338751 391.938496 
L 443.631594 392.481668 
L 443.631594 391.270693 
L 442.924437 391.814125 
L 442.924437 390.599341 
L 442.570858 390.870944 
L 442.570858 385.986837 
L 442.21728 386.255541 
L 442.21728 385.028225 
L 441.863701 385.296553 
L 441.863701 384.066189 
L 441.156544 384.602565 
L 441.156544 378.408933 
L 440.449387 378.938505 
L 440.449387 377.691328 
L 440.095808 377.955945 
L 440.095808 376.70563 
L 439.388651 377.234516 
L 439.388651 374.723519 
L 437.974337 375.779853 
L 437.974337 374.517318 
L 437.620758 374.781695 
L 437.620758 373.515949 
L 437.26718 373.779895 
L 437.26718 371.239629 
L 436.560023 371.765285 
L 436.560023 362.787609 
L 436.206444 363.04458 
L 436.206444 361.751634 
L 435.499287 362.265084 
L 435.499287 359.668161 
L 435.145709 359.923668 
L 435.145709 358.620621 
L 433.731394 359.643507 
L 433.731394 357.02229 
L 432.31708 358.044935 
L 432.31708 355.405949 
L 431.963502 355.660812 
L 431.963502 353.009882 
L 431.609923 353.263207 
L 431.609923 347.927192 
L 431.256344 348.176904 
L 431.256344 341.444611 
L 430.902766 341.689575 
L 430.902766 340.334365 
L 430.549187 340.578738 
L 430.549187 337.85842 
L 428.781295 339.076608 
L 428.781295 337.707158 
L 428.427716 337.951119 
L 428.427716 336.577945 
L 428.074137 336.821288 
L 428.074137 335.444373 
L 427.720559 335.687091 
L 427.720559 334.306416 
L 427.36698 334.548502 
L 427.36698 328.994541 
L 426.306245 329.710221 
L 426.306245 328.311592 
L 425.952666 328.549952 
L 425.952666 327.147454 
L 424.538352 328.101 
L 424.538352 326.691173 
L 423.831195 327.168455 
L 423.831195 324.335839 
L 423.477616 324.572862 
L 423.477616 323.15119 
L 422.770459 323.624298 
L 422.770459 319.335279 
L 422.416881 319.56898 
L 422.416881 316.693012 
L 420.648988 317.856482 
L 420.648988 316.408137 
L 420.295409 316.641012 
L 420.295409 315.188538 
L 419.941831 315.420655 
L 419.941831 311.041973 
L 419.588252 311.270843 
L 419.588252 305.386206 
L 419.234674 305.610501 
L 419.234674 304.130608 
L 418.881095 304.354082 
L 418.881095 301.382695 
L 418.527516 301.604052 
L 418.527516 298.617942 
L 417.820359 299.056809 
L 417.820359 297.556554 
L 417.113202 297.994593 
L 417.113202 296.488621 
L 416.406045 296.925814 
L 416.406045 290.860129 
L 416.052466 291.074031 
L 416.052466 289.548403 
L 415.345309 289.974813 
L 415.345309 285.370656 
L 414.991731 285.580395 
L 414.991731 279.390972 
L 414.284574 279.80054 
L 414.284574 278.242237 
L 413.223838 278.855548 
L 413.223838 275.720491 
L 411.102367 276.941461 
L 411.102367 273.775618 
L 410.041631 274.38313 
L 410.041631 272.790701 
L 408.627317 273.600836 
L 408.627317 271.999004 
L 407.566581 272.606665 
L 407.566581 270.996839 
L 407.213003 271.198748 
L 407.213003 269.583914 
L 406.152267 270.187667 
L 406.152267 266.938228 
L 405.091531 267.536612 
L 405.091531 265.901893 
L 404.737953 266.100656 
L 404.737953 262.817314 
L 402.616481 264 
L 402.616481 262.343309 
L 399.787853 263.931819 
L 399.787853 260.581264 
L 399.080696 260.976224 
L 399.080696 257.603994 
L 398.727117 257.798794 
L 398.727117 256.105311 
L 398.373539 256.298863 
L 398.373539 254.59987 
L 395.898489 255.955072 
L 395.898489 254.240226 
L 394.484175 255.017408 
L 394.484175 253.291678 
L 394.130596 253.485332 
L 394.130596 251.753888 
L 393.06986 252.332215 
L 393.06986 250.591463 
L 391.655546 251.361647 
L 391.655546 247.853658 
L 390.59481 248.425097 
L 390.59481 246.659503 
L 390.241232 246.849033 
L 390.241232 243.301768 
L 389.887653 243.488033 
L 389.887653 238.130276 
L 388.11976 239.039842 
L 388.11976 235.427839 
L 387.059025 235.967184 
L 387.059025 234.148924 
L 383.523239 235.955157 
L 383.523239 234.112756 
L 382.816082 234.475226 
L 382.816082 230.768972 
L 381.048189 231.662492 
L 381.048189 229.792354 
L 377.512404 231.591621 
L 377.512404 225.890455 
L 376.805247 226.24284 
L 376.805247 222.409767 
L 374.330197 223.62643 
L 374.330197 221.687288 
L 372.915883 222.383266 
L 372.915883 220.43026 
L 372.208725 220.776381 
L 372.208725 218.813876 
L 371.501568 219.157198 
L 371.501568 213.225772 
L 371.14799 213.391149 
L 371.14799 211.40153 
L 370.087254 211.893166 
L 370.087254 209.891344 
L 369.733676 210.053695 
L 369.733676 208.044314 
L 367.965783 208.850386 
L 367.965783 206.823718 
L 367.258626 207.14422 
L 367.258626 203.065161 
L 365.844311 203.691425 
L 365.844311 201.633887 
L 365.490733 201.788976 
L 365.490733 199.723479 
L 365.137154 199.876448 
L 365.137154 197.802935 
L 364.783576 197.95376 
L 364.783576 195.872176 
L 361.601369 197.224484 
L 361.601369 195.113863 
L 360.540633 195.563994 
L 360.540633 193.439684 
L 357.004847 194.939794 
L 357.004847 192.782483 
L 353.82264 194.143148 
L 353.82264 191.954637 
L 353.469062 192.105088 
L 353.469062 189.907606 
L 352.408326 190.35287 
L 352.408326 188.14056 
L 349.933276 189.173745 
L 349.933276 186.934583 
L 341.447391 190.56473 
L 339.679498 191.353551 
L 339.679498 189.017813 
L 338.972341 189.330142 
L 338.972341 184.624686 
L 335.790134 185.993682 
L 335.790134 181.199423 
L 332.961506 182.392872 
L 332.961506 179.956952 
L 332.254348 180.252857 
L 332.254348 177.802312 
L 331.193613 178.238878 
L 331.193613 175.769927 
L 330.486456 176.055985 
L 330.486456 173.572027 
L 328.011406 174.561556 
L 328.011406 172.043738 
L 324.122042 173.601694 
L 324.122042 171.033514 
L 315.989735 174.38325 
L 314.928999 174.839329 
L 314.928999 172.15611 
L 312.453949 173.208197 
L 312.453949 170.485429 
L 311.393214 170.930801 
L 311.393214 165.430372 
L 310.332478 165.853282 
L 310.332478 163.075105 
L 305.382378 165.042678 
L 305.382378 162.188638 
L 305.0288 162.328096 
L 305.0288 159.458961 
L 303.260907 160.139136 
L 303.260907 157.23485 
L 298.664386 158.995595 
L 298.664386 156.013607 
L 297.957228 156.28145 
L 297.957228 153.277668 
L 296.896493 153.667025 
L 296.896493 150.635691 
L 289.117764 153.505807 
L 281.692615 156.486866 
L 274.621044 159.574696 
L 272.853151 160.388335 
L 272.853151 156.918819 
L 266.488737 159.865595 
L 260.124323 163.061395 
L 259.063587 163.620472 
L 259.063587 159.82975 
L 256.942116 160.920107 
L 256.942116 157.058938 
L 254.113487 158.490433 
L 254.113487 154.537688 
L 251.638437 155.771127 
L 251.638437 151.732097 
L 245.627602 154.743927 
L 239.970345 157.834876 
L 234.666667 160.9893 
L 231.48446 163.015161 
L 231.48446 158.308426 
L 231.130881 158.526942 
L 231.130881 153.779077 
L 230.423724 154.19305 
L 230.423724 149.389731 
L 228.655831 150.376974 
L 228.655831 145.474458 
L 226.887938 146.419562 
L 226.887938 141.413725 
L 221.58426 144.198566 
L 217.341317 146.629657 
L 217.341317 141.149401 
L 212.391218 143.985161 
L 210.269746 145.288873 
L 210.269746 139.383705 
L 205.673225 142.130742 
L 203.198175 143.726386 
L 203.198175 137.324889 
L 198.955232 139.968535 
L 195.065868 142.634212 
L 191.176504 145.567673 
L 187.640719 148.502411 
L 186.933561 149.123384 
L 186.933561 141.287551 
L 183.397776 144.198566 
L 180.215569 147.084674 
L 177.033362 150.262635 
L 175.619048 151.780588 
L 175.619048 142.465418 
L 172.436841 145.661173 
L 172.083262 146.038042 
L 172.083262 136.054912 
L 169.254634 138.747029 
L 166.426005 141.734173 
L 165.365269 142.940519 
L 165.365269 131.529501 
L 162.536641 134.353253 
L 161.475905 135.501076 
L 161.475905 122.979507 
L 161.122327 123.279878 
L 161.122327 110.467181 
L 157.94012 112.451381 
L 155.111491 114.485234 
L 152.636441 116.521533 
L 150.161392 118.851729 
L 148.03992 121.134371 
L 145.918449 123.739269 
L 143.796977 126.739847 
L 143.08982 127.843955 
L 143.08982 106.324731 
L 140.968349 108.218423 
L 139.200456 110.063558 
L 137.432563 112.216216 
L 135.664671 114.760267 
L 134.250356 117.154667 
L 132.836042 119.956625 
L 131.421728 123.279878 
L 131.068149 124.209597 
L 131.068149 84.23166 
L 116.571429 84.23166 
L 116.571429 84.23166 
" clip-path="url(#p76ba056a09)" style="fill: none; stroke: #1f77b4; stroke-width: 1.5; stroke-linecap: square"/>
   </g>
   <g id="line2d_14">
    <path d="M 483.939549 577 
L 483.939549 571.667574 
L 483.585971 572.00075 
L 483.585971 567.915344 
L 483.232392 568.247316 
L 483.232392 564.132104 
L 482.525235 564.794035 
L 482.525235 559.814073 
L 482.171657 560.143652 
L 482.171657 557.637066 
L 481.818078 557.966048 
L 481.818078 556.288471 
L 481.4645 556.617201 
L 481.4645 552.400962 
L 481.110921 552.728353 
L 481.110921 551.881203 
L 480.757342 552.208689 
L 480.757342 550.510097 
L 480.403764 550.837309 
L 480.403764 549.133209 
L 480.050185 549.460144 
L 480.050185 547.750503 
L 479.696607 548.077155 
L 479.696607 542.916952 
L 479.343028 543.241799 
L 479.343028 541.511213 
L 478.98945 541.835755 
L 478.98945 540.968234 
L 478.635871 541.292852 
L 478.635871 539.553333 
L 478.282293 539.877636 
L 478.282293 538.132376 
L 477.928714 538.456359 
L 477.928714 536.705325 
L 477.575135 537.028982 
L 477.575135 533.510256 
L 477.221557 533.832782 
L 477.221557 532.949541 
L 476.867978 533.272127 
L 476.867978 530.613555 
L 476.5144 530.935387 
L 476.5144 528.264066 
L 474.746507 529.874046 
L 474.746507 526.285883 
L 474.03935 526.929807 
L 474.03935 526.028659 
L 473.685771 526.350904 
L 473.685771 524.543812 
L 473.332193 524.865678 
L 473.332193 523.052443 
L 472.625036 523.695875 
L 472.625036 520.963452 
L 472.271457 521.284579 
L 472.271457 514.858752 
L 471.5643 515.496246 
L 471.5643 513.64627 
L 471.210721 513.964827 
L 471.210721 513.037329 
L 470.857143 513.355907 
L 470.857143 508.695395 
L 470.149986 509.329396 
L 470.149986 508.392195 
L 469.796407 508.709443 
L 469.796407 506.829899 
L 469.08925 507.463955 
L 469.08925 505.576891 
L 468.735672 505.893692 
L 468.735672 504 
L 466.967779 505.586426 
L 466.967779 504.63505 
L 466.6142 504.953297 
L 466.6142 501.131424 
L 465.907043 501.765492 
L 465.907043 500.805416 
L 465.553464 501.122685 
L 465.553464 499.197159 
L 464.846307 499.831178 
L 464.846307 498.865219 
L 464.492729 499.18246 
L 464.492729 496.274202 
L 464.13915 496.590428 
L 464.13915 492.689845 
L 463.785572 493.004527 
L 463.785572 491.044187 
L 462.724836 491.988068 
L 462.724836 491.004076 
L 462.017679 491.634731 
L 462.017679 489.660088 
L 461.6641 489.975106 
L 461.6641 488.984958 
L 461.310522 489.299941 
L 461.310522 487.313963 
L 460.956943 487.62838 
L 460.956943 484.636175 
L 460.603365 484.949481 
L 460.603365 482.945789 
L 459.542629 483.885413 
L 459.542629 480.863162 
L 459.18905 481.175717 
L 459.18905 479.151835 
L 458.835472 479.463778 
L 458.835472 475.394551 
L 458.128315 476.015444 
L 458.128315 473.968879 
L 457.774736 474.278932 
L 457.774736 470.163925 
L 457.421158 470.472177 
L 457.421158 469.438738 
L 456.714001 470.055563 
L 456.714001 469.019305 
L 455.299686 470.256564 
L 455.299686 466.08544 
L 454.946108 466.393635 
L 454.946108 464.29677 
L 454.592529 464.604266 
L 454.592529 463.552686 
L 453.885372 464.167968 
L 453.885372 460.999341 
L 453.178215 461.612969 
L 453.178215 455.221682 
L 452.471058 455.829863 
L 452.471058 451.528958 
L 452.117479 451.83126 
L 452.117479 449.668896 
L 450.703165 450.877952 
L 450.703165 442.135723 
L 449.996008 442.732728 
L 449.996008 436.091124 
L 449.288851 436.681987 
L 449.288851 435.567178 
L 448.935272 435.862666 
L 448.935272 434.745291 
L 448.581694 435.040584 
L 448.581694 433.920631 
L 448.228115 434.215727 
L 448.228115 433.093186 
L 447.874537 433.388081 
L 447.874537 430.006937 
L 447.520958 430.300215 
L 447.520958 423.481776 
L 446.813801 424.061196 
L 446.813801 420.621357 
L 446.460222 420.909609 
L 446.460222 419.758326 
L 446.106644 420.046332 
L 446.106644 416.578366 
L 445.753065 416.864625 
L 445.753065 405.16662 
L 445.399487 405.445694 
L 445.399487 404.263919 
L 444.69233 404.821953 
L 444.69233 403.63654 
L 443.985173 404.19494 
L 443.985173 401.814712 
L 443.631594 402.09305 
L 443.631594 400.899004 
L 443.278015 401.177027 
L 443.278015 399.980077 
L 442.924437 400.257781 
L 442.924437 399.057915 
L 442.570858 399.335295 
L 442.570858 398.1325 
L 441.510123 398.965128 
L 441.510123 397.757748 
L 441.156544 398.03545 
L 441.156544 396.825105 
L 440.449387 397.380333 
L 440.449387 396.166178 
L 439.74223 396.721715 
L 439.74223 391.836699 
L 439.388651 392.111838 
L 439.388651 389.654502 
L 438.327916 390.477745 
L 438.327916 389.243188 
L 437.974337 389.517726 
L 437.974337 388.280079 
L 437.620758 388.554244 
L 437.620758 387.313494 
L 437.26718 387.587281 
L 437.26718 386.343413 
L 436.560023 386.890717 
L 436.560023 380.628595 
L 435.852866 381.168973 
L 435.852866 378.644523 
L 435.499287 378.913639 
L 435.499287 376.378124 
L 434.79213 376.914172 
L 434.79213 375.641086 
L 434.438551 375.908926 
L 434.438551 370.789383 
L 434.084973 371.053979 
L 434.084973 369.767241 
L 433.024237 370.56113 
L 433.024237 369.26916 
L 432.31708 369.798969 
L 432.31708 368.502685 
L 431.963502 368.767369 
L 431.963502 367.467707 
L 431.609923 367.73192 
L 431.609923 361.192214 
L 430.902766 361.712328 
L 430.902766 355.101042 
L 430.549187 355.35682 
L 430.549187 352.692774 
L 429.488452 353.456895 
L 429.488452 348.086045 
L 429.134873 348.337575 
L 429.134873 345.634676 
L 428.781295 345.884583 
L 428.781295 344.5282 
L 428.074137 345.027331 
L 428.074137 343.66622 
L 427.720559 343.915436 
L 427.720559 339.813154 
L 427.36698 340.059617 
L 427.36698 338.685828 
L 427.013402 338.931677 
L 427.013402 334.791057 
L 426.306245 335.27758 
L 426.306245 333.889798 
L 425.952666 334.132656 
L 425.952666 332.741057 
L 425.599088 332.983269 
L 425.599088 331.587833 
L 425.245509 331.829392 
L 425.245509 329.02807 
L 424.538352 329.508063 
L 424.538352 326.691173 
L 424.184773 326.929579 
L 424.184773 325.515824 
L 423.831195 325.753542 
L 423.831195 322.915336 
L 421.356145 324.576157 
L 421.356145 323.144586 
L 421.002566 323.382547 
L 421.002566 319.067095 
L 420.648988 319.301931 
L 420.648988 316.408137 
L 419.941831 316.874355 
L 419.941831 315.420655 
L 418.881095 316.119816 
L 418.881095 313.196209 
L 418.527516 313.42772 
L 418.527516 311.960233 
L 417.820359 312.422157 
L 417.820359 306.512247 
L 416.052466 307.649814 
L 416.052466 306.158364 
L 415.345309 306.614066 
L 415.345309 302.113476 
L 414.638152 302.563181 
L 414.638152 298.026715 
L 413.223838 298.915676 
L 413.223838 297.391858 
L 412.516681 297.836405 
L 412.516681 296.306688 
L 412.163102 296.528292 
L 412.163102 294.994007 
L 411.809524 295.2147 
L 411.809524 289.039767 
L 410.748788 289.687894 
L 410.748788 286.572424 
L 410.041631 287.001112 
L 410.041631 285.435573 
L 409.688052 285.649165 
L 409.688052 282.505216 
L 408.980895 282.927975 
L 408.980895 281.348063 
L 406.505845 282.831735 
L 406.505845 281.238115 
L 405.798688 281.663156 
L 405.798688 278.459606 
L 405.091531 278.880468 
L 405.091531 277.270463 
L 404.737953 277.48006 
L 404.737953 275.865033 
L 403.677217 276.491969 
L 403.677217 274.86881 
L 402.616481 275.495219 
L 402.616481 273.863849 
L 402.262903 274.072007 
L 402.262903 270.795367 
L 400.49501 271.827246 
L 400.49501 268.5202 
L 399.434274 269.135178 
L 399.434274 267.471292 
L 399.080696 267.675572 
L 399.080696 266.006343 
L 398.373539 266.412998 
L 398.373539 264.736747 
L 396.605646 265.753104 
L 396.605646 264.064771 
L 393.423439 265.908163 
L 393.423439 264.200755 
L 392.009125 265.025355 
L 392.009125 261.584989 
L 390.59481 262.403228 
L 390.59481 260.670085 
L 389.887653 261.078507 
L 389.887653 259.337804 
L 388.826918 259.94864 
L 388.826918 258.198516 
L 388.473339 258.401274 
L 388.473339 254.885144 
L 387.766182 255.284801 
L 387.766182 253.516899 
L 387.412603 253.715591 
L 387.412603 250.163616 
L 387.059025 250.35906 
L 387.059025 248.574925 
L 386.705446 248.768955 
L 386.705446 246.978723 
L 385.998289 247.36438 
L 385.998289 245.566111 
L 384.230396 246.528727 
L 384.230396 241.079231 
L 381.401768 242.596499 
L 381.401768 240.755448 
L 381.048189 240.945174 
L 381.048189 237.245636 
L 379.987454 237.805443 
L 379.987454 234.075615 
L 378.573139 234.811949 
L 378.573139 229.157844 
L 377.865982 229.516129 
L 377.865982 227.617875 
L 375.390932 228.870938 
L 375.390932 226.952896 
L 375.037354 227.131521 
L 375.037354 223.276631 
L 372.915883 224.331334 
L 372.915883 222.383266 
L 372.562304 222.558363 
L 372.562304 220.603101 
L 370.794411 221.473927 
L 370.794411 219.502276 
L 368.319361 220.724075 
L 368.319361 218.731077 
L 367.965783 218.905073 
L 367.965783 216.904555 
L 367.612204 217.076634 
L 367.612204 215.068545 
L 364.783576 216.442161 
L 364.783576 214.40949 
L 364.429997 214.580776 
L 364.429997 208.443164 
L 363.369261 208.937374 
L 363.369261 206.873141 
L 362.308526 207.363707 
L 362.308526 205.286348 
L 359.479897 206.593282 
L 359.479897 204.489617 
L 357.358426 205.472652 
L 357.358426 203.347369 
L 354.883376 204.495868 
L 354.883376 202.345786 
L 354.176219 202.67252 
L 354.176219 200.510979 
L 353.469062 200.833977 
L 353.469062 198.66086 
L 353.115483 198.820232 
L 353.115483 194.450163 
L 344.983177 198.108208 
L 344.983177 195.846363 
L 340.386655 197.983316 
L 340.386655 195.674582 
L 339.32592 196.169884 
L 339.32592 193.844758 
L 336.497291 195.161432 
L 336.497291 192.803321 
L 334.729398 193.625834 
L 334.729398 188.854772 
L 330.132877 190.963455 
L 330.132877 188.521931 
L 327.657827 189.667978 
L 327.657827 187.193706 
L 326.95067 187.518507 
L 326.95067 185.029113 
L 325.889934 185.509101 
L 325.889934 183.000681 
L 323.061306 184.273068 
L 323.061306 181.726242 
L 316.696892 184.641363 
L 316.696892 182.014635 
L 315.636156 182.505185 
L 315.636156 179.857279 
L 315.282578 180.017724 
L 315.282578 177.356737 
L 307.857428 180.763752 
L 305.735957 181.783458 
L 305.735957 178.994178 
L 305.0288 179.32962 
L 305.0288 176.521153 
L 300.0787 178.87034 
L 300.0787 175.984303 
L 296.542914 177.686578 
L 296.542914 171.781109 
L 289.471343 175.167935 
L 285.2284 177.328797 
L 285.2284 174.182019 
L 283.460508 175.083325 
L 283.460508 171.894125 
L 280.278301 173.507544 
L 280.278301 170.249763 
L 279.217565 170.781833 
L 279.217565 167.491496 
L 272.853151 170.707541 
L 271.792415 171.26786 
L 271.792415 167.821892 
L 269.317365 169.107896 
L 269.317365 165.596449 
L 267.195894 166.686156 
L 267.195894 163.114301 
L 264.720844 164.369252 
L 264.720844 157.068176 
L 262.245794 158.251135 
L 262.245794 154.518452 
L 256.588537 157.23485 
L 256.588537 153.34606 
L 250.577702 156.313092 
L 244.920445 159.3481 
L 239.616766 162.435077 
L 238.202452 163.301597 
L 238.202452 158.857143 
L 237.848874 159.065013 
L 237.848874 154.583896 
L 232.545195 157.660524 
L 231.48446 158.308426 
L 231.48446 153.573923 
L 226.53436 156.560974 
L 221.58426 159.816956 
L 218.048474 162.328096 
L 218.048474 156.991506 
L 213.451953 160.287248 
L 209.209011 163.606037 
L 205.319646 166.913303 
L 204.966068 167.227682 
L 204.966068 161.135784 
L 203.905332 162.026565 
L 203.905332 155.820059 
L 200.723125 158.407592 
L 200.723125 151.936231 
L 200.015968 152.486675 
L 200.015968 145.911906 
L 198.248075 147.196911 
L 198.248075 140.434953 
L 194.358711 143.146515 
L 190.469347 146.132982 
L 190.469347 138.646075 
L 186.579983 141.565872 
L 186.226404 141.846923 
L 186.226404 133.859444 
L 185.165669 134.603861 
L 185.165669 126.419433 
L 181.276305 128.887867 
L 177.740519 131.396642 
L 175.265469 133.327372 
L 175.265469 123.739269 
L 173.497576 124.936469 
L 173.497576 114.946417 
L 172.083262 115.714286 
L 172.083262 105.35208 
L 168.193898 106.921841 
L 164.658112 108.566057 
L 161.475905 110.263805 
L 158.647277 111.984939 
L 158.647277 98.223938 
L 155.111491 99.495963 
L 154.757913 99.636003 
L 154.757913 84.23166 
L 116.571429 84.23166 
L 116.571429 84.23166 
" clip-path="url(#p76ba056a09)" style="fill: none; stroke: #ff7f0e; stroke-width: 1.5; stroke-linecap: square"/>
   </g>
   <g id="line2d_15">
    <path d="M 477.221557 577 
L 477.221557 573.96139 
L 476.867978 574.301716 
L 476.867978 569.323335 
L 476.5144 569.662087 
L 476.5144 567.992656 
L 476.160821 568.331187 
L 476.160821 565.817217 
L 475.453664 566.493601 
L 475.453664 560.581336 
L 475.100086 560.917741 
L 475.100086 557.511545 
L 474.392928 558.182864 
L 474.392928 549.574848 
L 474.03935 549.907474 
L 474.03935 534.09201 
L 473.332193 534.744454 
L 473.332193 532.065906 
L 472.978614 532.391604 
L 472.978614 525.188014 
L 472.625036 525.510823 
L 472.625036 524.604014 
L 471.917879 525.250195 
L 471.917879 517.020879 
L 471.210721 517.6611 
L 471.210721 516.739084 
L 470.857143 517.059459 
L 470.857143 514.283857 
L 470.503564 514.603361 
L 470.503564 511.814005 
L 469.796407 512.451712 
L 469.796407 507.770374 
L 469.08925 508.405365 
L 469.08925 502.735638 
L 468.735672 503.051014 
L 468.735672 502.100596 
L 468.028514 502.731818 
L 468.028514 500.824748 
L 467.674936 501.14011 
L 467.674936 500.183924 
L 467.321357 500.499278 
L 467.321357 499.541156 
L 466.6142 500.172325 
L 466.6142 497.286264 
L 466.260622 497.601092 
L 466.260622 489.836038 
L 465.907043 490.147323 
L 465.907043 485.243017 
L 465.199886 485.861862 
L 465.199886 484.875419 
L 464.846307 485.185036 
L 464.846307 484.196544 
L 463.785572 485.126695 
L 463.785572 483.141946 
L 463.078415 483.762335 
L 463.078415 476.759365 
L 461.310522 478.299898 
L 461.310522 477.290467 
L 460.956943 477.599475 
L 460.956943 474.559982 
L 460.603365 474.867812 
L 460.603365 471.81223 
L 459.896208 472.425976 
L 459.896208 471.403092 
L 459.542629 471.710128 
L 459.542629 470.685052 
L 458.481893 471.607376 
L 458.481893 470.578954 
L 458.128315 470.8868 
L 458.128315 466.754368 
L 457.421158 467.366894 
L 457.421158 464.246658 
L 456.360422 465.16383 
L 456.360422 463.071741 
L 456.006843 463.377257 
L 456.006843 461.277213 
L 455.653265 461.582019 
L 455.653265 457.359073 
L 455.299686 457.661937 
L 455.299686 456.6013 
L 454.946108 456.90404 
L 454.946108 454.776351 
L 453.885372 455.683807 
L 453.885372 453.545424 
L 453.178215 454.150361 
L 453.178215 453.077283 
L 452.824636 453.379864 
L 452.824636 442.545082 
L 452.471058 442.841699 
L 452.471058 439.554238 
L 451.410322 440.441067 
L 451.410322 439.339598 
L 451.056744 439.635521 
L 451.056744 437.425722 
L 450.349587 438.016348 
L 450.349587 436.90732 
L 449.996008 437.202693 
L 449.996008 429.382376 
L 449.288851 429.964909 
L 449.288851 428.838777 
L 447.874537 430.006937 
L 447.874537 428.876065 
L 447.520958 429.168632 
L 447.520958 428.035126 
L 447.16738 428.327476 
L 447.16738 427.191325 
L 446.813801 427.483454 
L 446.813801 421.769932 
L 446.460222 422.05892 
L 446.460222 419.758326 
L 446.106644 420.046332 
L 446.106644 417.736343 
L 445.045908 418.598855 
L 445.045908 410.434984 
L 443.985173 411.285949 
L 443.985173 410.109257 
L 443.278015 410.677483 
L 443.278015 409.49718 
L 442.21728 410.350895 
L 442.21728 406.79049 
L 441.510123 407.357377 
L 441.510123 403.773374 
L 440.802965 404.337437 
L 440.802965 403.136936 
L 440.095808 403.70137 
L 440.095808 398.871517 
L 439.74223 399.151197 
L 439.74223 396.721715 
L 439.035073 397.279236 
L 439.035073 396.05957 
L 438.681494 396.338236 
L 438.681494 395.115547 
L 437.620758 395.952006 
L 437.620758 392.263104 
L 437.26718 392.54036 
L 437.26718 391.305437 
L 436.913601 391.582329 
L 436.913601 386.616817 
L 436.560023 386.890717 
L 436.560023 384.392687 
L 436.206444 384.665313 
L 436.206444 382.156415 
L 435.499287 382.699577 
L 435.499287 381.439901 
L 434.79213 381.983243 
L 434.79213 380.719454 
L 434.438551 380.990963 
L 434.438551 379.723947 
L 434.084973 379.995041 
L 434.084973 378.724784 
L 433.377816 379.266629 
L 433.377816 374.154761 
L 433.024237 374.422712 
L 433.024237 371.850708 
L 432.31708 372.384324 
L 432.31708 369.798969 
L 431.963502 370.064613 
L 431.963502 364.861101 
L 431.609923 365.123372 
L 431.609923 359.876911 
L 431.256344 360.135733 
L 431.256344 358.816965 
L 430.902766 359.075277 
L 430.902766 357.753027 
L 430.549187 358.010822 
L 430.549187 355.35682 
L 430.195609 355.613082 
L 430.195609 354.281302 
L 429.488452 354.793244 
L 429.488452 353.456895 
L 428.427716 354.225378 
L 428.427716 352.883398 
L 428.074137 353.1395 
L 428.074137 351.793923 
L 427.720559 352.049474 
L 427.720559 350.700281 
L 426.306245 351.723193 
L 426.306245 349.008613 
L 425.952666 349.263451 
L 425.952666 343.798556 
L 425.245509 344.301106 
L 425.245509 342.926102 
L 423.477616 344.185569 
L 423.477616 341.416555 
L 423.124038 341.667712 
L 423.124038 338.885643 
L 422.416881 339.384965 
L 422.416881 337.987595 
L 421.002566 338.987618 
L 421.002566 337.582966 
L 420.295409 338.08366 
L 420.295409 333.846134 
L 419.941831 334.093767 
L 419.941831 332.674491 
L 419.234674 333.168905 
L 419.234674 330.317187 
L 418.881095 330.562782 
L 418.881095 327.697297 
L 418.527516 327.941007 
L 418.527516 322.170699 
L 416.052466 323.856502 
L 416.052466 316.53479 
L 414.991731 317.245922 
L 414.991731 311.319451 
L 413.223838 312.488801 
L 413.223838 309.49434 
L 411.809524 310.428071 
L 411.809524 308.920938 
L 411.455945 309.15426 
L 411.455945 307.642669 
L 410.39521 308.341556 
L 410.39521 300.715961 
L 409.334474 301.398877 
L 409.334474 299.860028 
L 408.980895 300.087245 
L 408.980895 298.543766 
L 408.627317 298.770073 
L 408.627317 297.221938 
L 406.505845 298.581451 
L 406.505845 297.021575 
L 405.44511 297.703594 
L 405.44511 296.136106 
L 405.091531 296.362984 
L 405.091531 293.21504 
L 404.384374 293.664466 
L 404.384374 292.082507 
L 404.030796 292.306484 
L 404.030796 289.129381 
L 403.323638 289.572883 
L 403.323638 287.976207 
L 402.97006 288.197188 
L 402.97006 286.59555 
L 402.616481 286.815511 
L 402.616481 285.208885 
L 401.555746 285.867107 
L 401.555746 284.252421 
L 398.01996 286.462595 
L 398.01996 284.82892 
L 395.54491 286.394339 
L 395.54491 278.115692 
L 395.191332 278.333294 
L 395.191332 276.664787 
L 393.423439 277.75198 
L 393.423439 276.07149 
L 392.716282 276.506501 
L 392.716282 274.818875 
L 392.009125 275.25252 
L 392.009125 273.5577 
L 391.655546 273.773579 
L 391.655546 272.0732 
L 390.948389 272.503044 
L 390.948389 269.083773 
L 388.473339 270.579686 
L 388.473339 267.1203 
L 387.766182 267.545128 
L 387.766182 265.805872 
L 385.998289 266.86771 
L 385.998289 265.115441 
L 385.644711 265.327497 
L 385.644711 263.569308 
L 384.937553 263.991279 
L 384.937553 262.225303 
L 384.583975 262.435201 
L 384.583975 260.663217 
L 383.876818 261.080807 
L 383.876818 259.30092 
L 382.108925 260.344241 
L 382.108925 258.550732 
L 381.048189 259.177028 
L 381.048189 257.373517 
L 380.694611 257.581371 
L 380.694611 255.771607 
L 379.633875 256.392379 
L 379.633875 250.91933 
L 377.512404 252.138996 
L 377.512404 250.293861 
L 375.744511 251.313899 
L 375.744511 249.454131 
L 373.976618 250.476547 
L 373.976618 246.72263 
L 371.501568 248.146206 
L 371.501568 246.247511 
L 371.14799 246.450793 
L 371.14799 244.545197 
L 370.440833 244.949009 
L 370.440833 239.19039 
L 369.026518 239.977982 
L 369.026518 238.039907 
L 367.612204 238.82665 
L 367.612204 236.874693 
L 364.076419 238.854499 
L 364.076419 236.874693 
L 362.308526 237.87236 
L 362.308526 233.873847 
L 361.954947 234.070228 
L 361.954947 232.060721 
L 361.601369 232.255233 
L 361.601369 230.238039 
L 360.894212 230.623789 
L 360.894212 228.596433 
L 359.833476 229.171592 
L 359.833476 225.086017 
L 358.77274 225.65094 
L 358.77274 223.592501 
L 358.419162 223.779312 
L 358.419162 219.640802 
L 358.065583 219.823049 
L 358.065583 217.742884 
L 354.529798 219.566808 
L 354.529798 217.454991 
L 352.408326 218.557529 
L 352.408326 214.284369 
L 351.347591 214.826255 
L 351.347591 212.672599 
L 350.640433 213.030872 
L 350.640433 210.865685 
L 350.286855 211.042795 
L 350.286855 208.868758 
L 349.933276 209.043565 
L 349.933276 206.860613 
L 349.226119 207.206047 
L 349.226119 205.011267 
L 347.104648 206.042103 
L 347.104648 199.368119 
L 345.690334 200.029823 
L 345.690334 197.780506 
L 342.861705 199.102763 
L 342.861705 194.53575 
L 335.082977 198.195915 
L 333.668663 198.887656 
L 333.668663 196.510122 
L 327.657827 199.487866 
L 327.657827 197.044402 
L 325.536356 198.11203 
L 325.536356 195.639371 
L 322.354149 197.246213 
L 322.354149 194.732475 
L 320.939835 195.446535 
L 320.939835 192.909548 
L 318.464785 194.15463 
L 318.464785 189.001426 
L 315.282578 190.572973 
L 315.282578 187.947377 
L 311.746792 189.708255 
L 311.746792 187.03207 
L 308.918164 188.450007 
L 308.918164 185.73005 
L 308.564585 185.905653 
L 308.564585 183.171858 
L 306.089535 184.386913 
L 306.089535 181.612013 
L 304.321642 182.475314 
L 304.321642 179.667446 
L 303.968064 179.837261 
L 303.968064 177.01468 
L 301.139435 178.35693 
L 301.139435 175.485647 
L 300.785857 175.651262 
L 300.785857 172.764619 
L 296.542914 174.739332 
L 296.542914 171.781109 
L 293.360707 173.273429 
L 293.360707 170.256292 
L 289.824922 171.920211 
L 289.824922 168.836132 
L 285.935557 170.679001 
L 285.935557 167.519029 
L 285.581979 167.68461 
L 285.581979 161.314868 
L 282.399772 162.724927 
L 282.399772 159.46509 
L 277.803251 161.511187 
L 277.803251 158.153129 
L 273.913887 159.898056 
L 273.913887 156.449869 
L 272.145994 157.23485 
L 272.145994 153.735786 
L 270.024522 154.656371 
L 270.024522 151.097413 
L 268.610208 151.694429 
L 268.610208 148.089036 
L 261.892216 150.923826 
L 255.527802 153.851775 
L 249.516966 156.863332 
L 249.163388 157.048617 
L 249.163388 152.940544 
L 248.102652 153.471799 
L 248.102652 145.130694 
L 245.98118 146.092258 
L 245.98118 141.825206 
L 241.738238 143.708373 
L 241.738238 139.283246 
L 237.495295 141.149401 
L 237.495295 136.55406 
L 231.48446 139.201324 
L 226.180781 141.77 
L 225.473624 142.130742 
L 225.473624 137.032709 
L 220.523524 139.464337 
L 220.523524 134.105126 
L 219.462789 134.603861 
L 219.462789 123.672981 
L 213.805532 125.910786 
L 208.501853 128.25231 
L 204.612489 130.143822 
L 204.612489 123.739269 
L 204.258911 123.89481 
L 204.258911 117.414928 
L 198.955232 119.506311 
L 194.358711 121.544402 
L 191.883661 122.742517 
L 191.883661 115.182321 
L 187.28714 117.154667 
L 183.044197 119.212355 
L 179.154833 121.338254 
L 175.619048 123.50823 
L 172.083262 125.947769 
L 171.022526 126.739847 
L 171.022526 116.315865 
L 169.608212 117.154667 
L 169.608212 106.324731 
L 165.718848 108.048304 
L 162.183062 109.866368 
L 160.768748 110.67376 
L 160.768748 97.557639 
L 156.879384 98.832298 
L 153.343599 100.222835 
L 150.161392 101.722008 
L 147.332763 103.312039 
L 144.857713 104.960961 
L 142.736242 106.619305 
L 140.61477 108.566057 
L 138.846878 110.467181 
L 137.078985 112.690531 
L 135.311092 115.325611 
L 134.957514 115.91229 
L 134.957514 84.23166 
L 116.571429 84.23166 
L 116.571429 84.23166 
" clip-path="url(#p76ba056a09)" style="fill: none; stroke: #2ca02c; stroke-width: 1.5; stroke-linecap: square"/>
   </g>
   <g id="line2d_16">
    <path d="M 492.038277 577 
L 648 84.23166 
" clip-path="url(#p76ba056a09)" style="fill: none; stroke-dasharray: 5.55,2.4; stroke-dashoffset: 0; stroke: #000000; stroke-width: 1.5"/>
   </g>
   <g id="patch_3">
    <path d="M 90 504 
L 90 69.12 
" style="fill: none; stroke: #000000; stroke-width: 0.8; stroke-linejoin: miter; stroke-linecap: square"/>
   </g>
   <g id="patch_4">
    <path d="M 648 504 
L 648 69.12 
" style="fill: none; stroke: #000000; stroke-width: 0.8; stroke-linejoin: miter; stroke-linecap: square"/>
   </g>
   <g id="patch_5">
    <path d="M 90 504 
L 648 504 
" style="fill: none; stroke: #000000; stroke-width: 0.8; stroke-linejoin: miter; stroke-linecap: square"/>
   </g>
   <g id="patch_6">
    <path d="M 90 69.12 
L 648 69.12 
" style="fill: none; stroke: #000000; stroke-width: 0.8; stroke-linejoin: miter; stroke-linecap: square"/>
   </g>
   <g id="legend_1">
    <g id="patch_7">
     <path d="M 506.2 496 
L 636.8 496 
Q 640 496 640 492.8 
L 640 422.61 
Q 640 419.41 636.8 419.41 
L 506.2 419.41 
Q 503 419.41 503 422.61 
L 503 492.8 
Q 503 496 506.2 496 
z
" style="fill: #ffffff; opacity: 0.8; stroke: #cccccc; stroke-linejoin: miter"/>
    </g>
    <g id="line2d_17">
     <path d="M 509.4 432.3675 
L 525.4 432.3675 
L 541.4 432.3675 
" style="fill: none; stroke: #1f77b4; stroke-width: 1.5; stroke-linecap: square"/>
    </g>
    <g id="text_15">
     <!-- MAO_XGB -->
     <g transform="translate(554.2 437.9675)scale(0.16 -0.16)">
      <defs>
       <path id="DejaVuSans-4d" d="M 628 4666 
L 1569 4666 
L 2759 1491 
L 3956 4666 
L 4897 4666 
L 4897 0 
L 4281 0 
L 4281 4097 
L 3078 897 
L 2444 897 
L 1241 4097 
L 1241 0 
L 628 0 
L 628 4666 
z
" transform="scale(0.015625)"/>
       <path id="DejaVuSans-41" d="M 2188 4044 
L 1331 1722 
L 3047 1722 
L 2188 4044 
z
M 1831 4666 
L 2547 4666 
L 4325 0 
L 3669 0 
L 3244 1197 
L 1141 1197 
L 716 0 
L 50 0 
L 1831 4666 
z
" transform="scale(0.015625)"/>
       <path id="DejaVuSans-4f" d="M 2522 4238 
Q 1834 4238 1429 3725 
Q 1025 3213 1025 2328 
Q 1025 1447 1429 934 
Q 1834 422 2522 422 
Q 3209 422 3611 934 
Q 4013 1447 4013 2328 
Q 4013 3213 3611 3725 
Q 3209 4238 2522 4238 
z
M 2522 4750 
Q 3503 4750 4090 4092 
Q 4678 3434 4678 2328 
Q 4678 1225 4090 567 
Q 3503 -91 2522 -91 
Q 1538 -91 948 565 
Q 359 1222 359 2328 
Q 359 3434 948 4092 
Q 1538 4750 2522 4750 
z
" transform="scale(0.015625)"/>
       <path id="DejaVuSans-5f" d="M 3263 -1063 
L 3263 -1509 
L -63 -1509 
L -63 -1063 
L 3263 -1063 
z
" transform="scale(0.015625)"/>
       <path id="DejaVuSans-58" d="M 403 4666 
L 1081 4666 
L 2241 2931 
L 3406 4666 
L 4084 4666 
L 2584 2425 
L 4184 0 
L 3506 0 
L 2194 1984 
L 872 0 
L 191 0 
L 1856 2491 
L 403 4666 
z
" transform="scale(0.015625)"/>
       <path id="DejaVuSans-47" d="M 3809 666 
L 3809 1919 
L 2778 1919 
L 2778 2438 
L 4434 2438 
L 4434 434 
Q 4069 175 3628 42 
Q 3188 -91 2688 -91 
Q 1594 -91 976 548 
Q 359 1188 359 2328 
Q 359 3472 976 4111 
Q 1594 4750 2688 4750 
Q 3144 4750 3555 4637 
Q 3966 4525 4313 4306 
L 4313 3634 
Q 3963 3931 3569 4081 
Q 3175 4231 2741 4231 
Q 1884 4231 1454 3753 
Q 1025 3275 1025 2328 
Q 1025 1384 1454 906 
Q 1884 428 2741 428 
Q 3075 428 3337 486 
Q 3600 544 3809 666 
z
" transform="scale(0.015625)"/>
       <path id="DejaVuSans-42" d="M 1259 2228 
L 1259 519 
L 2272 519 
Q 2781 519 3026 730 
Q 3272 941 3272 1375 
Q 3272 1813 3026 2020 
Q 2781 2228 2272 2228 
L 1259 2228 
z
M 1259 4147 
L 1259 2741 
L 2194 2741 
Q 2656 2741 2882 2914 
Q 3109 3088 3109 3444 
Q 3109 3797 2882 3972 
Q 2656 4147 2194 4147 
L 1259 4147 
z
M 628 4666 
L 2241 4666 
Q 2963 4666 3353 4366 
Q 3744 4066 3744 3513 
Q 3744 3084 3544 2831 
Q 3344 2578 2956 2516 
Q 3422 2416 3680 2098 
Q 3938 1781 3938 1306 
Q 3938 681 3513 340 
Q 3088 0 2303 0 
L 628 0 
L 628 4666 
z
" transform="scale(0.015625)"/>
      </defs>
      <use xlink:href="#DejaVuSans-4d"/>
      <use xlink:href="#DejaVuSans-41" x="86.279297"/>
      <use xlink:href="#DejaVuSans-4f" x="152.9375"/>
      <use xlink:href="#DejaVuSans-5f" x="231.648438"/>
      <use xlink:href="#DejaVuSans-58" x="281.648438"/>
      <use xlink:href="#DejaVuSans-47" x="350.154297"/>
      <use xlink:href="#DejaVuSans-42" x="427.644531"/>
     </g>
    </g>
    <g id="line2d_18">
     <path d="M 509.4 456.2975 
L 525.4 456.2975 
L 541.4 456.2975 
" style="fill: none; stroke: #ff7f0e; stroke-width: 1.5; stroke-linecap: square"/>
    </g>
    <g id="text_16">
     <!-- AO_XGB -->
     <g transform="translate(554.2 461.8975)scale(0.16 -0.16)">
      <use xlink:href="#DejaVuSans-41"/>
      <use xlink:href="#DejaVuSans-4f" x="66.658203"/>
      <use xlink:href="#DejaVuSans-5f" x="145.369141"/>
      <use xlink:href="#DejaVuSans-58" x="195.369141"/>
      <use xlink:href="#DejaVuSans-47" x="263.875"/>
      <use xlink:href="#DejaVuSans-42" x="341.365234"/>
     </g>
    </g>
    <g id="line2d_19">
     <path d="M 509.4 480.2275 
L 525.4 480.2275 
L 541.4 480.2275 
" style="fill: none; stroke: #2ca02c; stroke-width: 1.5; stroke-linecap: square"/>
    </g>
    <g id="text_17">
     <!-- Nor_XGB -->
     <g transform="translate(554.2 485.8275)scale(0.16 -0.16)">
      <defs>
       <path id="DejaVuSans-4e" d="M 628 4666 
L 1478 4666 
L 3547 763 
L 3547 4666 
L 4159 4666 
L 4159 0 
L 3309 0 
L 1241 3903 
L 1241 0 
L 628 0 
L 628 4666 
z
" transform="scale(0.015625)"/>
      </defs>
      <use xlink:href="#DejaVuSans-4e"/>
      <use xlink:href="#DejaVuSans-6f" x="74.804688"/>
      <use xlink:href="#DejaVuSans-72" x="135.986328"/>
      <use xlink:href="#DejaVuSans-5f" x="177.099609"/>
      <use xlink:href="#DejaVuSans-58" x="227.099609"/>
      <use xlink:href="#DejaVuSans-47" x="295.605469"/>
      <use xlink:href="#DejaVuSans-42" x="373.095703"/>
     </g>
    </g>
   </g>
  </g>
 </g>
 <defs>
  <clipPath id="p76ba056a09">
   <rect x="90" y="69.12" width="558" height="434.88"/>
  </clipPath>
 </defs>
</svg>
