<?xml version="1.0" encoding="utf-8" standalone="no"?>
<!DOCTYPE svg PUBLIC "-//W3C//DTD SVG 1.1//EN"
  "http://www.w3.org/Graphics/SVG/1.1/DTD/svg11.dtd">
<svg xmlns:xlink="http://www.w3.org/1999/xlink" width="720pt" height="576pt" viewBox="0 0 720 576" xmlns="http://www.w3.org/2000/svg" version="1.1">
 <metadata>
  <rdf:RDF xmlns:dc="http://purl.org/dc/elements/1.1/" xmlns:cc="http://creativecommons.org/ns#" xmlns:rdf="http://www.w3.org/1999/02/22-rdf-syntax-ns#">
   <cc:Work>
    <dc:type rdf:resource="http://purl.org/dc/dcmitype/StillImage"/>
    <dc:date>2023-01-30T18:14:09.191191</dc:date>
    <dc:format>image/svg+xml</dc:format>
    <dc:creator>
     <cc:Agent>
      <dc:title>Matplotlib v3.5.1, https://matplotlib.org/</dc:title>
     </cc:Agent>
    </dc:creator>
   </cc:Work>
  </rdf:RDF>
 </metadata>
 <defs>
  <style type="text/css">*{stroke-linejoin: round; stroke-linecap: butt}</style>
 </defs>
 <g id="figure_1">
  <g id="patch_1">
   <path d="M 0 576 
L 720 576 
L 720 0 
L 0 0 
L 0 576 
z
" style="fill: none"/>
  </g>
  <g id="axes_1">
   <g id="patch_2">
    <path d="M 90 504 
L 648 504 
L 648 69.12 
L 90 69.12 
z
" style="fill: #ffffff"/>
   </g>
   <g id="matplotlib.axis_1">
    <g id="xtick_1">
     <g id="line2d_1">
      <defs>
       <path id="m7f62d35fd4" d="M 0 0 
L 0 3.5 
" style="stroke: #000000; stroke-width: 0.8"/>
      </defs>
      <g>
       <use xlink:href="#m7f62d35fd4" x="116.571429" y="504" style="stroke: #000000; stroke-width: 0.8"/>
      </g>
     </g>
     <g id="text_1">
      <!-- 0.0 -->
      <g transform="translate(100.668304 526.196875)scale(0.2 -0.2)">
       <defs>
        <path id="DejaVuSans-30" d="M 2034 4250 
Q 1547 4250 1301 3770 
Q 1056 3291 1056 2328 
Q 1056 1369 1301 889 
Q 1547 409 2034 409 
Q 2525 409 2770 889 
Q 3016 1369 3016 2328 
Q 3016 3291 2770 3770 
Q 2525 4250 2034 4250 
z
M 2034 4750 
Q 2819 4750 3233 4129 
Q 3647 3509 3647 2328 
Q 3647 1150 3233 529 
Q 2819 -91 2034 -91 
Q 1250 -91 836 529 
Q 422 1150 422 2328 
Q 422 3509 836 4129 
Q 1250 4750 2034 4750 
z
" transform="scale(0.015625)"/>
        <path id="DejaVuSans-2e" d="M 684 794 
L 1344 794 
L 1344 0 
L 684 0 
L 684 794 
z
" transform="scale(0.015625)"/>
       </defs>
       <use xlink:href="#DejaVuSans-30"/>
       <use xlink:href="#DejaVuSans-2e" x="63.623047"/>
       <use xlink:href="#DejaVuSans-30" x="95.410156"/>
      </g>
     </g>
    </g>
    <g id="xtick_2">
     <g id="line2d_2">
      <g>
       <use xlink:href="#m7f62d35fd4" x="222.857143" y="504" style="stroke: #000000; stroke-width: 0.8"/>
      </g>
     </g>
     <g id="text_2">
      <!-- 0.2 -->
      <g transform="translate(206.954018 526.196875)scale(0.2 -0.2)">
       <defs>
        <path id="DejaVuSans-32" d="M 1228 531 
L 3431 531 
L 3431 0 
L 469 0 
L 469 531 
Q 828 903 1448 1529 
Q 2069 2156 2228 2338 
Q 2531 2678 2651 2914 
Q 2772 3150 2772 3378 
Q 2772 3750 2511 3984 
Q 2250 4219 1831 4219 
Q 1534 4219 1204 4116 
Q 875 4013 500 3803 
L 500 4441 
Q 881 4594 1212 4672 
Q 1544 4750 1819 4750 
Q 2544 4750 2975 4387 
Q 3406 4025 3406 3419 
Q 3406 3131 3298 2873 
Q 3191 2616 2906 2266 
Q 2828 2175 2409 1742 
Q 1991 1309 1228 531 
z
" transform="scale(0.015625)"/>
       </defs>
       <use xlink:href="#DejaVuSans-30"/>
       <use xlink:href="#DejaVuSans-2e" x="63.623047"/>
       <use xlink:href="#DejaVuSans-32" x="95.410156"/>
      </g>
     </g>
    </g>
    <g id="xtick_3">
     <g id="line2d_3">
      <g>
       <use xlink:href="#m7f62d35fd4" x="329.142857" y="504" style="stroke: #000000; stroke-width: 0.8"/>
      </g>
     </g>
     <g id="text_3">
      <!-- 0.4 -->
      <g transform="translate(313.239732 526.196875)scale(0.2 -0.2)">
       <defs>
        <path id="DejaVuSans-34" d="M 2419 4116 
L 825 1625 
L 2419 1625 
L 2419 4116 
z
M 2253 4666 
L 3047 4666 
L 3047 1625 
L 3713 1625 
L 3713 1100 
L 3047 1100 
L 3047 0 
L 2419 0 
L 2419 1100 
L 313 1100 
L 313 1709 
L 2253 4666 
z
" transform="scale(0.015625)"/>
       </defs>
       <use xlink:href="#DejaVuSans-30"/>
       <use xlink:href="#DejaVuSans-2e" x="63.623047"/>
       <use xlink:href="#DejaVuSans-34" x="95.410156"/>
      </g>
     </g>
    </g>
    <g id="xtick_4">
     <g id="line2d_4">
      <g>
       <use xlink:href="#m7f62d35fd4" x="435.428571" y="504" style="stroke: #000000; stroke-width: 0.8"/>
      </g>
     </g>
     <g id="text_4">
      <!-- 0.6 -->
      <g transform="translate(419.525446 526.196875)scale(0.2 -0.2)">
       <defs>
        <path id="DejaVuSans-36" d="M 2113 2584 
Q 1688 2584 1439 2293 
Q 1191 2003 1191 1497 
Q 1191 994 1439 701 
Q 1688 409 2113 409 
Q 2538 409 2786 701 
Q 3034 994 3034 1497 
Q 3034 2003 2786 2293 
Q 2538 2584 2113 2584 
z
M 3366 4563 
L 3366 3988 
Q 3128 4100 2886 4159 
Q 2644 4219 2406 4219 
Q 1781 4219 1451 3797 
Q 1122 3375 1075 2522 
Q 1259 2794 1537 2939 
Q 1816 3084 2150 3084 
Q 2853 3084 3261 2657 
Q 3669 2231 3669 1497 
Q 3669 778 3244 343 
Q 2819 -91 2113 -91 
Q 1303 -91 875 529 
Q 447 1150 447 2328 
Q 447 3434 972 4092 
Q 1497 4750 2381 4750 
Q 2619 4750 2861 4703 
Q 3103 4656 3366 4563 
z
" transform="scale(0.015625)"/>
       </defs>
       <use xlink:href="#DejaVuSans-30"/>
       <use xlink:href="#DejaVuSans-2e" x="63.623047"/>
       <use xlink:href="#DejaVuSans-36" x="95.410156"/>
      </g>
     </g>
    </g>
    <g id="xtick_5">
     <g id="line2d_5">
      <g>
       <use xlink:href="#m7f62d35fd4" x="541.714286" y="504" style="stroke: #000000; stroke-width: 0.8"/>
      </g>
     </g>
     <g id="text_5">
      <!-- 0.8 -->
      <g transform="translate(525.811161 526.196875)scale(0.2 -0.2)">
       <defs>
        <path id="DejaVuSans-38" d="M 2034 2216 
Q 1584 2216 1326 1975 
Q 1069 1734 1069 1313 
Q 1069 891 1326 650 
Q 1584 409 2034 409 
Q 2484 409 2743 651 
Q 3003 894 3003 1313 
Q 3003 1734 2745 1975 
Q 2488 2216 2034 2216 
z
M 1403 2484 
Q 997 2584 770 2862 
Q 544 3141 544 3541 
Q 544 4100 942 4425 
Q 1341 4750 2034 4750 
Q 2731 4750 3128 4425 
Q 3525 4100 3525 3541 
Q 3525 3141 3298 2862 
Q 3072 2584 2669 2484 
Q 3125 2378 3379 2068 
Q 3634 1759 3634 1313 
Q 3634 634 3220 271 
Q 2806 -91 2034 -91 
Q 1263 -91 848 271 
Q 434 634 434 1313 
Q 434 1759 690 2068 
Q 947 2378 1403 2484 
z
M 1172 3481 
Q 1172 3119 1398 2916 
Q 1625 2713 2034 2713 
Q 2441 2713 2670 2916 
Q 2900 3119 2900 3481 
Q 2900 3844 2670 4047 
Q 2441 4250 2034 4250 
Q 1625 4250 1398 4047 
Q 1172 3844 1172 3481 
z
" transform="scale(0.015625)"/>
       </defs>
       <use xlink:href="#DejaVuSans-30"/>
       <use xlink:href="#DejaVuSans-2e" x="63.623047"/>
       <use xlink:href="#DejaVuSans-38" x="95.410156"/>
      </g>
     </g>
    </g>
    <g id="xtick_6">
     <g id="line2d_6">
      <g>
       <use xlink:href="#m7f62d35fd4" x="648" y="504" style="stroke: #000000; stroke-width: 0.8"/>
      </g>
     </g>
     <g id="text_6">
      <!-- 1.0 -->
      <g transform="translate(632.096875 526.196875)scale(0.2 -0.2)">
       <defs>
        <path id="DejaVuSans-31" d="M 794 531 
L 1825 531 
L 1825 4091 
L 703 3866 
L 703 4441 
L 1819 4666 
L 2450 4666 
L 2450 531 
L 3481 531 
L 3481 0 
L 794 0 
L 794 531 
z
" transform="scale(0.015625)"/>
       </defs>
       <use xlink:href="#DejaVuSans-31"/>
       <use xlink:href="#DejaVuSans-2e" x="63.623047"/>
       <use xlink:href="#DejaVuSans-30" x="95.410156"/>
      </g>
     </g>
    </g>
    <g id="text_7">
     <!-- False Positive Rate -->
     <g transform="translate(266.773906 551.072813)scale(0.22 -0.22)">
      <defs>
       <path id="DejaVuSans-46" d="M 628 4666 
L 3309 4666 
L 3309 4134 
L 1259 4134 
L 1259 2759 
L 3109 2759 
L 3109 2228 
L 1259 2228 
L 1259 0 
L 628 0 
L 628 4666 
z
" transform="scale(0.015625)"/>
       <path id="DejaVuSans-61" d="M 2194 1759 
Q 1497 1759 1228 1600 
Q 959 1441 959 1056 
Q 959 750 1161 570 
Q 1363 391 1709 391 
Q 2188 391 2477 730 
Q 2766 1069 2766 1631 
L 2766 1759 
L 2194 1759 
z
M 3341 1997 
L 3341 0 
L 2766 0 
L 2766 531 
Q 2569 213 2275 61 
Q 1981 -91 1556 -91 
Q 1019 -91 701 211 
Q 384 513 384 1019 
Q 384 1609 779 1909 
Q 1175 2209 1959 2209 
L 2766 2209 
L 2766 2266 
Q 2766 2663 2505 2880 
Q 2244 3097 1772 3097 
Q 1472 3097 1187 3025 
Q 903 2953 641 2809 
L 641 3341 
Q 956 3463 1253 3523 
Q 1550 3584 1831 3584 
Q 2591 3584 2966 3190 
Q 3341 2797 3341 1997 
z
" transform="scale(0.015625)"/>
       <path id="DejaVuSans-6c" d="M 603 4863 
L 1178 4863 
L 1178 0 
L 603 0 
L 603 4863 
z
" transform="scale(0.015625)"/>
       <path id="DejaVuSans-73" d="M 2834 3397 
L 2834 2853 
Q 2591 2978 2328 3040 
Q 2066 3103 1784 3103 
Q 1356 3103 1142 2972 
Q 928 2841 928 2578 
Q 928 2378 1081 2264 
Q 1234 2150 1697 2047 
L 1894 2003 
Q 2506 1872 2764 1633 
Q 3022 1394 3022 966 
Q 3022 478 2636 193 
Q 2250 -91 1575 -91 
Q 1294 -91 989 -36 
Q 684 19 347 128 
L 347 722 
Q 666 556 975 473 
Q 1284 391 1588 391 
Q 1994 391 2212 530 
Q 2431 669 2431 922 
Q 2431 1156 2273 1281 
Q 2116 1406 1581 1522 
L 1381 1569 
Q 847 1681 609 1914 
Q 372 2147 372 2553 
Q 372 3047 722 3315 
Q 1072 3584 1716 3584 
Q 2034 3584 2315 3537 
Q 2597 3491 2834 3397 
z
" transform="scale(0.015625)"/>
       <path id="DejaVuSans-65" d="M 3597 1894 
L 3597 1613 
L 953 1613 
Q 991 1019 1311 708 
Q 1631 397 2203 397 
Q 2534 397 2845 478 
Q 3156 559 3463 722 
L 3463 178 
Q 3153 47 2828 -22 
Q 2503 -91 2169 -91 
Q 1331 -91 842 396 
Q 353 884 353 1716 
Q 353 2575 817 3079 
Q 1281 3584 2069 3584 
Q 2775 3584 3186 3129 
Q 3597 2675 3597 1894 
z
M 3022 2063 
Q 3016 2534 2758 2815 
Q 2500 3097 2075 3097 
Q 1594 3097 1305 2825 
Q 1016 2553 972 2059 
L 3022 2063 
z
" transform="scale(0.015625)"/>
       <path id="DejaVuSans-20" transform="scale(0.015625)"/>
       <path id="DejaVuSans-50" d="M 1259 4147 
L 1259 2394 
L 2053 2394 
Q 2494 2394 2734 2622 
Q 2975 2850 2975 3272 
Q 2975 3691 2734 3919 
Q 2494 4147 2053 4147 
L 1259 4147 
z
M 628 4666 
L 2053 4666 
Q 2838 4666 3239 4311 
Q 3641 3956 3641 3272 
Q 3641 2581 3239 2228 
Q 2838 1875 2053 1875 
L 1259 1875 
L 1259 0 
L 628 0 
L 628 4666 
z
" transform="scale(0.015625)"/>
       <path id="DejaVuSans-6f" d="M 1959 3097 
Q 1497 3097 1228 2736 
Q 959 2375 959 1747 
Q 959 1119 1226 758 
Q 1494 397 1959 397 
Q 2419 397 2687 759 
Q 2956 1122 2956 1747 
Q 2956 2369 2687 2733 
Q 2419 3097 1959 3097 
z
M 1959 3584 
Q 2709 3584 3137 3096 
Q 3566 2609 3566 1747 
Q 3566 888 3137 398 
Q 2709 -91 1959 -91 
Q 1206 -91 779 398 
Q 353 888 353 1747 
Q 353 2609 779 3096 
Q 1206 3584 1959 3584 
z
" transform="scale(0.015625)"/>
       <path id="DejaVuSans-69" d="M 603 3500 
L 1178 3500 
L 1178 0 
L 603 0 
L 603 3500 
z
M 603 4863 
L 1178 4863 
L 1178 4134 
L 603 4134 
L 603 4863 
z
" transform="scale(0.015625)"/>
       <path id="DejaVuSans-74" d="M 1172 4494 
L 1172 3500 
L 2356 3500 
L 2356 3053 
L 1172 3053 
L 1172 1153 
Q 1172 725 1289 603 
Q 1406 481 1766 481 
L 2356 481 
L 2356 0 
L 1766 0 
Q 1100 0 847 248 
Q 594 497 594 1153 
L 594 3053 
L 172 3053 
L 172 3500 
L 594 3500 
L 594 4494 
L 1172 4494 
z
" transform="scale(0.015625)"/>
       <path id="DejaVuSans-76" d="M 191 3500 
L 800 3500 
L 1894 563 
L 2988 3500 
L 3597 3500 
L 2284 0 
L 1503 0 
L 191 3500 
z
" transform="scale(0.015625)"/>
       <path id="DejaVuSans-52" d="M 2841 2188 
Q 3044 2119 3236 1894 
Q 3428 1669 3622 1275 
L 4263 0 
L 3584 0 
L 2988 1197 
Q 2756 1666 2539 1819 
Q 2322 1972 1947 1972 
L 1259 1972 
L 1259 0 
L 628 0 
L 628 4666 
L 2053 4666 
Q 2853 4666 3247 4331 
Q 3641 3997 3641 3322 
Q 3641 2881 3436 2590 
Q 3231 2300 2841 2188 
z
M 1259 4147 
L 1259 2491 
L 2053 2491 
Q 2509 2491 2742 2702 
Q 2975 2913 2975 3322 
Q 2975 3731 2742 3939 
Q 2509 4147 2053 4147 
L 1259 4147 
z
" transform="scale(0.015625)"/>
      </defs>
      <use xlink:href="#DejaVuSans-46"/>
      <use xlink:href="#DejaVuSans-61" x="48.394531"/>
      <use xlink:href="#DejaVuSans-6c" x="109.673828"/>
      <use xlink:href="#DejaVuSans-73" x="137.457031"/>
      <use xlink:href="#DejaVuSans-65" x="189.556641"/>
      <use xlink:href="#DejaVuSans-20" x="251.080078"/>
      <use xlink:href="#DejaVuSans-50" x="282.867188"/>
      <use xlink:href="#DejaVuSans-6f" x="339.544922"/>
      <use xlink:href="#DejaVuSans-73" x="400.726562"/>
      <use xlink:href="#DejaVuSans-69" x="452.826172"/>
      <use xlink:href="#DejaVuSans-74" x="480.609375"/>
      <use xlink:href="#DejaVuSans-69" x="519.818359"/>
      <use xlink:href="#DejaVuSans-76" x="547.601562"/>
      <use xlink:href="#DejaVuSans-65" x="606.78125"/>
      <use xlink:href="#DejaVuSans-20" x="668.304688"/>
      <use xlink:href="#DejaVuSans-52" x="700.091797"/>
      <use xlink:href="#DejaVuSans-61" x="767.324219"/>
      <use xlink:href="#DejaVuSans-74" x="828.603516"/>
      <use xlink:href="#DejaVuSans-65" x="867.8125"/>
     </g>
    </g>
   </g>
   <g id="matplotlib.axis_2">
    <g id="ytick_1">
     <g id="line2d_7">
      <defs>
       <path id="mc4754f2cc5" d="M 0 0 
L -3.5 0 
" style="stroke: #000000; stroke-width: 0.8"/>
      </defs>
      <g>
       <use xlink:href="#mc4754f2cc5" x="90" y="504" style="stroke: #000000; stroke-width: 0.8"/>
      </g>
     </g>
     <g id="text_8">
      <!-- 0.75 -->
      <g transform="translate(38.46875 511.598437)scale(0.2 -0.2)">
       <defs>
        <path id="DejaVuSans-37" d="M 525 4666 
L 3525 4666 
L 3525 4397 
L 1831 0 
L 1172 0 
L 2766 4134 
L 525 4134 
L 525 4666 
z
" transform="scale(0.015625)"/>
        <path id="DejaVuSans-35" d="M 691 4666 
L 3169 4666 
L 3169 4134 
L 1269 4134 
L 1269 2991 
Q 1406 3038 1543 3061 
Q 1681 3084 1819 3084 
Q 2600 3084 3056 2656 
Q 3513 2228 3513 1497 
Q 3513 744 3044 326 
Q 2575 -91 1722 -91 
Q 1428 -91 1123 -41 
Q 819 9 494 109 
L 494 744 
Q 775 591 1075 516 
Q 1375 441 1709 441 
Q 2250 441 2565 725 
Q 2881 1009 2881 1497 
Q 2881 1984 2565 2268 
Q 2250 2553 1709 2553 
Q 1456 2553 1204 2497 
Q 953 2441 691 2322 
L 691 4666 
z
" transform="scale(0.015625)"/>
       </defs>
       <use xlink:href="#DejaVuSans-30"/>
       <use xlink:href="#DejaVuSans-2e" x="63.623047"/>
       <use xlink:href="#DejaVuSans-37" x="95.410156"/>
       <use xlink:href="#DejaVuSans-35" x="159.033203"/>
      </g>
     </g>
    </g>
    <g id="ytick_2">
     <g id="line2d_8">
      <g>
       <use xlink:href="#mc4754f2cc5" x="90" y="420.046332" style="stroke: #000000; stroke-width: 0.8"/>
      </g>
     </g>
     <g id="text_9">
      <!-- 0.80 -->
      <g transform="translate(38.46875 427.64477)scale(0.2 -0.2)">
       <use xlink:href="#DejaVuSans-30"/>
       <use xlink:href="#DejaVuSans-2e" x="63.623047"/>
       <use xlink:href="#DejaVuSans-38" x="95.410156"/>
       <use xlink:href="#DejaVuSans-30" x="159.033203"/>
      </g>
     </g>
    </g>
    <g id="ytick_3">
     <g id="line2d_9">
      <g>
       <use xlink:href="#mc4754f2cc5" x="90" y="336.092664" style="stroke: #000000; stroke-width: 0.8"/>
      </g>
     </g>
     <g id="text_10">
      <!-- 0.85 -->
      <g transform="translate(38.46875 343.691102)scale(0.2 -0.2)">
       <use xlink:href="#DejaVuSans-30"/>
       <use xlink:href="#DejaVuSans-2e" x="63.623047"/>
       <use xlink:href="#DejaVuSans-38" x="95.410156"/>
       <use xlink:href="#DejaVuSans-35" x="159.033203"/>
      </g>
     </g>
    </g>
    <g id="ytick_4">
     <g id="line2d_10">
      <g>
       <use xlink:href="#mc4754f2cc5" x="90" y="252.138996" style="stroke: #000000; stroke-width: 0.8"/>
      </g>
     </g>
     <g id="text_11">
      <!-- 0.90 -->
      <g transform="translate(38.46875 259.737434)scale(0.2 -0.2)">
       <defs>
        <path id="DejaVuSans-39" d="M 703 97 
L 703 672 
Q 941 559 1184 500 
Q 1428 441 1663 441 
Q 2288 441 2617 861 
Q 2947 1281 2994 2138 
Q 2813 1869 2534 1725 
Q 2256 1581 1919 1581 
Q 1219 1581 811 2004 
Q 403 2428 403 3163 
Q 403 3881 828 4315 
Q 1253 4750 1959 4750 
Q 2769 4750 3195 4129 
Q 3622 3509 3622 2328 
Q 3622 1225 3098 567 
Q 2575 -91 1691 -91 
Q 1453 -91 1209 -44 
Q 966 3 703 97 
z
M 1959 2075 
Q 2384 2075 2632 2365 
Q 2881 2656 2881 3163 
Q 2881 3666 2632 3958 
Q 2384 4250 1959 4250 
Q 1534 4250 1286 3958 
Q 1038 3666 1038 3163 
Q 1038 2656 1286 2365 
Q 1534 2075 1959 2075 
z
" transform="scale(0.015625)"/>
       </defs>
       <use xlink:href="#DejaVuSans-30"/>
       <use xlink:href="#DejaVuSans-2e" x="63.623047"/>
       <use xlink:href="#DejaVuSans-39" x="95.410156"/>
       <use xlink:href="#DejaVuSans-30" x="159.033203"/>
      </g>
     </g>
    </g>
    <g id="ytick_5">
     <g id="line2d_11">
      <g>
       <use xlink:href="#mc4754f2cc5" x="90" y="168.185328" style="stroke: #000000; stroke-width: 0.8"/>
      </g>
     </g>
     <g id="text_12">
      <!-- 0.95 -->
      <g transform="translate(38.46875 175.783766)scale(0.2 -0.2)">
       <use xlink:href="#DejaVuSans-30"/>
       <use xlink:href="#DejaVuSans-2e" x="63.623047"/>
       <use xlink:href="#DejaVuSans-39" x="95.410156"/>
       <use xlink:href="#DejaVuSans-35" x="159.033203"/>
      </g>
     </g>
    </g>
    <g id="ytick_6">
     <g id="line2d_12">
      <g>
       <use xlink:href="#mc4754f2cc5" x="90" y="84.23166" style="stroke: #000000; stroke-width: 0.8"/>
      </g>
     </g>
     <g id="text_13">
      <!-- 1.00 -->
      <g transform="translate(38.46875 91.830098)scale(0.2 -0.2)">
       <use xlink:href="#DejaVuSans-31"/>
       <use xlink:href="#DejaVuSans-2e" x="63.623047"/>
       <use xlink:href="#DejaVuSans-30" x="95.410156"/>
       <use xlink:href="#DejaVuSans-30" x="159.033203"/>
      </g>
     </g>
    </g>
    <g id="text_14">
     <!-- True Positive Rate -->
     <g transform="translate(29.893437 384.525312)rotate(-90)scale(0.22 -0.22)">
      <defs>
       <path id="DejaVuSans-54" d="M -19 4666 
L 3928 4666 
L 3928 4134 
L 2272 4134 
L 2272 0 
L 1638 0 
L 1638 4134 
L -19 4134 
L -19 4666 
z
" transform="scale(0.015625)"/>
       <path id="DejaVuSans-72" d="M 2631 2963 
Q 2534 3019 2420 3045 
Q 2306 3072 2169 3072 
Q 1681 3072 1420 2755 
Q 1159 2438 1159 1844 
L 1159 0 
L 581 0 
L 581 3500 
L 1159 3500 
L 1159 2956 
Q 1341 3275 1631 3429 
Q 1922 3584 2338 3584 
Q 2397 3584 2469 3576 
Q 2541 3569 2628 3553 
L 2631 2963 
z
" transform="scale(0.015625)"/>
       <path id="DejaVuSans-75" d="M 544 1381 
L 544 3500 
L 1119 3500 
L 1119 1403 
Q 1119 906 1312 657 
Q 1506 409 1894 409 
Q 2359 409 2629 706 
Q 2900 1003 2900 1516 
L 2900 3500 
L 3475 3500 
L 3475 0 
L 2900 0 
L 2900 538 
Q 2691 219 2414 64 
Q 2138 -91 1772 -91 
Q 1169 -91 856 284 
Q 544 659 544 1381 
z
M 1991 3584 
L 1991 3584 
z
" transform="scale(0.015625)"/>
      </defs>
      <use xlink:href="#DejaVuSans-54"/>
      <use xlink:href="#DejaVuSans-72" x="46.333984"/>
      <use xlink:href="#DejaVuSans-75" x="87.447266"/>
      <use xlink:href="#DejaVuSans-65" x="150.826172"/>
      <use xlink:href="#DejaVuSans-20" x="212.349609"/>
      <use xlink:href="#DejaVuSans-50" x="244.136719"/>
      <use xlink:href="#DejaVuSans-6f" x="300.814453"/>
      <use xlink:href="#DejaVuSans-73" x="361.996094"/>
      <use xlink:href="#DejaVuSans-69" x="414.095703"/>
      <use xlink:href="#DejaVuSans-74" x="441.878906"/>
      <use xlink:href="#DejaVuSans-69" x="481.087891"/>
      <use xlink:href="#DejaVuSans-76" x="508.871094"/>
      <use xlink:href="#DejaVuSans-65" x="568.050781"/>
      <use xlink:href="#DejaVuSans-20" x="629.574219"/>
      <use xlink:href="#DejaVuSans-52" x="661.361328"/>
      <use xlink:href="#DejaVuSans-61" x="728.59375"/>
      <use xlink:href="#DejaVuSans-74" x="789.873047"/>
      <use xlink:href="#DejaVuSans-65" x="829.082031"/>
     </g>
    </g>
   </g>
   <g id="line2d_13">
    <path d="M 139.289226 577 
L 139.289226 576.893903 
L 139.446624 576.893903 
L 139.49909 574.659607 
L 139.604022 574.659607 
L 139.656488 572.425312 
L 139.813887 572.425312 
L 139.813887 570.191016 
L 139.971285 570.191016 
L 140.076217 566.839572 
L 140.128683 566.839572 
L 140.128683 564.605276 
L 140.705809 564.605276 
L 140.705809 563.488128 
L 140.863207 563.488128 
L 140.96814 557.902388 
L 141.178004 557.902388 
L 141.282936 554.550944 
L 141.335402 554.550944 
L 141.335402 553.433796 
L 141.912528 553.433796 
L 141.912528 552.316649 
L 142.174859 552.316649 
L 142.279791 550.082353 
L 142.384723 550.082353 
L 142.437189 545.613761 
L 143.434044 545.613761 
L 143.48651 542.262317 
L 143.591442 542.262317 
L 143.591442 541.145169 
L 143.906238 541.145169 
L 143.906238 537.793725 
L 144.378433 537.793725 
L 144.378433 536.676577 
L 144.588297 536.676577 
L 144.588297 535.559429 
L 144.955559 535.559429 
L 145.008025 532.207986 
L 145.112957 532.207986 
L 145.112957 529.97369 
L 146.00488 529.97369 
L 146.109812 526.622246 
L 146.162278 526.622246 
L 146.26721 523.270802 
L 146.319676 523.270802 
L 146.319676 522.153654 
L 146.686938 522.153654 
L 146.791871 517.685062 
L 146.896803 517.685062 
L 146.896803 515.450766 
L 147.316531 515.450766 
L 147.421463 513.216471 
L 147.631327 513.216471 
L 147.631327 512.099323 
L 147.893658 512.099323 
L 147.893658 507.630731 
L 148.680648 507.630731 
L 148.78558 504.279287 
L 149.257775 504.279287 
L 149.362707 502.044991 
L 149.415173 502.044991 
L 149.415173 500.927843 
L 149.625037 500.927843 
L 149.677503 498.693547 
L 149.782435 498.693547 
L 149.887367 496.459251 
L 150.412028 496.459251 
L 150.412028 495.342103 
L 150.621892 495.342103 
L 150.621892 493.107808 
L 150.831756 493.107808 
L 150.831756 489.756364 
L 150.989154 489.756364 
L 151.04162 487.522068 
L 151.356417 487.522068 
L 151.356417 485.287772 
L 151.513815 485.287772 
L 151.513815 484.170624 
L 151.723679 484.170624 
L 151.828611 481.936328 
L 151.933543 481.936328 
L 151.933543 480.81918 
L 152.353271 480.81918 
L 152.458203 478.584884 
L 152.825466 478.584884 
L 152.930398 472.999145 
L 153.245194 472.999145 
L 153.245194 471.881997 
L 153.507524 471.881997 
L 153.507524 469.647701 
L 154.032185 469.647701 
L 154.032185 468.530553 
L 154.189583 468.530553 
L 154.189583 467.413405 
L 154.346981 467.413405 
L 154.346981 466.296257 
L 154.819175 466.296257 
L 154.819175 465.179109 
L 155.973428 465.179109 
L 155.973428 464.061961 
L 156.235759 464.061961 
L 156.235759 462.944813 
L 156.498089 462.944813 
L 156.603021 460.710517 
L 156.707953 460.710517 
L 156.812885 458.476221 
L 156.917817 458.476221 
L 156.917817 457.359073 
L 157.28508 457.359073 
L 157.390012 454.00763 
L 157.54741 454.00763 
L 157.652342 449.539038 
L 158.334401 449.539038 
L 158.334401 447.304742 
L 158.491799 447.304742 
L 158.596731 443.953298 
L 159.54112 443.953298 
L 159.54112 442.83615 
L 159.80345 442.83615 
L 159.908382 440.601854 
L 159.960848 440.601854 
L 159.960848 439.484706 
L 160.170712 439.484706 
L 160.223178 437.25041 
L 160.485508 437.25041 
L 160.485508 436.133262 
L 160.957703 436.133262 
L 160.957703 435.016114 
L 161.377431 435.016114 
L 161.377431 433.898967 
L 161.692227 433.898967 
L 161.692227 431.664671 
L 162.05949 431.664671 
L 162.164422 427.196079 
L 162.426752 427.196079 
L 162.426752 424.961783 
L 162.58415 424.961783 
L 162.58415 423.844635 
L 162.741548 423.844635 
L 162.794014 420.493191 
L 163.161277 420.493191 
L 163.161277 419.376043 
L 164.053199 419.376043 
L 164.053199 418.258895 
L 164.210598 418.258895 
L 164.210598 417.141747 
L 164.892656 417.141747 
L 164.892656 414.907452 
L 165.364851 414.907452 
L 165.364851 412.673156 
L 165.627181 412.673156 
L 165.627181 411.556008 
L 166.151841 411.556008 
L 166.151841 410.43886 
L 166.414171 410.43886 
L 166.466638 408.204564 
L 166.624036 408.204564 
L 166.624036 407.087416 
L 167.463492 407.087416 
L 167.463492 405.970268 
L 168.093085 405.970268 
L 168.093085 404.85312 
L 168.355415 404.85312 
L 168.407881 402.618824 
L 168.82761 402.618824 
L 168.82761 401.501676 
L 169.35227 401.501676 
L 169.35227 400.384528 
L 169.509668 400.384528 
L 169.509668 399.26738 
L 169.771998 399.26738 
L 169.771998 398.150232 
L 170.506523 398.150232 
L 170.506523 397.033084 
L 171.555844 397.033084 
L 171.660776 393.681641 
L 171.713242 393.681641 
L 171.713242 390.330197 
L 172.500233 390.330197 
L 172.500233 389.213049 
L 172.710097 389.213049 
L 172.710097 388.095901 
L 173.392155 388.095901 
L 173.444622 385.861605 
L 173.60202 385.861605 
L 173.706952 381.393013 
L 173.86435 381.393013 
L 173.969282 375.807273 
L 174.12668 375.807273 
L 174.12668 374.690126 
L 174.336544 374.690126 
L 174.336544 373.572978 
L 174.913671 373.572978 
L 175.018603 371.338682 
L 175.123535 371.338682 
L 175.123535 370.221534 
L 175.543263 370.221534 
L 175.648195 367.987238 
L 175.910526 367.987238 
L 175.910526 366.87009 
L 176.277788 366.87009 
L 176.277788 365.752942 
L 178.271498 365.752942 
L 178.271498 364.635794 
L 178.586294 364.635794 
L 178.691226 361.28435 
L 179.058488 361.28435 
L 179.058488 360.167202 
L 179.373285 360.167202 
L 179.373285 359.050054 
L 179.530683 359.050054 
L 179.635615 354.581463 
L 179.793013 354.581463 
L 179.793013 353.464315 
L 180.842334 353.464315 
L 180.842334 352.347167 
L 181.786723 352.347167 
L 181.786723 350.112871 
L 182.468781 350.112871 
L 182.468781 348.995723 
L 182.783578 348.995723 
L 182.783578 347.878575 
L 182.940976 347.878575 
L 182.993442 345.644279 
L 183.255772 345.644279 
L 183.255772 344.527131 
L 183.465636 344.527131 
L 183.465636 341.175687 
L 184.042763 341.175687 
L 184.042763 340.058539 
L 185.092084 340.058539 
L 185.092084 338.941391 
L 185.774142 338.941391 
L 185.774142 337.824243 
L 186.980861 337.824243 
L 187.085793 335.589948 
L 187.767852 335.589948 
L 187.767852 334.4728 
L 188.135114 334.4728 
L 188.18758 332.238504 
L 188.292512 332.238504 
L 188.292512 331.121356 
L 188.817173 331.121356 
L 188.817173 330.004208 
L 188.974571 330.004208 
L 188.974571 328.88706 
L 189.236901 328.88706 
L 189.341833 326.652764 
L 189.394299 326.652764 
L 189.394299 325.535616 
L 189.604163 325.535616 
L 189.604163 324.418468 
L 189.761562 324.418468 
L 189.761562 323.30132 
L 190.810882 323.30132 
L 190.810882 322.184172 
L 191.702805 322.184172 
L 191.702805 319.949876 
L 192.122534 319.949876 
L 192.175 317.71558 
L 193.066922 317.71558 
L 193.066922 316.598432 
L 193.591583 316.598432 
L 193.591583 315.481285 
L 193.958845 315.481285 
L 193.958845 314.364137 
L 194.9557 314.364137 
L 194.9557 313.246989 
L 195.270496 313.246989 
L 195.270496 312.129841 
L 195.48036 312.129841 
L 195.532827 309.895545 
L 196.214885 309.895545 
L 196.319817 307.661249 
L 196.529681 307.661249 
L 196.634613 305.426953 
L 196.844478 305.426953 
L 196.844478 304.309805 
L 197.421604 304.309805 
L 197.421604 303.192657 
L 197.788866 303.192657 
L 197.788866 300.958361 
L 198.051197 300.958361 
L 198.051197 299.841213 
L 198.785721 299.841213 
L 198.785721 297.606917 
L 198.943119 297.606917 
L 198.943119 296.489769 
L 199.310382 296.489769 
L 199.310382 295.372622 
L 199.835042 295.372622 
L 199.939974 292.021178 
L 201.041761 292.021178 
L 201.041761 289.786882 
L 201.304092 289.786882 
L 201.356558 287.552586 
L 202.930539 287.552586 
L 202.930539 285.31829 
L 203.350267 285.31829 
L 203.350267 284.201142 
L 203.71753 284.201142 
L 203.71753 283.083994 
L 203.874928 283.083994 
L 203.874928 281.966846 
L 204.399588 281.966846 
L 204.399588 280.849698 
L 205.606307 280.849698 
L 205.606307 278.615402 
L 206.078502 278.615402 
L 206.078502 277.498254 
L 206.708094 277.498254 
L 206.708094 275.263959 
L 207.337687 275.263959 
L 207.337687 274.146811 
L 208.229609 274.146811 
L 208.229609 273.029663 
L 209.541261 273.029663 
L 209.541261 271.912515 
L 209.908523 271.912515 
L 209.960989 267.443923 
L 210.643048 267.443923 
L 210.695514 264.092479 
L 211.220174 264.092479 
L 211.27264 261.858183 
L 212.899087 261.858183 
L 212.899087 260.741035 
L 213.108952 260.741035 
L 213.161418 258.506739 
L 215.417458 258.506739 
L 215.417458 257.389591 
L 216.099516 257.389591 
L 216.099516 256.272444 
L 216.361846 256.272444 
L 216.361846 254.038148 
L 216.624177 254.038148 
L 216.624177 252.921 
L 216.886507 252.921 
L 216.886507 251.803852 
L 217.096371 251.803852 
L 217.096371 250.686704 
L 217.673498 250.686704 
L 217.673498 249.569556 
L 217.988294 249.569556 
L 217.988294 248.452408 
L 219.404877 248.452408 
L 219.509809 245.100964 
L 220.506664 245.100964 
L 220.55913 242.866668 
L 221.136257 242.866668 
L 221.136257 241.74952 
L 221.660917 241.74952 
L 221.660917 240.632372 
L 221.975713 240.632372 
L 222.028179 238.398076 
L 222.972568 238.398076 
L 222.972568 237.280928 
L 223.392297 237.280928 
L 223.392297 236.163781 
L 225.018744 236.163781 
L 225.123676 232.812337 
L 225.543404 232.812337 
L 225.543404 231.695189 
L 227.379716 231.695189 
L 227.379716 230.578041 
L 227.537114 230.578041 
L 227.537114 229.460893 
L 227.746978 229.460893 
L 227.85191 227.226597 
L 228.219173 227.226597 
L 228.219173 226.109449 
L 228.848765 226.109449 
L 228.953697 223.875153 
L 229.058629 223.875153 
L 229.058629 222.758005 
L 229.740688 222.758005 
L 229.740688 220.523709 
L 233.885506 220.523709 
L 233.885506 219.406561 
L 235.302089 219.406561 
L 235.302089 218.289413 
L 235.826749 218.289413 
L 235.826749 217.172266 
L 236.61374 217.172266 
L 236.61374 216.055118 
L 238.135255 216.055118 
L 238.135255 214.93797 
L 238.659916 214.93797 
L 238.659916 213.820822 
L 238.86978 213.820822 
L 238.86978 211.586526 
L 239.709237 211.586526 
L 239.709237 210.469378 
L 239.971567 210.469378 
L 240.076499 208.235082 
L 240.443761 208.235082 
L 240.443761 207.117934 
L 242.962131 207.117934 
L 242.962131 206.000786 
L 244.273782 206.000786 
L 244.273782 204.883638 
L 245.323103 204.883638 
L 245.323103 203.76649 
L 245.6379 203.76649 
L 245.6379 202.649342 
L 245.952696 202.649342 
L 245.952696 201.532194 
L 246.897085 201.532194 
L 246.897085 200.415046 
L 247.159415 200.415046 
L 247.159415 199.297898 
L 248.313668 199.297898 
L 248.313668 198.18075 
L 248.471066 198.18075 
L 248.471066 195.946455 
L 250.202446 195.946455 
L 250.202446 194.829307 
L 251.251766 194.829307 
L 251.251766 193.712159 
L 251.671495 193.712159 
L 251.671495 192.595011 
L 252.406019 192.595011 
L 252.406019 191.477863 
L 252.93068 191.477863 
L 252.93068 190.360715 
L 253.245476 190.360715 
L 253.245476 189.243567 
L 254.242331 189.243567 
L 254.242331 188.126419 
L 255.344118 188.126419 
L 255.344118 187.009271 
L 255.71138 187.009271 
L 255.71138 185.892123 
L 256.183575 185.892123 
L 256.183575 184.774975 
L 257.232896 184.774975 
L 257.232896 183.657827 
L 258.387149 183.657827 
L 258.387149 182.540679 
L 260.328392 182.540679 
L 260.328392 181.423531 
L 261.325247 181.423531 
L 261.325247 180.306383 
L 262.112238 180.306383 
L 262.112238 179.189235 
L 263.476355 179.189235 
L 263.476355 178.072087 
L 264.683074 178.072087 
L 264.73554 175.837792 
L 264.99787 175.837792 
L 264.99787 174.720644 
L 265.522531 174.720644 
L 265.522531 173.603496 
L 265.994725 173.603496 
L 266.047191 171.3692 
L 266.834182 171.3692 
L 266.834182 170.252052 
L 268.145833 170.252052 
L 268.145833 169.134904 
L 268.513095 169.134904 
L 268.513095 168.017756 
L 269.352552 168.017756 
L 269.352552 166.900608 
L 271.083932 166.900608 
L 271.083932 165.78346 
L 274.389292 165.78346 
L 274.389292 164.666312 
L 275.75341 164.666312 
L 275.75341 163.549164 
L 276.80273 163.549164 
L 276.80273 162.432016 
L 278.691508 162.432016 
L 278.691508 161.314868 
L 283.360986 161.314868 
L 283.465918 159.080572 
L 284.305375 159.080572 
L 284.305375 157.963425 
L 285.407162 157.963425 
L 285.407162 156.846277 
L 288.764989 156.846277 
L 288.764989 155.729129 
L 289.394581 155.729129 
L 289.394581 153.494833 
L 289.761844 153.494833 
L 289.761844 152.377685 
L 290.443902 152.377685 
L 290.443902 151.260537 
L 294.641186 151.260537 
L 294.641186 150.143389 
L 294.798584 150.143389 
L 294.798584 149.026241 
L 297.999013 149.026241 
L 297.999013 147.909093 
L 298.733537 147.909093 
L 298.733537 146.791945 
L 300.412451 146.791945 
L 300.412451 145.674797 
L 302.406161 145.674797 
L 302.406161 144.557649 
L 302.773423 144.557649 
L 302.773423 143.440501 
L 303.403015 143.440501 
L 303.403015 142.323353 
L 309.489077 142.323353 
L 309.489077 141.206205 
L 309.803873 141.206205 
L 309.803873 140.089057 
L 315.41774 140.089057 
L 315.41774 138.971909 
L 317.726246 138.971909 
L 317.726246 137.854762 
L 320.979141 137.854762 
L 320.979141 136.737614 
L 322.553122 136.737614 
L 322.553122 135.620466 
L 327.379998 135.620466 
L 327.379998 134.503318 
L 328.114523 134.503318 
L 328.114523 133.38617 
L 332.626603 133.38617 
L 332.626603 132.269022 
L 336.351692 132.269022 
L 336.351692 131.151874 
L 342.122957 131.151874 
L 342.122957 130.034726 
L 343.224744 130.034726 
L 343.224744 128.917578 
L 346.530105 128.917578 
L 346.530105 127.80043 
L 347.159697 127.80043 
L 347.159697 126.683282 
L 350.360126 126.683282 
L 350.360126 125.566134 
L 351.829175 125.566134 
L 351.829175 124.448986 
L 359.85648 124.448986 
L 359.908946 122.21469 
L 361.745258 122.21469 
L 361.745258 121.097542 
L 366.047473 121.097542 
L 366.047473 119.980394 
L 369.929961 119.980394 
L 369.929961 118.863246 
L 378.219596 118.863246 
L 378.219596 117.746099 
L 378.796722 117.746099 
L 378.796722 116.628951 
L 382.469345 116.628951 
L 382.574278 114.394655 
L 383.728531 114.394655 
L 383.728531 113.277507 
L 392.595292 113.277507 
L 392.595292 112.160359 
L 393.906943 112.160359 
L 393.906943 111.043211 
L 405.239609 111.043211 
L 405.239609 109.926063 
L 408.754834 109.926063 
L 408.754834 108.808915 
L 423.655191 108.808915 
L 423.655191 107.691767 
L 431.052903 107.691767 
L 431.052903 106.574619 
L 436.14211 106.574619 
L 436.14211 105.457471 
L 444.746541 105.457471 
L 444.746541 104.340323 
L 445.008871 104.340323 
L 445.008871 103.223175 
L 452.039321 103.223175 
L 452.039321 102.106027 
L 460.801151 102.106027 
L 460.801151 100.988879 
L 466.25762 100.988879 
L 466.25762 99.871731 
L 485.932386 99.871731 
L 485.932386 98.754583 
L 490.759263 98.754583 
L 490.759263 97.637436 
L 491.808584 97.637436 
L 491.808584 96.520288 
L 492.175846 96.520288 
L 492.175846 95.40314 
L 499.41616 95.40314 
L 499.41616 94.285992 
L 507.495931 94.285992 
L 507.495931 93.168844 
L 516.834887 93.168844 
L 516.834887 92.051696 
L 526.698504 92.051696 
L 526.698504 90.934548 
L 540.182277 90.934548 
L 540.182277 89.8174 
L 543.33024 89.8174 
L 543.33024 88.700252 
L 550.88535 88.700252 
L 550.88535 87.583104 
L 572.658759 87.583104 
L 572.658759 86.465956 
L 587.664048 86.465956 
L 587.664048 85.348808 
L 593.277915 85.348808 
L 593.277915 84.23166 
L 648 84.23166 
L 648 84.23166 
" clip-path="url(#p637b731b83)" style="fill: none; stroke: #1f77b4; stroke-width: 1.5; stroke-linecap: square"/>
   </g>
   <g id="line2d_14">
    <path d="M 142.594587 577 
L 142.594587 575.776755 
L 142.751985 575.776755 
L 142.751985 574.659607 
L 142.909383 574.659607 
L 142.909383 573.542459 
L 143.22418 573.542459 
L 143.22418 572.425312 
L 143.434044 572.425312 
L 143.48651 567.95672 
L 143.591442 567.95672 
L 143.591442 565.722424 
L 143.853772 565.722424 
L 143.906238 562.37098 
L 144.01117 562.37098 
L 144.01117 561.253832 
L 144.221034 561.253832 
L 144.2735 559.019536 
L 144.378433 559.019536 
L 144.378433 556.78524 
L 144.640763 556.78524 
L 144.640763 555.668092 
L 144.798161 555.668092 
L 144.903093 553.433796 
L 145.165423 553.433796 
L 145.165423 551.199501 
L 145.375287 551.199501 
L 145.375287 548.965205 
L 145.532685 548.965205 
L 145.532685 547.848057 
L 145.74255 547.848057 
L 145.74255 546.730909 
L 145.899948 546.730909 
L 145.899948 545.613761 
L 146.214744 545.613761 
L 146.319676 541.145169 
L 146.477074 541.145169 
L 146.477074 540.028021 
L 146.896803 540.028021 
L 147.001735 535.559429 
L 147.054201 535.559429 
L 147.106667 533.325134 
L 147.264065 533.325134 
L 147.368997 528.856542 
L 147.421463 528.856542 
L 147.421463 527.739394 
L 147.893658 527.739394 
L 147.946124 524.38795 
L 148.103522 524.38795 
L 148.103522 522.153654 
L 148.313386 522.153654 
L 148.313386 521.036506 
L 148.680648 521.036506 
L 148.78558 518.80221 
L 149.152843 518.80221 
L 149.152843 517.685062 
L 149.572571 517.685062 
L 149.677503 514.333618 
L 149.834901 514.333618 
L 149.834901 512.099323 
L 149.992299 512.099323 
L 149.992299 510.982175 
L 150.149697 510.982175 
L 150.202164 508.747879 
L 150.464494 508.747879 
L 150.464494 507.630731 
L 150.77929 507.630731 
L 150.831756 505.396435 
L 151.04162 505.396435 
L 151.146552 500.927843 
L 151.30395 500.927843 
L 151.356417 498.693547 
L 151.461349 498.693547 
L 151.513815 496.459251 
L 151.828611 496.459251 
L 151.881077 493.107808 
L 152.090941 493.107808 
L 152.090941 491.99066 
L 152.300805 491.99066 
L 152.300805 490.873512 
L 152.563136 490.873512 
L 152.563136 489.756364 
L 152.825466 489.756364 
L 152.930398 487.522068 
L 152.982864 487.522068 
L 152.982864 485.287772 
L 153.192728 485.287772 
L 153.192728 484.170624 
L 153.664922 484.170624 
L 153.664922 483.053476 
L 153.822321 483.053476 
L 153.822321 481.936328 
L 154.137117 481.936328 
L 154.189583 478.584884 
L 155.081506 478.584884 
L 155.081506 477.467736 
L 155.396302 477.467736 
L 155.396302 476.350588 
L 155.606166 476.350588 
L 155.606166 475.23344 
L 156.130827 475.23344 
L 156.235759 472.999145 
L 156.340691 472.999145 
L 156.445623 470.764849 
L 156.550555 470.764849 
L 156.603021 467.413405 
L 156.812885 467.413405 
L 156.865351 465.179109 
L 157.075215 465.179109 
L 157.180148 462.944813 
L 157.390012 462.944813 
L 157.390012 461.827665 
L 157.599876 461.827665 
L 157.599876 460.710517 
L 157.914672 460.710517 
L 157.914672 459.593369 
L 158.334401 459.593369 
L 158.386867 457.359073 
L 158.596731 457.359073 
L 158.596731 456.241925 
L 158.963993 456.241925 
L 158.963993 455.124777 
L 159.226323 455.124777 
L 159.226323 454.00763 
L 159.436187 454.00763 
L 159.436187 451.773334 
L 159.750984 451.773334 
L 159.80345 449.539038 
L 160.118246 449.539038 
L 160.118246 447.304742 
L 160.380576 447.304742 
L 160.485508 445.070446 
L 160.747839 445.070446 
L 160.747839 443.953298 
L 160.957703 443.953298 
L 160.957703 442.83615 
L 161.220033 442.83615 
L 161.220033 441.719002 
L 161.902092 441.719002 
L 161.954558 439.484706 
L 162.164422 439.484706 
L 162.216888 437.25041 
L 162.84648 437.25041 
L 162.84648 436.133262 
L 163.056345 436.133262 
L 163.056345 435.016114 
L 163.371141 435.016114 
L 163.371141 433.898967 
L 163.528539 433.898967 
L 163.528539 432.781819 
L 164.053199 432.781819 
L 164.053199 431.664671 
L 164.263064 431.664671 
L 164.31553 429.430375 
L 164.630326 429.430375 
L 164.630326 428.313227 
L 165.417317 428.313227 
L 165.417317 427.196079 
L 165.941977 427.196079 
L 166.046909 424.961783 
L 166.728968 424.961783 
L 166.8339 422.727487 
L 166.938832 422.727487 
L 166.938832 421.610339 
L 167.725823 421.610339 
L 167.725823 419.376043 
L 167.988153 419.376043 
L 167.988153 418.258895 
L 168.198017 418.258895 
L 168.250483 413.790304 
L 168.355415 413.790304 
L 168.355415 412.673156 
L 169.142406 412.673156 
L 169.142406 411.556008 
L 169.299804 411.556008 
L 169.299804 409.321712 
L 170.139261 409.321712 
L 170.139261 408.204564 
L 171.136116 408.204564 
L 171.136116 405.970268 
L 171.293514 405.970268 
L 171.293514 404.85312 
L 172.447767 404.85312 
L 172.500233 402.618824 
L 172.867495 402.618824 
L 172.972427 399.26738 
L 173.287223 399.26738 
L 173.287223 398.150232 
L 173.60202 398.150232 
L 173.60202 397.033084 
L 173.916816 397.033084 
L 173.916816 395.915936 
L 174.231612 395.915936 
L 174.231612 394.798789 
L 174.441476 394.798789 
L 174.493942 392.564493 
L 174.756273 392.564493 
L 174.808739 390.330197 
L 175.018603 390.330197 
L 175.018603 389.213049 
L 175.962992 389.213049 
L 175.962992 388.095901 
L 176.172856 388.095901 
L 176.172856 386.978753 
L 176.749982 386.978753 
L 176.749982 384.744457 
L 177.641905 384.744457 
L 177.694371 382.510161 
L 177.799303 382.510161 
L 177.799303 381.393013 
L 178.219032 381.393013 
L 178.323964 379.158717 
L 178.63876 379.158717 
L 178.743692 376.924421 
L 178.90109 376.924421 
L 178.953556 374.690126 
L 179.058488 374.690126 
L 179.058488 373.572978 
L 179.215886 373.572978 
L 179.215886 371.338682 
L 179.635615 371.338682 
L 179.635615 369.104386 
L 180.737402 369.104386 
L 180.737402 367.987238 
L 180.947266 367.987238 
L 180.947266 365.752942 
L 181.104664 365.752942 
L 181.104664 364.635794 
L 181.839189 364.635794 
L 181.891655 362.401498 
L 182.101519 362.401498 
L 182.101519 361.28435 
L 182.363849 361.28435 
L 182.363849 360.167202 
L 182.626179 360.167202 
L 182.626179 359.050054 
L 183.41317 359.050054 
L 183.41317 357.932906 
L 183.832898 357.932906 
L 183.832898 356.815758 
L 184.777287 356.815758 
L 184.829753 353.464315 
L 185.039618 353.464315 
L 185.092084 350.112871 
L 185.616744 350.112871 
L 185.616744 348.995723 
L 185.93154 348.995723 
L 185.93154 347.878575 
L 186.403735 347.878575 
L 186.403735 346.761427 
L 186.770997 346.761427 
L 186.770997 345.644279 
L 187.295657 345.644279 
L 187.295657 344.527131 
L 187.66292 344.527131 
L 187.715386 341.175687 
L 188.082648 341.175687 
L 188.082648 340.058539 
L 188.292512 340.058539 
L 188.397444 337.824243 
L 188.44991 337.824243 
L 188.44991 336.707095 
L 188.659775 336.707095 
L 188.659775 335.589948 
L 188.922105 335.589948 
L 188.922105 334.4728 
L 189.236901 334.4728 
L 189.236901 333.355652 
L 190.076358 333.355652 
L 190.076358 332.238504 
L 190.548552 332.238504 
L 190.548552 331.121356 
L 190.968281 331.121356 
L 190.968281 330.004208 
L 191.125679 330.004208 
L 191.125679 328.88706 
L 191.807737 328.88706 
L 191.912669 326.652764 
L 192.752126 326.652764 
L 192.752126 325.535616 
L 193.276787 325.535616 
L 193.276787 324.418468 
L 193.801447 324.418468 
L 193.906379 322.184172 
L 194.273641 322.184172 
L 194.326107 319.949876 
L 194.588438 319.949876 
L 194.69337 317.71558 
L 195.637759 317.71558 
L 195.637759 316.598432 
L 196.057487 316.598432 
L 196.057487 315.481285 
L 196.529681 315.481285 
L 196.529681 314.364137 
L 196.739546 314.364137 
L 196.844478 311.012693 
L 197.421604 311.012693 
L 197.526536 308.778397 
L 199.20545 308.778397 
L 199.20545 307.661249 
L 199.415314 307.661249 
L 199.415314 306.544101 
L 199.572712 306.544101 
L 199.572712 304.309805 
L 199.939974 304.309805 
L 199.939974 303.192657 
L 200.359703 303.192657 
L 200.359703 302.075509 
L 200.569567 302.075509 
L 200.569567 300.958361 
L 201.304092 300.958361 
L 201.304092 299.841213 
L 201.513956 299.841213 
L 201.513956 298.724065 
L 202.930539 298.724065 
L 202.930539 297.606917 
L 203.140403 297.606917 
L 203.140403 296.489769 
L 203.402733 296.489769 
L 203.402733 295.372622 
L 203.612597 295.372622 
L 203.612597 293.138326 
L 204.137258 293.138326 
L 204.137258 292.021178 
L 204.347122 292.021178 
L 204.347122 290.90403 
L 205.553841 290.90403 
L 205.553841 288.669734 
L 206.393298 288.669734 
L 206.445764 286.435438 
L 206.813026 286.435438 
L 206.813026 285.31829 
L 207.285221 285.31829 
L 207.285221 284.201142 
L 207.442619 284.201142 
L 207.442619 283.083994 
L 208.124677 283.083994 
L 208.177143 280.849698 
L 209.0166 280.849698 
L 209.0166 279.73255 
L 209.541261 279.73255 
L 209.646193 274.146811 
L 209.856057 274.146811 
L 209.856057 273.029663 
L 210.118387 273.029663 
L 210.118387 271.912515 
L 211.430038 271.912515 
L 211.430038 270.795367 
L 212.741689 270.795367 
L 212.741689 269.678219 
L 213.581146 269.678219 
L 213.581146 268.561071 
L 214.210739 268.561071 
L 214.210739 267.443923 
L 214.368137 267.443923 
L 214.368137 266.326775 
L 214.840331 266.326775 
L 214.840331 265.209627 
L 215.732254 265.209627 
L 215.732254 264.092479 
L 217.253769 264.092479 
L 217.253769 262.975331 
L 218.198158 262.975331 
L 218.250624 260.741035 
L 218.827751 260.741035 
L 218.827751 259.623887 
L 219.247479 259.623887 
L 219.352411 256.272444 
L 219.614741 256.272444 
L 219.614741 255.155296 
L 219.824605 255.155296 
L 219.824605 254.038148 
L 220.716528 254.038148 
L 220.716528 251.803852 
L 221.451053 251.803852 
L 221.451053 249.569556 
L 221.870781 249.569556 
L 221.870781 248.452408 
L 222.238044 248.452408 
L 222.238044 247.33526 
L 223.287364 247.33526 
L 223.287364 246.218112 
L 223.969423 246.218112 
L 224.074355 243.983816 
L 225.700803 243.983816 
L 225.700803 242.866668 
L 225.963133 242.866668 
L 225.963133 241.74952 
L 226.225463 241.74952 
L 226.225463 240.632372 
L 227.58958 240.632372 
L 227.58958 239.515224 
L 227.904376 239.515224 
L 227.904376 238.398076 
L 228.429037 238.398076 
L 228.429037 237.280928 
L 228.638901 237.280928 
L 228.691367 235.046633 
L 229.84562 235.046633 
L 229.950552 232.812337 
L 231.157271 232.812337 
L 231.157271 231.695189 
L 232.468922 231.695189 
L 232.468922 230.578041 
L 234.777428 230.578041 
L 234.777428 229.460893 
L 235.511953 229.460893 
L 235.511953 228.343745 
L 235.721817 228.343745 
L 235.721817 227.226597 
L 236.771138 227.226597 
L 236.771138 226.109449 
L 239.919101 226.109449 
L 239.919101 224.992301 
L 240.758557 224.992301 
L 240.811024 222.758005 
L 241.860344 222.758005 
L 241.860344 221.640857 
L 242.542403 221.640857 
L 242.542403 220.523709 
L 242.699801 220.523709 
L 242.699801 219.406561 
L 243.749122 219.406561 
L 243.749122 218.289413 
L 244.221316 218.289413 
L 244.221316 217.172266 
L 244.378715 217.172266 
L 244.378715 216.055118 
L 244.850909 216.055118 
L 244.850909 214.93797 
L 245.532968 214.93797 
L 245.532968 213.820822 
L 247.106949 213.820822 
L 247.106949 212.703674 
L 247.474211 212.703674 
L 247.474211 211.586526 
L 248.208736 211.586526 
L 248.208736 210.469378 
L 248.471066 210.469378 
L 248.471066 209.35223 
L 249.520387 209.35223 
L 249.520387 208.235082 
L 250.307378 208.235082 
L 250.307378 207.117934 
L 251.409165 207.117934 
L 251.409165 206.000786 
L 251.723961 206.000786 
L 251.723961 203.76649 
L 251.933825 203.76649 
L 251.933825 202.649342 
L 252.091223 202.649342 
L 252.091223 201.532194 
L 252.301087 201.532194 
L 252.353553 199.297898 
L 254.294797 199.297898 
L 254.294797 198.18075 
L 257.285362 198.18075 
L 257.337828 195.946455 
L 259.016741 195.946455 
L 259.016741 194.829307 
L 259.646334 194.829307 
L 259.646334 193.712159 
L 260.853053 193.712159 
L 260.853053 192.595011 
L 261.325247 192.595011 
L 261.325247 191.477863 
L 261.797442 191.477863 
L 261.797442 190.360715 
L 262.269636 190.360715 
L 262.374568 188.126419 
L 263.161559 188.126419 
L 263.266491 184.774975 
L 263.843617 184.774975 
L 263.843617 183.657827 
L 264.47321 183.657827 
L 264.47321 182.540679 
L 265.574997 182.540679 
L 265.574997 181.423531 
L 265.889793 181.423531 
L 265.889793 180.306383 
L 266.519386 180.306383 
L 266.519386 179.189235 
L 267.935969 179.189235 
L 267.935969 178.072087 
L 268.198299 178.072087 
L 268.198299 176.95494 
L 272.080786 176.95494 
L 272.185719 174.720644 
L 275.491079 174.720644 
L 275.491079 173.603496 
L 275.700944 173.603496 
L 275.700944 172.486348 
L 276.435468 172.486348 
L 276.487934 170.252052 
L 276.592866 170.252052 
L 276.592866 169.134904 
L 276.907663 169.134904 
L 276.907663 168.017756 
L 279.635897 168.017756 
L 279.635897 166.900608 
L 281.31481 166.900608 
L 281.31481 165.78346 
L 282.993724 165.78346 
L 282.993724 164.666312 
L 285.092366 164.666312 
L 285.092366 163.549164 
L 286.299085 163.549164 
L 286.299085 162.432016 
L 288.607591 162.432016 
L 288.607591 161.314868 
L 291.125961 161.314868 
L 291.125961 160.19772 
L 293.382001 160.19772 
L 293.382001 159.080572 
L 296.634896 159.080572 
L 296.634896 157.963425 
L 298.051479 157.963425 
L 298.051479 156.846277 
L 305.973852 156.846277 
L 305.973852 155.729129 
L 307.810163 155.729129 
L 307.810163 154.611981 
L 315.207876 154.611981 
L 315.207876 153.494833 
L 321.661199 153.494833 
L 321.661199 152.377685 
L 322.028461 152.377685 
L 322.028461 151.260537 
L 323.864773 151.260537 
L 323.864773 150.143389 
L 324.809162 150.143389 
L 324.809162 149.026241 
L 328.586717 149.026241 
L 328.586717 147.909093 
L 330.108232 147.909093 
L 330.108232 146.791945 
L 332.469204 146.791945 
L 332.469204 145.674797 
L 334.567846 145.674797 
L 334.567846 144.557649 
L 335.984429 144.557649 
L 335.984429 143.440501 
L 338.135537 143.440501 
L 338.135537 142.323353 
L 338.345401 142.323353 
L 338.345401 141.206205 
L 340.444043 141.206205 
L 340.444043 140.089057 
L 341.388432 140.089057 
L 341.388432 138.971909 
L 346.687503 138.971909 
L 346.687503 137.854762 
L 347.78929 137.854762 
L 347.78929 136.737614 
L 350.097796 136.737614 
L 350.097796 135.620466 
L 352.983428 135.620466 
L 352.983428 134.503318 
L 355.396866 134.503318 
L 355.396866 133.38617 
L 359.59415 133.38617 
L 359.59415 132.269022 
L 361.587859 132.269022 
L 361.587859 131.151874 
L 363.476637 131.151874 
L 363.476637 130.034726 
L 364.158696 130.034726 
L 364.158696 128.917578 
L 365.837609 128.917578 
L 365.837609 127.80043 
L 369.982427 127.80043 
L 369.982427 126.683282 
L 370.244757 126.683282 
L 370.244757 125.566134 
L 374.232176 125.566134 
L 374.232176 124.448986 
L 378.42946 124.448986 
L 378.42946 123.331838 
L 379.950975 123.331838 
L 379.950975 121.097542 
L 383.413734 121.097542 
L 383.413734 119.980394 
L 385.19758 119.980394 
L 385.19758 118.863246 
L 390.811447 118.863246 
L 390.811447 117.746099 
L 393.802011 117.746099 
L 393.802011 116.628951 
L 396.110517 116.628951 
L 396.110517 115.511803 
L 396.792576 115.511803 
L 396.792576 114.394655 
L 401.51452 114.394655 
L 401.51452 113.277507 
L 401.829316 113.277507 
L 401.829316 112.160359 
L 405.659337 112.160359 
L 405.659337 111.043211 
L 405.921668 111.043211 
L 405.921668 109.926063 
L 407.495649 109.926063 
L 407.495649 108.808915 
L 410.80101 108.808915 
L 410.80101 107.691767 
L 413.476778 107.691767 
L 413.476778 106.574619 
L 424.756978 106.574619 
L 424.756978 105.457471 
L 430.318379 105.457471 
L 430.318379 104.340323 
L 436.509372 104.340323 
L 436.509372 103.223175 
L 444.799007 103.223175 
L 444.799007 102.106027 
L 456.289071 102.106027 
L 456.289071 100.988879 
L 458.545111 100.988879 
L 458.545111 99.871731 
L 463.896648 99.871731 
L 463.896648 98.754583 
L 475.491644 98.754583 
L 475.491644 97.637436 
L 482.83689 97.637436 
L 482.83689 96.520288 
L 497.684781 96.520288 
L 497.684781 95.40314 
L 506.656474 95.40314 
L 506.656474 94.285992 
L 509.384709 94.285992 
L 509.384709 93.168844 
L 514.106653 93.168844 
L 514.106653 92.051696 
L 521.97656 92.051696 
L 521.97656 90.934548 
L 522.658618 90.934548 
L 522.658618 89.8174 
L 528.220019 89.8174 
L 528.220019 88.700252 
L 531.053185 88.700252 
L 531.053185 87.583104 
L 588.451039 87.583104 
L 588.451039 86.465956 
L 591.389137 86.465956 
L 591.389137 85.348808 
L 594.379702 85.348808 
L 594.379702 84.23166 
L 648 84.23166 
L 648 84.23166 
" clip-path="url(#p637b731b83)" style="fill: none; stroke: #ff7f0e; stroke-width: 1.5; stroke-linecap: square"/>
   </g>
   <g id="line2d_15">
    <path d="M 144.325966 577 
L 144.325966 576.893903 
L 144.588297 576.893903 
L 144.693229 571.308164 
L 144.798161 571.308164 
L 144.798161 570.191016 
L 144.955559 570.191016 
L 145.008025 567.95672 
L 145.217889 567.95672 
L 145.322821 565.722424 
L 145.952414 565.722424 
L 146.057346 562.37098 
L 146.319676 562.37098 
L 146.372142 560.136684 
L 146.582006 560.136684 
L 146.582006 559.019536 
L 147.001735 559.019536 
L 147.106667 554.550944 
L 147.159133 554.550944 
L 147.264065 550.082353 
L 147.316531 550.082353 
L 147.316531 548.965205 
L 147.473929 548.965205 
L 147.473929 547.848057 
L 147.893658 547.848057 
L 147.893658 545.613761 
L 148.051056 545.613761 
L 148.051056 544.496613 
L 148.52325 544.496613 
L 148.575716 542.262317 
L 148.680648 542.262317 
L 148.78558 538.910873 
L 148.838046 538.910873 
L 148.838046 537.793725 
L 149.205309 537.793725 
L 149.257775 533.325134 
L 149.362707 533.325134 
L 149.362707 532.207986 
L 149.729969 532.207986 
L 149.729969 529.97369 
L 150.202164 529.97369 
L 150.25463 527.739394 
L 150.359562 527.739394 
L 150.359562 523.270802 
L 150.726824 523.270802 
L 150.726824 522.153654 
L 151.094086 522.153654 
L 151.094086 521.036506 
L 151.251484 521.036506 
L 151.251484 519.919358 
L 151.408883 519.919358 
L 151.408883 517.685062 
L 151.566281 517.685062 
L 151.566281 515.450766 
L 151.986009 515.450766 
L 151.986009 514.333618 
L 152.143407 514.333618 
L 152.143407 513.216471 
L 152.458203 513.216471 
L 152.458203 512.099323 
L 152.615602 512.099323 
L 152.615602 510.982175 
L 153.192728 510.982175 
L 153.192728 509.865027 
L 153.402592 509.865027 
L 153.507524 506.513583 
L 153.55999 506.513583 
L 153.664922 503.162139 
L 153.874787 503.162139 
L 153.927253 500.927843 
L 154.032185 500.927843 
L 154.032185 499.810695 
L 154.242049 499.810695 
L 154.242049 498.693547 
L 154.399447 498.693547 
L 154.399447 497.576399 
L 154.556845 497.576399 
L 154.661777 495.342103 
L 154.714243 495.342103 
L 154.819175 491.99066 
L 154.976574 491.99066 
L 154.976574 490.873512 
L 155.396302 490.873512 
L 155.501234 488.639216 
L 155.5537 488.639216 
L 155.5537 487.522068 
L 155.763564 487.522068 
L 155.763564 485.287772 
L 156.445623 485.287772 
L 156.498089 481.936328 
L 156.603021 481.936328 
L 156.603021 480.81918 
L 156.760419 480.81918 
L 156.760419 479.702032 
L 157.80974 479.702032 
L 157.80974 478.584884 
L 158.019604 478.584884 
L 158.124536 475.23344 
L 158.491799 475.23344 
L 158.491799 474.116293 
L 158.649197 474.116293 
L 158.754129 468.530553 
L 158.859061 468.530553 
L 158.911527 466.296257 
L 159.068925 466.296257 
L 159.068925 464.061961 
L 159.226323 464.061961 
L 159.331255 460.710517 
L 159.593586 460.710517 
L 159.593586 459.593369 
L 160.223178 459.593369 
L 160.32811 457.359073 
L 160.485508 457.359073 
L 160.485508 456.241925 
L 161.010169 456.241925 
L 161.010169 455.124777 
L 161.167567 455.124777 
L 161.167567 454.00763 
L 162.531684 454.00763 
L 162.531684 452.890482 
L 162.741548 452.890482 
L 162.794014 449.539038 
L 162.951412 449.539038 
L 162.951412 448.42189 
L 163.161277 448.42189 
L 163.266209 446.187594 
L 163.790869 446.187594 
L 163.843335 442.83615 
L 163.948267 442.83615 
L 163.948267 441.719002 
L 164.263064 441.719002 
L 164.263064 437.25041 
L 164.472928 437.25041 
L 164.57786 433.898967 
L 164.682792 433.898967 
L 164.682792 432.781819 
L 164.945122 432.781819 
L 164.997588 430.547523 
L 165.207452 430.547523 
L 165.259918 428.313227 
L 165.364851 428.313227 
L 165.469783 426.078931 
L 165.574715 426.078931 
L 165.627181 421.610339 
L 165.941977 421.610339 
L 165.941977 420.493191 
L 166.099375 420.493191 
L 166.151841 417.141747 
L 166.256773 417.141747 
L 166.361705 414.907452 
L 166.57157 414.907452 
L 166.57157 413.790304 
L 167.09623 413.790304 
L 167.201162 411.556008 
L 167.253628 411.556008 
L 167.35856 407.087416 
L 167.463492 407.087416 
L 167.463492 405.970268 
L 167.673357 405.970268 
L 167.673357 404.85312 
L 167.935687 404.85312 
L 167.988153 402.618824 
L 168.093085 402.618824 
L 168.198017 399.26738 
L 168.250483 399.26738 
L 168.250483 398.150232 
L 168.82761 398.150232 
L 168.82761 397.033084 
L 169.194872 397.033084 
L 169.247338 393.681641 
L 169.87693 393.681641 
L 169.87693 392.564493 
L 170.034329 392.564493 
L 170.034329 391.447345 
L 170.191727 391.447345 
L 170.191727 390.330197 
L 170.821319 390.330197 
L 170.821319 389.213049 
L 171.031183 389.213049 
L 171.031183 388.095901 
L 171.34598 388.095901 
L 171.34598 386.978753 
L 171.713242 386.978753 
L 171.713242 385.861605 
L 172.237902 385.861605 
L 172.290369 382.510161 
L 172.395301 382.510161 
L 172.395301 381.393013 
L 172.552699 381.393013 
L 172.552699 380.275865 
L 172.815029 380.275865 
L 172.815029 379.158717 
L 172.972427 379.158717 
L 172.972427 378.041569 
L 173.129825 378.041569 
L 173.182291 373.572978 
L 173.706952 373.572978 
L 173.811884 371.338682 
L 173.916816 371.338682 
L 173.916816 369.104386 
L 174.074214 369.104386 
L 174.179146 365.752942 
L 174.598875 365.752942 
L 174.598875 364.635794 
L 174.861205 364.635794 
L 174.861205 363.518646 
L 175.385865 363.518646 
L 175.385865 362.401498 
L 176.12039 362.401498 
L 176.12039 361.28435 
L 176.330254 361.28435 
L 176.330254 360.167202 
L 176.592584 360.167202 
L 176.64505 357.932906 
L 176.907381 357.932906 
L 176.907381 356.815758 
L 177.169711 356.815758 
L 177.222177 354.581463 
L 177.589439 354.581463 
L 177.641905 352.347167 
L 177.746837 352.347167 
L 177.851769 348.995723 
L 178.166566 348.995723 
L 178.219032 346.761427 
L 178.37643 346.761427 
L 178.37643 345.644279 
L 178.533828 345.644279 
L 178.63876 342.292835 
L 179.635615 342.292835 
L 179.635615 341.175687 
L 179.950411 341.175687 
L 179.950411 340.058539 
L 180.265207 340.058539 
L 180.265207 338.941391 
L 180.737402 338.941391 
L 180.737402 337.824243 
L 180.8948 337.824243 
L 180.8948 336.707095 
L 181.314528 336.707095 
L 181.314528 335.589948 
L 181.576859 335.589948 
L 181.681791 333.355652 
L 181.839189 333.355652 
L 181.839189 332.238504 
L 182.101519 332.238504 
L 182.153985 330.004208 
L 182.731112 330.004208 
L 182.836044 326.652764 
L 183.15084 326.652764 
L 183.255772 324.418468 
L 183.780432 324.418468 
L 183.780432 323.30132 
L 185.197016 323.30132 
L 185.197016 322.184172 
L 185.66921 322.184172 
L 185.66921 321.067024 
L 185.879074 321.067024 
L 185.879074 319.949876 
L 186.246337 319.949876 
L 186.246337 318.832728 
L 186.508667 318.832728 
L 186.508667 317.71558 
L 187.295657 317.71558 
L 187.295657 316.598432 
L 187.92525 316.598432 
L 187.92525 315.481285 
L 188.18758 315.481285 
L 188.18758 314.364137 
L 188.607309 314.364137 
L 188.712241 312.129841 
L 189.446765 312.129841 
L 189.446765 311.012693 
L 190.601018 311.012693 
L 190.601018 309.895545 
L 192.279932 309.895545 
L 192.279932 308.778397 
L 192.594728 308.778397 
L 192.647194 306.544101 
L 192.804592 306.544101 
L 192.804592 304.309805 
L 193.381719 304.309805 
L 193.381719 303.192657 
L 193.644049 303.192657 
L 193.696515 300.958361 
L 194.588438 300.958361 
L 194.588438 299.841213 
L 195.270496 299.841213 
L 195.270496 298.724065 
L 197.683934 298.724065 
L 197.683934 297.606917 
L 197.998731 297.606917 
L 197.998731 296.489769 
L 198.261061 296.489769 
L 198.365993 294.255474 
L 198.470925 294.255474 
L 198.523391 292.021178 
L 198.785721 292.021178 
L 198.785721 289.786882 
L 198.943119 289.786882 
L 198.943119 288.669734 
L 199.100518 288.669734 
L 199.100518 287.552586 
L 200.202305 287.552586 
L 200.202305 286.435438 
L 200.936829 286.435438 
L 200.936829 285.31829 
L 201.251625 285.31829 
L 201.251625 284.201142 
L 201.618888 284.201142 
L 201.618888 283.083994 
L 202.668209 283.083994 
L 202.668209 281.966846 
L 203.97986 281.966846 
L 203.97986 280.849698 
L 204.347122 280.849698 
L 204.347122 279.73255 
L 204.609452 279.73255 
L 204.609452 278.615402 
L 205.868637 278.615402 
L 205.97357 276.381107 
L 206.708094 276.381107 
L 206.708094 275.263959 
L 207.127823 275.263959 
L 207.127823 274.146811 
L 207.809881 274.146811 
L 207.809881 273.029663 
L 210.170853 273.029663 
L 210.275785 270.795367 
L 211.325106 270.795367 
L 211.325106 269.678219 
L 211.744834 269.678219 
L 211.744834 268.561071 
L 212.374427 268.561071 
L 212.374427 266.326775 
L 213.423748 266.326775 
L 213.423748 262.975331 
L 213.686078 262.975331 
L 213.686078 261.858183 
L 215.155127 261.858183 
L 215.155127 260.741035 
L 215.469924 260.741035 
L 215.469924 259.623887 
L 215.679788 259.623887 
L 215.679788 258.506739 
L 215.942118 258.506739 
L 215.942118 257.389591 
L 216.256914 257.389591 
L 216.256914 256.272444 
L 217.148837 256.272444 
L 217.201303 254.038148 
L 217.673498 254.038148 
L 217.673498 252.921 
L 217.883362 252.921 
L 217.883362 250.686704 
L 218.145692 250.686704 
L 218.145692 249.569556 
L 218.512954 249.569556 
L 218.512954 248.452408 
L 219.772139 248.452408 
L 219.772139 247.33526 
L 220.664062 247.33526 
L 220.664062 246.218112 
L 220.926392 246.218112 
L 220.978858 242.866668 
L 221.136257 242.866668 
L 221.188723 240.632372 
L 221.293655 240.632372 
L 221.293655 239.515224 
L 221.555985 239.515224 
L 221.555985 238.398076 
L 221.713383 238.398076 
L 221.713383 237.280928 
L 222.29051 237.280928 
L 222.342976 233.929485 
L 222.972568 233.929485 
L 222.972568 232.812337 
L 223.654627 232.812337 
L 223.654627 231.695189 
L 225.228608 231.695189 
L 225.228608 229.460893 
L 226.645191 229.460893 
L 226.645191 228.343745 
L 227.746978 228.343745 
L 227.746978 227.226597 
L 228.953697 227.226597 
L 228.953697 226.109449 
L 235.197157 226.109449 
L 235.197157 224.992301 
L 235.407021 224.992301 
L 235.407021 223.875153 
L 235.669351 223.875153 
L 235.669351 222.758005 
L 236.194012 222.758005 
L 236.194012 221.640857 
L 237.715527 221.640857 
L 237.715527 220.523709 
L 241.702946 220.523709 
L 241.702946 219.406561 
L 242.647335 219.406561 
L 242.647335 218.289413 
L 242.857199 218.289413 
L 242.857199 216.055118 
L 243.90652 216.055118 
L 243.958986 212.703674 
L 246.005162 212.703674 
L 246.005162 211.586526 
L 247.579143 211.586526 
L 247.579143 210.469378 
L 250.359844 210.469378 
L 250.359844 209.35223 
L 251.409165 209.35223 
L 251.409165 208.235082 
L 253.088078 208.235082 
L 253.088078 207.117934 
L 254.504661 207.117934 
L 254.504661 206.000786 
L 255.973711 206.000786 
L 255.973711 204.883638 
L 256.708235 204.883638 
L 256.708235 203.76649 
L 257.600158 203.76649 
L 257.600158 202.649342 
L 257.96742 202.649342 
L 257.96742 201.532194 
L 260.433324 201.532194 
L 260.433324 200.415046 
L 260.748121 200.415046 
L 260.748121 199.297898 
L 262.007306 199.297898 
L 262.007306 198.18075 
L 262.899229 198.18075 
L 262.899229 197.063603 
L 264.683074 197.063603 
L 264.683074 195.946455 
L 266.047191 195.946455 
L 266.047191 194.829307 
L 266.624318 194.829307 
L 266.624318 193.712159 
L 266.886648 193.712159 
L 266.886648 192.595011 
L 267.096512 192.595011 
L 267.096512 191.477863 
L 272.657913 191.477863 
L 272.657913 190.360715 
L 275.228749 190.360715 
L 275.228749 189.243567 
L 276.697798 189.243567 
L 276.697798 188.126419 
L 279.268635 188.126419 
L 279.268635 187.009271 
L 282.521529 187.009271 
L 282.626462 184.774975 
L 284.410307 184.774975 
L 284.515239 182.540679 
L 285.197298 182.540679 
L 285.197298 181.423531 
L 287.086075 181.423531 
L 287.086075 180.306383 
L 287.505804 180.306383 
L 287.505804 179.189235 
L 288.292794 179.189235 
L 288.292794 178.072087 
L 289.81431 178.072087 
L 289.81431 176.95494 
L 290.6013 176.95494 
L 290.6013 175.837792 
L 292.804874 175.837792 
L 292.909806 172.486348 
L 293.486933 172.486348 
L 293.486933 171.3692 
L 294.32639 171.3692 
L 294.32639 170.252052 
L 295.270778 170.252052 
L 295.270778 169.134904 
L 295.480643 169.134904 
L 295.480643 168.017756 
L 295.742973 168.017756 
L 295.742973 166.900608 
L 297.159556 166.900608 
L 297.159556 165.78346 
L 297.684216 165.78346 
L 297.684216 164.666312 
L 298.366275 164.666312 
L 298.366275 163.549164 
L 299.36313 163.549164 
L 299.36313 162.432016 
L 301.776568 162.432016 
L 301.776568 160.19772 
L 305.554123 160.19772 
L 305.554123 159.080572 
L 306.498512 159.080572 
L 306.498512 157.963425 
L 308.020027 157.963425 
L 308.020027 155.729129 
L 308.38729 155.729129 
L 308.38729 154.611981 
L 308.64962 154.611981 
L 308.64962 153.494833 
L 308.859484 153.494833 
L 308.859484 152.377685 
L 310.066203 152.377685 
L 310.066203 151.260537 
L 310.853194 151.260537 
L 310.853194 150.143389 
L 311.010592 150.143389 
L 311.010592 149.026241 
L 311.220456 149.026241 
L 311.220456 147.909093 
L 311.535252 147.909093 
L 311.535252 146.791945 
L 318.303372 146.791945 
L 318.408304 144.557649 
L 318.828033 144.557649 
L 318.828033 143.440501 
L 324.756696 143.440501 
L 324.756696 142.323353 
L 325.438754 142.323353 
L 325.438754 141.206205 
L 326.068347 141.206205 
L 326.068347 140.089057 
L 326.330677 140.089057 
L 326.330677 138.971909 
L 331.262485 138.971909 
L 331.262485 137.854762 
L 333.203729 137.854762 
L 333.203729 136.737614 
L 335.407303 136.737614 
L 335.407303 135.620466 
L 337.453479 135.620466 
L 337.453479 134.503318 
L 337.873207 134.503318 
L 337.873207 133.38617 
L 339.342256 133.38617 
L 339.447188 131.151874 
L 339.919383 131.151874 
L 339.919383 130.034726 
L 340.863772 130.034726 
L 340.863772 128.917578 
L 342.805015 128.917578 
L 342.805015 127.80043 
L 343.224744 127.80043 
L 343.224744 126.683282 
L 344.746259 126.683282 
L 344.746259 125.566134 
L 347.736824 125.566134 
L 347.736824 124.448986 
L 350.83232 124.448986 
L 350.83232 123.331838 
L 351.566845 123.331838 
L 351.566845 122.21469 
L 352.301369 122.21469 
L 352.301369 121.097542 
L 354.085215 121.097542 
L 354.085215 119.980394 
L 355.291934 119.980394 
L 355.291934 118.863246 
L 357.757838 118.863246 
L 357.757838 117.746099 
L 360.748403 117.746099 
L 360.748403 116.628951 
L 363.004443 116.628951 
L 363.004443 115.511803 
L 372.500797 115.511803 
L 372.500797 114.394655 
L 373.864914 114.394655 
L 373.864914 113.277507 
L 381.472491 113.277507 
L 381.472491 112.160359 
L 387.768416 112.160359 
L 387.768416 111.043211 
L 389.184999 111.043211 
L 389.184999 109.926063 
L 389.97199 109.926063 
L 389.97199 108.808915 
L 398.051761 108.808915 
L 398.051761 107.691767 
L 402.616307 107.691767 
L 402.616307 106.574619 
L 403.193433 106.574619 
L 403.193433 105.457471 
L 406.236464 105.457471 
L 406.236464 104.340323 
L 416.414877 104.340323 
L 416.414877 103.223175 
L 417.516664 103.223175 
L 417.516664 102.106027 
L 422.291074 102.106027 
L 422.291074 100.988879 
L 430.16098 100.988879 
L 430.16098 99.871731 
L 433.361409 99.871731 
L 433.361409 98.754583 
L 443.854618 98.754583 
L 443.854618 97.637436 
L 451.672059 97.637436 
L 451.672059 96.520288 
L 454.767556 96.520288 
L 454.767556 95.40314 
L 456.498935 95.40314 
L 456.498935 94.285992 
L 460.853617 94.285992 
L 460.853617 93.168844 
L 512.008011 93.168844 
L 512.008011 92.051696 
L 528.429883 92.051696 
L 528.429883 90.934548 
L 538.450898 90.934548 
L 538.450898 89.8174 
L 559.174986 89.8174 
L 559.174986 88.700252 
L 579.951539 88.700252 
L 579.951539 87.583104 
L 584.778416 87.583104 
L 584.778416 86.465956 
L 594.589566 86.465956 
L 594.589566 85.348808 
L 600.098501 85.348808 
L 600.098501 84.23166 
L 648 84.23166 
L 648 84.23166 
" clip-path="url(#p637b731b83)" style="fill: none; stroke: #2ca02c; stroke-width: 1.5; stroke-linecap: square"/>
   </g>
   <g id="line2d_16">
    <path d="M 492.038277 577 
L 648 84.23166 
" clip-path="url(#p637b731b83)" style="fill: none; stroke-dasharray: 5.55,2.4; stroke-dashoffset: 0; stroke: #000000; stroke-width: 1.5"/>
   </g>
   <g id="patch_3">
    <path d="M 90 504 
L 90 69.12 
" style="fill: none; stroke: #000000; stroke-width: 0.8; stroke-linejoin: miter; stroke-linecap: square"/>
   </g>
   <g id="patch_4">
    <path d="M 648 504 
L 648 69.12 
" style="fill: none; stroke: #000000; stroke-width: 0.8; stroke-linejoin: miter; stroke-linecap: square"/>
   </g>
   <g id="patch_5">
    <path d="M 90 504 
L 648 504 
" style="fill: none; stroke: #000000; stroke-width: 0.8; stroke-linejoin: miter; stroke-linecap: square"/>
   </g>
   <g id="patch_6">
    <path d="M 90 69.12 
L 648 69.12 
" style="fill: none; stroke: #000000; stroke-width: 0.8; stroke-linejoin: miter; stroke-linecap: square"/>
   </g>
   <g id="text_15">
    <!-- ROC Curve -->
    <g transform="translate(309.067187 63.12)scale(0.22 -0.22)">
     <defs>
      <path id="DejaVuSans-4f" d="M 2522 4238 
Q 1834 4238 1429 3725 
Q 1025 3213 1025 2328 
Q 1025 1447 1429 934 
Q 1834 422 2522 422 
Q 3209 422 3611 934 
Q 4013 1447 4013 2328 
Q 4013 3213 3611 3725 
Q 3209 4238 2522 4238 
z
M 2522 4750 
Q 3503 4750 4090 4092 
Q 4678 3434 4678 2328 
Q 4678 1225 4090 567 
Q 3503 -91 2522 -91 
Q 1538 -91 948 565 
Q 359 1222 359 2328 
Q 359 3434 948 4092 
Q 1538 4750 2522 4750 
z
" transform="scale(0.015625)"/>
      <path id="DejaVuSans-43" d="M 4122 4306 
L 4122 3641 
Q 3803 3938 3442 4084 
Q 3081 4231 2675 4231 
Q 1875 4231 1450 3742 
Q 1025 3253 1025 2328 
Q 1025 1406 1450 917 
Q 1875 428 2675 428 
Q 3081 428 3442 575 
Q 3803 722 4122 1019 
L 4122 359 
Q 3791 134 3420 21 
Q 3050 -91 2638 -91 
Q 1578 -91 968 557 
Q 359 1206 359 2328 
Q 359 3453 968 4101 
Q 1578 4750 2638 4750 
Q 3056 4750 3426 4639 
Q 3797 4528 4122 4306 
z
" transform="scale(0.015625)"/>
     </defs>
     <use xlink:href="#DejaVuSans-52"/>
     <use xlink:href="#DejaVuSans-4f" x="69.482422"/>
     <use xlink:href="#DejaVuSans-43" x="148.193359"/>
     <use xlink:href="#DejaVuSans-20" x="218.017578"/>
     <use xlink:href="#DejaVuSans-43" x="249.804688"/>
     <use xlink:href="#DejaVuSans-75" x="319.628906"/>
     <use xlink:href="#DejaVuSans-72" x="383.007812"/>
     <use xlink:href="#DejaVuSans-76" x="424.121094"/>
     <use xlink:href="#DejaVuSans-65" x="483.300781"/>
    </g>
   </g>
   <g id="legend_1">
    <g id="patch_7">
     <path d="M 390.505 496 
L 636.8 496 
Q 640 496 640 492.8 
L 640 423.5 
Q 640 420.3 636.8 420.3 
L 390.505 420.3 
Q 387.305 420.3 387.305 423.5 
L 387.305 492.8 
Q 387.305 496 390.505 496 
z
" style="fill: #ffffff; opacity: 0.8; stroke: #cccccc; stroke-linejoin: miter"/>
    </g>
    <g id="line2d_17">
     <path d="M 393.705 433.2575 
L 409.705 433.2575 
L 425.705 433.2575 
" style="fill: none; stroke: #1f77b4; stroke-width: 1.5; stroke-linecap: square"/>
    </g>
    <g id="text_16">
     <!-- MAO_XGB (AUC=0.939)  -->
     <g transform="translate(438.505 438.8575)scale(0.16 -0.16)">
      <defs>
       <path id="DejaVuSans-4d" d="M 628 4666 
L 1569 4666 
L 2759 1491 
L 3956 4666 
L 4897 4666 
L 4897 0 
L 4281 0 
L 4281 4097 
L 3078 897 
L 2444 897 
L 1241 4097 
L 1241 0 
L 628 0 
L 628 4666 
z
" transform="scale(0.015625)"/>
       <path id="DejaVuSans-41" d="M 2188 4044 
L 1331 1722 
L 3047 1722 
L 2188 4044 
z
M 1831 4666 
L 2547 4666 
L 4325 0 
L 3669 0 
L 3244 1197 
L 1141 1197 
L 716 0 
L 50 0 
L 1831 4666 
z
" transform="scale(0.015625)"/>
       <path id="DejaVuSans-5f" d="M 3263 -1063 
L 3263 -1509 
L -63 -1509 
L -63 -1063 
L 3263 -1063 
z
" transform="scale(0.015625)"/>
       <path id="DejaVuSans-58" d="M 403 4666 
L 1081 4666 
L 2241 2931 
L 3406 4666 
L 4084 4666 
L 2584 2425 
L 4184 0 
L 3506 0 
L 2194 1984 
L 872 0 
L 191 0 
L 1856 2491 
L 403 4666 
z
" transform="scale(0.015625)"/>
       <path id="DejaVuSans-47" d="M 3809 666 
L 3809 1919 
L 2778 1919 
L 2778 2438 
L 4434 2438 
L 4434 434 
Q 4069 175 3628 42 
Q 3188 -91 2688 -91 
Q 1594 -91 976 548 
Q 359 1188 359 2328 
Q 359 3472 976 4111 
Q 1594 4750 2688 4750 
Q 3144 4750 3555 4637 
Q 3966 4525 4313 4306 
L 4313 3634 
Q 3963 3931 3569 4081 
Q 3175 4231 2741 4231 
Q 1884 4231 1454 3753 
Q 1025 3275 1025 2328 
Q 1025 1384 1454 906 
Q 1884 428 2741 428 
Q 3075 428 3337 486 
Q 3600 544 3809 666 
z
" transform="scale(0.015625)"/>
       <path id="DejaVuSans-42" d="M 1259 2228 
L 1259 519 
L 2272 519 
Q 2781 519 3026 730 
Q 3272 941 3272 1375 
Q 3272 1813 3026 2020 
Q 2781 2228 2272 2228 
L 1259 2228 
z
M 1259 4147 
L 1259 2741 
L 2194 2741 
Q 2656 2741 2882 2914 
Q 3109 3088 3109 3444 
Q 3109 3797 2882 3972 
Q 2656 4147 2194 4147 
L 1259 4147 
z
M 628 4666 
L 2241 4666 
Q 2963 4666 3353 4366 
Q 3744 4066 3744 3513 
Q 3744 3084 3544 2831 
Q 3344 2578 2956 2516 
Q 3422 2416 3680 2098 
Q 3938 1781 3938 1306 
Q 3938 681 3513 340 
Q 3088 0 2303 0 
L 628 0 
L 628 4666 
z
" transform="scale(0.015625)"/>
       <path id="DejaVuSans-28" d="M 1984 4856 
Q 1566 4138 1362 3434 
Q 1159 2731 1159 2009 
Q 1159 1288 1364 580 
Q 1569 -128 1984 -844 
L 1484 -844 
Q 1016 -109 783 600 
Q 550 1309 550 2009 
Q 550 2706 781 3412 
Q 1013 4119 1484 4856 
L 1984 4856 
z
" transform="scale(0.015625)"/>
       <path id="DejaVuSans-55" d="M 556 4666 
L 1191 4666 
L 1191 1831 
Q 1191 1081 1462 751 
Q 1734 422 2344 422 
Q 2950 422 3222 751 
Q 3494 1081 3494 1831 
L 3494 4666 
L 4128 4666 
L 4128 1753 
Q 4128 841 3676 375 
Q 3225 -91 2344 -91 
Q 1459 -91 1007 375 
Q 556 841 556 1753 
L 556 4666 
z
" transform="scale(0.015625)"/>
       <path id="DejaVuSans-3d" d="M 678 2906 
L 4684 2906 
L 4684 2381 
L 678 2381 
L 678 2906 
z
M 678 1631 
L 4684 1631 
L 4684 1100 
L 678 1100 
L 678 1631 
z
" transform="scale(0.015625)"/>
       <path id="DejaVuSans-33" d="M 2597 2516 
Q 3050 2419 3304 2112 
Q 3559 1806 3559 1356 
Q 3559 666 3084 287 
Q 2609 -91 1734 -91 
Q 1441 -91 1130 -33 
Q 819 25 488 141 
L 488 750 
Q 750 597 1062 519 
Q 1375 441 1716 441 
Q 2309 441 2620 675 
Q 2931 909 2931 1356 
Q 2931 1769 2642 2001 
Q 2353 2234 1838 2234 
L 1294 2234 
L 1294 2753 
L 1863 2753 
Q 2328 2753 2575 2939 
Q 2822 3125 2822 3475 
Q 2822 3834 2567 4026 
Q 2313 4219 1838 4219 
Q 1578 4219 1281 4162 
Q 984 4106 628 3988 
L 628 4550 
Q 988 4650 1302 4700 
Q 1616 4750 1894 4750 
Q 2613 4750 3031 4423 
Q 3450 4097 3450 3541 
Q 3450 3153 3228 2886 
Q 3006 2619 2597 2516 
z
" transform="scale(0.015625)"/>
       <path id="DejaVuSans-29" d="M 513 4856 
L 1013 4856 
Q 1481 4119 1714 3412 
Q 1947 2706 1947 2009 
Q 1947 1309 1714 600 
Q 1481 -109 1013 -844 
L 513 -844 
Q 928 -128 1133 580 
Q 1338 1288 1338 2009 
Q 1338 2731 1133 3434 
Q 928 4138 513 4856 
z
" transform="scale(0.015625)"/>
      </defs>
      <use xlink:href="#DejaVuSans-4d"/>
      <use xlink:href="#DejaVuSans-41" x="86.279297"/>
      <use xlink:href="#DejaVuSans-4f" x="152.9375"/>
      <use xlink:href="#DejaVuSans-5f" x="231.648438"/>
      <use xlink:href="#DejaVuSans-58" x="281.648438"/>
      <use xlink:href="#DejaVuSans-47" x="350.154297"/>
      <use xlink:href="#DejaVuSans-42" x="427.644531"/>
      <use xlink:href="#DejaVuSans-20" x="496.248047"/>
      <use xlink:href="#DejaVuSans-28" x="528.035156"/>
      <use xlink:href="#DejaVuSans-41" x="567.048828"/>
      <use xlink:href="#DejaVuSans-55" x="635.457031"/>
      <use xlink:href="#DejaVuSans-43" x="708.650391"/>
      <use xlink:href="#DejaVuSans-3d" x="778.474609"/>
      <use xlink:href="#DejaVuSans-30" x="862.263672"/>
      <use xlink:href="#DejaVuSans-2e" x="925.886719"/>
      <use xlink:href="#DejaVuSans-39" x="957.673828"/>
      <use xlink:href="#DejaVuSans-33" x="1021.296875"/>
      <use xlink:href="#DejaVuSans-39" x="1084.919922"/>
      <use xlink:href="#DejaVuSans-29" x="1148.542969"/>
      <use xlink:href="#DejaVuSans-20" x="1187.556641"/>
     </g>
    </g>
    <g id="line2d_18">
     <path d="M 393.705 457.1875 
L 409.705 457.1875 
L 425.705 457.1875 
" style="fill: none; stroke: #ff7f0e; stroke-width: 1.5; stroke-linecap: square"/>
    </g>
    <g id="text_17">
     <!-- AO-XGB (AUC=0.936)  -->
     <g transform="translate(438.505 462.7875)scale(0.16 -0.16)">
      <defs>
       <path id="DejaVuSans-2d" d="M 313 2009 
L 1997 2009 
L 1997 1497 
L 313 1497 
L 313 2009 
z
" transform="scale(0.015625)"/>
      </defs>
      <use xlink:href="#DejaVuSans-41"/>
      <use xlink:href="#DejaVuSans-4f" x="66.658203"/>
      <use xlink:href="#DejaVuSans-2d" x="148.119141"/>
      <use xlink:href="#DejaVuSans-58" x="179.203125"/>
      <use xlink:href="#DejaVuSans-47" x="247.708984"/>
      <use xlink:href="#DejaVuSans-42" x="325.199219"/>
      <use xlink:href="#DejaVuSans-20" x="393.802734"/>
      <use xlink:href="#DejaVuSans-28" x="425.589844"/>
      <use xlink:href="#DejaVuSans-41" x="464.603516"/>
      <use xlink:href="#DejaVuSans-55" x="533.011719"/>
      <use xlink:href="#DejaVuSans-43" x="606.205078"/>
      <use xlink:href="#DejaVuSans-3d" x="676.029297"/>
      <use xlink:href="#DejaVuSans-30" x="759.818359"/>
      <use xlink:href="#DejaVuSans-2e" x="823.441406"/>
      <use xlink:href="#DejaVuSans-39" x="855.228516"/>
      <use xlink:href="#DejaVuSans-33" x="918.851562"/>
      <use xlink:href="#DejaVuSans-36" x="982.474609"/>
      <use xlink:href="#DejaVuSans-29" x="1046.097656"/>
      <use xlink:href="#DejaVuSans-20" x="1085.111328"/>
     </g>
    </g>
    <g id="line2d_19">
     <path d="M 393.705 480.6725 
L 409.705 480.6725 
L 425.705 480.6725 
" style="fill: none; stroke: #2ca02c; stroke-width: 1.5; stroke-linecap: square"/>
    </g>
    <g id="text_18">
     <!-- Nor-XGB (AUC=0.937)  -->
     <g transform="translate(438.505 486.2725)scale(0.16 -0.16)">
      <defs>
       <path id="DejaVuSans-4e" d="M 628 4666 
L 1478 4666 
L 3547 763 
L 3547 4666 
L 4159 4666 
L 4159 0 
L 3309 0 
L 1241 3903 
L 1241 0 
L 628 0 
L 628 4666 
z
" transform="scale(0.015625)"/>
      </defs>
      <use xlink:href="#DejaVuSans-4e"/>
      <use xlink:href="#DejaVuSans-6f" x="74.804688"/>
      <use xlink:href="#DejaVuSans-72" x="135.986328"/>
      <use xlink:href="#DejaVuSans-2d" x="170.724609"/>
      <use xlink:href="#DejaVuSans-58" x="201.808594"/>
      <use xlink:href="#DejaVuSans-47" x="270.314453"/>
      <use xlink:href="#DejaVuSans-42" x="347.804688"/>
      <use xlink:href="#DejaVuSans-20" x="416.408203"/>
      <use xlink:href="#DejaVuSans-28" x="448.195312"/>
      <use xlink:href="#DejaVuSans-41" x="487.208984"/>
      <use xlink:href="#DejaVuSans-55" x="555.617188"/>
      <use xlink:href="#DejaVuSans-43" x="628.810547"/>
      <use xlink:href="#DejaVuSans-3d" x="698.634766"/>
      <use xlink:href="#DejaVuSans-30" x="782.423828"/>
      <use xlink:href="#DejaVuSans-2e" x="846.046875"/>
      <use xlink:href="#DejaVuSans-39" x="877.833984"/>
      <use xlink:href="#DejaVuSans-33" x="941.457031"/>
      <use xlink:href="#DejaVuSans-37" x="1005.080078"/>
      <use xlink:href="#DejaVuSans-29" x="1068.703125"/>
      <use xlink:href="#DejaVuSans-20" x="1107.716797"/>
     </g>
    </g>
   </g>
  </g>
 </g>
 <defs>
  <clipPath id="p637b731b83">
   <rect x="90" y="69.12" width="558" height="434.88"/>
  </clipPath>
 </defs>
</svg>
