<?xml version="1.0" encoding="utf-8" standalone="no"?>
<!DOCTYPE svg PUBLIC "-//W3C//DTD SVG 1.1//EN"
  "http://www.w3.org/Graphics/SVG/1.1/DTD/svg11.dtd">
<svg xmlns:xlink="http://www.w3.org/1999/xlink" width="576pt" height="576pt" viewBox="0 0 576 576" xmlns="http://www.w3.org/2000/svg" version="1.1">
 <metadata>
  <rdf:RDF xmlns:dc="http://purl.org/dc/elements/1.1/" xmlns:cc="http://creativecommons.org/ns#" xmlns:rdf="http://www.w3.org/1999/02/22-rdf-syntax-ns#">
   <cc:Work>
    <dc:type rdf:resource="http://purl.org/dc/dcmitype/StillImage"/>
    <dc:date>2023-01-23T23:34:09.019901</dc:date>
    <dc:format>image/svg+xml</dc:format>
    <dc:creator>
     <cc:Agent>
      <dc:title>Matplotlib v3.5.1, https://matplotlib.org/</dc:title>
     </cc:Agent>
    </dc:creator>
   </cc:Work>
  </rdf:RDF>
 </metadata>
 <defs>
  <style type="text/css">*{stroke-linejoin: round; stroke-linecap: butt}</style>
 </defs>
 <g id="figure_1">
  <g id="patch_1">
   <path d="M 0 576 
L 576 576 
L 576 0 
L 0 0 
L 0 576 
z
" style="fill: none"/>
  </g>
  <g id="axes_1">
   <g id="patch_2">
    <path d="M 72 504 
L 518.4 504 
L 518.4 69.12 
L 72 69.12 
z
" style="fill: #ffffff"/>
   </g>
   <g id="PolyCollection_1">
    <defs>
     <path id="m442c41c409" d="M 72 -111.712096 
L 72 -75.27679 
L 76.509091 -271.204263 
L 81.018182 -309.961533 
L 85.527273 -335.257198 
L 90.036364 -353.087856 
L 94.545455 -368.285509 
L 99.054545 -378.991138 
L 103.563636 -390.991569 
L 108.072727 -399.671808 
L 112.581818 -406.616 
L 117.090909 -413.408287 
L 121.6 -419.498922 
L 126.109091 -425.864431 
L 130.618182 -431.499353 
L 135.127273 -435.991377 
L 139.636364 -440.042156 
L 144.145455 -443.073006 
L 148.654545 -446.682539 
L 153.163636 -450.306539 
L 157.672727 -453.489293 
L 162.181818 -456.245269 
L 166.690909 -459.717365 
L 171.2 -462.169533 
L 175.709091 -464.636168 
L 180.218182 -466.798994 
L 184.727273 -468.535042 
L 189.236364 -470.560431 
L 193.745455 -472.296479 
L 198.254545 -473.89509 
L 202.763636 -476.057916 
L 207.272727 -477.945868 
L 211.781818 -478.813892 
L 216.290909 -480.108695 
L 220.8 -480.839281 
L 225.309091 -482.285988 
L 229.818182 -483.291449 
L 234.327273 -484.311377 
L 238.836364 -485.468743 
L 243.345455 -486.047425 
L 247.854545 -486.763545 
L 252.363636 -488.072814 
L 256.872727 -489.078275 
L 261.381818 -489.656958 
L 265.890909 -490.221174 
L 270.4 -490.662419 
L 274.909091 -491.971689 
L 279.418182 -492.412934 
L 283.927273 -492.839713 
L 288.436364 -493.570299 
L 292.945455 -493.997078 
L 297.454545 -494.148982 
L 301.963636 -494.727665 
L 306.472727 -495.306347 
L 310.981818 -495.870563 
L 315.490909 -496.449246 
L 320 -496.890491 
L 324.509091 -497.317269 
L 329.018182 -498.047856 
L 333.527273 -498.489102 
L 338.036364 -498.626539 
L 342.545455 -499.067784 
L 347.054545 -499.205222 
L 351.563636 -499.357126 
L 356.072727 -499.783904 
L 360.581818 -500.073246 
L 365.090909 -501.093174 
L 369.6 -501.230611 
L 374.109091 -501.382515 
L 378.618182 -501.671856 
L 383.127273 -501.671856 
L 387.636364 -501.809293 
L 392.145455 -502.250539 
L 396.654545 -502.677317 
L 401.163636 -502.966659 
L 405.672727 -503.256 
L 410.181818 -503.407904 
L 414.690909 -503.697246 
L 419.2 -503.834683 
L 423.709091 -503.986587 
L 428.218182 -504.124024 
L 432.727273 -504.275928 
L 437.236364 -504.565269 
L 441.745455 -504.702707 
L 446.254545 -504.854611 
L 450.763636 -505.143952 
L 455.272727 -505.143952 
L 459.781818 -505.433293 
L 464.290909 -505.433293 
L 468.8 -505.570731 
L 473.309091 -505.722635 
L 477.818182 -505.860072 
L 482.327273 -506.011976 
L 486.836364 -506.011976 
L 491.345455 -506.301317 
L 495.854545 -506.301317 
L 500.363636 -506.590659 
L 504.872727 -506.590659 
L 509.381818 -506.590659 
L 513.890909 -506.88 
L 518.4 -506.88 
L 518.4 -506.88 
L 518.4 -506.88 
L 513.890909 -506.88 
L 509.381818 -506.88 
L 504.872727 -506.88 
L 500.363636 -506.88 
L 495.854545 -506.88 
L 491.345455 -506.88 
L 486.836364 -506.88 
L 482.327273 -506.88 
L 477.818182 -506.88 
L 473.309091 -506.88 
L 468.8 -506.88 
L 464.290909 -506.88 
L 459.781818 -506.88 
L 455.272727 -506.590659 
L 450.763636 -506.590659 
L 446.254545 -506.590659 
L 441.745455 -506.590659 
L 437.236364 -506.590659 
L 432.727273 -506.301317 
L 428.218182 -506.301317 
L 423.709091 -506.301317 
L 419.2 -506.301317 
L 414.690909 -506.16388 
L 410.181818 -506.011976 
L 405.672727 -505.722635 
L 401.163636 -505.433293 
L 396.654545 -505.433293 
L 392.145455 -505.295856 
L 387.636364 -505.143952 
L 383.127273 -504.854611 
L 378.618182 -504.565269 
L 374.109091 -504.427832 
L 369.6 -504.275928 
L 365.090909 -503.986587 
L 360.581818 -503.697246 
L 356.072727 -503.697246 
L 351.563636 -503.407904 
L 347.054545 -503.270467 
L 342.545455 -502.981126 
L 338.036364 -502.53988 
L 333.527273 -502.250539 
L 329.018182 -501.82376 
L 324.509091 -501.82376 
L 320 -501.534419 
L 315.490909 -501.396982 
L 310.981818 -501.093174 
L 306.472727 -500.666395 
L 301.963636 -499.935808 
L 297.454545 -499.357126 
L 292.945455 -499.067784 
L 288.436364 -498.489102 
L 283.927273 -498.19976 
L 279.418182 -498.062323 
L 274.909091 -497.042395 
L 270.4 -496.615617 
L 265.890909 -496.174371 
L 261.381818 -495.595689 
L 256.872727 -495.017006 
L 252.363636 -494.32982 
L 247.854545 -493.584766 
L 243.345455 -492.702275 
L 238.836364 -491.696814 
L 234.327273 -490.966228 
L 229.818182 -490.112671 
L 225.309091 -489.10721 
L 220.8 -488.224719 
L 216.290909 -487.067353 
L 211.781818 -485.758084 
L 207.272727 -484.463281 
L 202.763636 -483.305916 
L 198.254545 -481.707305 
L 193.745455 -480.260599 
L 189.236364 -478.249677 
L 184.727273 -476.940407 
L 180.218182 -474.473772 
L 175.709091 -472.310946 
L 171.2 -470.300024 
L 166.690909 -468.549509 
L 162.181818 -465.656096 
L 157.672727 -463.493269 
L 153.163636 -460.614323 
L 148.654545 -457.431569 
L 144.145455 -453.793102 
L 139.636364 -450.169102 
L 135.127273 -445.843449 
L 130.618182 -441.640766 
L 126.109091 -435.702036 
L 121.6 -430.493892 
L 117.090909 -425.57509 
L 112.581818 -418.218587 
L 108.072727 -411.838611 
L 103.563636 -403.020934 
L 99.054545 -392.025964 
L 94.545455 -381.016527 
L 90.036364 -366.990707 
L 85.527273 -352.154731 
L 81.018182 -329.086994 
L 76.509091 -293.375042 
L 72 -111.712096 
z
" style="stroke: #808080; stroke-opacity: 0.22"/>
    </defs>
    <g clip-path="url(#pa2e65c67e2)">
     <use xlink:href="#m442c41c409" x="0" y="576" style="fill: #808080; fill-opacity: 0.22; stroke: #808080; stroke-opacity: 0.22"/>
    </g>
   </g>
   <g id="matplotlib.axis_1">
    <g id="xtick_1">
     <g id="line2d_1">
      <defs>
       <path id="mcf2963b60b" d="M 0 0 
L 0 3.5 
" style="stroke: #000000; stroke-width: 0.8"/>
      </defs>
      <g>
       <use xlink:href="#mcf2963b60b" x="72" y="504" style="stroke: #000000; stroke-width: 0.8"/>
      </g>
     </g>
     <g id="text_1">
      <!-- 0.0 -->
      <g transform="translate(56.096875 526.196875)scale(0.2 -0.2)">
       <defs>
        <path id="DejaVuSans-30" d="M 2034 4250 
Q 1547 4250 1301 3770 
Q 1056 3291 1056 2328 
Q 1056 1369 1301 889 
Q 1547 409 2034 409 
Q 2525 409 2770 889 
Q 3016 1369 3016 2328 
Q 3016 3291 2770 3770 
Q 2525 4250 2034 4250 
z
M 2034 4750 
Q 2819 4750 3233 4129 
Q 3647 3509 3647 2328 
Q 3647 1150 3233 529 
Q 2819 -91 2034 -91 
Q 1250 -91 836 529 
Q 422 1150 422 2328 
Q 422 3509 836 4129 
Q 1250 4750 2034 4750 
z
" transform="scale(0.015625)"/>
        <path id="DejaVuSans-2e" d="M 684 794 
L 1344 794 
L 1344 0 
L 684 0 
L 684 794 
z
" transform="scale(0.015625)"/>
       </defs>
       <use xlink:href="#DejaVuSans-30"/>
       <use xlink:href="#DejaVuSans-2e" x="63.623047"/>
       <use xlink:href="#DejaVuSans-30" x="95.410156"/>
      </g>
     </g>
    </g>
    <g id="xtick_2">
     <g id="line2d_2">
      <g>
       <use xlink:href="#mcf2963b60b" x="161.28" y="504" style="stroke: #000000; stroke-width: 0.8"/>
      </g>
     </g>
     <g id="text_2">
      <!-- 0.2 -->
      <g transform="translate(145.376875 526.196875)scale(0.2 -0.2)">
       <defs>
        <path id="DejaVuSans-32" d="M 1228 531 
L 3431 531 
L 3431 0 
L 469 0 
L 469 531 
Q 828 903 1448 1529 
Q 2069 2156 2228 2338 
Q 2531 2678 2651 2914 
Q 2772 3150 2772 3378 
Q 2772 3750 2511 3984 
Q 2250 4219 1831 4219 
Q 1534 4219 1204 4116 
Q 875 4013 500 3803 
L 500 4441 
Q 881 4594 1212 4672 
Q 1544 4750 1819 4750 
Q 2544 4750 2975 4387 
Q 3406 4025 3406 3419 
Q 3406 3131 3298 2873 
Q 3191 2616 2906 2266 
Q 2828 2175 2409 1742 
Q 1991 1309 1228 531 
z
" transform="scale(0.015625)"/>
       </defs>
       <use xlink:href="#DejaVuSans-30"/>
       <use xlink:href="#DejaVuSans-2e" x="63.623047"/>
       <use xlink:href="#DejaVuSans-32" x="95.410156"/>
      </g>
     </g>
    </g>
    <g id="xtick_3">
     <g id="line2d_3">
      <g>
       <use xlink:href="#mcf2963b60b" x="250.56" y="504" style="stroke: #000000; stroke-width: 0.8"/>
      </g>
     </g>
     <g id="text_3">
      <!-- 0.4 -->
      <g transform="translate(234.656875 526.196875)scale(0.2 -0.2)">
       <defs>
        <path id="DejaVuSans-34" d="M 2419 4116 
L 825 1625 
L 2419 1625 
L 2419 4116 
z
M 2253 4666 
L 3047 4666 
L 3047 1625 
L 3713 1625 
L 3713 1100 
L 3047 1100 
L 3047 0 
L 2419 0 
L 2419 1100 
L 313 1100 
L 313 1709 
L 2253 4666 
z
" transform="scale(0.015625)"/>
       </defs>
       <use xlink:href="#DejaVuSans-30"/>
       <use xlink:href="#DejaVuSans-2e" x="63.623047"/>
       <use xlink:href="#DejaVuSans-34" x="95.410156"/>
      </g>
     </g>
    </g>
    <g id="xtick_4">
     <g id="line2d_4">
      <g>
       <use xlink:href="#mcf2963b60b" x="339.84" y="504" style="stroke: #000000; stroke-width: 0.8"/>
      </g>
     </g>
     <g id="text_4">
      <!-- 0.6 -->
      <g transform="translate(323.936875 526.196875)scale(0.2 -0.2)">
       <defs>
        <path id="DejaVuSans-36" d="M 2113 2584 
Q 1688 2584 1439 2293 
Q 1191 2003 1191 1497 
Q 1191 994 1439 701 
Q 1688 409 2113 409 
Q 2538 409 2786 701 
Q 3034 994 3034 1497 
Q 3034 2003 2786 2293 
Q 2538 2584 2113 2584 
z
M 3366 4563 
L 3366 3988 
Q 3128 4100 2886 4159 
Q 2644 4219 2406 4219 
Q 1781 4219 1451 3797 
Q 1122 3375 1075 2522 
Q 1259 2794 1537 2939 
Q 1816 3084 2150 3084 
Q 2853 3084 3261 2657 
Q 3669 2231 3669 1497 
Q 3669 778 3244 343 
Q 2819 -91 2113 -91 
Q 1303 -91 875 529 
Q 447 1150 447 2328 
Q 447 3434 972 4092 
Q 1497 4750 2381 4750 
Q 2619 4750 2861 4703 
Q 3103 4656 3366 4563 
z
" transform="scale(0.015625)"/>
       </defs>
       <use xlink:href="#DejaVuSans-30"/>
       <use xlink:href="#DejaVuSans-2e" x="63.623047"/>
       <use xlink:href="#DejaVuSans-36" x="95.410156"/>
      </g>
     </g>
    </g>
    <g id="xtick_5">
     <g id="line2d_5">
      <g>
       <use xlink:href="#mcf2963b60b" x="429.12" y="504" style="stroke: #000000; stroke-width: 0.8"/>
      </g>
     </g>
     <g id="text_5">
      <!-- 0.8 -->
      <g transform="translate(413.216875 526.196875)scale(0.2 -0.2)">
       <defs>
        <path id="DejaVuSans-38" d="M 2034 2216 
Q 1584 2216 1326 1975 
Q 1069 1734 1069 1313 
Q 1069 891 1326 650 
Q 1584 409 2034 409 
Q 2484 409 2743 651 
Q 3003 894 3003 1313 
Q 3003 1734 2745 1975 
Q 2488 2216 2034 2216 
z
M 1403 2484 
Q 997 2584 770 2862 
Q 544 3141 544 3541 
Q 544 4100 942 4425 
Q 1341 4750 2034 4750 
Q 2731 4750 3128 4425 
Q 3525 4100 3525 3541 
Q 3525 3141 3298 2862 
Q 3072 2584 2669 2484 
Q 3125 2378 3379 2068 
Q 3634 1759 3634 1313 
Q 3634 634 3220 271 
Q 2806 -91 2034 -91 
Q 1263 -91 848 271 
Q 434 634 434 1313 
Q 434 1759 690 2068 
Q 947 2378 1403 2484 
z
M 1172 3481 
Q 1172 3119 1398 2916 
Q 1625 2713 2034 2713 
Q 2441 2713 2670 2916 
Q 2900 3119 2900 3481 
Q 2900 3844 2670 4047 
Q 2441 4250 2034 4250 
Q 1625 4250 1398 4047 
Q 1172 3844 1172 3481 
z
" transform="scale(0.015625)"/>
       </defs>
       <use xlink:href="#DejaVuSans-30"/>
       <use xlink:href="#DejaVuSans-2e" x="63.623047"/>
       <use xlink:href="#DejaVuSans-38" x="95.410156"/>
      </g>
     </g>
    </g>
    <g id="xtick_6">
     <g id="line2d_6">
      <g>
       <use xlink:href="#mcf2963b60b" x="518.4" y="504" style="stroke: #000000; stroke-width: 0.8"/>
      </g>
     </g>
     <g id="text_6">
      <!-- 1.0 -->
      <g transform="translate(502.496875 526.196875)scale(0.2 -0.2)">
       <defs>
        <path id="DejaVuSans-31" d="M 794 531 
L 1825 531 
L 1825 4091 
L 703 3866 
L 703 4441 
L 1819 4666 
L 2450 4666 
L 2450 531 
L 3481 531 
L 3481 0 
L 794 0 
L 794 531 
z
" transform="scale(0.015625)"/>
       </defs>
       <use xlink:href="#DejaVuSans-31"/>
       <use xlink:href="#DejaVuSans-2e" x="63.623047"/>
       <use xlink:href="#DejaVuSans-30" x="95.410156"/>
      </g>
     </g>
    </g>
    <g id="text_7">
     <!-- False Positive Rate -->
     <g transform="translate(192.973906 551.072813)scale(0.22 -0.22)">
      <defs>
       <path id="DejaVuSans-46" d="M 628 4666 
L 3309 4666 
L 3309 4134 
L 1259 4134 
L 1259 2759 
L 3109 2759 
L 3109 2228 
L 1259 2228 
L 1259 0 
L 628 0 
L 628 4666 
z
" transform="scale(0.015625)"/>
       <path id="DejaVuSans-61" d="M 2194 1759 
Q 1497 1759 1228 1600 
Q 959 1441 959 1056 
Q 959 750 1161 570 
Q 1363 391 1709 391 
Q 2188 391 2477 730 
Q 2766 1069 2766 1631 
L 2766 1759 
L 2194 1759 
z
M 3341 1997 
L 3341 0 
L 2766 0 
L 2766 531 
Q 2569 213 2275 61 
Q 1981 -91 1556 -91 
Q 1019 -91 701 211 
Q 384 513 384 1019 
Q 384 1609 779 1909 
Q 1175 2209 1959 2209 
L 2766 2209 
L 2766 2266 
Q 2766 2663 2505 2880 
Q 2244 3097 1772 3097 
Q 1472 3097 1187 3025 
Q 903 2953 641 2809 
L 641 3341 
Q 956 3463 1253 3523 
Q 1550 3584 1831 3584 
Q 2591 3584 2966 3190 
Q 3341 2797 3341 1997 
z
" transform="scale(0.015625)"/>
       <path id="DejaVuSans-6c" d="M 603 4863 
L 1178 4863 
L 1178 0 
L 603 0 
L 603 4863 
z
" transform="scale(0.015625)"/>
       <path id="DejaVuSans-73" d="M 2834 3397 
L 2834 2853 
Q 2591 2978 2328 3040 
Q 2066 3103 1784 3103 
Q 1356 3103 1142 2972 
Q 928 2841 928 2578 
Q 928 2378 1081 2264 
Q 1234 2150 1697 2047 
L 1894 2003 
Q 2506 1872 2764 1633 
Q 3022 1394 3022 966 
Q 3022 478 2636 193 
Q 2250 -91 1575 -91 
Q 1294 -91 989 -36 
Q 684 19 347 128 
L 347 722 
Q 666 556 975 473 
Q 1284 391 1588 391 
Q 1994 391 2212 530 
Q 2431 669 2431 922 
Q 2431 1156 2273 1281 
Q 2116 1406 1581 1522 
L 1381 1569 
Q 847 1681 609 1914 
Q 372 2147 372 2553 
Q 372 3047 722 3315 
Q 1072 3584 1716 3584 
Q 2034 3584 2315 3537 
Q 2597 3491 2834 3397 
z
" transform="scale(0.015625)"/>
       <path id="DejaVuSans-65" d="M 3597 1894 
L 3597 1613 
L 953 1613 
Q 991 1019 1311 708 
Q 1631 397 2203 397 
Q 2534 397 2845 478 
Q 3156 559 3463 722 
L 3463 178 
Q 3153 47 2828 -22 
Q 2503 -91 2169 -91 
Q 1331 -91 842 396 
Q 353 884 353 1716 
Q 353 2575 817 3079 
Q 1281 3584 2069 3584 
Q 2775 3584 3186 3129 
Q 3597 2675 3597 1894 
z
M 3022 2063 
Q 3016 2534 2758 2815 
Q 2500 3097 2075 3097 
Q 1594 3097 1305 2825 
Q 1016 2553 972 2059 
L 3022 2063 
z
" transform="scale(0.015625)"/>
       <path id="DejaVuSans-20" transform="scale(0.015625)"/>
       <path id="DejaVuSans-50" d="M 1259 4147 
L 1259 2394 
L 2053 2394 
Q 2494 2394 2734 2622 
Q 2975 2850 2975 3272 
Q 2975 3691 2734 3919 
Q 2494 4147 2053 4147 
L 1259 4147 
z
M 628 4666 
L 2053 4666 
Q 2838 4666 3239 4311 
Q 3641 3956 3641 3272 
Q 3641 2581 3239 2228 
Q 2838 1875 2053 1875 
L 1259 1875 
L 1259 0 
L 628 0 
L 628 4666 
z
" transform="scale(0.015625)"/>
       <path id="DejaVuSans-6f" d="M 1959 3097 
Q 1497 3097 1228 2736 
Q 959 2375 959 1747 
Q 959 1119 1226 758 
Q 1494 397 1959 397 
Q 2419 397 2687 759 
Q 2956 1122 2956 1747 
Q 2956 2369 2687 2733 
Q 2419 3097 1959 3097 
z
M 1959 3584 
Q 2709 3584 3137 3096 
Q 3566 2609 3566 1747 
Q 3566 888 3137 398 
Q 2709 -91 1959 -91 
Q 1206 -91 779 398 
Q 353 888 353 1747 
Q 353 2609 779 3096 
Q 1206 3584 1959 3584 
z
" transform="scale(0.015625)"/>
       <path id="DejaVuSans-69" d="M 603 3500 
L 1178 3500 
L 1178 0 
L 603 0 
L 603 3500 
z
M 603 4863 
L 1178 4863 
L 1178 4134 
L 603 4134 
L 603 4863 
z
" transform="scale(0.015625)"/>
       <path id="DejaVuSans-74" d="M 1172 4494 
L 1172 3500 
L 2356 3500 
L 2356 3053 
L 1172 3053 
L 1172 1153 
Q 1172 725 1289 603 
Q 1406 481 1766 481 
L 2356 481 
L 2356 0 
L 1766 0 
Q 1100 0 847 248 
Q 594 497 594 1153 
L 594 3053 
L 172 3053 
L 172 3500 
L 594 3500 
L 594 4494 
L 1172 4494 
z
" transform="scale(0.015625)"/>
       <path id="DejaVuSans-76" d="M 191 3500 
L 800 3500 
L 1894 563 
L 2988 3500 
L 3597 3500 
L 2284 0 
L 1503 0 
L 191 3500 
z
" transform="scale(0.015625)"/>
       <path id="DejaVuSans-52" d="M 2841 2188 
Q 3044 2119 3236 1894 
Q 3428 1669 3622 1275 
L 4263 0 
L 3584 0 
L 2988 1197 
Q 2756 1666 2539 1819 
Q 2322 1972 1947 1972 
L 1259 1972 
L 1259 0 
L 628 0 
L 628 4666 
L 2053 4666 
Q 2853 4666 3247 4331 
Q 3641 3997 3641 3322 
Q 3641 2881 3436 2590 
Q 3231 2300 2841 2188 
z
M 1259 4147 
L 1259 2491 
L 2053 2491 
Q 2509 2491 2742 2702 
Q 2975 2913 2975 3322 
Q 2975 3731 2742 3939 
Q 2509 4147 2053 4147 
L 1259 4147 
z
" transform="scale(0.015625)"/>
      </defs>
      <use xlink:href="#DejaVuSans-46"/>
      <use xlink:href="#DejaVuSans-61" x="48.394531"/>
      <use xlink:href="#DejaVuSans-6c" x="109.673828"/>
      <use xlink:href="#DejaVuSans-73" x="137.457031"/>
      <use xlink:href="#DejaVuSans-65" x="189.556641"/>
      <use xlink:href="#DejaVuSans-20" x="251.080078"/>
      <use xlink:href="#DejaVuSans-50" x="282.867188"/>
      <use xlink:href="#DejaVuSans-6f" x="339.544922"/>
      <use xlink:href="#DejaVuSans-73" x="400.726562"/>
      <use xlink:href="#DejaVuSans-69" x="452.826172"/>
      <use xlink:href="#DejaVuSans-74" x="480.609375"/>
      <use xlink:href="#DejaVuSans-69" x="519.818359"/>
      <use xlink:href="#DejaVuSans-76" x="547.601562"/>
      <use xlink:href="#DejaVuSans-65" x="606.78125"/>
      <use xlink:href="#DejaVuSans-20" x="668.304688"/>
      <use xlink:href="#DejaVuSans-52" x="700.091797"/>
      <use xlink:href="#DejaVuSans-61" x="767.324219"/>
      <use xlink:href="#DejaVuSans-74" x="828.603516"/>
      <use xlink:href="#DejaVuSans-65" x="867.8125"/>
     </g>
    </g>
   </g>
   <g id="matplotlib.axis_2">
    <g id="ytick_1">
     <g id="line2d_7">
      <defs>
       <path id="ma563526f11" d="M 0 0 
L -3.5 0 
" style="stroke: #000000; stroke-width: 0.8"/>
      </defs>
      <g>
       <use xlink:href="#ma563526f11" x="72" y="504" style="stroke: #000000; stroke-width: 0.8"/>
      </g>
     </g>
     <g id="text_8">
      <!-- 0.0 -->
      <g transform="translate(33.19375 511.598437)scale(0.2 -0.2)">
       <use xlink:href="#DejaVuSans-30"/>
       <use xlink:href="#DejaVuSans-2e" x="63.623047"/>
       <use xlink:href="#DejaVuSans-30" x="95.410156"/>
      </g>
     </g>
    </g>
    <g id="ytick_2">
     <g id="line2d_8">
      <g>
       <use xlink:href="#ma563526f11" x="72" y="417.024" style="stroke: #000000; stroke-width: 0.8"/>
      </g>
     </g>
     <g id="text_9">
      <!-- 0.2 -->
      <g transform="translate(33.19375 424.622437)scale(0.2 -0.2)">
       <use xlink:href="#DejaVuSans-30"/>
       <use xlink:href="#DejaVuSans-2e" x="63.623047"/>
       <use xlink:href="#DejaVuSans-32" x="95.410156"/>
      </g>
     </g>
    </g>
    <g id="ytick_3">
     <g id="line2d_9">
      <g>
       <use xlink:href="#ma563526f11" x="72" y="330.048" style="stroke: #000000; stroke-width: 0.8"/>
      </g>
     </g>
     <g id="text_10">
      <!-- 0.4 -->
      <g transform="translate(33.19375 337.646437)scale(0.2 -0.2)">
       <use xlink:href="#DejaVuSans-30"/>
       <use xlink:href="#DejaVuSans-2e" x="63.623047"/>
       <use xlink:href="#DejaVuSans-34" x="95.410156"/>
      </g>
     </g>
    </g>
    <g id="ytick_4">
     <g id="line2d_10">
      <g>
       <use xlink:href="#ma563526f11" x="72" y="243.072" style="stroke: #000000; stroke-width: 0.8"/>
      </g>
     </g>
     <g id="text_11">
      <!-- 0.6 -->
      <g transform="translate(33.19375 250.670437)scale(0.2 -0.2)">
       <use xlink:href="#DejaVuSans-30"/>
       <use xlink:href="#DejaVuSans-2e" x="63.623047"/>
       <use xlink:href="#DejaVuSans-36" x="95.410156"/>
      </g>
     </g>
    </g>
    <g id="ytick_5">
     <g id="line2d_11">
      <g>
       <use xlink:href="#ma563526f11" x="72" y="156.096" style="stroke: #000000; stroke-width: 0.8"/>
      </g>
     </g>
     <g id="text_12">
      <!-- 0.8 -->
      <g transform="translate(33.19375 163.694437)scale(0.2 -0.2)">
       <use xlink:href="#DejaVuSans-30"/>
       <use xlink:href="#DejaVuSans-2e" x="63.623047"/>
       <use xlink:href="#DejaVuSans-38" x="95.410156"/>
      </g>
     </g>
    </g>
    <g id="ytick_6">
     <g id="line2d_12">
      <g>
       <use xlink:href="#ma563526f11" x="72" y="69.12" style="stroke: #000000; stroke-width: 0.8"/>
      </g>
     </g>
     <g id="text_13">
      <!-- 1.0 -->
      <g transform="translate(33.19375 76.718437)scale(0.2 -0.2)">
       <use xlink:href="#DejaVuSans-31"/>
       <use xlink:href="#DejaVuSans-2e" x="63.623047"/>
       <use xlink:href="#DejaVuSans-30" x="95.410156"/>
      </g>
     </g>
    </g>
    <g id="text_14">
     <!-- True Positive Rate -->
     <g transform="translate(24.618437 384.525312)rotate(-90)scale(0.22 -0.22)">
      <defs>
       <path id="DejaVuSans-54" d="M -19 4666 
L 3928 4666 
L 3928 4134 
L 2272 4134 
L 2272 0 
L 1638 0 
L 1638 4134 
L -19 4134 
L -19 4666 
z
" transform="scale(0.015625)"/>
       <path id="DejaVuSans-72" d="M 2631 2963 
Q 2534 3019 2420 3045 
Q 2306 3072 2169 3072 
Q 1681 3072 1420 2755 
Q 1159 2438 1159 1844 
L 1159 0 
L 581 0 
L 581 3500 
L 1159 3500 
L 1159 2956 
Q 1341 3275 1631 3429 
Q 1922 3584 2338 3584 
Q 2397 3584 2469 3576 
Q 2541 3569 2628 3553 
L 2631 2963 
z
" transform="scale(0.015625)"/>
       <path id="DejaVuSans-75" d="M 544 1381 
L 544 3500 
L 1119 3500 
L 1119 1403 
Q 1119 906 1312 657 
Q 1506 409 1894 409 
Q 2359 409 2629 706 
Q 2900 1003 2900 1516 
L 2900 3500 
L 3475 3500 
L 3475 0 
L 2900 0 
L 2900 538 
Q 2691 219 2414 64 
Q 2138 -91 1772 -91 
Q 1169 -91 856 284 
Q 544 659 544 1381 
z
M 1991 3584 
L 1991 3584 
z
" transform="scale(0.015625)"/>
      </defs>
      <use xlink:href="#DejaVuSans-54"/>
      <use xlink:href="#DejaVuSans-72" x="46.333984"/>
      <use xlink:href="#DejaVuSans-75" x="87.447266"/>
      <use xlink:href="#DejaVuSans-65" x="150.826172"/>
      <use xlink:href="#DejaVuSans-20" x="212.349609"/>
      <use xlink:href="#DejaVuSans-50" x="244.136719"/>
      <use xlink:href="#DejaVuSans-6f" x="300.814453"/>
      <use xlink:href="#DejaVuSans-73" x="361.996094"/>
      <use xlink:href="#DejaVuSans-69" x="414.095703"/>
      <use xlink:href="#DejaVuSans-74" x="441.878906"/>
      <use xlink:href="#DejaVuSans-69" x="481.087891"/>
      <use xlink:href="#DejaVuSans-76" x="508.871094"/>
      <use xlink:href="#DejaVuSans-65" x="568.050781"/>
      <use xlink:href="#DejaVuSans-20" x="629.574219"/>
      <use xlink:href="#DejaVuSans-52" x="661.361328"/>
      <use xlink:href="#DejaVuSans-61" x="728.59375"/>
      <use xlink:href="#DejaVuSans-74" x="789.873047"/>
      <use xlink:href="#DejaVuSans-65" x="829.082031"/>
     </g>
    </g>
   </g>
   <g id="line2d_13">
    <path d="M 72 484.266922 
L 76.509091 294.158103 
L 81.018182 256.150228 
L 85.527273 232.823531 
L 90.036364 215.41097 
L 94.545455 201.673044 
L 99.054545 190.186194 
L 103.563636 179.845135 
L 108.072727 171.251698 
L 112.581818 163.595727 
L 117.090909 156.547372 
L 121.6 150.485672 
L 126.109091 145.341183 
L 130.618182 140.040246 
L 135.127273 135.463071 
L 139.636364 131.467267 
L 144.145455 127.688469 
L 148.654545 124.045662 
L 153.163636 120.773212 
L 157.672727 117.662793 
L 162.181818 114.882223 
L 166.690909 112.298405 
L 171.2 109.899765 
L 175.709091 107.52138 
L 180.218182 105.524925 
L 184.727273 103.528469 
L 189.236364 101.763487 
L 193.745455 99.963784 
L 198.254545 98.311646 
L 202.763636 96.702908 
L 207.272727 95.32275 
L 211.781818 93.916551 
L 216.290909 92.66081 
L 220.8 91.590247 
L 225.309091 90.539938 
L 229.818182 89.486735 
L 234.327273 88.479828 
L 238.836364 87.614697 
L 243.345455 86.735099 
L 247.854545 85.942304 
L 252.363636 85.106108 
L 256.872727 84.307526 
L 261.381818 83.48869 
L 265.890909 82.771123 
L 270.4 82.096958 
L 274.909091 81.535636 
L 279.418182 80.948273 
L 283.927273 80.363804 
L 288.436364 79.790908 
L 292.945455 79.310601 
L 297.454545 78.888163 
L 301.963636 78.422323 
L 306.472727 77.968057 
L 310.981818 77.531152 
L 315.490909 77.128968 
L 320 76.71521 
L 324.509091 76.333279 
L 329.018182 76.041044 
L 333.527273 75.667794 
L 338.036364 75.362612 
L 342.545455 75.02835 
L 347.054545 74.698501 
L 351.563636 74.420733 
L 356.072727 74.142965 
L 360.581818 73.827583 
L 365.090909 73.549816 
L 369.6 73.23154 
L 374.109091 73.008747 
L 378.618182 72.728086 
L 383.127273 72.48504 
L 387.636364 72.276714 
L 392.145455 72.097322 
L 396.654545 71.886103 
L 401.163636 71.709605 
L 405.672727 71.495492 
L 410.181818 71.336354 
L 414.690909 71.145389 
L 419.2 70.977571 
L 423.709091 70.835794 
L 428.218182 70.70711 
L 432.727273 70.595641 
L 437.236364 70.477011 
L 441.745455 70.387315 
L 446.254545 70.260005 
L 450.763636 70.129801 
L 455.272727 69.97645 
L 459.781818 69.843353 
L 464.290909 69.733404 
L 468.8 69.614774 
L 473.309091 69.522184 
L 477.818182 69.464316 
L 482.327273 69.389087 
L 486.836364 69.313859 
L 491.345455 69.276244 
L 495.854545 69.235737 
L 500.363636 69.203909 
L 504.872727 69.174799 
L 509.381818 69.146041 
L 513.890909 69.125787 
L 518.4 69.12 
" clip-path="url(#pa2e65c67e2)" style="fill: none; stroke: #0000ff; stroke-width: 1.5; stroke-linecap: square"/>
   </g>
   <g id="line2d_14">
    <path d="M 72 500.72321 
L 76.509091 304.795737 
L 81.018182 266.038467 
L 85.527273 240.742802 
L 90.036364 222.912144 
L 94.545455 207.714491 
L 99.054545 197.008862 
L 103.563636 185.008431 
L 108.072727 176.328192 
L 112.581818 169.384 
L 117.090909 162.591713 
L 121.6 156.501078 
L 126.109091 150.135569 
L 130.618182 144.500647 
L 135.127273 140.008623 
L 139.636364 135.957844 
L 144.145455 132.926994 
L 148.654545 129.317461 
L 153.163636 125.693461 
L 157.672727 122.510707 
L 162.181818 119.754731 
L 166.690909 116.282635 
L 171.2 113.830467 
L 175.709091 111.363832 
L 180.218182 109.201006 
L 184.727273 107.464958 
L 189.236364 105.439569 
L 193.745455 103.703521 
L 198.254545 102.10491 
L 202.763636 99.942084 
L 207.272727 98.054132 
L 211.781818 97.186108 
L 216.290909 95.891305 
L 220.8 95.160719 
L 225.309091 93.714012 
L 229.818182 92.708551 
L 234.327273 91.688623 
L 238.836364 90.531257 
L 243.345455 89.952575 
L 247.854545 89.236455 
L 252.363636 87.927186 
L 256.872727 86.921725 
L 261.381818 86.343042 
L 265.890909 85.778826 
L 270.4 85.337581 
L 274.909091 84.028311 
L 279.418182 83.587066 
L 283.927273 83.160287 
L 288.436364 82.429701 
L 292.945455 82.002922 
L 297.454545 81.851018 
L 301.963636 81.272335 
L 306.472727 80.693653 
L 310.981818 80.129437 
L 315.490909 79.550754 
L 320 79.109509 
L 324.509091 78.682731 
L 329.018182 77.952144 
L 333.527273 77.510898 
L 338.036364 77.373461 
L 342.545455 76.932216 
L 347.054545 76.794778 
L 351.563636 76.642874 
L 356.072727 76.216096 
L 360.581818 75.926754 
L 365.090909 74.906826 
L 369.6 74.769389 
L 374.109091 74.617485 
L 378.618182 74.328144 
L 383.127273 74.328144 
L 387.636364 74.190707 
L 392.145455 73.749461 
L 396.654545 73.322683 
L 401.163636 73.033341 
L 405.672727 72.744 
L 410.181818 72.592096 
L 414.690909 72.302754 
L 419.2 72.165317 
L 423.709091 72.013413 
L 428.218182 71.875976 
L 432.727273 71.724072 
L 437.236364 71.434731 
L 441.745455 71.297293 
L 446.254545 71.145389 
L 450.763636 70.856048 
L 455.272727 70.856048 
L 459.781818 70.566707 
L 464.290909 70.566707 
L 468.8 70.429269 
L 473.309091 70.277365 
L 477.818182 70.139928 
L 482.327273 69.988024 
L 486.836364 69.988024 
L 491.345455 69.698683 
L 495.854545 69.698683 
L 500.363636 69.409341 
L 504.872727 69.409341 
L 509.381818 69.409341 
L 513.890909 69.12 
L 518.4 69.12 
" clip-path="url(#pa2e65c67e2)" style="fill: none; stroke: #808080; stroke-width: 1.5; stroke-linecap: square"/>
   </g>
   <g id="line2d_15">
    <path d="M 72 464.287904 
L 76.509091 282.624958 
L 81.018182 246.913006 
L 85.527273 223.845269 
L 90.036364 209.009293 
L 94.545455 194.983473 
L 99.054545 183.974036 
L 103.563636 172.979066 
L 108.072727 164.161389 
L 112.581818 157.781413 
L 117.090909 150.42491 
L 121.6 145.506108 
L 126.109091 140.297964 
L 130.618182 134.359234 
L 135.127273 130.156551 
L 139.636364 125.830898 
L 144.145455 122.206898 
L 148.654545 118.568431 
L 153.163636 115.385677 
L 157.672727 112.506731 
L 162.181818 110.343904 
L 166.690909 107.450491 
L 171.2 105.699976 
L 175.709091 103.689054 
L 180.218182 101.526228 
L 184.727273 99.059593 
L 189.236364 97.750323 
L 193.745455 95.739401 
L 198.254545 94.292695 
L 202.763636 92.694084 
L 207.272727 91.536719 
L 211.781818 90.241916 
L 216.290909 88.932647 
L 220.8 87.775281 
L 225.309091 86.89279 
L 229.818182 85.887329 
L 234.327273 85.033772 
L 238.836364 84.303186 
L 243.345455 83.297725 
L 247.854545 82.415234 
L 252.363636 81.67018 
L 256.872727 80.982994 
L 261.381818 80.404311 
L 265.890909 79.825629 
L 270.4 79.384383 
L 274.909091 78.957605 
L 279.418182 77.937677 
L 283.927273 77.80024 
L 288.436364 77.510898 
L 292.945455 76.932216 
L 297.454545 76.642874 
L 301.963636 76.064192 
L 306.472727 75.333605 
L 310.981818 74.906826 
L 315.490909 74.603018 
L 320 74.465581 
L 324.509091 74.17624 
L 329.018182 74.17624 
L 333.527273 73.749461 
L 338.036364 73.46012 
L 342.545455 73.018874 
L 347.054545 72.729533 
L 351.563636 72.592096 
L 356.072727 72.302754 
L 360.581818 72.302754 
L 365.090909 72.013413 
L 369.6 71.724072 
L 374.109091 71.572168 
L 378.618182 71.434731 
L 383.127273 71.145389 
L 387.636364 70.856048 
L 392.145455 70.704144 
L 396.654545 70.566707 
L 401.163636 70.566707 
L 405.672727 70.277365 
L 410.181818 69.988024 
L 414.690909 69.83612 
L 419.2 69.698683 
L 423.709091 69.698683 
L 428.218182 69.698683 
L 432.727273 69.698683 
L 437.236364 69.409341 
L 441.745455 69.409341 
L 446.254545 69.409341 
L 450.763636 69.409341 
L 455.272727 69.409341 
L 459.781818 69.12 
L 464.290909 69.12 
L 468.8 69.12 
L 473.309091 69.12 
L 477.818182 69.12 
L 482.327273 69.12 
L 486.836364 69.12 
L 491.345455 69.12 
L 495.854545 69.12 
L 500.363636 69.12 
L 504.872727 69.12 
L 509.381818 69.12 
L 513.890909 69.12 
L 518.4 69.12 
" clip-path="url(#pa2e65c67e2)" style="fill: none; stroke: #808080; stroke-width: 1.5; stroke-linecap: square"/>
   </g>
   <g id="line2d_16">
    <path d="M 72 504 
L 518.4 69.12 
" clip-path="url(#pa2e65c67e2)" style="fill: none; stroke-dasharray: 5.55,2.4; stroke-dashoffset: 0; stroke: #000000; stroke-width: 1.5"/>
   </g>
   <g id="patch_3">
    <path d="M 72 504 
L 72 69.12 
" style="fill: none; stroke: #000000; stroke-width: 0.8; stroke-linejoin: miter; stroke-linecap: square"/>
   </g>
   <g id="patch_4">
    <path d="M 518.4 504 
L 518.4 69.12 
" style="fill: none; stroke: #000000; stroke-width: 0.8; stroke-linejoin: miter; stroke-linecap: square"/>
   </g>
   <g id="patch_5">
    <path d="M 72 504 
L 518.4 504 
" style="fill: none; stroke: #000000; stroke-width: 0.8; stroke-linejoin: miter; stroke-linecap: square"/>
   </g>
   <g id="patch_6">
    <path d="M 72 69.12 
L 518.4 69.12 
" style="fill: none; stroke: #000000; stroke-width: 0.8; stroke-linejoin: miter; stroke-linecap: square"/>
   </g>
   <g id="text_15">
    <!-- Bootstrap ROC Curve -->
    <g transform="translate(178.161719 63.12)scale(0.22 -0.22)">
     <defs>
      <path id="DejaVuSans-42" d="M 1259 2228 
L 1259 519 
L 2272 519 
Q 2781 519 3026 730 
Q 3272 941 3272 1375 
Q 3272 1813 3026 2020 
Q 2781 2228 2272 2228 
L 1259 2228 
z
M 1259 4147 
L 1259 2741 
L 2194 2741 
Q 2656 2741 2882 2914 
Q 3109 3088 3109 3444 
Q 3109 3797 2882 3972 
Q 2656 4147 2194 4147 
L 1259 4147 
z
M 628 4666 
L 2241 4666 
Q 2963 4666 3353 4366 
Q 3744 4066 3744 3513 
Q 3744 3084 3544 2831 
Q 3344 2578 2956 2516 
Q 3422 2416 3680 2098 
Q 3938 1781 3938 1306 
Q 3938 681 3513 340 
Q 3088 0 2303 0 
L 628 0 
L 628 4666 
z
" transform="scale(0.015625)"/>
      <path id="DejaVuSans-70" d="M 1159 525 
L 1159 -1331 
L 581 -1331 
L 581 3500 
L 1159 3500 
L 1159 2969 
Q 1341 3281 1617 3432 
Q 1894 3584 2278 3584 
Q 2916 3584 3314 3078 
Q 3713 2572 3713 1747 
Q 3713 922 3314 415 
Q 2916 -91 2278 -91 
Q 1894 -91 1617 61 
Q 1341 213 1159 525 
z
M 3116 1747 
Q 3116 2381 2855 2742 
Q 2594 3103 2138 3103 
Q 1681 3103 1420 2742 
Q 1159 2381 1159 1747 
Q 1159 1113 1420 752 
Q 1681 391 2138 391 
Q 2594 391 2855 752 
Q 3116 1113 3116 1747 
z
" transform="scale(0.015625)"/>
      <path id="DejaVuSans-4f" d="M 2522 4238 
Q 1834 4238 1429 3725 
Q 1025 3213 1025 2328 
Q 1025 1447 1429 934 
Q 1834 422 2522 422 
Q 3209 422 3611 934 
Q 4013 1447 4013 2328 
Q 4013 3213 3611 3725 
Q 3209 4238 2522 4238 
z
M 2522 4750 
Q 3503 4750 4090 4092 
Q 4678 3434 4678 2328 
Q 4678 1225 4090 567 
Q 3503 -91 2522 -91 
Q 1538 -91 948 565 
Q 359 1222 359 2328 
Q 359 3434 948 4092 
Q 1538 4750 2522 4750 
z
" transform="scale(0.015625)"/>
      <path id="DejaVuSans-43" d="M 4122 4306 
L 4122 3641 
Q 3803 3938 3442 4084 
Q 3081 4231 2675 4231 
Q 1875 4231 1450 3742 
Q 1025 3253 1025 2328 
Q 1025 1406 1450 917 
Q 1875 428 2675 428 
Q 3081 428 3442 575 
Q 3803 722 4122 1019 
L 4122 359 
Q 3791 134 3420 21 
Q 3050 -91 2638 -91 
Q 1578 -91 968 557 
Q 359 1206 359 2328 
Q 359 3453 968 4101 
Q 1578 4750 2638 4750 
Q 3056 4750 3426 4639 
Q 3797 4528 4122 4306 
z
" transform="scale(0.015625)"/>
     </defs>
     <use xlink:href="#DejaVuSans-42"/>
     <use xlink:href="#DejaVuSans-6f" x="68.603516"/>
     <use xlink:href="#DejaVuSans-6f" x="129.785156"/>
     <use xlink:href="#DejaVuSans-74" x="190.966797"/>
     <use xlink:href="#DejaVuSans-73" x="230.175781"/>
     <use xlink:href="#DejaVuSans-74" x="282.275391"/>
     <use xlink:href="#DejaVuSans-72" x="321.484375"/>
     <use xlink:href="#DejaVuSans-61" x="362.597656"/>
     <use xlink:href="#DejaVuSans-70" x="423.876953"/>
     <use xlink:href="#DejaVuSans-20" x="487.353516"/>
     <use xlink:href="#DejaVuSans-52" x="519.140625"/>
     <use xlink:href="#DejaVuSans-4f" x="588.623047"/>
     <use xlink:href="#DejaVuSans-43" x="667.333984"/>
     <use xlink:href="#DejaVuSans-20" x="737.158203"/>
     <use xlink:href="#DejaVuSans-43" x="768.945312"/>
     <use xlink:href="#DejaVuSans-75" x="838.769531"/>
     <use xlink:href="#DejaVuSans-72" x="902.148438"/>
     <use xlink:href="#DejaVuSans-76" x="943.261719"/>
     <use xlink:href="#DejaVuSans-65" x="1002.441406"/>
    </g>
   </g>
   <g id="legend_1">
    <g id="patch_7">
     <path d="M 372.435 496 
L 507.2 496 
Q 510.4 496 510.4 492.8 
L 510.4 447.43 
Q 510.4 444.23 507.2 444.23 
L 372.435 444.23 
Q 369.235 444.23 369.235 447.43 
L 369.235 492.8 
Q 369.235 496 372.435 496 
z
" style="fill: #ffffff; opacity: 0.8; stroke: #cccccc; stroke-linejoin: miter"/>
    </g>
    <g id="line2d_17">
     <path d="M 375.635 457.1875 
L 391.635 457.1875 
L 407.635 457.1875 
" style="fill: none; stroke: #0000ff; stroke-width: 1.5; stroke-linecap: square"/>
    </g>
    <g id="text_16">
     <!-- ROC Mean -->
     <g transform="translate(420.435 462.7875)scale(0.16 -0.16)">
      <defs>
       <path id="DejaVuSans-4d" d="M 628 4666 
L 1569 4666 
L 2759 1491 
L 3956 4666 
L 4897 4666 
L 4897 0 
L 4281 0 
L 4281 4097 
L 3078 897 
L 2444 897 
L 1241 4097 
L 1241 0 
L 628 0 
L 628 4666 
z
" transform="scale(0.015625)"/>
       <path id="DejaVuSans-6e" d="M 3513 2113 
L 3513 0 
L 2938 0 
L 2938 2094 
Q 2938 2591 2744 2837 
Q 2550 3084 2163 3084 
Q 1697 3084 1428 2787 
Q 1159 2491 1159 1978 
L 1159 0 
L 581 0 
L 581 3500 
L 1159 3500 
L 1159 2956 
Q 1366 3272 1645 3428 
Q 1925 3584 2291 3584 
Q 2894 3584 3203 3211 
Q 3513 2838 3513 2113 
z
" transform="scale(0.015625)"/>
      </defs>
      <use xlink:href="#DejaVuSans-52"/>
      <use xlink:href="#DejaVuSans-4f" x="69.482422"/>
      <use xlink:href="#DejaVuSans-43" x="148.193359"/>
      <use xlink:href="#DejaVuSans-20" x="218.017578"/>
      <use xlink:href="#DejaVuSans-4d" x="249.804688"/>
      <use xlink:href="#DejaVuSans-65" x="336.083984"/>
      <use xlink:href="#DejaVuSans-61" x="397.607422"/>
      <use xlink:href="#DejaVuSans-6e" x="458.886719"/>
     </g>
    </g>
    <g id="line2d_18">
     <path d="M 375.635 480.6725 
L 391.635 480.6725 
L 407.635 480.6725 
" style="fill: none; stroke: #808080; stroke-width: 1.5; stroke-linecap: square"/>
    </g>
    <g id="text_17">
     <!-- 95% CI -->
     <g transform="translate(420.435 486.2725)scale(0.16 -0.16)">
      <defs>
       <path id="DejaVuSans-39" d="M 703 97 
L 703 672 
Q 941 559 1184 500 
Q 1428 441 1663 441 
Q 2288 441 2617 861 
Q 2947 1281 2994 2138 
Q 2813 1869 2534 1725 
Q 2256 1581 1919 1581 
Q 1219 1581 811 2004 
Q 403 2428 403 3163 
Q 403 3881 828 4315 
Q 1253 4750 1959 4750 
Q 2769 4750 3195 4129 
Q 3622 3509 3622 2328 
Q 3622 1225 3098 567 
Q 2575 -91 1691 -91 
Q 1453 -91 1209 -44 
Q 966 3 703 97 
z
M 1959 2075 
Q 2384 2075 2632 2365 
Q 2881 2656 2881 3163 
Q 2881 3666 2632 3958 
Q 2384 4250 1959 4250 
Q 1534 4250 1286 3958 
Q 1038 3666 1038 3163 
Q 1038 2656 1286 2365 
Q 1534 2075 1959 2075 
z
" transform="scale(0.015625)"/>
       <path id="DejaVuSans-35" d="M 691 4666 
L 3169 4666 
L 3169 4134 
L 1269 4134 
L 1269 2991 
Q 1406 3038 1543 3061 
Q 1681 3084 1819 3084 
Q 2600 3084 3056 2656 
Q 3513 2228 3513 1497 
Q 3513 744 3044 326 
Q 2575 -91 1722 -91 
Q 1428 -91 1123 -41 
Q 819 9 494 109 
L 494 744 
Q 775 591 1075 516 
Q 1375 441 1709 441 
Q 2250 441 2565 725 
Q 2881 1009 2881 1497 
Q 2881 1984 2565 2268 
Q 2250 2553 1709 2553 
Q 1456 2553 1204 2497 
Q 953 2441 691 2322 
L 691 4666 
z
" transform="scale(0.015625)"/>
       <path id="DejaVuSans-25" d="M 4653 2053 
Q 4381 2053 4226 1822 
Q 4072 1591 4072 1178 
Q 4072 772 4226 539 
Q 4381 306 4653 306 
Q 4919 306 5073 539 
Q 5228 772 5228 1178 
Q 5228 1588 5073 1820 
Q 4919 2053 4653 2053 
z
M 4653 2450 
Q 5147 2450 5437 2106 
Q 5728 1763 5728 1178 
Q 5728 594 5436 251 
Q 5144 -91 4653 -91 
Q 4153 -91 3862 251 
Q 3572 594 3572 1178 
Q 3572 1766 3864 2108 
Q 4156 2450 4653 2450 
z
M 1428 4353 
Q 1159 4353 1004 4120 
Q 850 3888 850 3481 
Q 850 3069 1003 2837 
Q 1156 2606 1428 2606 
Q 1700 2606 1854 2837 
Q 2009 3069 2009 3481 
Q 2009 3884 1853 4118 
Q 1697 4353 1428 4353 
z
M 4250 4750 
L 4750 4750 
L 1831 -91 
L 1331 -91 
L 4250 4750 
z
M 1428 4750 
Q 1922 4750 2215 4408 
Q 2509 4066 2509 3481 
Q 2509 2891 2217 2550 
Q 1925 2209 1428 2209 
Q 931 2209 642 2551 
Q 353 2894 353 3481 
Q 353 4063 643 4406 
Q 934 4750 1428 4750 
z
" transform="scale(0.015625)"/>
       <path id="DejaVuSans-49" d="M 628 4666 
L 1259 4666 
L 1259 0 
L 628 0 
L 628 4666 
z
" transform="scale(0.015625)"/>
      </defs>
      <use xlink:href="#DejaVuSans-39"/>
      <use xlink:href="#DejaVuSans-35" x="63.623047"/>
      <use xlink:href="#DejaVuSans-25" x="127.246094"/>
      <use xlink:href="#DejaVuSans-20" x="222.265625"/>
      <use xlink:href="#DejaVuSans-43" x="254.052734"/>
      <use xlink:href="#DejaVuSans-49" x="323.876953"/>
     </g>
    </g>
   </g>
  </g>
 </g>
 <defs>
  <clipPath id="pa2e65c67e2">
   <rect x="72" y="69.12" width="446.4" height="434.88"/>
  </clipPath>
 </defs>
</svg>
