<?xml version="1.0" encoding="utf-8" standalone="no"?>
<!DOCTYPE svg PUBLIC "-//W3C//DTD SVG 1.1//EN"
  "http://www.w3.org/Graphics/SVG/1.1/DTD/svg11.dtd">
<svg xmlns:xlink="http://www.w3.org/1999/xlink" width="936pt" height="432pt" viewBox="0 0 936 432" xmlns="http://www.w3.org/2000/svg" version="1.1">
 <metadata>
  <rdf:RDF xmlns:dc="http://purl.org/dc/elements/1.1/" xmlns:cc="http://creativecommons.org/ns#" xmlns:rdf="http://www.w3.org/1999/02/22-rdf-syntax-ns#">
   <cc:Work>
    <dc:type rdf:resource="http://purl.org/dc/dcmitype/StillImage"/>
    <dc:date>2023-01-30T18:07:08.825921</dc:date>
    <dc:format>image/svg+xml</dc:format>
    <dc:creator>
     <cc:Agent>
      <dc:title>Matplotlib v3.5.1, https://matplotlib.org/</dc:title>
     </cc:Agent>
    </dc:creator>
   </cc:Work>
  </rdf:RDF>
 </metadata>
 <defs>
  <style type="text/css">*{stroke-linejoin: round; stroke-linecap: butt}</style>
 </defs>
 <g id="figure_1">
  <g id="patch_1">
   <path d="M 0 432 
L 936 432 
L 936 0 
L 0 0 
L 0 432 
z
" style="fill: none"/>
  </g>
  <g id="axes_1">
   <g id="patch_2">
    <path d="M 117 378 
L 446.727273 378 
L 446.727273 51.84 
L 117 51.84 
z
" style="fill: #ffffff"/>
   </g>
   <g id="matplotlib.axis_1">
    <g id="xtick_1">
     <g id="line2d_1">
      <defs>
       <path id="md56a59b844" d="M 0 0 
L 0 3.5 
" style="stroke: #000000; stroke-width: 0.8"/>
      </defs>
      <g>
       <use xlink:href="#md56a59b844" x="117" y="378" style="stroke: #000000; stroke-width: 0.8"/>
      </g>
     </g>
     <g id="text_1">
      <!-- 0.0 -->
      <g transform="translate(107.458125 394.118125)scale(0.12 -0.12)">
       <defs>
        <path id="DejaVuSans-30" d="M 2034 4250 
Q 1547 4250 1301 3770 
Q 1056 3291 1056 2328 
Q 1056 1369 1301 889 
Q 1547 409 2034 409 
Q 2525 409 2770 889 
Q 3016 1369 3016 2328 
Q 3016 3291 2770 3770 
Q 2525 4250 2034 4250 
z
M 2034 4750 
Q 2819 4750 3233 4129 
Q 3647 3509 3647 2328 
Q 3647 1150 3233 529 
Q 2819 -91 2034 -91 
Q 1250 -91 836 529 
Q 422 1150 422 2328 
Q 422 3509 836 4129 
Q 1250 4750 2034 4750 
z
" transform="scale(0.015625)"/>
        <path id="DejaVuSans-2e" d="M 684 794 
L 1344 794 
L 1344 0 
L 684 0 
L 684 794 
z
" transform="scale(0.015625)"/>
       </defs>
       <use xlink:href="#DejaVuSans-30"/>
       <use xlink:href="#DejaVuSans-2e" x="63.623047"/>
       <use xlink:href="#DejaVuSans-30" x="95.410156"/>
      </g>
     </g>
    </g>
    <g id="xtick_2">
     <g id="line2d_2">
      <g>
       <use xlink:href="#md56a59b844" x="182.945455" y="378" style="stroke: #000000; stroke-width: 0.8"/>
      </g>
     </g>
     <g id="text_2">
      <!-- 0.2 -->
      <g transform="translate(173.40358 394.118125)scale(0.12 -0.12)">
       <defs>
        <path id="DejaVuSans-32" d="M 1228 531 
L 3431 531 
L 3431 0 
L 469 0 
L 469 531 
Q 828 903 1448 1529 
Q 2069 2156 2228 2338 
Q 2531 2678 2651 2914 
Q 2772 3150 2772 3378 
Q 2772 3750 2511 3984 
Q 2250 4219 1831 4219 
Q 1534 4219 1204 4116 
Q 875 4013 500 3803 
L 500 4441 
Q 881 4594 1212 4672 
Q 1544 4750 1819 4750 
Q 2544 4750 2975 4387 
Q 3406 4025 3406 3419 
Q 3406 3131 3298 2873 
Q 3191 2616 2906 2266 
Q 2828 2175 2409 1742 
Q 1991 1309 1228 531 
z
" transform="scale(0.015625)"/>
       </defs>
       <use xlink:href="#DejaVuSans-30"/>
       <use xlink:href="#DejaVuSans-2e" x="63.623047"/>
       <use xlink:href="#DejaVuSans-32" x="95.410156"/>
      </g>
     </g>
    </g>
    <g id="xtick_3">
     <g id="line2d_3">
      <g>
       <use xlink:href="#md56a59b844" x="248.890909" y="378" style="stroke: #000000; stroke-width: 0.8"/>
      </g>
     </g>
     <g id="text_3">
      <!-- 0.4 -->
      <g transform="translate(239.349034 394.118125)scale(0.12 -0.12)">
       <defs>
        <path id="DejaVuSans-34" d="M 2419 4116 
L 825 1625 
L 2419 1625 
L 2419 4116 
z
M 2253 4666 
L 3047 4666 
L 3047 1625 
L 3713 1625 
L 3713 1100 
L 3047 1100 
L 3047 0 
L 2419 0 
L 2419 1100 
L 313 1100 
L 313 1709 
L 2253 4666 
z
" transform="scale(0.015625)"/>
       </defs>
       <use xlink:href="#DejaVuSans-30"/>
       <use xlink:href="#DejaVuSans-2e" x="63.623047"/>
       <use xlink:href="#DejaVuSans-34" x="95.410156"/>
      </g>
     </g>
    </g>
    <g id="xtick_4">
     <g id="line2d_4">
      <g>
       <use xlink:href="#md56a59b844" x="314.836364" y="378" style="stroke: #000000; stroke-width: 0.8"/>
      </g>
     </g>
     <g id="text_4">
      <!-- 0.6 -->
      <g transform="translate(305.294489 394.118125)scale(0.12 -0.12)">
       <defs>
        <path id="DejaVuSans-36" d="M 2113 2584 
Q 1688 2584 1439 2293 
Q 1191 2003 1191 1497 
Q 1191 994 1439 701 
Q 1688 409 2113 409 
Q 2538 409 2786 701 
Q 3034 994 3034 1497 
Q 3034 2003 2786 2293 
Q 2538 2584 2113 2584 
z
M 3366 4563 
L 3366 3988 
Q 3128 4100 2886 4159 
Q 2644 4219 2406 4219 
Q 1781 4219 1451 3797 
Q 1122 3375 1075 2522 
Q 1259 2794 1537 2939 
Q 1816 3084 2150 3084 
Q 2853 3084 3261 2657 
Q 3669 2231 3669 1497 
Q 3669 778 3244 343 
Q 2819 -91 2113 -91 
Q 1303 -91 875 529 
Q 447 1150 447 2328 
Q 447 3434 972 4092 
Q 1497 4750 2381 4750 
Q 2619 4750 2861 4703 
Q 3103 4656 3366 4563 
z
" transform="scale(0.015625)"/>
       </defs>
       <use xlink:href="#DejaVuSans-30"/>
       <use xlink:href="#DejaVuSans-2e" x="63.623047"/>
       <use xlink:href="#DejaVuSans-36" x="95.410156"/>
      </g>
     </g>
    </g>
    <g id="xtick_5">
     <g id="line2d_5">
      <g>
       <use xlink:href="#md56a59b844" x="380.781818" y="378" style="stroke: #000000; stroke-width: 0.8"/>
      </g>
     </g>
     <g id="text_5">
      <!-- 0.8 -->
      <g transform="translate(371.239943 394.118125)scale(0.12 -0.12)">
       <defs>
        <path id="DejaVuSans-38" d="M 2034 2216 
Q 1584 2216 1326 1975 
Q 1069 1734 1069 1313 
Q 1069 891 1326 650 
Q 1584 409 2034 409 
Q 2484 409 2743 651 
Q 3003 894 3003 1313 
Q 3003 1734 2745 1975 
Q 2488 2216 2034 2216 
z
M 1403 2484 
Q 997 2584 770 2862 
Q 544 3141 544 3541 
Q 544 4100 942 4425 
Q 1341 4750 2034 4750 
Q 2731 4750 3128 4425 
Q 3525 4100 3525 3541 
Q 3525 3141 3298 2862 
Q 3072 2584 2669 2484 
Q 3125 2378 3379 2068 
Q 3634 1759 3634 1313 
Q 3634 634 3220 271 
Q 2806 -91 2034 -91 
Q 1263 -91 848 271 
Q 434 634 434 1313 
Q 434 1759 690 2068 
Q 947 2378 1403 2484 
z
M 1172 3481 
Q 1172 3119 1398 2916 
Q 1625 2713 2034 2713 
Q 2441 2713 2670 2916 
Q 2900 3119 2900 3481 
Q 2900 3844 2670 4047 
Q 2441 4250 2034 4250 
Q 1625 4250 1398 4047 
Q 1172 3844 1172 3481 
z
" transform="scale(0.015625)"/>
       </defs>
       <use xlink:href="#DejaVuSans-30"/>
       <use xlink:href="#DejaVuSans-2e" x="63.623047"/>
       <use xlink:href="#DejaVuSans-38" x="95.410156"/>
      </g>
     </g>
    </g>
    <g id="xtick_6">
     <g id="line2d_6">
      <g>
       <use xlink:href="#md56a59b844" x="446.727273" y="378" style="stroke: #000000; stroke-width: 0.8"/>
      </g>
     </g>
     <g id="text_6">
      <!-- 1.0 -->
      <g transform="translate(437.185398 394.118125)scale(0.12 -0.12)">
       <defs>
        <path id="DejaVuSans-31" d="M 794 531 
L 1825 531 
L 1825 4091 
L 703 3866 
L 703 4441 
L 1819 4666 
L 2450 4666 
L 2450 531 
L 3481 531 
L 3481 0 
L 794 0 
L 794 531 
z
" transform="scale(0.015625)"/>
       </defs>
       <use xlink:href="#DejaVuSans-31"/>
       <use xlink:href="#DejaVuSans-2e" x="63.623047"/>
       <use xlink:href="#DejaVuSans-30" x="95.410156"/>
      </g>
     </g>
    </g>
    <g id="text_7">
     <!-- Decision Boundary (T) -->
     <g transform="translate(215.262699 409.731875)scale(0.12 -0.12)">
      <defs>
       <path id="DejaVuSans-44" d="M 1259 4147 
L 1259 519 
L 2022 519 
Q 2988 519 3436 956 
Q 3884 1394 3884 2338 
Q 3884 3275 3436 3711 
Q 2988 4147 2022 4147 
L 1259 4147 
z
M 628 4666 
L 1925 4666 
Q 3281 4666 3915 4102 
Q 4550 3538 4550 2338 
Q 4550 1131 3912 565 
Q 3275 0 1925 0 
L 628 0 
L 628 4666 
z
" transform="scale(0.015625)"/>
       <path id="DejaVuSans-65" d="M 3597 1894 
L 3597 1613 
L 953 1613 
Q 991 1019 1311 708 
Q 1631 397 2203 397 
Q 2534 397 2845 478 
Q 3156 559 3463 722 
L 3463 178 
Q 3153 47 2828 -22 
Q 2503 -91 2169 -91 
Q 1331 -91 842 396 
Q 353 884 353 1716 
Q 353 2575 817 3079 
Q 1281 3584 2069 3584 
Q 2775 3584 3186 3129 
Q 3597 2675 3597 1894 
z
M 3022 2063 
Q 3016 2534 2758 2815 
Q 2500 3097 2075 3097 
Q 1594 3097 1305 2825 
Q 1016 2553 972 2059 
L 3022 2063 
z
" transform="scale(0.015625)"/>
       <path id="DejaVuSans-63" d="M 3122 3366 
L 3122 2828 
Q 2878 2963 2633 3030 
Q 2388 3097 2138 3097 
Q 1578 3097 1268 2742 
Q 959 2388 959 1747 
Q 959 1106 1268 751 
Q 1578 397 2138 397 
Q 2388 397 2633 464 
Q 2878 531 3122 666 
L 3122 134 
Q 2881 22 2623 -34 
Q 2366 -91 2075 -91 
Q 1284 -91 818 406 
Q 353 903 353 1747 
Q 353 2603 823 3093 
Q 1294 3584 2113 3584 
Q 2378 3584 2631 3529 
Q 2884 3475 3122 3366 
z
" transform="scale(0.015625)"/>
       <path id="DejaVuSans-69" d="M 603 3500 
L 1178 3500 
L 1178 0 
L 603 0 
L 603 3500 
z
M 603 4863 
L 1178 4863 
L 1178 4134 
L 603 4134 
L 603 4863 
z
" transform="scale(0.015625)"/>
       <path id="DejaVuSans-73" d="M 2834 3397 
L 2834 2853 
Q 2591 2978 2328 3040 
Q 2066 3103 1784 3103 
Q 1356 3103 1142 2972 
Q 928 2841 928 2578 
Q 928 2378 1081 2264 
Q 1234 2150 1697 2047 
L 1894 2003 
Q 2506 1872 2764 1633 
Q 3022 1394 3022 966 
Q 3022 478 2636 193 
Q 2250 -91 1575 -91 
Q 1294 -91 989 -36 
Q 684 19 347 128 
L 347 722 
Q 666 556 975 473 
Q 1284 391 1588 391 
Q 1994 391 2212 530 
Q 2431 669 2431 922 
Q 2431 1156 2273 1281 
Q 2116 1406 1581 1522 
L 1381 1569 
Q 847 1681 609 1914 
Q 372 2147 372 2553 
Q 372 3047 722 3315 
Q 1072 3584 1716 3584 
Q 2034 3584 2315 3537 
Q 2597 3491 2834 3397 
z
" transform="scale(0.015625)"/>
       <path id="DejaVuSans-6f" d="M 1959 3097 
Q 1497 3097 1228 2736 
Q 959 2375 959 1747 
Q 959 1119 1226 758 
Q 1494 397 1959 397 
Q 2419 397 2687 759 
Q 2956 1122 2956 1747 
Q 2956 2369 2687 2733 
Q 2419 3097 1959 3097 
z
M 1959 3584 
Q 2709 3584 3137 3096 
Q 3566 2609 3566 1747 
Q 3566 888 3137 398 
Q 2709 -91 1959 -91 
Q 1206 -91 779 398 
Q 353 888 353 1747 
Q 353 2609 779 3096 
Q 1206 3584 1959 3584 
z
" transform="scale(0.015625)"/>
       <path id="DejaVuSans-6e" d="M 3513 2113 
L 3513 0 
L 2938 0 
L 2938 2094 
Q 2938 2591 2744 2837 
Q 2550 3084 2163 3084 
Q 1697 3084 1428 2787 
Q 1159 2491 1159 1978 
L 1159 0 
L 581 0 
L 581 3500 
L 1159 3500 
L 1159 2956 
Q 1366 3272 1645 3428 
Q 1925 3584 2291 3584 
Q 2894 3584 3203 3211 
Q 3513 2838 3513 2113 
z
" transform="scale(0.015625)"/>
       <path id="DejaVuSans-20" transform="scale(0.015625)"/>
       <path id="DejaVuSans-42" d="M 1259 2228 
L 1259 519 
L 2272 519 
Q 2781 519 3026 730 
Q 3272 941 3272 1375 
Q 3272 1813 3026 2020 
Q 2781 2228 2272 2228 
L 1259 2228 
z
M 1259 4147 
L 1259 2741 
L 2194 2741 
Q 2656 2741 2882 2914 
Q 3109 3088 3109 3444 
Q 3109 3797 2882 3972 
Q 2656 4147 2194 4147 
L 1259 4147 
z
M 628 4666 
L 2241 4666 
Q 2963 4666 3353 4366 
Q 3744 4066 3744 3513 
Q 3744 3084 3544 2831 
Q 3344 2578 2956 2516 
Q 3422 2416 3680 2098 
Q 3938 1781 3938 1306 
Q 3938 681 3513 340 
Q 3088 0 2303 0 
L 628 0 
L 628 4666 
z
" transform="scale(0.015625)"/>
       <path id="DejaVuSans-75" d="M 544 1381 
L 544 3500 
L 1119 3500 
L 1119 1403 
Q 1119 906 1312 657 
Q 1506 409 1894 409 
Q 2359 409 2629 706 
Q 2900 1003 2900 1516 
L 2900 3500 
L 3475 3500 
L 3475 0 
L 2900 0 
L 2900 538 
Q 2691 219 2414 64 
Q 2138 -91 1772 -91 
Q 1169 -91 856 284 
Q 544 659 544 1381 
z
M 1991 3584 
L 1991 3584 
z
" transform="scale(0.015625)"/>
       <path id="DejaVuSans-64" d="M 2906 2969 
L 2906 4863 
L 3481 4863 
L 3481 0 
L 2906 0 
L 2906 525 
Q 2725 213 2448 61 
Q 2172 -91 1784 -91 
Q 1150 -91 751 415 
Q 353 922 353 1747 
Q 353 2572 751 3078 
Q 1150 3584 1784 3584 
Q 2172 3584 2448 3432 
Q 2725 3281 2906 2969 
z
M 947 1747 
Q 947 1113 1208 752 
Q 1469 391 1925 391 
Q 2381 391 2643 752 
Q 2906 1113 2906 1747 
Q 2906 2381 2643 2742 
Q 2381 3103 1925 3103 
Q 1469 3103 1208 2742 
Q 947 2381 947 1747 
z
" transform="scale(0.015625)"/>
       <path id="DejaVuSans-61" d="M 2194 1759 
Q 1497 1759 1228 1600 
Q 959 1441 959 1056 
Q 959 750 1161 570 
Q 1363 391 1709 391 
Q 2188 391 2477 730 
Q 2766 1069 2766 1631 
L 2766 1759 
L 2194 1759 
z
M 3341 1997 
L 3341 0 
L 2766 0 
L 2766 531 
Q 2569 213 2275 61 
Q 1981 -91 1556 -91 
Q 1019 -91 701 211 
Q 384 513 384 1019 
Q 384 1609 779 1909 
Q 1175 2209 1959 2209 
L 2766 2209 
L 2766 2266 
Q 2766 2663 2505 2880 
Q 2244 3097 1772 3097 
Q 1472 3097 1187 3025 
Q 903 2953 641 2809 
L 641 3341 
Q 956 3463 1253 3523 
Q 1550 3584 1831 3584 
Q 2591 3584 2966 3190 
Q 3341 2797 3341 1997 
z
" transform="scale(0.015625)"/>
       <path id="DejaVuSans-72" d="M 2631 2963 
Q 2534 3019 2420 3045 
Q 2306 3072 2169 3072 
Q 1681 3072 1420 2755 
Q 1159 2438 1159 1844 
L 1159 0 
L 581 0 
L 581 3500 
L 1159 3500 
L 1159 2956 
Q 1341 3275 1631 3429 
Q 1922 3584 2338 3584 
Q 2397 3584 2469 3576 
Q 2541 3569 2628 3553 
L 2631 2963 
z
" transform="scale(0.015625)"/>
       <path id="DejaVuSans-79" d="M 2059 -325 
Q 1816 -950 1584 -1140 
Q 1353 -1331 966 -1331 
L 506 -1331 
L 506 -850 
L 844 -850 
Q 1081 -850 1212 -737 
Q 1344 -625 1503 -206 
L 1606 56 
L 191 3500 
L 800 3500 
L 1894 763 
L 2988 3500 
L 3597 3500 
L 2059 -325 
z
" transform="scale(0.015625)"/>
       <path id="DejaVuSans-28" d="M 1984 4856 
Q 1566 4138 1362 3434 
Q 1159 2731 1159 2009 
Q 1159 1288 1364 580 
Q 1569 -128 1984 -844 
L 1484 -844 
Q 1016 -109 783 600 
Q 550 1309 550 2009 
Q 550 2706 781 3412 
Q 1013 4119 1484 4856 
L 1984 4856 
z
" transform="scale(0.015625)"/>
       <path id="DejaVuSans-54" d="M -19 4666 
L 3928 4666 
L 3928 4134 
L 2272 4134 
L 2272 0 
L 1638 0 
L 1638 4134 
L -19 4134 
L -19 4666 
z
" transform="scale(0.015625)"/>
       <path id="DejaVuSans-29" d="M 513 4856 
L 1013 4856 
Q 1481 4119 1714 3412 
Q 1947 2706 1947 2009 
Q 1947 1309 1714 600 
Q 1481 -109 1013 -844 
L 513 -844 
Q 928 -128 1133 580 
Q 1338 1288 1338 2009 
Q 1338 2731 1133 3434 
Q 928 4138 513 4856 
z
" transform="scale(0.015625)"/>
      </defs>
      <use xlink:href="#DejaVuSans-44"/>
      <use xlink:href="#DejaVuSans-65" x="77.001953"/>
      <use xlink:href="#DejaVuSans-63" x="138.525391"/>
      <use xlink:href="#DejaVuSans-69" x="193.505859"/>
      <use xlink:href="#DejaVuSans-73" x="221.289062"/>
      <use xlink:href="#DejaVuSans-69" x="273.388672"/>
      <use xlink:href="#DejaVuSans-6f" x="301.171875"/>
      <use xlink:href="#DejaVuSans-6e" x="362.353516"/>
      <use xlink:href="#DejaVuSans-20" x="425.732422"/>
      <use xlink:href="#DejaVuSans-42" x="457.519531"/>
      <use xlink:href="#DejaVuSans-6f" x="526.123047"/>
      <use xlink:href="#DejaVuSans-75" x="587.304688"/>
      <use xlink:href="#DejaVuSans-6e" x="650.683594"/>
      <use xlink:href="#DejaVuSans-64" x="714.0625"/>
      <use xlink:href="#DejaVuSans-61" x="777.539062"/>
      <use xlink:href="#DejaVuSans-72" x="838.818359"/>
      <use xlink:href="#DejaVuSans-79" x="879.931641"/>
      <use xlink:href="#DejaVuSans-20" x="939.111328"/>
      <use xlink:href="#DejaVuSans-28" x="970.898438"/>
      <use xlink:href="#DejaVuSans-54" x="1009.912109"/>
      <use xlink:href="#DejaVuSans-29" x="1070.996094"/>
     </g>
     <!-- (a) -->
     <g transform="translate(273.504886 423.16925)scale(0.12 -0.12)">
      <use xlink:href="#DejaVuSans-28"/>
      <use xlink:href="#DejaVuSans-61" x="39.013672"/>
      <use xlink:href="#DejaVuSans-29" x="100.292969"/>
     </g>
     <!--  -->
     <g transform="translate(281.863636 436.606625)scale(0.12 -0.12)"/>
    </g>
   </g>
   <g id="matplotlib.axis_2">
    <g id="ytick_1">
     <g id="line2d_7">
      <defs>
       <path id="m4880b3cb27" d="M 0 0 
L -3.5 0 
" style="stroke: #000000; stroke-width: 0.8"/>
      </defs>
      <g>
       <use xlink:href="#m4880b3cb27" x="117" y="374.799215" style="stroke: #000000; stroke-width: 0.8"/>
      </g>
     </g>
     <g id="text_8">
      <!-- 0.0 -->
      <g transform="translate(90.91625 379.358277)scale(0.12 -0.12)">
       <use xlink:href="#DejaVuSans-30"/>
       <use xlink:href="#DejaVuSans-2e" x="63.623047"/>
       <use xlink:href="#DejaVuSans-30" x="95.410156"/>
      </g>
     </g>
    </g>
    <g id="ytick_2">
     <g id="line2d_8">
      <g>
       <use xlink:href="#m4880b3cb27" x="117" y="310.783513" style="stroke: #000000; stroke-width: 0.8"/>
      </g>
     </g>
     <g id="text_9">
      <!-- 0.2 -->
      <g transform="translate(90.91625 315.342576)scale(0.12 -0.12)">
       <use xlink:href="#DejaVuSans-30"/>
       <use xlink:href="#DejaVuSans-2e" x="63.623047"/>
       <use xlink:href="#DejaVuSans-32" x="95.410156"/>
      </g>
     </g>
    </g>
    <g id="ytick_3">
     <g id="line2d_9">
      <g>
       <use xlink:href="#m4880b3cb27" x="117" y="246.767812" style="stroke: #000000; stroke-width: 0.8"/>
      </g>
     </g>
     <g id="text_10">
      <!-- 0.4 -->
      <g transform="translate(90.91625 251.326874)scale(0.12 -0.12)">
       <use xlink:href="#DejaVuSans-30"/>
       <use xlink:href="#DejaVuSans-2e" x="63.623047"/>
       <use xlink:href="#DejaVuSans-34" x="95.410156"/>
      </g>
     </g>
    </g>
    <g id="ytick_4">
     <g id="line2d_10">
      <g>
       <use xlink:href="#m4880b3cb27" x="117" y="182.75211" style="stroke: #000000; stroke-width: 0.8"/>
      </g>
     </g>
     <g id="text_11">
      <!-- 0.6 -->
      <g transform="translate(90.91625 187.311172)scale(0.12 -0.12)">
       <use xlink:href="#DejaVuSans-30"/>
       <use xlink:href="#DejaVuSans-2e" x="63.623047"/>
       <use xlink:href="#DejaVuSans-36" x="95.410156"/>
      </g>
     </g>
    </g>
    <g id="ytick_5">
     <g id="line2d_11">
      <g>
       <use xlink:href="#m4880b3cb27" x="117" y="118.736408" style="stroke: #000000; stroke-width: 0.8"/>
      </g>
     </g>
     <g id="text_12">
      <!-- 0.8 -->
      <g transform="translate(90.91625 123.295471)scale(0.12 -0.12)">
       <use xlink:href="#DejaVuSans-30"/>
       <use xlink:href="#DejaVuSans-2e" x="63.623047"/>
       <use xlink:href="#DejaVuSans-38" x="95.410156"/>
      </g>
     </g>
    </g>
    <g id="ytick_6">
     <g id="line2d_12">
      <g>
       <use xlink:href="#m4880b3cb27" x="117" y="54.720707" style="stroke: #000000; stroke-width: 0.8"/>
      </g>
     </g>
     <g id="text_13">
      <!-- 1.0 -->
      <g transform="translate(90.91625 59.279769)scale(0.12 -0.12)">
       <use xlink:href="#DejaVuSans-31"/>
       <use xlink:href="#DejaVuSans-2e" x="63.623047"/>
       <use xlink:href="#DejaVuSans-30" x="95.410156"/>
      </g>
     </g>
    </g>
    <g id="text_14">
     <!-- Recall Rate -->
     <g transform="translate(84.420625 248.4825)rotate(-90)scale(0.12 -0.12)">
      <defs>
       <path id="DejaVuSans-52" d="M 2841 2188 
Q 3044 2119 3236 1894 
Q 3428 1669 3622 1275 
L 4263 0 
L 3584 0 
L 2988 1197 
Q 2756 1666 2539 1819 
Q 2322 1972 1947 1972 
L 1259 1972 
L 1259 0 
L 628 0 
L 628 4666 
L 2053 4666 
Q 2853 4666 3247 4331 
Q 3641 3997 3641 3322 
Q 3641 2881 3436 2590 
Q 3231 2300 2841 2188 
z
M 1259 4147 
L 1259 2491 
L 2053 2491 
Q 2509 2491 2742 2702 
Q 2975 2913 2975 3322 
Q 2975 3731 2742 3939 
Q 2509 4147 2053 4147 
L 1259 4147 
z
" transform="scale(0.015625)"/>
       <path id="DejaVuSans-6c" d="M 603 4863 
L 1178 4863 
L 1178 0 
L 603 0 
L 603 4863 
z
" transform="scale(0.015625)"/>
       <path id="DejaVuSans-74" d="M 1172 4494 
L 1172 3500 
L 2356 3500 
L 2356 3053 
L 1172 3053 
L 1172 1153 
Q 1172 725 1289 603 
Q 1406 481 1766 481 
L 2356 481 
L 2356 0 
L 1766 0 
Q 1100 0 847 248 
Q 594 497 594 1153 
L 594 3053 
L 172 3053 
L 172 3500 
L 594 3500 
L 594 4494 
L 1172 4494 
z
" transform="scale(0.015625)"/>
      </defs>
      <use xlink:href="#DejaVuSans-52"/>
      <use xlink:href="#DejaVuSans-65" x="64.982422"/>
      <use xlink:href="#DejaVuSans-63" x="126.505859"/>
      <use xlink:href="#DejaVuSans-61" x="181.486328"/>
      <use xlink:href="#DejaVuSans-6c" x="242.765625"/>
      <use xlink:href="#DejaVuSans-6c" x="270.548828"/>
      <use xlink:href="#DejaVuSans-20" x="298.332031"/>
      <use xlink:href="#DejaVuSans-52" x="330.119141"/>
      <use xlink:href="#DejaVuSans-61" x="397.351562"/>
      <use xlink:href="#DejaVuSans-74" x="458.630859"/>
      <use xlink:href="#DejaVuSans-65" x="497.839844"/>
     </g>
    </g>
   </g>
   <g id="line2d_13">
    <path d="M 281.863636 374.799215 
L 281.863636 54.720707 
" clip-path="url(#p0c2ae16a93)" style="fill: none; stroke-dasharray: 5.55,2.4; stroke-dashoffset: 0; stroke: #000000; stroke-width: 1.5"/>
   </g>
   <g id="line2d_14">
    <path d="M 117 374.799215 
L 120.297273 341.577493 
L 123.594545 324.966633 
L 126.891818 316.235283 
L 130.189091 308.355772 
L 133.486364 301.966979 
L 136.783636 294.513388 
L 140.080909 288.976435 
L 143.378182 283.865401 
L 146.675455 281.309883 
L 149.972727 276.837729 
L 153.27 273.430373 
L 156.567273 269.810057 
L 159.864545 265.976781 
L 163.161818 262.782385 
L 166.459091 259.800948 
L 169.756364 257.671351 
L 173.053636 255.754713 
L 176.350909 252.773277 
L 179.648182 249.152961 
L 182.945455 248.301122 
L 186.242727 247.449283 
L 189.54 244.680806 
L 192.837273 242.977128 
L 196.134545 241.06049 
L 199.431818 238.717933 
L 202.729091 236.375376 
L 206.026364 234.458738 
L 209.323636 231.264342 
L 212.620909 228.708825 
L 215.918182 227.218106 
L 219.215455 224.875549 
L 222.512727 223.384831 
L 225.81 221.468193 
L 229.107273 220.616354 
L 232.404545 219.764515 
L 235.701818 218.060837 
L 238.999091 216.783078 
L 242.296364 215.0794 
L 245.593636 213.162763 
L 248.890909 209.968366 
L 252.188182 208.477648 
L 255.485455 207.412849 
L 258.782727 206.348051 
L 262.08 204.644372 
L 265.377273 203.579574 
L 268.674545 201.237016 
L 271.971818 199.959258 
L 275.269091 198.894459 
L 278.566364 196.551902 
L 281.863636 195.061184 
L 285.160909 194.209345 
L 288.458182 192.931586 
L 291.755455 191.866787 
L 295.052727 189.95015 
L 298.35 187.607592 
L 301.647273 186.968713 
L 304.944545 185.052075 
L 308.241818 182.922478 
L 311.539091 181.431759 
L 314.836364 179.941041 
L 318.133636 179.302162 
L 321.430909 177.172564 
L 324.728182 175.681846 
L 328.025455 174.617047 
L 331.322727 172.913369 
L 334.62 171.848571 
L 337.917273 169.931933 
L 341.214545 169.080094 
L 344.511818 167.589376 
L 347.809091 165.672738 
L 351.106364 162.265382 
L 354.403636 161.413543 
L 357.700909 158.858026 
L 360.998182 157.580267 
L 364.295455 155.02475 
L 367.592727 153.959951 
L 370.89 151.830354 
L 374.187273 149.274837 
L 377.484545 147.145239 
L 380.781818 144.802682 
L 384.079091 142.673084 
L 387.376364 140.969406 
L 390.673636 139.052769 
L 393.970909 135.432453 
L 397.268182 133.089896 
L 400.565455 130.108459 
L 403.862727 127.552942 
L 407.16 126.275183 
L 410.457273 122.441908 
L 413.754545 118.395673 
L 417.051818 115.201276 
L 420.349091 110.729122 
L 423.646364 106.256967 
L 426.943636 101.784812 
L 430.240909 95.821939 
L 433.538182 88.581307 
L 436.835455 80.701796 
L 440.132727 72.822286 
L 443.43 64.090936 
" clip-path="url(#p0c2ae16a93)" style="fill: none; stroke: #1f77b4; stroke-width: 1.5; stroke-linecap: square"/>
   </g>
   <g id="line2d_15">
    <path d="M 117 374.799215 
L 120.297273 374.586255 
L 123.594545 372.669617 
L 126.891818 370.75298 
L 130.189091 368.623382 
L 133.486364 366.919704 
L 136.783636 363.938268 
L 140.080909 361.59571 
L 143.378182 359.892032 
L 146.675455 358.188354 
L 149.972727 356.271716 
L 153.27 353.929159 
L 156.567273 351.586602 
L 159.864545 349.882924 
L 163.161818 347.753326 
L 166.459091 345.836689 
L 169.756364 343.281172 
L 173.053636 341.364534 
L 176.350909 339.660856 
L 179.648182 337.531258 
L 182.945455 335.82758 
L 186.242727 333.272063 
L 189.54 330.503586 
L 192.837273 327.948069 
L 196.134545 325.818472 
L 199.431818 323.262955 
L 202.729091 321.346317 
L 206.026364 318.151921 
L 209.323636 316.448243 
L 212.620909 314.531605 
L 215.918182 312.827927 
L 219.215455 310.48537 
L 222.512727 309.207611 
L 225.81 306.013215 
L 229.107273 303.457698 
L 232.404545 300.476261 
L 235.701818 299.198503 
L 238.999091 296.004106 
L 242.296364 293.448589 
L 245.593636 291.318992 
L 248.890909 289.189394 
L 252.188182 285.569079 
L 255.485455 283.439481 
L 258.782727 279.606205 
L 262.08 276.411809 
L 265.377273 274.921091 
L 268.674545 273.856292 
L 271.971818 271.513735 
L 275.269091 269.384137 
L 278.566364 266.82862 
L 281.863636 264.699023 
L 285.160909 261.717586 
L 288.458182 258.31023 
L 291.755455 255.115834 
L 295.052727 251.708478 
L 298.35 248.940001 
L 301.647273 245.745605 
L 304.944545 243.403047 
L 308.241818 241.699369 
L 311.539091 239.995691 
L 314.836364 237.227215 
L 318.133636 234.884657 
L 321.430909 231.477301 
L 324.728182 228.495865 
L 328.025455 223.81075 
L 331.322727 221.042273 
L 334.62 217.634917 
L 337.917273 214.227561 
L 341.214545 209.116527 
L 344.511818 203.579574 
L 347.809091 199.959258 
L 351.106364 196.338942 
L 354.403636 191.653828 
L 357.700909 186.755753 
L 360.998182 182.283598 
L 364.295455 179.302162 
L 367.592727 174.830007 
L 370.89 169.506013 
L 374.187273 165.672738 
L 377.484545 160.561704 
L 380.781818 154.598831 
L 384.079091 148.422998 
L 387.376364 143.311964 
L 390.673636 138.839809 
L 393.970909 134.154694 
L 397.268182 129.46958 
L 400.565455 123.506707 
L 403.862727 117.117914 
L 407.16 110.729122 
L 410.457273 103.27553 
L 413.754545 96.673778 
L 417.051818 90.284985 
L 420.349091 85.173951 
L 423.646364 78.359239 
L 426.943636 72.396366 
L 430.240909 67.072372 
L 433.538182 62.600217 
L 436.835455 58.128063 
L 440.132727 54.933666 
L 443.43 54.720707 
" clip-path="url(#p0c2ae16a93)" style="fill: none; stroke: #ff7f0e; stroke-width: 1.5; stroke-linecap: square"/>
   </g>
   <g id="line2d_16">
    <path d="M 117 374.799215 
L 120.297273 374.799215 
L 123.594545 374.160336 
L 126.891818 373.095537 
L 130.189091 372.882577 
L 133.486364 371.391859 
L 136.783636 369.901141 
L 140.080909 368.410422 
L 143.378182 366.493785 
L 146.675455 365.641946 
L 149.972727 365.003066 
L 153.27 362.660509 
L 156.567273 362.23459 
L 159.864545 360.530911 
L 163.161818 359.679072 
L 166.459091 358.614274 
L 169.756364 356.697636 
L 173.053636 355.419877 
L 176.350909 353.07732 
L 179.648182 350.947723 
L 182.945455 348.818125 
L 186.242727 346.475568 
L 189.54 344.98485 
L 192.837273 343.068212 
L 196.134545 341.151574 
L 199.431818 339.447896 
L 202.729091 338.596057 
L 206.026364 336.04054 
L 209.323636 333.697983 
L 212.620909 333.059103 
L 215.918182 331.142466 
L 219.215455 329.225828 
L 222.512727 326.883271 
L 225.81 324.114794 
L 229.107273 321.346317 
L 232.404545 317.726001 
L 235.701818 315.170484 
L 238.999091 312.189048 
L 242.296364 310.05945 
L 245.593636 307.929853 
L 248.890909 306.652094 
L 252.188182 303.883617 
L 255.485455 300.902181 
L 258.782727 298.559623 
L 262.08 296.642986 
L 265.377273 294.087469 
L 268.674545 291.531952 
L 271.971818 288.550515 
L 275.269091 284.930199 
L 278.566364 280.458044 
L 281.863636 277.050688 
L 285.160909 272.365574 
L 288.458182 269.810057 
L 291.755455 264.699023 
L 295.052727 259.587989 
L 298.35 256.606552 
L 301.647273 253.412156 
L 304.944545 248.514082 
L 308.241818 242.125289 
L 311.539091 238.079054 
L 314.836364 233.393939 
L 318.133636 228.069945 
L 321.430909 222.745951 
L 324.728182 217.208998 
L 328.025455 212.097964 
L 331.322727 207.838769 
L 334.62 204.005493 
L 337.917273 198.46854 
L 341.214545 193.570465 
L 344.511818 188.459431 
L 347.809091 182.496558 
L 351.106364 176.959605 
L 354.403636 170.996732 
L 357.700909 165.033858 
L 360.998182 157.793227 
L 364.295455 153.108112 
L 367.592727 146.08044 
L 370.89 139.904608 
L 374.187273 133.089896 
L 377.484545 128.191821 
L 380.781818 120.95119 
L 384.079091 115.201276 
L 387.376364 110.090242 
L 390.673636 105.831047 
L 393.970909 102.210731 
L 397.268182 96.247858 
L 400.565455 90.284985 
L 403.862727 84.960991 
L 407.16 81.340676 
L 410.457273 76.442601 
L 413.754545 73.035245 
L 417.051818 68.98901 
L 420.349091 65.794614 
L 423.646364 63.239097 
L 426.943636 62.387258 
L 430.240909 60.68358 
L 433.538182 58.341022 
L 436.835455 56.424385 
L 440.132727 55.785505 
L 443.43 55.146626 
" clip-path="url(#p0c2ae16a93)" style="fill: none; stroke: #2ca02c; stroke-width: 1.5; stroke-linecap: square"/>
   </g>
   <g id="line2d_17">
    <path d="M 117 214.440521 
L 120.297273 214.440521 
L 123.594545 214.440521 
L 126.891818 214.440521 
L 130.189091 214.440521 
L 133.486364 214.440521 
L 136.783636 214.440521 
L 140.080909 214.440521 
L 143.378182 214.440521 
L 146.675455 214.440521 
L 149.972727 214.440521 
L 153.27 214.440521 
L 156.567273 214.440521 
L 159.864545 214.440521 
L 163.161818 214.440521 
L 166.459091 214.440521 
L 169.756364 214.440521 
L 173.053636 214.440521 
L 176.350909 214.440521 
L 179.648182 214.440521 
L 182.945455 214.440521 
L 186.242727 214.440521 
L 189.54 214.440521 
L 192.837273 214.440521 
L 196.134545 214.440521 
L 199.431818 214.440521 
L 202.729091 214.440521 
L 206.026364 214.440521 
L 209.323636 214.440521 
L 212.620909 214.440521 
L 215.918182 214.440521 
L 219.215455 214.440521 
L 222.512727 214.440521 
L 225.81 214.440521 
L 229.107273 214.440521 
L 232.404545 214.440521 
L 235.701818 214.440521 
L 238.999091 214.440521 
L 242.296364 214.440521 
L 245.593636 214.440521 
L 248.890909 214.440521 
L 252.188182 214.440521 
L 255.485455 214.440521 
L 258.782727 214.440521 
L 262.08 214.440521 
L 265.377273 214.440521 
L 268.674545 214.440521 
L 271.971818 214.440521 
L 275.269091 214.440521 
L 278.566364 214.440521 
L 281.863636 214.440521 
L 285.160909 214.440521 
L 288.458182 214.440521 
L 291.755455 214.440521 
L 295.052727 214.440521 
L 298.35 214.440521 
L 301.647273 214.440521 
L 304.944545 214.440521 
L 308.241818 214.440521 
L 311.539091 214.440521 
L 314.836364 214.440521 
L 318.133636 214.440521 
L 321.430909 214.440521 
L 324.728182 214.440521 
L 328.025455 214.440521 
L 331.322727 214.440521 
L 334.62 214.440521 
L 337.917273 214.440521 
L 341.214545 214.440521 
L 344.511818 214.440521 
L 347.809091 214.440521 
L 351.106364 214.440521 
L 354.403636 214.440521 
L 357.700909 214.440521 
L 360.998182 214.440521 
L 364.295455 214.440521 
L 367.592727 214.440521 
L 370.89 214.440521 
L 374.187273 214.440521 
L 377.484545 214.440521 
L 380.781818 214.440521 
L 384.079091 214.440521 
L 387.376364 214.440521 
L 390.673636 214.440521 
L 393.970909 214.440521 
L 397.268182 214.440521 
L 400.565455 214.440521 
L 403.862727 214.440521 
L 407.16 214.440521 
L 410.457273 214.440521 
L 413.754545 214.440521 
L 417.051818 214.440521 
L 420.349091 214.440521 
L 423.646364 214.440521 
L 426.943636 214.440521 
L 430.240909 214.440521 
L 433.538182 214.440521 
L 436.835455 214.440521 
L 440.132727 214.440521 
L 443.43 214.440521 
" clip-path="url(#p0c2ae16a93)" style="fill: none; stroke: #d62728; stroke-width: 1.5; stroke-linecap: square"/>
   </g>
   <g id="patch_3">
    <path d="M 117 378 
L 117 51.84 
" style="fill: none; stroke: #000000; stroke-width: 0.8; stroke-linejoin: miter; stroke-linecap: square"/>
   </g>
   <g id="patch_4">
    <path d="M 446.727273 378 
L 446.727273 51.84 
" style="fill: none; stroke: #000000; stroke-width: 0.8; stroke-linejoin: miter; stroke-linecap: square"/>
   </g>
   <g id="patch_5">
    <path d="M 117 378 
L 446.727273 378 
" style="fill: none; stroke: #000000; stroke-width: 0.8; stroke-linejoin: miter; stroke-linecap: square"/>
   </g>
   <g id="patch_6">
    <path d="M 117 51.84 
L 446.727273 51.84 
" style="fill: none; stroke: #000000; stroke-width: 0.8; stroke-linejoin: miter; stroke-linecap: square"/>
   </g>
   <g id="text_15">
    <!-- NS-yes Class -->
    <g transform="translate(243.445824 32.402625)scale(0.12 -0.12)">
     <defs>
      <path id="DejaVuSans-4e" d="M 628 4666 
L 1478 4666 
L 3547 763 
L 3547 4666 
L 4159 4666 
L 4159 0 
L 3309 0 
L 1241 3903 
L 1241 0 
L 628 0 
L 628 4666 
z
" transform="scale(0.015625)"/>
      <path id="DejaVuSans-53" d="M 3425 4513 
L 3425 3897 
Q 3066 4069 2747 4153 
Q 2428 4238 2131 4238 
Q 1616 4238 1336 4038 
Q 1056 3838 1056 3469 
Q 1056 3159 1242 3001 
Q 1428 2844 1947 2747 
L 2328 2669 
Q 3034 2534 3370 2195 
Q 3706 1856 3706 1288 
Q 3706 609 3251 259 
Q 2797 -91 1919 -91 
Q 1588 -91 1214 -16 
Q 841 59 441 206 
L 441 856 
Q 825 641 1194 531 
Q 1563 422 1919 422 
Q 2459 422 2753 634 
Q 3047 847 3047 1241 
Q 3047 1584 2836 1778 
Q 2625 1972 2144 2069 
L 1759 2144 
Q 1053 2284 737 2584 
Q 422 2884 422 3419 
Q 422 4038 858 4394 
Q 1294 4750 2059 4750 
Q 2388 4750 2728 4690 
Q 3069 4631 3425 4513 
z
" transform="scale(0.015625)"/>
      <path id="DejaVuSans-2d" d="M 313 2009 
L 1997 2009 
L 1997 1497 
L 313 1497 
L 313 2009 
z
" transform="scale(0.015625)"/>
      <path id="DejaVuSans-43" d="M 4122 4306 
L 4122 3641 
Q 3803 3938 3442 4084 
Q 3081 4231 2675 4231 
Q 1875 4231 1450 3742 
Q 1025 3253 1025 2328 
Q 1025 1406 1450 917 
Q 1875 428 2675 428 
Q 3081 428 3442 575 
Q 3803 722 4122 1019 
L 4122 359 
Q 3791 134 3420 21 
Q 3050 -91 2638 -91 
Q 1578 -91 968 557 
Q 359 1206 359 2328 
Q 359 3453 968 4101 
Q 1578 4750 2638 4750 
Q 3056 4750 3426 4639 
Q 3797 4528 4122 4306 
z
" transform="scale(0.015625)"/>
     </defs>
     <use xlink:href="#DejaVuSans-4e"/>
     <use xlink:href="#DejaVuSans-53" x="74.804688"/>
     <use xlink:href="#DejaVuSans-2d" x="138.28125"/>
     <use xlink:href="#DejaVuSans-79" x="172.615234"/>
     <use xlink:href="#DejaVuSans-65" x="231.794922"/>
     <use xlink:href="#DejaVuSans-73" x="293.318359"/>
     <use xlink:href="#DejaVuSans-20" x="345.417969"/>
     <use xlink:href="#DejaVuSans-43" x="377.205078"/>
     <use xlink:href="#DejaVuSans-6c" x="447.029297"/>
     <use xlink:href="#DejaVuSans-61" x="474.8125"/>
     <use xlink:href="#DejaVuSans-73" x="536.091797"/>
     <use xlink:href="#DejaVuSans-73" x="588.191406"/>
    </g>
    <!-- Recall vs. Decision Boundary -->
    <g transform="translate(195.218011 45.84)scale(0.12 -0.12)">
     <defs>
      <path id="DejaVuSans-76" d="M 191 3500 
L 800 3500 
L 1894 563 
L 2988 3500 
L 3597 3500 
L 2284 0 
L 1503 0 
L 191 3500 
z
" transform="scale(0.015625)"/>
     </defs>
     <use xlink:href="#DejaVuSans-52"/>
     <use xlink:href="#DejaVuSans-65" x="64.982422"/>
     <use xlink:href="#DejaVuSans-63" x="126.505859"/>
     <use xlink:href="#DejaVuSans-61" x="181.486328"/>
     <use xlink:href="#DejaVuSans-6c" x="242.765625"/>
     <use xlink:href="#DejaVuSans-6c" x="270.548828"/>
     <use xlink:href="#DejaVuSans-20" x="298.332031"/>
     <use xlink:href="#DejaVuSans-76" x="330.119141"/>
     <use xlink:href="#DejaVuSans-73" x="389.298828"/>
     <use xlink:href="#DejaVuSans-2e" x="441.398438"/>
     <use xlink:href="#DejaVuSans-20" x="473.185547"/>
     <use xlink:href="#DejaVuSans-44" x="504.972656"/>
     <use xlink:href="#DejaVuSans-65" x="581.974609"/>
     <use xlink:href="#DejaVuSans-63" x="643.498047"/>
     <use xlink:href="#DejaVuSans-69" x="698.478516"/>
     <use xlink:href="#DejaVuSans-73" x="726.261719"/>
     <use xlink:href="#DejaVuSans-69" x="778.361328"/>
     <use xlink:href="#DejaVuSans-6f" x="806.144531"/>
     <use xlink:href="#DejaVuSans-6e" x="867.326172"/>
     <use xlink:href="#DejaVuSans-20" x="930.705078"/>
     <use xlink:href="#DejaVuSans-42" x="962.492188"/>
     <use xlink:href="#DejaVuSans-6f" x="1031.095703"/>
     <use xlink:href="#DejaVuSans-75" x="1092.277344"/>
     <use xlink:href="#DejaVuSans-6e" x="1155.65625"/>
     <use xlink:href="#DejaVuSans-64" x="1219.035156"/>
     <use xlink:href="#DejaVuSans-61" x="1282.511719"/>
     <use xlink:href="#DejaVuSans-72" x="1343.791016"/>
     <use xlink:href="#DejaVuSans-79" x="1384.904297"/>
    </g>
   </g>
   <g id="legend_1">
    <g id="patch_7">
     <path d="M 358.102273 373 
L 439.727273 373 
Q 441.727273 373 441.727273 371 
L 441.727273 313.009375 
Q 441.727273 311.009375 439.727273 311.009375 
L 358.102273 311.009375 
Q 356.102273 311.009375 356.102273 313.009375 
L 356.102273 371 
Q 356.102273 373 358.102273 373 
z
" style="fill: #ffffff; opacity: 0.8; stroke: #cccccc; stroke-linejoin: miter"/>
    </g>
    <g id="line2d_18">
     <path d="M 360.102273 319.107813 
L 370.102273 319.107813 
L 380.102273 319.107813 
" style="fill: none; stroke: #1f77b4; stroke-width: 1.5; stroke-linecap: square"/>
    </g>
    <g id="text_16">
     <!-- MAO_XGB -->
     <g transform="translate(388.102273 322.607813)scale(0.1 -0.1)">
      <defs>
       <path id="DejaVuSans-4d" d="M 628 4666 
L 1569 4666 
L 2759 1491 
L 3956 4666 
L 4897 4666 
L 4897 0 
L 4281 0 
L 4281 4097 
L 3078 897 
L 2444 897 
L 1241 4097 
L 1241 0 
L 628 0 
L 628 4666 
z
" transform="scale(0.015625)"/>
       <path id="DejaVuSans-41" d="M 2188 4044 
L 1331 1722 
L 3047 1722 
L 2188 4044 
z
M 1831 4666 
L 2547 4666 
L 4325 0 
L 3669 0 
L 3244 1197 
L 1141 1197 
L 716 0 
L 50 0 
L 1831 4666 
z
" transform="scale(0.015625)"/>
       <path id="DejaVuSans-4f" d="M 2522 4238 
Q 1834 4238 1429 3725 
Q 1025 3213 1025 2328 
Q 1025 1447 1429 934 
Q 1834 422 2522 422 
Q 3209 422 3611 934 
Q 4013 1447 4013 2328 
Q 4013 3213 3611 3725 
Q 3209 4238 2522 4238 
z
M 2522 4750 
Q 3503 4750 4090 4092 
Q 4678 3434 4678 2328 
Q 4678 1225 4090 567 
Q 3503 -91 2522 -91 
Q 1538 -91 948 565 
Q 359 1222 359 2328 
Q 359 3434 948 4092 
Q 1538 4750 2522 4750 
z
" transform="scale(0.015625)"/>
       <path id="DejaVuSans-5f" d="M 3263 -1063 
L 3263 -1509 
L -63 -1509 
L -63 -1063 
L 3263 -1063 
z
" transform="scale(0.015625)"/>
       <path id="DejaVuSans-58" d="M 403 4666 
L 1081 4666 
L 2241 2931 
L 3406 4666 
L 4084 4666 
L 2584 2425 
L 4184 0 
L 3506 0 
L 2194 1984 
L 872 0 
L 191 0 
L 1856 2491 
L 403 4666 
z
" transform="scale(0.015625)"/>
       <path id="DejaVuSans-47" d="M 3809 666 
L 3809 1919 
L 2778 1919 
L 2778 2438 
L 4434 2438 
L 4434 434 
Q 4069 175 3628 42 
Q 3188 -91 2688 -91 
Q 1594 -91 976 548 
Q 359 1188 359 2328 
Q 359 3472 976 4111 
Q 1594 4750 2688 4750 
Q 3144 4750 3555 4637 
Q 3966 4525 4313 4306 
L 4313 3634 
Q 3963 3931 3569 4081 
Q 3175 4231 2741 4231 
Q 1884 4231 1454 3753 
Q 1025 3275 1025 2328 
Q 1025 1384 1454 906 
Q 1884 428 2741 428 
Q 3075 428 3337 486 
Q 3600 544 3809 666 
z
" transform="scale(0.015625)"/>
      </defs>
      <use xlink:href="#DejaVuSans-4d"/>
      <use xlink:href="#DejaVuSans-41" x="86.279297"/>
      <use xlink:href="#DejaVuSans-4f" x="152.9375"/>
      <use xlink:href="#DejaVuSans-5f" x="231.648438"/>
      <use xlink:href="#DejaVuSans-58" x="281.648438"/>
      <use xlink:href="#DejaVuSans-47" x="350.154297"/>
      <use xlink:href="#DejaVuSans-42" x="427.644531"/>
     </g>
    </g>
    <g id="line2d_19">
     <path d="M 360.102273 334.064062 
L 370.102273 334.064062 
L 380.102273 334.064062 
" style="fill: none; stroke: #ff7f0e; stroke-width: 1.5; stroke-linecap: square"/>
    </g>
    <g id="text_17">
     <!-- GBC -->
     <g transform="translate(388.102273 337.564062)scale(0.1 -0.1)">
      <use xlink:href="#DejaVuSans-47"/>
      <use xlink:href="#DejaVuSans-42" x="77.490234"/>
      <use xlink:href="#DejaVuSans-43" x="144.34375"/>
     </g>
    </g>
    <g id="line2d_20">
     <path d="M 360.102273 348.742188 
L 370.102273 348.742188 
L 380.102273 348.742188 
" style="fill: none; stroke: #2ca02c; stroke-width: 1.5; stroke-linecap: square"/>
    </g>
    <g id="text_18">
     <!-- RF -->
     <g transform="translate(388.102273 352.242188)scale(0.1 -0.1)">
      <defs>
       <path id="DejaVuSans-46" d="M 628 4666 
L 3309 4666 
L 3309 4134 
L 1259 4134 
L 1259 2759 
L 3109 2759 
L 3109 2228 
L 1259 2228 
L 1259 0 
L 628 0 
L 628 4666 
z
" transform="scale(0.015625)"/>
      </defs>
      <use xlink:href="#DejaVuSans-52"/>
      <use xlink:href="#DejaVuSans-46" x="69.482422"/>
     </g>
    </g>
    <g id="line2d_21">
     <path d="M 360.102273 363.420313 
L 370.102273 363.420313 
L 380.102273 363.420313 
" style="fill: none; stroke: #d62728; stroke-width: 1.5; stroke-linecap: square"/>
    </g>
    <g id="text_19">
     <!-- DT -->
     <g transform="translate(388.102273 366.920313)scale(0.1 -0.1)">
      <use xlink:href="#DejaVuSans-44"/>
      <use xlink:href="#DejaVuSans-54" x="77.001953"/>
     </g>
    </g>
   </g>
  </g>
  <g id="axes_2">
   <g id="patch_8">
    <path d="M 512.672727 378 
L 842.4 378 
L 842.4 51.84 
L 512.672727 51.84 
z
" style="fill: #ffffff"/>
   </g>
   <g id="matplotlib.axis_3">
    <g id="xtick_7">
     <g id="line2d_22">
      <g>
       <use xlink:href="#md56a59b844" x="512.672727" y="378" style="stroke: #000000; stroke-width: 0.8"/>
      </g>
     </g>
     <g id="text_20">
      <!-- 0.0 -->
      <g transform="translate(503.130852 394.118125)scale(0.12 -0.12)">
       <use xlink:href="#DejaVuSans-30"/>
       <use xlink:href="#DejaVuSans-2e" x="63.623047"/>
       <use xlink:href="#DejaVuSans-30" x="95.410156"/>
      </g>
     </g>
    </g>
    <g id="xtick_8">
     <g id="line2d_23">
      <g>
       <use xlink:href="#md56a59b844" x="578.618182" y="378" style="stroke: #000000; stroke-width: 0.8"/>
      </g>
     </g>
     <g id="text_21">
      <!-- 0.2 -->
      <g transform="translate(569.076307 394.118125)scale(0.12 -0.12)">
       <use xlink:href="#DejaVuSans-30"/>
       <use xlink:href="#DejaVuSans-2e" x="63.623047"/>
       <use xlink:href="#DejaVuSans-32" x="95.410156"/>
      </g>
     </g>
    </g>
    <g id="xtick_9">
     <g id="line2d_24">
      <g>
       <use xlink:href="#md56a59b844" x="644.563636" y="378" style="stroke: #000000; stroke-width: 0.8"/>
      </g>
     </g>
     <g id="text_22">
      <!-- 0.4 -->
      <g transform="translate(635.021761 394.118125)scale(0.12 -0.12)">
       <use xlink:href="#DejaVuSans-30"/>
       <use xlink:href="#DejaVuSans-2e" x="63.623047"/>
       <use xlink:href="#DejaVuSans-34" x="95.410156"/>
      </g>
     </g>
    </g>
    <g id="xtick_10">
     <g id="line2d_25">
      <g>
       <use xlink:href="#md56a59b844" x="710.509091" y="378" style="stroke: #000000; stroke-width: 0.8"/>
      </g>
     </g>
     <g id="text_23">
      <!-- 0.6 -->
      <g transform="translate(700.967216 394.118125)scale(0.12 -0.12)">
       <use xlink:href="#DejaVuSans-30"/>
       <use xlink:href="#DejaVuSans-2e" x="63.623047"/>
       <use xlink:href="#DejaVuSans-36" x="95.410156"/>
      </g>
     </g>
    </g>
    <g id="xtick_11">
     <g id="line2d_26">
      <g>
       <use xlink:href="#md56a59b844" x="776.454545" y="378" style="stroke: #000000; stroke-width: 0.8"/>
      </g>
     </g>
     <g id="text_24">
      <!-- 0.8 -->
      <g transform="translate(766.91267 394.118125)scale(0.12 -0.12)">
       <use xlink:href="#DejaVuSans-30"/>
       <use xlink:href="#DejaVuSans-2e" x="63.623047"/>
       <use xlink:href="#DejaVuSans-38" x="95.410156"/>
      </g>
     </g>
    </g>
    <g id="xtick_12">
     <g id="line2d_27">
      <g>
       <use xlink:href="#md56a59b844" x="842.4" y="378" style="stroke: #000000; stroke-width: 0.8"/>
      </g>
     </g>
     <g id="text_25">
      <!-- 1.0 -->
      <g transform="translate(832.858125 394.118125)scale(0.12 -0.12)">
       <use xlink:href="#DejaVuSans-31"/>
       <use xlink:href="#DejaVuSans-2e" x="63.623047"/>
       <use xlink:href="#DejaVuSans-30" x="95.410156"/>
      </g>
     </g>
    </g>
    <g id="text_26">
     <!-- Decision Boundary (T) -->
     <g transform="translate(610.935426 409.731875)scale(0.12 -0.12)">
      <use xlink:href="#DejaVuSans-44"/>
      <use xlink:href="#DejaVuSans-65" x="77.001953"/>
      <use xlink:href="#DejaVuSans-63" x="138.525391"/>
      <use xlink:href="#DejaVuSans-69" x="193.505859"/>
      <use xlink:href="#DejaVuSans-73" x="221.289062"/>
      <use xlink:href="#DejaVuSans-69" x="273.388672"/>
      <use xlink:href="#DejaVuSans-6f" x="301.171875"/>
      <use xlink:href="#DejaVuSans-6e" x="362.353516"/>
      <use xlink:href="#DejaVuSans-20" x="425.732422"/>
      <use xlink:href="#DejaVuSans-42" x="457.519531"/>
      <use xlink:href="#DejaVuSans-6f" x="526.123047"/>
      <use xlink:href="#DejaVuSans-75" x="587.304688"/>
      <use xlink:href="#DejaVuSans-6e" x="650.683594"/>
      <use xlink:href="#DejaVuSans-64" x="714.0625"/>
      <use xlink:href="#DejaVuSans-61" x="777.539062"/>
      <use xlink:href="#DejaVuSans-72" x="838.818359"/>
      <use xlink:href="#DejaVuSans-79" x="879.931641"/>
      <use xlink:href="#DejaVuSans-20" x="939.111328"/>
      <use xlink:href="#DejaVuSans-28" x="970.898438"/>
      <use xlink:href="#DejaVuSans-54" x="1009.912109"/>
      <use xlink:href="#DejaVuSans-29" x="1070.996094"/>
     </g>
     <!-- (b) -->
     <g transform="translate(669.045426 423.16925)scale(0.12 -0.12)">
      <defs>
       <path id="DejaVuSans-62" d="M 3116 1747 
Q 3116 2381 2855 2742 
Q 2594 3103 2138 3103 
Q 1681 3103 1420 2742 
Q 1159 2381 1159 1747 
Q 1159 1113 1420 752 
Q 1681 391 2138 391 
Q 2594 391 2855 752 
Q 3116 1113 3116 1747 
z
M 1159 2969 
Q 1341 3281 1617 3432 
Q 1894 3584 2278 3584 
Q 2916 3584 3314 3078 
Q 3713 2572 3713 1747 
Q 3713 922 3314 415 
Q 2916 -91 2278 -91 
Q 1894 -91 1617 61 
Q 1341 213 1159 525 
L 1159 0 
L 581 0 
L 581 4863 
L 1159 4863 
L 1159 2969 
z
" transform="scale(0.015625)"/>
      </defs>
      <use xlink:href="#DejaVuSans-28"/>
      <use xlink:href="#DejaVuSans-62" x="39.013672"/>
      <use xlink:href="#DejaVuSans-29" x="102.490234"/>
     </g>
     <!--  -->
     <g transform="translate(677.536364 436.606625)scale(0.12 -0.12)"/>
    </g>
   </g>
   <g id="matplotlib.axis_4">
    <g id="ytick_7">
     <g id="line2d_28">
      <g>
       <use xlink:href="#m4880b3cb27" x="512.672727" y="374.799215" style="stroke: #000000; stroke-width: 0.8"/>
      </g>
     </g>
     <g id="text_27">
      <!-- 0.0 -->
      <g transform="translate(486.588977 379.358277)scale(0.12 -0.12)">
       <use xlink:href="#DejaVuSans-30"/>
       <use xlink:href="#DejaVuSans-2e" x="63.623047"/>
       <use xlink:href="#DejaVuSans-30" x="95.410156"/>
      </g>
     </g>
    </g>
    <g id="ytick_8">
     <g id="line2d_29">
      <g>
       <use xlink:href="#m4880b3cb27" x="512.672727" y="310.783513" style="stroke: #000000; stroke-width: 0.8"/>
      </g>
     </g>
     <g id="text_28">
      <!-- 0.2 -->
      <g transform="translate(486.588977 315.342576)scale(0.12 -0.12)">
       <use xlink:href="#DejaVuSans-30"/>
       <use xlink:href="#DejaVuSans-2e" x="63.623047"/>
       <use xlink:href="#DejaVuSans-32" x="95.410156"/>
      </g>
     </g>
    </g>
    <g id="ytick_9">
     <g id="line2d_30">
      <g>
       <use xlink:href="#m4880b3cb27" x="512.672727" y="246.767812" style="stroke: #000000; stroke-width: 0.8"/>
      </g>
     </g>
     <g id="text_29">
      <!-- 0.4 -->
      <g transform="translate(486.588977 251.326874)scale(0.12 -0.12)">
       <use xlink:href="#DejaVuSans-30"/>
       <use xlink:href="#DejaVuSans-2e" x="63.623047"/>
       <use xlink:href="#DejaVuSans-34" x="95.410156"/>
      </g>
     </g>
    </g>
    <g id="ytick_10">
     <g id="line2d_31">
      <g>
       <use xlink:href="#m4880b3cb27" x="512.672727" y="182.75211" style="stroke: #000000; stroke-width: 0.8"/>
      </g>
     </g>
     <g id="text_30">
      <!-- 0.6 -->
      <g transform="translate(486.588977 187.311172)scale(0.12 -0.12)">
       <use xlink:href="#DejaVuSans-30"/>
       <use xlink:href="#DejaVuSans-2e" x="63.623047"/>
       <use xlink:href="#DejaVuSans-36" x="95.410156"/>
      </g>
     </g>
    </g>
    <g id="ytick_11">
     <g id="line2d_32">
      <g>
       <use xlink:href="#m4880b3cb27" x="512.672727" y="118.736408" style="stroke: #000000; stroke-width: 0.8"/>
      </g>
     </g>
     <g id="text_31">
      <!-- 0.8 -->
      <g transform="translate(486.588977 123.295471)scale(0.12 -0.12)">
       <use xlink:href="#DejaVuSans-30"/>
       <use xlink:href="#DejaVuSans-2e" x="63.623047"/>
       <use xlink:href="#DejaVuSans-38" x="95.410156"/>
      </g>
     </g>
    </g>
    <g id="ytick_12">
     <g id="line2d_33">
      <g>
       <use xlink:href="#m4880b3cb27" x="512.672727" y="54.720707" style="stroke: #000000; stroke-width: 0.8"/>
      </g>
     </g>
     <g id="text_32">
      <!-- 1.0 -->
      <g transform="translate(486.588977 59.279769)scale(0.12 -0.12)">
       <use xlink:href="#DejaVuSans-31"/>
       <use xlink:href="#DejaVuSans-2e" x="63.623047"/>
       <use xlink:href="#DejaVuSans-30" x="95.410156"/>
      </g>
     </g>
    </g>
    <g id="text_33">
     <!-- Recall Rate -->
     <g transform="translate(480.093352 248.4825)rotate(-90)scale(0.12 -0.12)">
      <use xlink:href="#DejaVuSans-52"/>
      <use xlink:href="#DejaVuSans-65" x="64.982422"/>
      <use xlink:href="#DejaVuSans-63" x="126.505859"/>
      <use xlink:href="#DejaVuSans-61" x="181.486328"/>
      <use xlink:href="#DejaVuSans-6c" x="242.765625"/>
      <use xlink:href="#DejaVuSans-6c" x="270.548828"/>
      <use xlink:href="#DejaVuSans-20" x="298.332031"/>
      <use xlink:href="#DejaVuSans-52" x="330.119141"/>
      <use xlink:href="#DejaVuSans-61" x="397.351562"/>
      <use xlink:href="#DejaVuSans-74" x="458.630859"/>
      <use xlink:href="#DejaVuSans-65" x="497.839844"/>
     </g>
    </g>
   </g>
   <g id="line2d_34">
    <path d="M 677.536364 374.799215 
L 677.536364 54.720707 
" clip-path="url(#p883634c5c8)" style="fill: none; stroke-dasharray: 5.55,2.4; stroke-dashoffset: 0; stroke: #000000; stroke-width: 1.5"/>
   </g>
   <g id="line2d_35">
    <path d="M 512.672727 54.720707 
L 515.97 54.878708 
L 519.267273 54.973508 
L 522.564545 55.036709 
L 525.861818 55.099909 
L 529.159091 55.22631 
L 532.456364 55.22631 
L 535.753636 55.321111 
L 539.050909 55.352711 
L 542.348182 55.352711 
L 545.645455 55.384311 
L 548.942727 55.384311 
L 552.24 55.384311 
L 555.537273 55.415911 
L 558.834545 55.479112 
L 562.131818 55.573912 
L 565.429091 55.605512 
L 568.726364 55.700313 
L 572.023636 55.731913 
L 575.320909 55.763513 
L 578.618182 55.763513 
L 581.915455 55.795114 
L 585.212727 55.889914 
L 588.51 55.921514 
L 591.807273 55.984715 
L 595.104545 56.079516 
L 598.401818 56.079516 
L 601.699091 56.079516 
L 604.996364 56.205916 
L 608.293636 56.237517 
L 611.590909 56.300717 
L 614.888182 56.363917 
L 618.185455 56.490318 
L 621.482727 56.616719 
L 624.78 56.74312 
L 628.077273 56.77472 
L 631.374545 56.869521 
L 634.671818 56.964321 
L 637.969091 56.995922 
L 641.266364 57.090722 
L 644.563636 57.280323 
L 647.860909 57.438324 
L 651.158182 57.533125 
L 654.455455 57.564725 
L 657.752727 57.627926 
L 661.05 57.754327 
L 664.347273 57.849127 
L 667.644545 57.943928 
L 670.941818 58.038728 
L 674.239091 58.133529 
L 677.536364 58.22833 
L 680.833636 58.575932 
L 684.130909 58.702333 
L 687.428182 59.049935 
L 690.725455 59.271137 
L 694.022727 59.460738 
L 697.32 59.681939 
L 700.617273 60.029542 
L 703.914545 60.313943 
L 707.211818 60.724746 
L 710.509091 60.819547 
L 713.806364 61.040748 
L 717.103636 61.35675 
L 720.400909 61.609552 
L 723.698182 61.862354 
L 726.995455 62.178356 
L 730.292727 62.557558 
L 733.59 62.747159 
L 736.887273 63.126362 
L 740.184545 63.537165 
L 743.481818 64.169169 
L 746.779091 64.548371 
L 750.076364 65.117175 
L 753.373636 65.401577 
L 756.670909 66.033581 
L 759.968182 66.381183 
L 763.265455 67.107988 
L 766.562727 67.581991 
L 769.86 68.119195 
L 773.157273 68.8776 
L 776.454545 69.572804 
L 779.751818 70.42601 
L 783.049091 71.595218 
L 786.346364 72.543224 
L 789.643636 73.649231 
L 792.940909 75.197641 
L 796.238182 76.303649 
L 799.535455 77.725658 
L 802.832727 78.958066 
L 806.13 80.948879 
L 809.427273 83.382095 
L 812.724545 86.352515 
L 816.021818 89.291334 
L 819.319091 92.767357 
L 822.616364 98.170993 
L 825.913636 103.85903 
L 829.210909 112.169885 
L 832.508182 123.925162 
L 835.805455 142.853687 
L 839.102727 184.028758 
" clip-path="url(#p883634c5c8)" style="fill: none; stroke: #1f77b4; stroke-width: 1.5; stroke-linecap: square"/>
   </g>
   <g id="line2d_36">
    <path d="M 512.672727 54.720707 
L 515.97 54.720707 
L 519.267273 54.720707 
L 522.564545 54.720707 
L 525.861818 54.783907 
L 529.159091 54.815507 
L 532.456364 54.847107 
L 535.753636 54.847107 
L 539.050909 54.847107 
L 542.348182 54.847107 
L 545.645455 54.847107 
L 548.942727 54.847107 
L 552.24 54.878708 
L 555.537273 54.910308 
L 558.834545 54.910308 
L 562.131818 54.941908 
L 565.429091 54.941908 
L 568.726364 54.973508 
L 572.023636 54.973508 
L 575.320909 54.973508 
L 578.618182 54.973508 
L 581.915455 54.973508 
L 585.212727 54.973508 
L 588.51 54.973508 
L 591.807273 54.973508 
L 595.104545 54.973508 
L 598.401818 55.005108 
L 601.699091 55.005108 
L 604.996364 55.005108 
L 608.293636 55.005108 
L 611.590909 55.068309 
L 614.888182 55.099909 
L 618.185455 55.099909 
L 621.482727 55.099909 
L 624.78 55.131509 
L 628.077273 55.131509 
L 631.374545 55.22631 
L 634.671818 55.321111 
L 637.969091 55.384311 
L 641.266364 55.415911 
L 644.563636 55.415911 
L 647.860909 55.447511 
L 651.158182 55.447511 
L 654.455455 55.479112 
L 657.752727 55.510712 
L 661.05 55.605512 
L 664.347273 55.731913 
L 667.644545 55.921514 
L 670.941818 56.016315 
L 674.239091 56.142716 
L 677.536364 56.332317 
L 680.833636 56.490318 
L 684.130909 56.679919 
L 687.428182 56.869521 
L 690.725455 57.185523 
L 694.022727 57.469925 
L 697.32 57.754327 
L 700.617273 58.070329 
L 703.914545 58.386331 
L 707.211818 58.797133 
L 710.509091 59.302737 
L 713.806364 59.713539 
L 717.103636 60.029542 
L 720.400909 60.408744 
L 723.698182 60.914347 
L 726.995455 61.672752 
L 730.292727 62.115155 
L 733.59 62.620759 
L 736.887273 63.347563 
L 740.184545 64.169169 
L 743.481818 65.117175 
L 746.779091 66.254783 
L 750.076364 67.739992 
L 753.373636 68.814399 
L 756.670909 70.046808 
L 759.968182 71.848019 
L 763.265455 73.49123 
L 766.562727 75.545244 
L 769.86 77.504457 
L 773.157273 79.748071 
L 776.454545 82.402489 
L 779.751818 85.436109 
L 783.049091 88.912132 
L 786.346364 92.419755 
L 789.643636 96.464582 
L 792.940909 101.173013 
L 796.238182 106.86105 
L 799.535455 112.770289 
L 802.832727 119.911936 
L 806.13 129.328798 
L 809.427273 139.756867 
L 812.724545 152.712952 
L 816.021818 166.648644 
L 819.319091 184.186759 
L 822.616364 208.992923 
L 825.913636 237.559511 
L 829.210909 270.676529 
L 832.508182 313.874014 
L 835.805455 356.818696 
L 839.102727 374.641214 
" clip-path="url(#p883634c5c8)" style="fill: none; stroke: #ff7f0e; stroke-width: 1.5; stroke-linecap: square"/>
   </g>
   <g id="line2d_37">
    <path d="M 512.672727 54.720707 
L 515.97 54.720707 
L 519.267273 54.720707 
L 522.564545 54.720707 
L 525.861818 54.720707 
L 529.159091 54.720707 
L 532.456364 54.720707 
L 535.753636 54.720707 
L 539.050909 54.720707 
L 542.348182 54.720707 
L 545.645455 54.720707 
L 548.942727 54.720707 
L 552.24 54.720707 
L 555.537273 54.720707 
L 558.834545 54.720707 
L 562.131818 54.720707 
L 565.429091 54.720707 
L 568.726364 54.752307 
L 572.023636 54.752307 
L 575.320909 54.752307 
L 578.618182 54.752307 
L 581.915455 54.752307 
L 585.212727 54.752307 
L 588.51 54.783907 
L 591.807273 54.783907 
L 595.104545 54.783907 
L 598.401818 54.847107 
L 601.699091 54.847107 
L 604.996364 54.847107 
L 608.293636 54.847107 
L 611.590909 54.847107 
L 614.888182 54.847107 
L 618.185455 54.878708 
L 621.482727 54.878708 
L 624.78 54.878708 
L 628.077273 54.910308 
L 631.374545 54.910308 
L 634.671818 54.941908 
L 637.969091 54.973508 
L 641.266364 55.036709 
L 644.563636 55.068309 
L 647.860909 55.099909 
L 651.158182 55.163109 
L 654.455455 55.19471 
L 657.752727 55.19471 
L 661.05 55.22631 
L 664.347273 55.28951 
L 667.644545 55.321111 
L 670.941818 55.479112 
L 674.239091 55.573912 
L 677.536364 55.731913 
L 680.833636 55.826714 
L 684.130909 55.921514 
L 687.428182 56.047915 
L 690.725455 56.142716 
L 694.022727 56.332317 
L 697.32 56.427118 
L 700.617273 56.679919 
L 703.914545 56.74312 
L 707.211818 57.090722 
L 710.509091 57.469925 
L 713.806364 57.849127 
L 717.103636 58.544332 
L 720.400909 59.271137 
L 723.698182 59.83994 
L 726.995455 60.566745 
L 730.292727 61.546352 
L 733.59 62.84196 
L 736.887273 64.042768 
L 740.184545 65.053975 
L 743.481818 66.412784 
L 746.779091 67.929594 
L 750.076364 70.110008 
L 753.373636 72.353623 
L 756.670909 75.00804 
L 759.968182 77.599257 
L 763.265455 81.01208 
L 766.562727 84.709304 
L 769.86 88.532929 
L 773.157273 92.419755 
L 776.454545 97.380988 
L 779.751818 102.626622 
L 783.049091 108.851863 
L 786.346364 114.729502 
L 789.643636 121.523547 
L 792.940909 130.213604 
L 796.238182 138.74566 
L 799.535455 148.478524 
L 802.832727 157.958587 
L 806.13 169.17666 
L 809.427273 180.995138 
L 812.724545 195.183632 
L 816.021818 211.58414 
L 819.319091 228.33225 
L 822.616364 247.861179 
L 825.913636 266.821304 
L 829.210909 287.772242 
L 832.508182 309.671186 
L 835.805455 333.02374 
L 839.102727 354.669882 
" clip-path="url(#p883634c5c8)" style="fill: none; stroke: #2ca02c; stroke-width: 1.5; stroke-linecap: square"/>
   </g>
   <g id="line2d_38">
    <path d="M 512.672727 79.842872 
L 515.97 79.842872 
L 519.267273 79.842872 
L 522.564545 79.842872 
L 525.861818 79.842872 
L 529.159091 79.842872 
L 532.456364 79.842872 
L 535.753636 79.842872 
L 539.050909 79.842872 
L 542.348182 79.842872 
L 545.645455 79.842872 
L 548.942727 79.842872 
L 552.24 79.842872 
L 555.537273 79.842872 
L 558.834545 79.842872 
L 562.131818 79.842872 
L 565.429091 79.842872 
L 568.726364 79.842872 
L 572.023636 79.842872 
L 575.320909 79.842872 
L 578.618182 79.842872 
L 581.915455 79.842872 
L 585.212727 79.842872 
L 588.51 79.842872 
L 591.807273 79.842872 
L 595.104545 79.842872 
L 598.401818 79.842872 
L 601.699091 79.842872 
L 604.996364 79.842872 
L 608.293636 79.842872 
L 611.590909 79.842872 
L 614.888182 79.842872 
L 618.185455 79.842872 
L 621.482727 79.842872 
L 624.78 79.842872 
L 628.077273 79.842872 
L 631.374545 79.842872 
L 634.671818 79.842872 
L 637.969091 79.842872 
L 641.266364 79.842872 
L 644.563636 79.842872 
L 647.860909 79.842872 
L 651.158182 79.842872 
L 654.455455 79.842872 
L 657.752727 79.842872 
L 661.05 79.842872 
L 664.347273 79.842872 
L 667.644545 79.842872 
L 670.941818 79.842872 
L 674.239091 79.842872 
L 677.536364 79.842872 
L 680.833636 79.842872 
L 684.130909 79.842872 
L 687.428182 79.842872 
L 690.725455 79.842872 
L 694.022727 79.842872 
L 697.32 79.842872 
L 700.617273 79.842872 
L 703.914545 79.842872 
L 707.211818 79.842872 
L 710.509091 79.842872 
L 713.806364 79.842872 
L 717.103636 79.842872 
L 720.400909 79.842872 
L 723.698182 79.842872 
L 726.995455 79.842872 
L 730.292727 79.842872 
L 733.59 79.842872 
L 736.887273 79.842872 
L 740.184545 79.842872 
L 743.481818 79.842872 
L 746.779091 79.842872 
L 750.076364 79.842872 
L 753.373636 79.842872 
L 756.670909 79.842872 
L 759.968182 79.842872 
L 763.265455 79.842872 
L 766.562727 79.842872 
L 769.86 79.842872 
L 773.157273 79.842872 
L 776.454545 79.842872 
L 779.751818 79.842872 
L 783.049091 79.842872 
L 786.346364 79.842872 
L 789.643636 79.842872 
L 792.940909 79.842872 
L 796.238182 79.842872 
L 799.535455 79.842872 
L 802.832727 79.842872 
L 806.13 79.842872 
L 809.427273 79.842872 
L 812.724545 79.842872 
L 816.021818 79.842872 
L 819.319091 79.842872 
L 822.616364 79.842872 
L 825.913636 79.842872 
L 829.210909 79.842872 
L 832.508182 79.842872 
L 835.805455 79.842872 
L 839.102727 79.842872 
" clip-path="url(#p883634c5c8)" style="fill: none; stroke: #d62728; stroke-width: 1.5; stroke-linecap: square"/>
   </g>
   <g id="patch_9">
    <path d="M 512.672727 378 
L 512.672727 51.84 
" style="fill: none; stroke: #000000; stroke-width: 0.8; stroke-linejoin: miter; stroke-linecap: square"/>
   </g>
   <g id="patch_10">
    <path d="M 842.4 378 
L 842.4 51.84 
" style="fill: none; stroke: #000000; stroke-width: 0.8; stroke-linejoin: miter; stroke-linecap: square"/>
   </g>
   <g id="patch_11">
    <path d="M 512.672727 378 
L 842.4 378 
" style="fill: none; stroke: #000000; stroke-width: 0.8; stroke-linejoin: miter; stroke-linecap: square"/>
   </g>
   <g id="patch_12">
    <path d="M 512.672727 51.84 
L 842.4 51.84 
" style="fill: none; stroke: #000000; stroke-width: 0.8; stroke-linejoin: miter; stroke-linecap: square"/>
   </g>
   <g id="text_34">
    <!-- NS-no Class -->
    <g transform="translate(641.908551 32.402625)scale(0.12 -0.12)">
     <use xlink:href="#DejaVuSans-4e"/>
     <use xlink:href="#DejaVuSans-53" x="74.804688"/>
     <use xlink:href="#DejaVuSans-2d" x="138.28125"/>
     <use xlink:href="#DejaVuSans-6e" x="174.365234"/>
     <use xlink:href="#DejaVuSans-6f" x="237.744141"/>
     <use xlink:href="#DejaVuSans-20" x="298.925781"/>
     <use xlink:href="#DejaVuSans-43" x="330.712891"/>
     <use xlink:href="#DejaVuSans-6c" x="400.537109"/>
     <use xlink:href="#DejaVuSans-61" x="428.320312"/>
     <use xlink:href="#DejaVuSans-73" x="489.599609"/>
     <use xlink:href="#DejaVuSans-73" x="541.699219"/>
    </g>
    <!-- Recall vs. Decision Boundary -->
    <g transform="translate(590.890739 45.84)scale(0.12 -0.12)">
     <use xlink:href="#DejaVuSans-52"/>
     <use xlink:href="#DejaVuSans-65" x="64.982422"/>
     <use xlink:href="#DejaVuSans-63" x="126.505859"/>
     <use xlink:href="#DejaVuSans-61" x="181.486328"/>
     <use xlink:href="#DejaVuSans-6c" x="242.765625"/>
     <use xlink:href="#DejaVuSans-6c" x="270.548828"/>
     <use xlink:href="#DejaVuSans-20" x="298.332031"/>
     <use xlink:href="#DejaVuSans-76" x="330.119141"/>
     <use xlink:href="#DejaVuSans-73" x="389.298828"/>
     <use xlink:href="#DejaVuSans-2e" x="441.398438"/>
     <use xlink:href="#DejaVuSans-20" x="473.185547"/>
     <use xlink:href="#DejaVuSans-44" x="504.972656"/>
     <use xlink:href="#DejaVuSans-65" x="581.974609"/>
     <use xlink:href="#DejaVuSans-63" x="643.498047"/>
     <use xlink:href="#DejaVuSans-69" x="698.478516"/>
     <use xlink:href="#DejaVuSans-73" x="726.261719"/>
     <use xlink:href="#DejaVuSans-69" x="778.361328"/>
     <use xlink:href="#DejaVuSans-6f" x="806.144531"/>
     <use xlink:href="#DejaVuSans-6e" x="867.326172"/>
     <use xlink:href="#DejaVuSans-20" x="930.705078"/>
     <use xlink:href="#DejaVuSans-42" x="962.492188"/>
     <use xlink:href="#DejaVuSans-6f" x="1031.095703"/>
     <use xlink:href="#DejaVuSans-75" x="1092.277344"/>
     <use xlink:href="#DejaVuSans-6e" x="1155.65625"/>
     <use xlink:href="#DejaVuSans-64" x="1219.035156"/>
     <use xlink:href="#DejaVuSans-61" x="1282.511719"/>
     <use xlink:href="#DejaVuSans-72" x="1343.791016"/>
     <use xlink:href="#DejaVuSans-79" x="1384.904297"/>
    </g>
   </g>
   <g id="legend_2">
    <g id="patch_13">
     <path d="M 519.672727 373 
L 601.297727 373 
Q 603.297727 373 603.297727 371 
L 603.297727 313.009375 
Q 603.297727 311.009375 601.297727 311.009375 
L 519.672727 311.009375 
Q 517.672727 311.009375 517.672727 313.009375 
L 517.672727 371 
Q 517.672727 373 519.672727 373 
z
" style="fill: #ffffff; opacity: 0.8; stroke: #cccccc; stroke-linejoin: miter"/>
    </g>
    <g id="line2d_39">
     <path d="M 521.672727 319.107813 
L 531.672727 319.107813 
L 541.672727 319.107813 
" style="fill: none; stroke: #1f77b4; stroke-width: 1.5; stroke-linecap: square"/>
    </g>
    <g id="text_35">
     <!-- MAO_XGB -->
     <g transform="translate(549.672727 322.607813)scale(0.1 -0.1)">
      <use xlink:href="#DejaVuSans-4d"/>
      <use xlink:href="#DejaVuSans-41" x="86.279297"/>
      <use xlink:href="#DejaVuSans-4f" x="152.9375"/>
      <use xlink:href="#DejaVuSans-5f" x="231.648438"/>
      <use xlink:href="#DejaVuSans-58" x="281.648438"/>
      <use xlink:href="#DejaVuSans-47" x="350.154297"/>
      <use xlink:href="#DejaVuSans-42" x="427.644531"/>
     </g>
    </g>
    <g id="line2d_40">
     <path d="M 521.672727 334.064062 
L 531.672727 334.064062 
L 541.672727 334.064062 
" style="fill: none; stroke: #ff7f0e; stroke-width: 1.5; stroke-linecap: square"/>
    </g>
    <g id="text_36">
     <!-- GBC -->
     <g transform="translate(549.672727 337.564062)scale(0.1 -0.1)">
      <use xlink:href="#DejaVuSans-47"/>
      <use xlink:href="#DejaVuSans-42" x="77.490234"/>
      <use xlink:href="#DejaVuSans-43" x="144.34375"/>
     </g>
    </g>
    <g id="line2d_41">
     <path d="M 521.672727 348.742188 
L 531.672727 348.742188 
L 541.672727 348.742188 
" style="fill: none; stroke: #2ca02c; stroke-width: 1.5; stroke-linecap: square"/>
    </g>
    <g id="text_37">
     <!-- RF -->
     <g transform="translate(549.672727 352.242188)scale(0.1 -0.1)">
      <use xlink:href="#DejaVuSans-52"/>
      <use xlink:href="#DejaVuSans-46" x="69.482422"/>
     </g>
    </g>
    <g id="line2d_42">
     <path d="M 521.672727 363.420313 
L 531.672727 363.420313 
L 541.672727 363.420313 
" style="fill: none; stroke: #d62728; stroke-width: 1.5; stroke-linecap: square"/>
    </g>
    <g id="text_38">
     <!-- DT -->
     <g transform="translate(549.672727 366.920313)scale(0.1 -0.1)">
      <use xlink:href="#DejaVuSans-44"/>
      <use xlink:href="#DejaVuSans-54" x="77.001953"/>
     </g>
    </g>
   </g>
  </g>
 </g>
 <defs>
  <clipPath id="p0c2ae16a93">
   <rect x="117" y="51.84" width="329.727273" height="326.16"/>
  </clipPath>
  <clipPath id="p883634c5c8">
   <rect x="512.672727" y="51.84" width="329.727273" height="326.16"/>
  </clipPath>
 </defs>
</svg>
