<?xml version="1.0" encoding="utf-8" standalone="no"?>
<!DOCTYPE svg PUBLIC "-//W3C//DTD SVG 1.1//EN"
  "http://www.w3.org/Graphics/SVG/1.1/DTD/svg11.dtd">
<svg xmlns:xlink="http://www.w3.org/1999/xlink" width="720pt" height="576pt" viewBox="0 0 720 576" xmlns="http://www.w3.org/2000/svg" version="1.1">
 <metadata>
  <rdf:RDF xmlns:dc="http://purl.org/dc/elements/1.1/" xmlns:cc="http://creativecommons.org/ns#" xmlns:rdf="http://www.w3.org/1999/02/22-rdf-syntax-ns#">
   <cc:Work>
    <dc:type rdf:resource="http://purl.org/dc/dcmitype/StillImage"/>
    <dc:date>2023-01-30T18:04:41.017111</dc:date>
    <dc:format>image/svg+xml</dc:format>
    <dc:creator>
     <cc:Agent>
      <dc:title>Matplotlib v3.5.1, https://matplotlib.org/</dc:title>
     </cc:Agent>
    </dc:creator>
   </cc:Work>
  </rdf:RDF>
 </metadata>
 <defs>
  <style type="text/css">*{stroke-linejoin: round; stroke-linecap: butt}</style>
 </defs>
 <g id="figure_1">
  <g id="patch_1">
   <path d="M 0 576 
L 720 576 
L 720 0 
L 0 0 
L 0 576 
z
" style="fill: none"/>
  </g>
  <g id="axes_1">
   <g id="patch_2">
    <path d="M 90 504 
L 648 504 
L 648 69.12 
L 90 69.12 
z
" style="fill: #ffffff"/>
   </g>
   <g id="matplotlib.axis_1">
    <g id="xtick_1">
     <g id="line2d_1">
      <defs>
       <path id="m8f3e6f3950" d="M 0 0 
L 0 3.5 
" style="stroke: #000000; stroke-width: 0.8"/>
      </defs>
      <g>
       <use xlink:href="#m8f3e6f3950" x="116.571429" y="504" style="stroke: #000000; stroke-width: 0.8"/>
      </g>
     </g>
     <g id="text_1">
      <!-- 0.0 -->
      <g transform="translate(100.668304 526.196875)scale(0.2 -0.2)">
       <defs>
        <path id="DejaVuSans-30" d="M 2034 4250 
Q 1547 4250 1301 3770 
Q 1056 3291 1056 2328 
Q 1056 1369 1301 889 
Q 1547 409 2034 409 
Q 2525 409 2770 889 
Q 3016 1369 3016 2328 
Q 3016 3291 2770 3770 
Q 2525 4250 2034 4250 
z
M 2034 4750 
Q 2819 4750 3233 4129 
Q 3647 3509 3647 2328 
Q 3647 1150 3233 529 
Q 2819 -91 2034 -91 
Q 1250 -91 836 529 
Q 422 1150 422 2328 
Q 422 3509 836 4129 
Q 1250 4750 2034 4750 
z
" transform="scale(0.015625)"/>
        <path id="DejaVuSans-2e" d="M 684 794 
L 1344 794 
L 1344 0 
L 684 0 
L 684 794 
z
" transform="scale(0.015625)"/>
       </defs>
       <use xlink:href="#DejaVuSans-30"/>
       <use xlink:href="#DejaVuSans-2e" x="63.623047"/>
       <use xlink:href="#DejaVuSans-30" x="95.410156"/>
      </g>
     </g>
    </g>
    <g id="xtick_2">
     <g id="line2d_2">
      <g>
       <use xlink:href="#m8f3e6f3950" x="222.857143" y="504" style="stroke: #000000; stroke-width: 0.8"/>
      </g>
     </g>
     <g id="text_2">
      <!-- 0.2 -->
      <g transform="translate(206.954018 526.196875)scale(0.2 -0.2)">
       <defs>
        <path id="DejaVuSans-32" d="M 1228 531 
L 3431 531 
L 3431 0 
L 469 0 
L 469 531 
Q 828 903 1448 1529 
Q 2069 2156 2228 2338 
Q 2531 2678 2651 2914 
Q 2772 3150 2772 3378 
Q 2772 3750 2511 3984 
Q 2250 4219 1831 4219 
Q 1534 4219 1204 4116 
Q 875 4013 500 3803 
L 500 4441 
Q 881 4594 1212 4672 
Q 1544 4750 1819 4750 
Q 2544 4750 2975 4387 
Q 3406 4025 3406 3419 
Q 3406 3131 3298 2873 
Q 3191 2616 2906 2266 
Q 2828 2175 2409 1742 
Q 1991 1309 1228 531 
z
" transform="scale(0.015625)"/>
       </defs>
       <use xlink:href="#DejaVuSans-30"/>
       <use xlink:href="#DejaVuSans-2e" x="63.623047"/>
       <use xlink:href="#DejaVuSans-32" x="95.410156"/>
      </g>
     </g>
    </g>
    <g id="xtick_3">
     <g id="line2d_3">
      <g>
       <use xlink:href="#m8f3e6f3950" x="329.142857" y="504" style="stroke: #000000; stroke-width: 0.8"/>
      </g>
     </g>
     <g id="text_3">
      <!-- 0.4 -->
      <g transform="translate(313.239732 526.196875)scale(0.2 -0.2)">
       <defs>
        <path id="DejaVuSans-34" d="M 2419 4116 
L 825 1625 
L 2419 1625 
L 2419 4116 
z
M 2253 4666 
L 3047 4666 
L 3047 1625 
L 3713 1625 
L 3713 1100 
L 3047 1100 
L 3047 0 
L 2419 0 
L 2419 1100 
L 313 1100 
L 313 1709 
L 2253 4666 
z
" transform="scale(0.015625)"/>
       </defs>
       <use xlink:href="#DejaVuSans-30"/>
       <use xlink:href="#DejaVuSans-2e" x="63.623047"/>
       <use xlink:href="#DejaVuSans-34" x="95.410156"/>
      </g>
     </g>
    </g>
    <g id="xtick_4">
     <g id="line2d_4">
      <g>
       <use xlink:href="#m8f3e6f3950" x="435.428571" y="504" style="stroke: #000000; stroke-width: 0.8"/>
      </g>
     </g>
     <g id="text_4">
      <!-- 0.6 -->
      <g transform="translate(419.525446 526.196875)scale(0.2 -0.2)">
       <defs>
        <path id="DejaVuSans-36" d="M 2113 2584 
Q 1688 2584 1439 2293 
Q 1191 2003 1191 1497 
Q 1191 994 1439 701 
Q 1688 409 2113 409 
Q 2538 409 2786 701 
Q 3034 994 3034 1497 
Q 3034 2003 2786 2293 
Q 2538 2584 2113 2584 
z
M 3366 4563 
L 3366 3988 
Q 3128 4100 2886 4159 
Q 2644 4219 2406 4219 
Q 1781 4219 1451 3797 
Q 1122 3375 1075 2522 
Q 1259 2794 1537 2939 
Q 1816 3084 2150 3084 
Q 2853 3084 3261 2657 
Q 3669 2231 3669 1497 
Q 3669 778 3244 343 
Q 2819 -91 2113 -91 
Q 1303 -91 875 529 
Q 447 1150 447 2328 
Q 447 3434 972 4092 
Q 1497 4750 2381 4750 
Q 2619 4750 2861 4703 
Q 3103 4656 3366 4563 
z
" transform="scale(0.015625)"/>
       </defs>
       <use xlink:href="#DejaVuSans-30"/>
       <use xlink:href="#DejaVuSans-2e" x="63.623047"/>
       <use xlink:href="#DejaVuSans-36" x="95.410156"/>
      </g>
     </g>
    </g>
    <g id="xtick_5">
     <g id="line2d_5">
      <g>
       <use xlink:href="#m8f3e6f3950" x="541.714286" y="504" style="stroke: #000000; stroke-width: 0.8"/>
      </g>
     </g>
     <g id="text_5">
      <!-- 0.8 -->
      <g transform="translate(525.811161 526.196875)scale(0.2 -0.2)">
       <defs>
        <path id="DejaVuSans-38" d="M 2034 2216 
Q 1584 2216 1326 1975 
Q 1069 1734 1069 1313 
Q 1069 891 1326 650 
Q 1584 409 2034 409 
Q 2484 409 2743 651 
Q 3003 894 3003 1313 
Q 3003 1734 2745 1975 
Q 2488 2216 2034 2216 
z
M 1403 2484 
Q 997 2584 770 2862 
Q 544 3141 544 3541 
Q 544 4100 942 4425 
Q 1341 4750 2034 4750 
Q 2731 4750 3128 4425 
Q 3525 4100 3525 3541 
Q 3525 3141 3298 2862 
Q 3072 2584 2669 2484 
Q 3125 2378 3379 2068 
Q 3634 1759 3634 1313 
Q 3634 634 3220 271 
Q 2806 -91 2034 -91 
Q 1263 -91 848 271 
Q 434 634 434 1313 
Q 434 1759 690 2068 
Q 947 2378 1403 2484 
z
M 1172 3481 
Q 1172 3119 1398 2916 
Q 1625 2713 2034 2713 
Q 2441 2713 2670 2916 
Q 2900 3119 2900 3481 
Q 2900 3844 2670 4047 
Q 2441 4250 2034 4250 
Q 1625 4250 1398 4047 
Q 1172 3844 1172 3481 
z
" transform="scale(0.015625)"/>
       </defs>
       <use xlink:href="#DejaVuSans-30"/>
       <use xlink:href="#DejaVuSans-2e" x="63.623047"/>
       <use xlink:href="#DejaVuSans-38" x="95.410156"/>
      </g>
     </g>
    </g>
    <g id="xtick_6">
     <g id="line2d_6">
      <g>
       <use xlink:href="#m8f3e6f3950" x="648" y="504" style="stroke: #000000; stroke-width: 0.8"/>
      </g>
     </g>
     <g id="text_6">
      <!-- 1.0 -->
      <g transform="translate(632.096875 526.196875)scale(0.2 -0.2)">
       <defs>
        <path id="DejaVuSans-31" d="M 794 531 
L 1825 531 
L 1825 4091 
L 703 3866 
L 703 4441 
L 1819 4666 
L 2450 4666 
L 2450 531 
L 3481 531 
L 3481 0 
L 794 0 
L 794 531 
z
" transform="scale(0.015625)"/>
       </defs>
       <use xlink:href="#DejaVuSans-31"/>
       <use xlink:href="#DejaVuSans-2e" x="63.623047"/>
       <use xlink:href="#DejaVuSans-30" x="95.410156"/>
      </g>
     </g>
    </g>
    <g id="text_7">
     <!-- False Positive Rate -->
     <g transform="translate(266.773906 551.072813)scale(0.22 -0.22)">
      <defs>
       <path id="DejaVuSans-46" d="M 628 4666 
L 3309 4666 
L 3309 4134 
L 1259 4134 
L 1259 2759 
L 3109 2759 
L 3109 2228 
L 1259 2228 
L 1259 0 
L 628 0 
L 628 4666 
z
" transform="scale(0.015625)"/>
       <path id="DejaVuSans-61" d="M 2194 1759 
Q 1497 1759 1228 1600 
Q 959 1441 959 1056 
Q 959 750 1161 570 
Q 1363 391 1709 391 
Q 2188 391 2477 730 
Q 2766 1069 2766 1631 
L 2766 1759 
L 2194 1759 
z
M 3341 1997 
L 3341 0 
L 2766 0 
L 2766 531 
Q 2569 213 2275 61 
Q 1981 -91 1556 -91 
Q 1019 -91 701 211 
Q 384 513 384 1019 
Q 384 1609 779 1909 
Q 1175 2209 1959 2209 
L 2766 2209 
L 2766 2266 
Q 2766 2663 2505 2880 
Q 2244 3097 1772 3097 
Q 1472 3097 1187 3025 
Q 903 2953 641 2809 
L 641 3341 
Q 956 3463 1253 3523 
Q 1550 3584 1831 3584 
Q 2591 3584 2966 3190 
Q 3341 2797 3341 1997 
z
" transform="scale(0.015625)"/>
       <path id="DejaVuSans-6c" d="M 603 4863 
L 1178 4863 
L 1178 0 
L 603 0 
L 603 4863 
z
" transform="scale(0.015625)"/>
       <path id="DejaVuSans-73" d="M 2834 3397 
L 2834 2853 
Q 2591 2978 2328 3040 
Q 2066 3103 1784 3103 
Q 1356 3103 1142 2972 
Q 928 2841 928 2578 
Q 928 2378 1081 2264 
Q 1234 2150 1697 2047 
L 1894 2003 
Q 2506 1872 2764 1633 
Q 3022 1394 3022 966 
Q 3022 478 2636 193 
Q 2250 -91 1575 -91 
Q 1294 -91 989 -36 
Q 684 19 347 128 
L 347 722 
Q 666 556 975 473 
Q 1284 391 1588 391 
Q 1994 391 2212 530 
Q 2431 669 2431 922 
Q 2431 1156 2273 1281 
Q 2116 1406 1581 1522 
L 1381 1569 
Q 847 1681 609 1914 
Q 372 2147 372 2553 
Q 372 3047 722 3315 
Q 1072 3584 1716 3584 
Q 2034 3584 2315 3537 
Q 2597 3491 2834 3397 
z
" transform="scale(0.015625)"/>
       <path id="DejaVuSans-65" d="M 3597 1894 
L 3597 1613 
L 953 1613 
Q 991 1019 1311 708 
Q 1631 397 2203 397 
Q 2534 397 2845 478 
Q 3156 559 3463 722 
L 3463 178 
Q 3153 47 2828 -22 
Q 2503 -91 2169 -91 
Q 1331 -91 842 396 
Q 353 884 353 1716 
Q 353 2575 817 3079 
Q 1281 3584 2069 3584 
Q 2775 3584 3186 3129 
Q 3597 2675 3597 1894 
z
M 3022 2063 
Q 3016 2534 2758 2815 
Q 2500 3097 2075 3097 
Q 1594 3097 1305 2825 
Q 1016 2553 972 2059 
L 3022 2063 
z
" transform="scale(0.015625)"/>
       <path id="DejaVuSans-20" transform="scale(0.015625)"/>
       <path id="DejaVuSans-50" d="M 1259 4147 
L 1259 2394 
L 2053 2394 
Q 2494 2394 2734 2622 
Q 2975 2850 2975 3272 
Q 2975 3691 2734 3919 
Q 2494 4147 2053 4147 
L 1259 4147 
z
M 628 4666 
L 2053 4666 
Q 2838 4666 3239 4311 
Q 3641 3956 3641 3272 
Q 3641 2581 3239 2228 
Q 2838 1875 2053 1875 
L 1259 1875 
L 1259 0 
L 628 0 
L 628 4666 
z
" transform="scale(0.015625)"/>
       <path id="DejaVuSans-6f" d="M 1959 3097 
Q 1497 3097 1228 2736 
Q 959 2375 959 1747 
Q 959 1119 1226 758 
Q 1494 397 1959 397 
Q 2419 397 2687 759 
Q 2956 1122 2956 1747 
Q 2956 2369 2687 2733 
Q 2419 3097 1959 3097 
z
M 1959 3584 
Q 2709 3584 3137 3096 
Q 3566 2609 3566 1747 
Q 3566 888 3137 398 
Q 2709 -91 1959 -91 
Q 1206 -91 779 398 
Q 353 888 353 1747 
Q 353 2609 779 3096 
Q 1206 3584 1959 3584 
z
" transform="scale(0.015625)"/>
       <path id="DejaVuSans-69" d="M 603 3500 
L 1178 3500 
L 1178 0 
L 603 0 
L 603 3500 
z
M 603 4863 
L 1178 4863 
L 1178 4134 
L 603 4134 
L 603 4863 
z
" transform="scale(0.015625)"/>
       <path id="DejaVuSans-74" d="M 1172 4494 
L 1172 3500 
L 2356 3500 
L 2356 3053 
L 1172 3053 
L 1172 1153 
Q 1172 725 1289 603 
Q 1406 481 1766 481 
L 2356 481 
L 2356 0 
L 1766 0 
Q 1100 0 847 248 
Q 594 497 594 1153 
L 594 3053 
L 172 3053 
L 172 3500 
L 594 3500 
L 594 4494 
L 1172 4494 
z
" transform="scale(0.015625)"/>
       <path id="DejaVuSans-76" d="M 191 3500 
L 800 3500 
L 1894 563 
L 2988 3500 
L 3597 3500 
L 2284 0 
L 1503 0 
L 191 3500 
z
" transform="scale(0.015625)"/>
       <path id="DejaVuSans-52" d="M 2841 2188 
Q 3044 2119 3236 1894 
Q 3428 1669 3622 1275 
L 4263 0 
L 3584 0 
L 2988 1197 
Q 2756 1666 2539 1819 
Q 2322 1972 1947 1972 
L 1259 1972 
L 1259 0 
L 628 0 
L 628 4666 
L 2053 4666 
Q 2853 4666 3247 4331 
Q 3641 3997 3641 3322 
Q 3641 2881 3436 2590 
Q 3231 2300 2841 2188 
z
M 1259 4147 
L 1259 2491 
L 2053 2491 
Q 2509 2491 2742 2702 
Q 2975 2913 2975 3322 
Q 2975 3731 2742 3939 
Q 2509 4147 2053 4147 
L 1259 4147 
z
" transform="scale(0.015625)"/>
      </defs>
      <use xlink:href="#DejaVuSans-46"/>
      <use xlink:href="#DejaVuSans-61" x="48.394531"/>
      <use xlink:href="#DejaVuSans-6c" x="109.673828"/>
      <use xlink:href="#DejaVuSans-73" x="137.457031"/>
      <use xlink:href="#DejaVuSans-65" x="189.556641"/>
      <use xlink:href="#DejaVuSans-20" x="251.080078"/>
      <use xlink:href="#DejaVuSans-50" x="282.867188"/>
      <use xlink:href="#DejaVuSans-6f" x="339.544922"/>
      <use xlink:href="#DejaVuSans-73" x="400.726562"/>
      <use xlink:href="#DejaVuSans-69" x="452.826172"/>
      <use xlink:href="#DejaVuSans-74" x="480.609375"/>
      <use xlink:href="#DejaVuSans-69" x="519.818359"/>
      <use xlink:href="#DejaVuSans-76" x="547.601562"/>
      <use xlink:href="#DejaVuSans-65" x="606.78125"/>
      <use xlink:href="#DejaVuSans-20" x="668.304688"/>
      <use xlink:href="#DejaVuSans-52" x="700.091797"/>
      <use xlink:href="#DejaVuSans-61" x="767.324219"/>
      <use xlink:href="#DejaVuSans-74" x="828.603516"/>
      <use xlink:href="#DejaVuSans-65" x="867.8125"/>
     </g>
    </g>
   </g>
   <g id="matplotlib.axis_2">
    <g id="ytick_1">
     <g id="line2d_7">
      <defs>
       <path id="m5d923cab58" d="M 0 0 
L -3.5 0 
" style="stroke: #000000; stroke-width: 0.8"/>
      </defs>
      <g>
       <use xlink:href="#m5d923cab58" x="90" y="499.732287" style="stroke: #000000; stroke-width: 0.8"/>
      </g>
     </g>
     <g id="text_8">
      <!-- 0.0 -->
      <g transform="translate(51.19375 507.330724)scale(0.2 -0.2)">
       <use xlink:href="#DejaVuSans-30"/>
       <use xlink:href="#DejaVuSans-2e" x="63.623047"/>
       <use xlink:href="#DejaVuSans-30" x="95.410156"/>
      </g>
     </g>
    </g>
    <g id="ytick_2">
     <g id="line2d_8">
      <g>
       <use xlink:href="#m5d923cab58" x="90" y="414.378018" style="stroke: #000000; stroke-width: 0.8"/>
      </g>
     </g>
     <g id="text_9">
      <!-- 0.2 -->
      <g transform="translate(51.19375 421.976455)scale(0.2 -0.2)">
       <use xlink:href="#DejaVuSans-30"/>
       <use xlink:href="#DejaVuSans-2e" x="63.623047"/>
       <use xlink:href="#DejaVuSans-32" x="95.410156"/>
      </g>
     </g>
    </g>
    <g id="ytick_3">
     <g id="line2d_9">
      <g>
       <use xlink:href="#m5d923cab58" x="90" y="329.023749" style="stroke: #000000; stroke-width: 0.8"/>
      </g>
     </g>
     <g id="text_10">
      <!-- 0.4 -->
      <g transform="translate(51.19375 336.622186)scale(0.2 -0.2)">
       <use xlink:href="#DejaVuSans-30"/>
       <use xlink:href="#DejaVuSans-2e" x="63.623047"/>
       <use xlink:href="#DejaVuSans-34" x="95.410156"/>
      </g>
     </g>
    </g>
    <g id="ytick_4">
     <g id="line2d_10">
      <g>
       <use xlink:href="#m5d923cab58" x="90" y="243.66948" style="stroke: #000000; stroke-width: 0.8"/>
      </g>
     </g>
     <g id="text_11">
      <!-- 0.6 -->
      <g transform="translate(51.19375 251.267917)scale(0.2 -0.2)">
       <use xlink:href="#DejaVuSans-30"/>
       <use xlink:href="#DejaVuSans-2e" x="63.623047"/>
       <use xlink:href="#DejaVuSans-36" x="95.410156"/>
      </g>
     </g>
    </g>
    <g id="ytick_5">
     <g id="line2d_11">
      <g>
       <use xlink:href="#m5d923cab58" x="90" y="158.315211" style="stroke: #000000; stroke-width: 0.8"/>
      </g>
     </g>
     <g id="text_12">
      <!-- 0.8 -->
      <g transform="translate(51.19375 165.913648)scale(0.2 -0.2)">
       <use xlink:href="#DejaVuSans-30"/>
       <use xlink:href="#DejaVuSans-2e" x="63.623047"/>
       <use xlink:href="#DejaVuSans-38" x="95.410156"/>
      </g>
     </g>
    </g>
    <g id="ytick_6">
     <g id="line2d_12">
      <g>
       <use xlink:href="#m5d923cab58" x="90" y="72.960942" style="stroke: #000000; stroke-width: 0.8"/>
      </g>
     </g>
     <g id="text_13">
      <!-- 1.0 -->
      <g transform="translate(51.19375 80.55938)scale(0.2 -0.2)">
       <use xlink:href="#DejaVuSans-31"/>
       <use xlink:href="#DejaVuSans-2e" x="63.623047"/>
       <use xlink:href="#DejaVuSans-30" x="95.410156"/>
      </g>
     </g>
    </g>
    <g id="text_14">
     <!-- True Positive Rate -->
     <g transform="translate(42.618437 384.525312)rotate(-90)scale(0.22 -0.22)">
      <defs>
       <path id="DejaVuSans-54" d="M -19 4666 
L 3928 4666 
L 3928 4134 
L 2272 4134 
L 2272 0 
L 1638 0 
L 1638 4134 
L -19 4134 
L -19 4666 
z
" transform="scale(0.015625)"/>
       <path id="DejaVuSans-72" d="M 2631 2963 
Q 2534 3019 2420 3045 
Q 2306 3072 2169 3072 
Q 1681 3072 1420 2755 
Q 1159 2438 1159 1844 
L 1159 0 
L 581 0 
L 581 3500 
L 1159 3500 
L 1159 2956 
Q 1341 3275 1631 3429 
Q 1922 3584 2338 3584 
Q 2397 3584 2469 3576 
Q 2541 3569 2628 3553 
L 2631 2963 
z
" transform="scale(0.015625)"/>
       <path id="DejaVuSans-75" d="M 544 1381 
L 544 3500 
L 1119 3500 
L 1119 1403 
Q 1119 906 1312 657 
Q 1506 409 1894 409 
Q 2359 409 2629 706 
Q 2900 1003 2900 1516 
L 2900 3500 
L 3475 3500 
L 3475 0 
L 2900 0 
L 2900 538 
Q 2691 219 2414 64 
Q 2138 -91 1772 -91 
Q 1169 -91 856 284 
Q 544 659 544 1381 
z
M 1991 3584 
L 1991 3584 
z
" transform="scale(0.015625)"/>
      </defs>
      <use xlink:href="#DejaVuSans-54"/>
      <use xlink:href="#DejaVuSans-72" x="46.333984"/>
      <use xlink:href="#DejaVuSans-75" x="87.447266"/>
      <use xlink:href="#DejaVuSans-65" x="150.826172"/>
      <use xlink:href="#DejaVuSans-20" x="212.349609"/>
      <use xlink:href="#DejaVuSans-50" x="244.136719"/>
      <use xlink:href="#DejaVuSans-6f" x="300.814453"/>
      <use xlink:href="#DejaVuSans-73" x="361.996094"/>
      <use xlink:href="#DejaVuSans-69" x="414.095703"/>
      <use xlink:href="#DejaVuSans-74" x="441.878906"/>
      <use xlink:href="#DejaVuSans-69" x="481.087891"/>
      <use xlink:href="#DejaVuSans-76" x="508.871094"/>
      <use xlink:href="#DejaVuSans-65" x="568.050781"/>
      <use xlink:href="#DejaVuSans-20" x="629.574219"/>
      <use xlink:href="#DejaVuSans-52" x="661.361328"/>
      <use xlink:href="#DejaVuSans-61" x="728.59375"/>
      <use xlink:href="#DejaVuSans-74" x="789.873047"/>
      <use xlink:href="#DejaVuSans-65" x="829.082031"/>
     </g>
    </g>
   </g>
   <g id="line2d_13">
    <path d="M 116.571429 499.732287 
L 116.676361 463.955048 
L 116.728827 463.955048 
L 116.833759 455.152712 
L 116.886225 455.152712 
L 116.991157 430.165434 
L 117.043623 430.165434 
L 117.148555 411.141029 
L 117.201021 411.141029 
L 117.305953 407.733673 
L 117.358419 407.733673 
L 117.463351 389.277161 
L 117.515817 389.277161 
L 117.620749 374.228006 
L 117.673216 374.228006 
L 117.778148 353.499923 
L 117.830614 353.499923 
L 117.935546 348.104943 
L 117.988012 348.104943 
L 118.040478 343.277855 
L 118.14541 343.277855 
L 118.250342 333.055787 
L 118.302808 333.055787 
L 118.40774 327.37686 
L 118.460206 327.37686 
L 118.565138 323.685558 
L 118.67007 323.685558 
L 118.775002 320.562148 
L 118.827469 320.562148 
L 118.932401 309.488241 
L 118.984867 309.488241 
L 119.089799 303.809314 
L 119.142265 303.809314 
L 119.247197 300.118012 
L 119.299663 300.118012 
L 119.404595 298.414334 
L 119.509527 298.414334 
L 119.614459 296.142763 
L 119.666925 296.142763 
L 119.719391 295.006978 
L 119.876789 295.006978 
L 119.981722 292.735407 
L 120.034188 292.735407 
L 120.13912 290.17989 
L 120.296518 290.17989 
L 120.348984 285.920695 
L 120.453916 285.920695 
L 120.558848 281.6615 
L 120.66378 281.6615 
L 120.66378 280.241768 
L 120.821178 280.241768 
L 120.92611 279.673875 
L 120.978576 279.673875 
L 121.083508 277.686251 
L 121.135975 277.686251 
L 121.240907 275.41468 
L 121.293373 275.41468 
L 121.398305 272.859163 
L 121.503237 272.859163 
L 121.608169 270.0197 
L 121.660635 270.0197 
L 121.765567 268.032076 
L 121.818033 268.032076 
L 121.922965 266.328398 
L 121.975431 266.328398 
L 122.080363 264.056827 
L 122.132829 264.056827 
L 122.237761 261.50131 
L 122.342694 261.50131 
L 122.39516 260.081578 
L 122.605024 260.081578 
L 122.605024 259.797632 
L 122.762422 259.797632 
L 122.814888 258.945793 
L 123.024752 258.945793 
L 123.129684 257.242115 
L 123.234616 257.242115 
L 123.339548 256.674222 
L 123.392014 256.674222 
L 123.392014 256.390276 
L 123.601879 256.390276 
L 123.601879 256.106329 
L 123.759277 256.106329 
L 123.864209 254.118705 
L 123.969141 254.118705 
L 123.969141 253.834759 
L 124.126539 253.834759 
L 124.179005 252.98292 
L 124.283937 252.98292 
L 124.388869 250.995295 
L 124.441335 250.995295 
L 124.441335 250.143456 
L 124.6512 250.143456 
L 124.756132 249.291617 
L 124.808598 249.291617 
L 124.861064 247.587939 
L 124.965996 247.587939 
L 125.018462 247.020047 
L 125.280792 247.020047 
L 125.280792 246.7361 
L 125.490656 246.7361 
L 125.595588 246.168208 
L 125.70052 246.168208 
L 125.805453 243.896637 
L 125.857919 243.896637 
L 125.962851 243.044798 
L 126.015317 243.044798 
L 126.015317 242.760852 
L 126.382579 242.760852 
L 126.487511 241.909013 
L 126.539977 241.909013 
L 126.592443 240.489281 
L 126.697375 240.489281 
L 126.802307 239.069549 
L 127.064638 239.069549 
L 127.16957 237.933764 
L 127.379434 237.933764 
L 127.484366 236.514032 
L 127.589298 236.514032 
L 127.589298 236.230086 
L 127.746696 236.230086 
L 127.799162 235.378247 
L 127.904094 235.378247 
L 127.95656 234.242461 
L 128.113959 234.242461 
L 128.166425 233.674569 
L 128.323823 233.674569 
L 128.428755 232.82273 
L 128.481221 232.82273 
L 128.586153 231.686944 
L 128.638619 231.686944 
L 128.743551 231.119052 
L 128.900949 231.119052 
L 128.900949 230.551159 
L 129.215745 230.551159 
L 129.215745 230.267213 
L 129.42561 230.267213 
L 129.478076 229.69932 
L 129.583008 229.69932 
L 129.583008 229.131427 
L 129.740406 229.131427 
L 129.792872 228.279588 
L 129.897804 228.279588 
L 130.002736 226.291964 
L 130.107668 226.291964 
L 130.107668 226.008018 
L 130.422464 226.008018 
L 130.527397 225.440125 
L 130.789727 225.440125 
L 130.789727 225.156179 
L 130.947125 225.156179 
L 130.947125 224.588286 
L 131.104523 224.588286 
L 131.209455 222.884608 
L 131.629184 222.884608 
L 131.629184 222.600662 
L 131.786582 222.600662 
L 131.891514 221.748823 
L 131.94398 221.748823 
L 131.94398 221.18093 
L 132.258776 221.18093 
L 132.363708 219.761198 
L 132.416174 219.761198 
L 132.521106 218.625413 
L 132.573572 218.625413 
L 132.678504 216.637789 
L 132.783437 216.637789 
L 132.783437 216.353842 
L 133.045767 216.353842 
L 133.150699 215.78595 
L 133.203165 215.78595 
L 133.203165 215.502003 
L 133.413029 215.502003 
L 133.413029 215.218057 
L 133.832757 215.218057 
L 133.885223 214.366218 
L 134.20002 214.366218 
L 134.304952 211.810701 
L 134.409884 211.810701 
L 134.409884 211.526755 
L 134.619748 211.526755 
L 134.619748 211.242808 
L 135.091943 211.242808 
L 135.196875 210.390969 
L 135.249341 210.390969 
L 135.354273 209.823077 
L 135.406739 209.823077 
L 135.511671 208.687291 
L 135.564137 208.687291 
L 135.616603 208.119398 
L 135.774001 208.119398 
L 135.878933 206.983613 
L 135.931399 206.983613 
L 135.931399 206.699667 
L 136.088797 206.699667 
L 136.088797 206.41572 
L 136.298662 206.41572 
L 136.403594 205.847828 
L 136.45606 205.847828 
L 136.45606 205.563881 
L 136.875788 205.563881 
L 136.875788 205.279935 
L 137.400449 205.279935 
L 137.505381 203.860203 
L 137.557847 203.860203 
L 137.610313 203.292311 
L 137.767711 203.292311 
L 137.820177 202.440472 
L 137.925109 202.440472 
L 138.030041 201.304686 
L 138.082507 201.304686 
L 138.082507 200.736794 
L 138.502235 200.736794 
L 138.607168 199.317062 
L 138.764566 199.317062 
L 138.764566 199.033116 
L 138.921964 199.033116 
L 138.97443 198.465223 
L 139.289226 198.465223 
L 139.289226 198.181277 
L 139.446624 198.181277 
L 139.49909 197.613384 
L 139.604022 197.613384 
L 139.656488 197.045491 
L 139.813887 197.045491 
L 139.813887 196.477599 
L 139.971285 196.477599 
L 140.076217 195.62576 
L 140.128683 195.62576 
L 140.128683 195.057867 
L 140.705809 195.057867 
L 140.705809 194.773921 
L 140.863207 194.773921 
L 140.96814 193.354189 
L 141.178004 193.354189 
L 141.282936 192.50235 
L 141.335402 192.50235 
L 141.335402 192.218404 
L 141.912528 192.218404 
L 141.912528 191.934457 
L 142.174859 191.934457 
L 142.279791 191.366565 
L 142.384723 191.366565 
L 142.437189 190.230779 
L 143.434044 190.230779 
L 143.48651 189.37894 
L 143.591442 189.37894 
L 143.591442 189.094994 
L 143.906238 189.094994 
L 143.906238 188.243155 
L 144.378433 188.243155 
L 144.378433 187.959209 
L 144.588297 187.959209 
L 144.588297 187.675262 
L 144.955559 187.675262 
L 145.008025 186.823423 
L 145.112957 186.823423 
L 145.112957 186.255531 
L 146.00488 186.255531 
L 146.109812 185.403692 
L 146.162278 185.403692 
L 146.26721 184.551853 
L 146.319676 184.551853 
L 146.319676 184.267906 
L 146.686938 184.267906 
L 146.791871 183.132121 
L 146.896803 183.132121 
L 146.896803 182.564228 
L 147.316531 182.564228 
L 147.421463 181.996335 
L 147.631327 181.996335 
L 147.631327 181.712389 
L 147.893658 181.712389 
L 147.893658 180.576604 
L 148.680648 180.576604 
L 148.78558 179.724765 
L 149.257775 179.724765 
L 149.362707 179.156872 
L 149.415173 179.156872 
L 149.415173 178.872926 
L 149.625037 178.872926 
L 149.677503 178.305033 
L 149.782435 178.305033 
L 149.887367 177.73714 
L 150.412028 177.73714 
L 150.412028 177.453194 
L 150.621892 177.453194 
L 150.621892 176.885301 
L 150.831756 176.885301 
L 150.831756 176.033462 
L 150.989154 176.033462 
L 151.04162 175.46557 
L 151.356417 175.46557 
L 151.356417 174.897677 
L 151.513815 174.897677 
L 151.513815 174.613731 
L 151.723679 174.613731 
L 151.828611 174.045838 
L 151.933543 174.045838 
L 151.933543 173.761892 
L 152.353271 173.761892 
L 152.458203 173.193999 
L 152.825466 173.193999 
L 152.930398 171.774267 
L 153.245194 171.774267 
L 153.245194 171.490321 
L 153.507524 171.490321 
L 153.507524 170.922428 
L 154.032185 170.922428 
L 154.032185 170.638482 
L 154.189583 170.638482 
L 154.189583 170.354536 
L 154.346981 170.354536 
L 154.346981 170.070589 
L 154.819175 170.070589 
L 154.819175 169.786643 
L 155.973428 169.786643 
L 155.973428 169.502697 
L 156.235759 169.502697 
L 156.235759 169.21875 
L 156.498089 169.21875 
L 156.603021 168.650858 
L 156.707953 168.650858 
L 156.812885 168.082965 
L 156.917817 168.082965 
L 156.917817 167.799019 
L 157.28508 167.799019 
L 157.390012 166.94718 
L 157.54741 166.94718 
L 157.652342 165.811394 
L 158.334401 165.811394 
L 158.334401 165.243502 
L 158.491799 165.243502 
L 158.596731 164.391663 
L 159.54112 164.391663 
L 159.54112 164.107716 
L 159.80345 164.107716 
L 159.908382 163.539824 
L 159.960848 163.539824 
L 159.960848 163.255877 
L 160.170712 163.255877 
L 160.223178 162.687985 
L 160.485508 162.687985 
L 160.485508 162.404038 
L 160.957703 162.404038 
L 160.957703 162.120092 
L 161.377431 162.120092 
L 161.377431 161.836146 
L 161.692227 161.836146 
L 161.692227 161.268253 
L 162.05949 161.268253 
L 162.164422 160.132468 
L 162.426752 160.132468 
L 162.426752 159.564575 
L 162.58415 159.564575 
L 162.58415 159.280629 
L 162.741548 159.280629 
L 162.794014 158.42879 
L 163.161277 158.42879 
L 163.161277 158.144843 
L 164.053199 158.144843 
L 164.053199 157.860897 
L 164.210598 157.860897 
L 164.210598 157.576951 
L 164.892656 157.576951 
L 164.892656 157.009058 
L 165.364851 157.009058 
L 165.364851 156.441165 
L 165.627181 156.441165 
L 165.627181 156.157219 
L 166.151841 156.157219 
L 166.151841 155.873272 
L 166.414171 155.873272 
L 166.466638 155.30538 
L 166.624036 155.30538 
L 166.624036 155.021433 
L 167.463492 155.021433 
L 167.463492 154.737487 
L 168.093085 154.737487 
L 168.093085 154.453541 
L 168.355415 154.453541 
L 168.407881 153.885648 
L 168.82761 153.885648 
L 168.82761 153.601702 
L 169.35227 153.601702 
L 169.35227 153.317755 
L 169.509668 153.317755 
L 169.509668 153.033809 
L 169.771998 153.033809 
L 169.771998 152.749863 
L 170.506523 152.749863 
L 170.506523 152.465916 
L 171.555844 152.465916 
L 171.660776 151.614077 
L 171.713242 151.614077 
L 171.713242 150.762238 
L 172.500233 150.762238 
L 172.500233 150.478292 
L 172.710097 150.478292 
L 172.710097 150.194346 
L 173.392155 150.194346 
L 173.444622 149.626453 
L 173.60202 149.626453 
L 173.706952 148.490668 
L 173.86435 148.490668 
L 173.969282 147.070936 
L 174.12668 147.070936 
L 174.12668 146.78699 
L 174.336544 146.78699 
L 174.336544 146.503043 
L 174.913671 146.503043 
L 175.018603 145.935151 
L 175.123535 145.935151 
L 175.123535 145.651204 
L 175.543263 145.651204 
L 175.648195 145.083312 
L 175.910526 145.083312 
L 175.910526 144.799365 
L 176.277788 144.799365 
L 176.277788 144.515419 
L 178.271498 144.515419 
L 178.271498 144.231473 
L 178.586294 144.231473 
L 178.691226 143.379634 
L 179.058488 143.379634 
L 179.058488 143.095687 
L 179.373285 143.095687 
L 179.373285 142.811741 
L 179.530683 142.811741 
L 179.635615 141.675956 
L 179.793013 141.675956 
L 179.793013 141.392009 
L 180.842334 141.392009 
L 180.842334 141.108063 
L 181.786723 141.108063 
L 181.786723 140.54017 
L 182.468781 140.54017 
L 182.468781 140.256224 
L 182.783578 140.256224 
L 182.783578 139.972278 
L 182.940976 139.972278 
L 182.993442 139.404385 
L 183.255772 139.404385 
L 183.255772 139.120439 
L 183.465636 139.120439 
L 183.465636 138.2686 
L 184.042763 138.2686 
L 184.042763 137.984653 
L 185.092084 137.984653 
L 185.092084 137.700707 
L 185.774142 137.700707 
L 185.774142 137.416761 
L 186.980861 137.416761 
L 187.085793 136.848868 
L 187.767852 136.848868 
L 187.767852 136.564922 
L 188.135114 136.564922 
L 188.18758 135.997029 
L 188.292512 135.997029 
L 188.292512 135.713083 
L 188.817173 135.713083 
L 188.817173 135.429136 
L 188.974571 135.429136 
L 188.974571 135.14519 
L 189.236901 135.14519 
L 189.341833 134.577297 
L 189.394299 134.577297 
L 189.394299 134.293351 
L 189.604163 134.293351 
L 189.604163 134.009405 
L 189.761562 134.009405 
L 189.761562 133.725458 
L 190.810882 133.725458 
L 190.810882 133.441512 
L 191.702805 133.441512 
L 191.702805 132.873619 
L 192.122534 132.873619 
L 192.175 132.305727 
L 193.066922 132.305727 
L 193.066922 132.02178 
L 193.591583 132.02178 
L 193.591583 131.737834 
L 193.958845 131.737834 
L 193.958845 131.453888 
L 194.9557 131.453888 
L 194.9557 131.169941 
L 195.270496 131.169941 
L 195.270496 130.885995 
L 195.48036 130.885995 
L 195.532827 130.318102 
L 196.214885 130.318102 
L 196.319817 129.750209 
L 196.529681 129.750209 
L 196.634613 129.182317 
L 196.844478 129.182317 
L 196.844478 128.89837 
L 197.421604 128.89837 
L 197.421604 128.614424 
L 197.788866 128.614424 
L 197.788866 128.046531 
L 198.051197 128.046531 
L 198.051197 127.762585 
L 198.785721 127.762585 
L 198.785721 127.194692 
L 198.943119 127.194692 
L 198.943119 126.910746 
L 199.310382 126.910746 
L 199.310382 126.6268 
L 199.835042 126.6268 
L 199.939974 125.774961 
L 201.041761 125.774961 
L 201.041761 125.207068 
L 201.304092 125.207068 
L 201.356558 124.639175 
L 202.930539 124.639175 
L 202.930539 124.071283 
L 203.350267 124.071283 
L 203.350267 123.787336 
L 203.71753 123.787336 
L 203.71753 123.50339 
L 203.874928 123.50339 
L 203.874928 123.219444 
L 204.399588 123.219444 
L 204.399588 122.935497 
L 205.606307 122.935497 
L 205.606307 122.367605 
L 206.078502 122.367605 
L 206.078502 122.083658 
L 206.708094 122.083658 
L 206.708094 121.515766 
L 207.337687 121.515766 
L 207.337687 121.231819 
L 208.229609 121.231819 
L 208.229609 120.947873 
L 209.541261 120.947873 
L 209.541261 120.663927 
L 209.908523 120.663927 
L 209.960989 119.528141 
L 210.643048 119.528141 
L 210.695514 118.676302 
L 211.220174 118.676302 
L 211.27264 118.10841 
L 212.899087 118.10841 
L 212.899087 117.824463 
L 213.108952 117.824463 
L 213.161418 117.256571 
L 215.417458 117.256571 
L 215.417458 116.972624 
L 216.099516 116.972624 
L 216.099516 116.688678 
L 216.361846 116.688678 
L 216.361846 116.120785 
L 216.624177 116.120785 
L 216.624177 115.836839 
L 216.886507 115.836839 
L 216.886507 115.552893 
L 217.096371 115.552893 
L 217.096371 115.268946 
L 217.673498 115.268946 
L 217.673498 114.985 
L 217.988294 114.985 
L 217.988294 114.701054 
L 219.404877 114.701054 
L 219.509809 113.849215 
L 220.506664 113.849215 
L 220.55913 113.281322 
L 221.136257 113.281322 
L 221.136257 112.997376 
L 221.660917 112.997376 
L 221.660917 112.713429 
L 221.975713 112.713429 
L 222.028179 112.145537 
L 222.972568 112.145537 
L 222.972568 111.86159 
L 223.392297 111.86159 
L 223.392297 111.577644 
L 225.018744 111.577644 
L 225.123676 110.725805 
L 225.543404 110.725805 
L 225.543404 110.441859 
L 227.379716 110.441859 
L 227.379716 110.157912 
L 227.537114 110.157912 
L 227.537114 109.873966 
L 227.746978 109.873966 
L 227.85191 109.306073 
L 228.219173 109.306073 
L 228.219173 109.022127 
L 228.848765 109.022127 
L 228.953697 108.454234 
L 229.058629 108.454234 
L 229.058629 108.170288 
L 229.740688 108.170288 
L 229.740688 107.602395 
L 233.885506 107.602395 
L 233.885506 107.318449 
L 235.302089 107.318449 
L 235.302089 107.034503 
L 235.826749 107.034503 
L 235.826749 106.750556 
L 236.61374 106.750556 
L 236.61374 106.46661 
L 238.135255 106.46661 
L 238.135255 106.182664 
L 238.659916 106.182664 
L 238.659916 105.898717 
L 238.86978 105.898717 
L 238.86978 105.330825 
L 239.709237 105.330825 
L 239.709237 105.046878 
L 239.971567 105.046878 
L 240.076499 104.478986 
L 240.443761 104.478986 
L 240.443761 104.195039 
L 242.962131 104.195039 
L 242.962131 103.911093 
L 244.273782 103.911093 
L 244.273782 103.627146 
L 245.323103 103.627146 
L 245.323103 103.3432 
L 245.6379 103.3432 
L 245.6379 103.059254 
L 245.952696 103.059254 
L 245.952696 102.775307 
L 246.897085 102.775307 
L 246.897085 102.491361 
L 247.159415 102.491361 
L 247.159415 102.207415 
L 248.313668 102.207415 
L 248.313668 101.923468 
L 248.471066 101.923468 
L 248.471066 101.355576 
L 250.202446 101.355576 
L 250.202446 101.071629 
L 251.251766 101.071629 
L 251.251766 100.787683 
L 251.671495 100.787683 
L 251.671495 100.503737 
L 252.406019 100.503737 
L 252.406019 100.21979 
L 252.93068 100.21979 
L 252.93068 99.935844 
L 253.245476 99.935844 
L 253.245476 99.651898 
L 254.242331 99.651898 
L 254.242331 99.367951 
L 255.344118 99.367951 
L 255.344118 99.084005 
L 255.71138 99.084005 
L 255.71138 98.800059 
L 256.183575 98.800059 
L 256.183575 98.516112 
L 257.232896 98.516112 
L 257.232896 98.232166 
L 258.387149 98.232166 
L 258.387149 97.94822 
L 260.328392 97.94822 
L 260.328392 97.664273 
L 261.325247 97.664273 
L 261.325247 97.380327 
L 262.112238 97.380327 
L 262.112238 97.096381 
L 263.476355 97.096381 
L 263.476355 96.812434 
L 264.683074 96.812434 
L 264.73554 96.244542 
L 264.99787 96.244542 
L 264.99787 95.960595 
L 265.522531 95.960595 
L 265.522531 95.676649 
L 265.994725 95.676649 
L 266.047191 95.108756 
L 266.834182 95.108756 
L 266.834182 94.82481 
L 268.145833 94.82481 
L 268.145833 94.540864 
L 268.513095 94.540864 
L 268.513095 94.256917 
L 269.352552 94.256917 
L 269.352552 93.972971 
L 271.083932 93.972971 
L 271.083932 93.689025 
L 274.389292 93.689025 
L 274.389292 93.405078 
L 275.75341 93.405078 
L 275.75341 93.121132 
L 276.80273 93.121132 
L 276.80273 92.837186 
L 278.691508 92.837186 
L 278.691508 92.553239 
L 283.360986 92.553239 
L 283.465918 91.985347 
L 284.305375 91.985347 
L 284.305375 91.7014 
L 285.407162 91.7014 
L 285.407162 91.417454 
L 288.764989 91.417454 
L 288.764989 91.133508 
L 289.394581 91.133508 
L 289.394581 90.565615 
L 289.761844 90.565615 
L 289.761844 90.281669 
L 290.443902 90.281669 
L 290.443902 89.997722 
L 294.641186 89.997722 
L 294.641186 89.713776 
L 294.798584 89.713776 
L 294.798584 89.42983 
L 297.999013 89.42983 
L 297.999013 89.145883 
L 298.733537 89.145883 
L 298.733537 88.861937 
L 300.412451 88.861937 
L 300.412451 88.577991 
L 302.406161 88.577991 
L 302.406161 88.294044 
L 302.773423 88.294044 
L 302.773423 88.010098 
L 303.403015 88.010098 
L 303.403015 87.726152 
L 309.489077 87.726152 
L 309.489077 87.442205 
L 309.803873 87.442205 
L 309.803873 87.158259 
L 315.41774 87.158259 
L 315.41774 86.874313 
L 317.726246 86.874313 
L 317.726246 86.590366 
L 320.979141 86.590366 
L 320.979141 86.30642 
L 322.553122 86.30642 
L 322.553122 86.022474 
L 327.379998 86.022474 
L 327.379998 85.738527 
L 328.114523 85.738527 
L 328.114523 85.454581 
L 332.626603 85.454581 
L 332.626603 85.170635 
L 336.351692 85.170635 
L 336.351692 84.886688 
L 342.122957 84.886688 
L 342.122957 84.602742 
L 343.224744 84.602742 
L 343.224744 84.318796 
L 346.530105 84.318796 
L 346.530105 84.034849 
L 347.159697 84.034849 
L 347.159697 83.750903 
L 350.360126 83.750903 
L 350.360126 83.466957 
L 351.829175 83.466957 
L 351.829175 83.18301 
L 359.85648 83.18301 
L 359.908946 82.615118 
L 361.745258 82.615118 
L 361.745258 82.331171 
L 366.047473 82.331171 
L 366.047473 82.047225 
L 369.929961 82.047225 
L 369.929961 81.763279 
L 378.219596 81.763279 
L 378.219596 81.479332 
L 378.796722 81.479332 
L 378.796722 81.195386 
L 382.469345 81.195386 
L 382.574278 80.627493 
L 383.728531 80.627493 
L 383.728531 80.343547 
L 392.595292 80.343547 
L 392.595292 80.059601 
L 393.906943 80.059601 
L 393.906943 79.775654 
L 405.239609 79.775654 
L 405.239609 79.491708 
L 408.754834 79.491708 
L 408.754834 79.207762 
L 423.655191 79.207762 
L 423.655191 78.923815 
L 431.052903 78.923815 
L 431.052903 78.639869 
L 436.14211 78.639869 
L 436.14211 78.355923 
L 444.746541 78.355923 
L 444.746541 78.071976 
L 445.008871 78.071976 
L 445.008871 77.78803 
L 452.039321 77.78803 
L 452.039321 77.504083 
L 460.801151 77.504083 
L 460.801151 77.220137 
L 466.25762 77.220137 
L 466.25762 76.936191 
L 485.932386 76.936191 
L 485.932386 76.652244 
L 490.759263 76.652244 
L 490.759263 76.368298 
L 491.808584 76.368298 
L 491.808584 76.084352 
L 492.175846 76.084352 
L 492.175846 75.800405 
L 499.41616 75.800405 
L 499.41616 75.516459 
L 507.495931 75.516459 
L 507.495931 75.232513 
L 516.834887 75.232513 
L 516.834887 74.948566 
L 526.698504 74.948566 
L 526.698504 74.66462 
L 540.182277 74.66462 
L 540.182277 74.380674 
L 543.33024 74.380674 
L 543.33024 74.096727 
L 550.88535 74.096727 
L 550.88535 73.812781 
L 572.658759 73.812781 
L 572.658759 73.528835 
L 587.664048 73.528835 
L 587.664048 73.244888 
L 593.277915 73.244888 
L 593.277915 72.960942 
L 648 72.960942 
L 648 72.960942 
" clip-path="url(#p2e56d92767)" style="fill: none; stroke: #1f77b4; stroke-width: 1.5; stroke-linecap: square"/>
   </g>
   <g id="line2d_14">
    <path d="M 116.571429 499.732287 
L 116.676361 489.510218 
L 116.728827 489.510218 
L 116.833759 468.214243 
L 116.886225 468.214243 
L 116.991157 429.313595 
L 117.043623 429.313595 
L 117.148555 414.548385 
L 117.201021 414.548385 
L 117.253487 399.215283 
L 117.358419 399.215283 
L 117.410885 396.659766 
L 117.568283 396.659766 
L 117.673216 389.277161 
L 117.725682 389.277161 
L 117.830614 371.388542 
L 117.88308 371.388542 
L 117.935546 367.129347 
L 118.040478 367.129347 
L 118.040478 365.993562 
L 118.197876 365.993562 
L 118.302808 364.289884 
L 118.460206 364.289884 
L 118.565138 361.45042 
L 118.617604 361.45042 
L 118.722536 358.894903 
L 118.775002 358.894903 
L 118.879935 356.339386 
L 118.932401 356.339386 
L 118.932401 355.487547 
L 119.089799 355.487547 
L 119.194731 352.93203 
L 119.247197 352.93203 
L 119.352129 350.66046 
L 119.404595 350.66046 
L 119.509527 348.672835 
L 119.614459 348.672835 
L 119.666925 346.117318 
L 119.771857 346.117318 
L 119.876789 341.858123 
L 119.929255 341.858123 
L 120.034188 341.290231 
L 120.086654 341.290231 
L 120.191586 338.450767 
L 120.40145 338.450767 
L 120.453916 336.747089 
L 120.558848 336.747089 
L 120.66378 335.327357 
L 120.716246 335.327357 
L 120.768712 334.191572 
L 120.873644 334.191572 
L 120.873644 333.339733 
L 121.135975 333.339733 
L 121.135975 331.920001 
L 121.293373 331.920001 
L 121.398305 329.364484 
L 121.450771 329.364484 
L 121.555703 327.660806 
L 121.713101 327.660806 
L 121.713101 327.092914 
L 121.870499 327.092914 
L 121.975431 325.673182 
L 122.027897 325.673182 
L 122.080363 324.537397 
L 122.237761 324.537397 
L 122.290227 323.117665 
L 122.39516 323.117665 
L 122.39516 322.833719 
L 122.605024 322.833719 
L 122.709956 321.98188 
L 123.024752 321.98188 
L 123.077218 320.846094 
L 123.287082 320.846094 
L 123.392014 319.426363 
L 123.44448 319.426363 
L 123.549413 318.006631 
L 123.654345 318.006631 
L 123.759277 317.438738 
L 123.864209 317.438738 
L 123.969141 316.302953 
L 124.179005 316.302953 
L 124.179005 316.019007 
L 124.336403 316.019007 
L 124.441335 314.599275 
L 124.546267 314.599275 
L 124.6512 313.747436 
L 124.703666 313.747436 
L 124.703666 313.179543 
L 124.861064 313.179543 
L 124.91353 311.475865 
L 125.018462 311.475865 
L 125.123394 309.204294 
L 125.228326 309.204294 
L 125.228326 308.636402 
L 125.385724 308.636402 
L 125.490656 306.932724 
L 125.648054 306.932724 
L 125.70052 306.364831 
L 125.805453 306.364831 
L 125.910385 305.796938 
L 125.962851 305.796938 
L 126.067783 303.809314 
L 126.172715 303.809314 
L 126.225181 302.673529 
L 126.330113 302.673529 
L 126.435045 300.969851 
L 126.487511 300.969851 
L 126.592443 299.266173 
L 126.644909 299.266173 
L 126.749841 298.414334 
L 126.854773 298.414334 
L 126.959706 297.846441 
L 127.16957 297.846441 
L 127.16957 296.994602 
L 127.326968 296.994602 
L 127.326968 296.710656 
L 127.589298 296.710656 
L 127.641764 295.858817 
L 127.746696 295.858817 
L 127.851628 295.006978 
L 128.009026 295.006978 
L 128.009026 294.723031 
L 128.218891 294.723031 
L 128.323823 293.3033 
L 128.481221 293.3033 
L 128.533687 292.735407 
L 128.638619 292.735407 
L 128.743551 291.883568 
L 128.796017 291.883568 
L 128.900949 289.044105 
L 129.005881 289.044105 
L 129.005881 288.760158 
L 129.163279 288.760158 
L 129.215745 287.908319 
L 129.320678 287.908319 
L 129.42561 287.05648 
L 129.530542 287.05648 
L 129.635474 285.636748 
L 129.68794 285.636748 
L 129.792872 284.784909 
L 129.845338 284.784909 
L 129.845338 284.217017 
L 130.055202 284.217017 
L 130.160134 282.797285 
L 130.2126 282.797285 
L 130.265066 281.377553 
L 130.369998 281.377553 
L 130.369998 280.809661 
L 130.579863 280.809661 
L 130.632329 279.673875 
L 130.737261 279.673875 
L 130.789727 278.822036 
L 130.999591 278.822036 
L 131.104523 276.550466 
L 131.261921 276.550466 
L 131.366853 275.130734 
L 131.419319 275.130734 
L 131.471785 273.427056 
L 131.786582 273.427056 
L 131.891514 272.291271 
L 131.94398 272.291271 
L 131.94398 272.007324 
L 132.20631 272.007324 
L 132.258776 271.439432 
L 132.363708 271.439432 
L 132.46864 270.0197 
L 132.626038 270.0197 
L 132.678504 269.451807 
L 132.888369 269.451807 
L 132.993301 268.032076 
L 133.203165 268.032076 
L 133.203165 267.748129 
L 133.517961 267.748129 
L 133.517961 267.464183 
L 133.675359 267.464183 
L 133.727825 266.89629 
L 133.832757 266.89629 
L 133.93769 266.328398 
L 134.20002 266.328398 
L 134.252486 265.760505 
L 134.619748 265.760505 
L 134.72468 264.908666 
L 134.777146 264.908666 
L 134.777146 264.340773 
L 135.039476 264.340773 
L 135.144409 263.488934 
L 135.249341 263.488934 
L 135.354273 262.353149 
L 135.459205 262.353149 
L 135.511671 261.785256 
L 135.774001 261.785256 
L 135.878933 260.933417 
L 136.193729 260.933417 
L 136.298662 259.229739 
L 136.351128 259.229739 
L 136.351128 258.3779 
L 136.665924 258.3779 
L 136.770856 257.810007 
L 137.138118 257.810007 
L 137.138118 257.526061 
L 137.505381 257.526061 
L 137.557847 256.958168 
L 137.662779 256.958168 
L 137.662779 256.674222 
L 138.082507 256.674222 
L 138.187439 255.538437 
L 138.239905 255.538437 
L 138.292371 254.402651 
L 138.7121 254.402651 
L 138.817032 253.834759 
L 138.921964 253.834759 
L 139.026896 252.698973 
L 139.079362 252.698973 
L 139.184294 252.131081 
L 139.23676 252.131081 
L 139.23676 251.847134 
L 139.49909 251.847134 
L 139.551556 250.711349 
L 139.656488 250.711349 
L 139.761421 249.85951 
L 139.813887 249.85951 
L 139.918819 249.007671 
L 139.971285 249.007671 
L 140.023751 247.587939 
L 140.391013 247.587939 
L 140.495945 246.168208 
L 140.810741 246.168208 
L 140.863207 245.600315 
L 141.282936 245.600315 
L 141.335402 245.032422 
L 141.4928 245.032422 
L 141.597732 243.896637 
L 141.650198 243.896637 
L 141.650198 243.612691 
L 141.807596 243.612691 
L 141.912528 243.044798 
L 142.01746 243.044798 
L 142.01746 242.760852 
L 142.227325 242.760852 
L 142.227325 241.909013 
L 142.437189 241.909013 
L 142.437189 241.625066 
L 142.856917 241.625066 
L 142.856917 241.34112 
L 143.014315 241.34112 
L 143.014315 241.057174 
L 143.381578 241.057174 
L 143.381578 240.773227 
L 143.591442 240.773227 
L 143.696374 239.921388 
L 144.483365 239.921388 
L 144.483365 239.637442 
L 144.745695 239.637442 
L 144.745695 239.353496 
L 144.955559 239.353496 
L 145.008025 238.501657 
L 145.112957 238.501657 
L 145.165423 237.649818 
L 145.375287 237.649818 
L 145.427753 237.081925 
L 145.585152 237.081925 
L 145.585152 236.797979 
L 145.795016 236.797979 
L 145.795016 236.514032 
L 146.00488 236.514032 
L 146.00488 236.230086 
L 146.214744 236.230086 
L 146.319676 235.094301 
L 146.477074 235.094301 
L 146.477074 234.810354 
L 146.634472 234.810354 
L 146.686938 233.958515 
L 147.368997 233.958515 
L 147.368997 233.390622 
L 147.578861 233.390622 
L 147.578861 233.106676 
L 147.788725 233.106676 
L 147.893658 231.970891 
L 148.52325 231.970891 
L 148.628182 231.119052 
L 148.838046 231.119052 
L 148.838046 230.551159 
L 149.205309 230.551159 
L 149.257775 229.415374 
L 149.625037 229.415374 
L 149.625037 229.131427 
L 149.992299 229.131427 
L 150.044765 227.995642 
L 150.202164 227.995642 
L 150.202164 227.427749 
L 150.359562 227.427749 
L 150.359562 226.859857 
L 150.569426 226.859857 
L 150.674358 226.291964 
L 150.831756 226.291964 
L 150.831756 226.008018 
L 151.30395 226.008018 
L 151.408883 224.872232 
L 151.618747 224.872232 
L 151.671213 224.020393 
L 152.300805 224.020393 
L 152.353271 223.168554 
L 152.563136 223.168554 
L 152.563136 222.884608 
L 153.350126 222.884608 
L 153.350126 222.600662 
L 153.507524 222.600662 
L 153.507524 222.316715 
L 153.717389 222.316715 
L 153.717389 222.032769 
L 154.084651 222.032769 
L 154.189583 220.896984 
L 154.451913 220.896984 
L 154.451913 220.613037 
L 154.766709 220.613037 
L 154.871642 219.477252 
L 155.186438 219.477252 
L 155.29137 218.625413 
L 155.606166 218.625413 
L 155.606166 218.341467 
L 155.920962 218.341467 
L 155.920962 218.05752 
L 156.183293 218.05752 
L 156.183293 217.773574 
L 156.340691 217.773574 
L 156.340691 217.489628 
L 156.655487 217.489628 
L 156.655487 216.921735 
L 156.865351 216.921735 
L 156.865351 216.353842 
L 157.022749 216.353842 
L 157.075215 215.78595 
L 157.337546 215.78595 
L 157.337546 215.502003 
L 157.599876 215.502003 
L 157.652342 214.934111 
L 157.757274 214.934111 
L 157.757274 214.366218 
L 158.07207 214.366218 
L 158.124536 213.798325 
L 158.386867 213.798325 
L 158.491799 212.378594 
L 158.806595 212.378594 
L 158.806595 212.094647 
L 159.960848 212.094647 
L 160.013314 211.526755 
L 160.275644 211.526755 
L 160.380576 210.958862 
L 160.485508 210.958862 
L 160.59044 209.255184 
L 160.642907 209.255184 
L 160.642907 208.971238 
L 161.115101 208.971238 
L 161.115101 208.119398 
L 161.272499 208.119398 
L 161.272499 207.835452 
L 161.797159 207.835452 
L 161.849626 206.41572 
L 161.954558 206.41572 
L 161.954558 206.131774 
L 162.531684 206.131774 
L 162.531684 205.563881 
L 162.689082 205.563881 
L 162.794014 204.712042 
L 163.056345 204.712042 
L 163.161277 203.860203 
L 163.371141 203.860203 
L 163.423607 202.724418 
L 163.581005 202.724418 
L 163.581005 202.440472 
L 163.895801 202.440472 
L 163.895801 202.156525 
L 164.105665 202.156525 
L 164.105665 201.872579 
L 164.367996 201.872579 
L 164.367996 201.588633 
L 164.682792 201.588633 
L 164.682792 201.304686 
L 164.997588 201.304686 
L 164.997588 201.02074 
L 165.679647 201.02074 
L 165.679647 200.452847 
L 166.046909 200.452847 
L 166.099375 199.884955 
L 166.204307 199.884955 
L 166.256773 199.033116 
L 166.57157 199.033116 
L 166.57157 198.749169 
L 166.728968 198.749169 
L 166.728968 198.465223 
L 167.35856 198.465223 
L 167.35856 198.181277 
L 167.515958 198.181277 
L 167.515958 197.89733 
L 167.883221 197.89733 
L 167.935687 197.045491 
L 168.250483 197.045491 
L 168.250483 196.761545 
L 168.565279 196.761545 
L 168.617745 196.193652 
L 168.775144 196.193652 
L 168.775144 195.909706 
L 169.667066 195.909706 
L 169.667066 195.62576 
L 169.824464 195.62576 
L 169.929396 194.773921 
L 170.191727 194.773921 
L 170.191727 194.206028 
L 170.611455 194.206028 
L 170.611455 193.922082 
L 171.660776 193.922082 
L 171.765708 193.354189 
L 171.818174 193.354189 
L 171.87064 192.786296 
L 172.080504 192.786296 
L 172.080504 192.50235 
L 172.815029 192.50235 
L 172.815029 192.218404 
L 173.129825 192.218404 
L 173.129825 191.366565 
L 173.287223 191.366565 
L 173.392155 190.514726 
L 173.916816 190.514726 
L 173.969282 189.946833 
L 174.441476 189.946833 
L 174.441476 189.662887 
L 174.598875 189.662887 
L 174.703807 189.094994 
L 174.756273 189.094994 
L 174.756273 188.811048 
L 174.966137 188.811048 
L 174.966137 188.527101 
L 175.228467 188.527101 
L 175.333399 187.959209 
L 175.543263 187.959209 
L 175.543263 187.675262 
L 175.962992 187.675262 
L 175.962992 187.391316 
L 176.749982 187.391316 
L 176.749982 187.10737 
L 177.012313 187.10737 
L 177.117245 186.255531 
L 177.379575 186.255531 
L 177.484507 185.687638 
L 178.1141 185.687638 
L 178.1141 185.119745 
L 179.268353 185.119745 
L 179.268353 184.835799 
L 179.530683 184.835799 
L 179.530683 184.551853 
L 179.845479 184.551853 
L 179.845479 184.267906 
L 180.789868 184.267906 
L 180.789868 183.98396 
L 181.366994 183.98396 
L 181.471926 183.132121 
L 181.629325 183.132121 
L 181.734257 182.564228 
L 181.839189 182.564228 
L 181.944121 181.996335 
L 182.521247 181.996335 
L 182.521247 181.712389 
L 182.836044 181.712389 
L 182.940976 180.86055 
L 183.045908 180.86055 
L 183.045908 180.576604 
L 183.780432 180.576604 
L 183.780432 180.292657 
L 183.990297 180.292657 
L 184.042763 179.724765 
L 185.14455 179.724765 
L 185.14455 179.440818 
L 185.40688 179.440818 
L 185.40688 179.156872 
L 185.66921 179.156872 
L 185.66921 178.872926 
L 185.93154 178.872926 
L 185.93154 178.588979 
L 186.246337 178.588979 
L 186.351269 177.73714 
L 187.40059 177.73714 
L 187.505522 176.885301 
L 187.767852 176.885301 
L 187.767852 176.601355 
L 188.292512 176.601355 
L 188.292512 176.317409 
L 188.44991 176.317409 
L 188.554843 175.749516 
L 189.656629 175.749516 
L 189.761562 175.181623 
L 189.814028 175.181623 
L 189.814028 174.897677 
L 190.810882 174.897677 
L 190.810882 174.613731 
L 191.492941 174.613731 
L 191.492941 174.329784 
L 191.702805 174.329784 
L 191.702805 174.045838 
L 192.43733 174.045838 
L 192.489796 173.477945 
L 192.857058 173.477945 
L 192.857058 172.910053 
L 193.591583 172.910053 
L 193.591583 172.626106 
L 193.801447 172.626106 
L 193.853913 172.058214 
L 194.221175 172.058214 
L 194.221175 171.774267 
L 195.795157 171.774267 
L 195.795157 171.490321 
L 195.952555 171.490321 
L 195.952555 171.206375 
L 196.634613 171.206375 
L 196.739546 170.638482 
L 196.94941 170.638482 
L 196.94941 170.354536 
L 197.21174 170.354536 
L 197.21174 170.070589 
L 197.631468 170.070589 
L 197.631468 169.786643 
L 197.788866 169.786643 
L 197.893799 169.21875 
L 198.051197 169.21875 
L 198.051197 168.934804 
L 198.261061 168.934804 
L 198.261061 168.366911 
L 198.523391 168.366911 
L 198.523391 168.082965 
L 199.048052 168.082965 
L 199.152984 167.231126 
L 199.520246 167.231126 
L 199.520246 166.94718 
L 199.835042 166.94718 
L 199.835042 166.663233 
L 199.99244 166.663233 
L 199.99244 166.379287 
L 200.149839 166.379287 
L 200.149839 166.095341 
L 200.831897 166.095341 
L 200.884363 165.527448 
L 201.72382 165.527448 
L 201.72382 164.959555 
L 202.930539 164.959555 
L 202.930539 164.675609 
L 203.140403 164.675609 
L 203.140403 163.82377 
L 203.455199 163.82377 
L 203.560131 163.255877 
L 204.137258 163.255877 
L 204.137258 162.971931 
L 204.871783 162.971931 
L 204.871783 162.687985 
L 205.396443 162.687985 
L 205.448909 162.120092 
L 205.606307 162.120092 
L 205.606307 161.836146 
L 206.026036 161.836146 
L 206.130968 161.268253 
L 206.288366 161.268253 
L 206.288366 160.984307 
L 206.550696 160.984307 
L 206.550696 160.70036 
L 206.76056 160.70036 
L 206.76056 160.416414 
L 207.02289 160.416414 
L 207.127823 159.848521 
L 208.019745 159.848521 
L 208.019745 159.564575 
L 208.282076 159.564575 
L 208.282076 159.280629 
L 208.439474 159.280629 
L 208.439474 158.996682 
L 208.701804 158.996682 
L 208.701804 158.42879 
L 208.859202 158.42879 
L 208.859202 158.144843 
L 209.856057 158.144843 
L 209.856057 157.860897 
L 210.223319 157.860897 
L 210.223319 157.576951 
L 210.74798 157.576951 
L 210.74798 157.293004 
L 211.220174 157.293004 
L 211.220174 156.725112 
L 212.741689 156.725112 
L 212.741689 156.441165 
L 212.951554 156.441165 
L 213.056486 155.589326 
L 213.423748 155.589326 
L 213.423748 155.30538 
L 213.686078 155.30538 
L 213.738544 154.737487 
L 214.158273 154.737487 
L 214.263205 153.317755 
L 214.368137 153.317755 
L 214.368137 153.033809 
L 215.050195 153.033809 
L 215.050195 152.465916 
L 215.837186 152.465916 
L 215.837186 152.18197 
L 216.676643 152.18197 
L 216.781575 151.330131 
L 216.886507 151.330131 
L 216.886507 151.046185 
L 217.253769 151.046185 
L 217.253769 150.762238 
L 218.04076 150.762238 
L 218.04076 150.478292 
L 219.667207 150.478292 
L 219.772139 149.910399 
L 220.506664 149.910399 
L 220.506664 149.626453 
L 220.768994 149.626453 
L 220.82146 149.05856 
L 221.346121 149.05856 
L 221.451053 148.490668 
L 221.660917 148.490668 
L 221.660917 148.206721 
L 223.392297 148.206721 
L 223.392297 147.922775 
L 224.021889 147.922775 
L 224.021889 147.638829 
L 224.80888 147.638829 
L 224.80888 147.354882 
L 226.015599 147.354882 
L 226.015599 147.070936 
L 226.277929 147.070936 
L 226.277929 146.78699 
L 227.746978 146.78699 
L 227.746978 146.503043 
L 228.533969 146.503043 
L 228.533969 146.219097 
L 228.743833 146.219097 
L 228.743833 145.935151 
L 229.006163 145.935151 
L 229.006163 145.651204 
L 230.632611 145.651204 
L 230.632611 145.367258 
L 231.104805 145.367258 
L 231.104805 145.083312 
L 232.154126 145.083312 
L 232.259058 144.231473 
L 232.311524 144.231473 
L 232.416456 143.66358 
L 232.783719 143.66358 
L 232.783719 143.095687 
L 232.993583 143.095687 
L 232.993583 142.811741 
L 233.570709 142.811741 
L 233.570709 142.527795 
L 234.147836 142.527795 
L 234.147836 142.243848 
L 234.515098 142.243848 
L 234.515098 141.959902 
L 235.197157 141.959902 
L 235.197157 141.675956 
L 235.564419 141.675956 
L 235.564419 141.108063 
L 235.721817 141.108063 
L 235.721817 140.824117 
L 236.403876 140.824117 
L 236.403876 140.54017 
L 237.1384 140.54017 
L 237.1384 139.972278 
L 237.505663 139.972278 
L 237.505663 139.688331 
L 237.663061 139.688331 
L 237.663061 139.404385 
L 238.554984 139.404385 
L 238.554984 139.120439 
L 239.604304 139.120439 
L 239.656771 138.552546 
L 239.814169 138.552546 
L 239.814169 138.2686 
L 239.971567 138.2686 
L 240.024033 137.700707 
L 240.496227 137.700707 
L 240.548693 137.132814 
L 241.12582 137.132814 
L 241.12582 136.848868 
L 242.857199 136.848868 
L 242.857199 136.564922 
L 243.90652 136.564922 
L 243.90652 136.280975 
L 244.116384 136.280975 
L 244.221316 135.713083 
L 244.431181 135.713083 
L 244.431181 135.429136 
L 244.745977 135.429136 
L 244.745977 135.14519 
L 244.955841 135.14519 
L 244.955841 134.861244 
L 245.270637 134.861244 
L 245.270637 134.577297 
L 245.690366 134.577297 
L 245.690366 134.293351 
L 246.215026 134.293351 
L 246.215026 134.009405 
L 246.844619 134.009405 
L 246.844619 133.725458 
L 247.421745 133.725458 
L 247.421745 133.441512 
L 248.208736 133.441512 
L 248.208736 133.157566 
L 250.097514 133.157566 
L 250.202446 132.589673 
L 250.41231 132.589673 
L 250.41231 132.305727 
L 251.356699 132.305727 
L 251.356699 132.02178 
L 252.196155 132.02178 
L 252.196155 131.737834 
L 252.353553 131.737834 
L 252.353553 131.453888 
L 253.402874 131.453888 
L 253.402874 131.169941 
L 253.717671 131.169941 
L 253.717671 130.885995 
L 254.819458 130.885995 
L 254.819458 130.602049 
L 255.344118 130.602049 
L 255.344118 130.318102 
L 256.078643 130.318102 
L 256.078643 130.034156 
L 256.340973 130.034156 
L 256.340973 129.750209 
L 256.708235 129.750209 
L 256.708235 129.466263 
L 257.390294 129.466263 
L 257.390294 128.89837 
L 258.701945 128.89837 
L 258.701945 128.614424 
L 259.331537 128.614424 
L 259.384003 127.762585 
L 260.118528 127.762585 
L 260.118528 127.478639 
L 260.433324 127.478639 
L 260.433324 127.194692 
L 260.800587 127.194692 
L 260.853053 126.6268 
L 261.167849 126.6268 
L 261.167849 126.342853 
L 261.377713 126.342853 
L 261.430179 125.774961 
L 261.95484 125.774961 
L 261.95484 125.491014 
L 262.269636 125.491014 
L 262.269636 125.207068 
L 262.636898 125.207068 
L 262.636898 124.923122 
L 263.109093 124.923122 
L 263.109093 124.639175 
L 264.315812 124.639175 
L 264.315812 124.355229 
L 265.837327 124.355229 
L 265.837327 124.071283 
L 266.257055 124.071283 
L 266.257055 123.787336 
L 266.886648 123.787336 
L 266.886648 123.50339 
L 267.148978 123.50339 
L 267.148978 123.219444 
L 267.358842 123.219444 
L 267.358842 122.935497 
L 269.877213 122.935497 
L 269.877213 122.651551 
L 270.034611 122.651551 
L 270.034611 122.367605 
L 270.401873 122.367605 
L 270.401873 122.083658 
L 270.874067 122.083658 
L 270.874067 121.799712 
L 272.185719 121.799712 
L 272.185719 121.515766 
L 272.920243 121.515766 
L 272.920243 121.231819 
L 276.173138 121.231819 
L 276.173138 120.947873 
L 276.383002 120.947873 
L 276.383002 120.663927 
L 278.691508 120.663927 
L 278.691508 120.37998 
L 280.422888 120.37998 
L 280.422888 120.096034 
L 280.580286 120.096034 
L 280.580286 119.812088 
L 281.839471 119.812088 
L 281.839471 119.528141 
L 283.938113 119.528141 
L 283.938113 119.244195 
L 284.095511 119.244195 
L 284.095511 118.960249 
L 284.305375 118.960249 
L 284.305375 118.676302 
L 285.512094 118.676302 
L 285.512094 118.392356 
L 286.246619 118.392356 
L 286.246619 118.10841 
L 287.033609 118.10841 
L 287.033609 117.824463 
L 287.505804 117.824463 
L 287.505804 117.540517 
L 288.660057 117.540517 
L 288.660057 117.256571 
L 288.869921 117.256571 
L 288.869921 116.972624 
L 290.706232 116.972624 
L 290.706232 116.688678 
L 291.493223 116.688678 
L 291.493223 116.404732 
L 293.696797 116.404732 
L 293.696797 116.120785 
L 294.955982 116.120785 
L 294.955982 115.836839 
L 295.480643 115.836839 
L 295.480643 115.552893 
L 295.742973 115.552893 
L 295.742973 115.268946 
L 296.58243 115.268946 
L 296.58243 114.701054 
L 298.366275 114.701054 
L 298.366275 114.417107 
L 298.786003 114.417107 
L 298.786003 114.133161 
L 299.572994 114.133161 
L 299.572994 113.849215 
L 301.986432 113.849215 
L 301.986432 113.565268 
L 302.616025 113.565268 
L 302.616025 113.281322 
L 303.298083 113.281322 
L 303.298083 112.997376 
L 303.822744 112.997376 
L 303.822744 112.713429 
L 304.819599 112.713429 
L 304.819599 112.429483 
L 305.659055 112.429483 
L 305.711521 111.577644 
L 306.13125 111.577644 
L 306.13125 111.293698 
L 306.39358 111.293698 
L 306.39358 111.009751 
L 306.865774 111.009751 
L 306.91824 110.441859 
L 307.128105 110.441859 
L 307.128105 110.157912 
L 308.597154 110.157912 
L 308.597154 109.873966 
L 308.91195 109.873966 
L 308.91195 109.59002 
L 309.751407 109.59002 
L 309.751407 109.306073 
L 310.223601 109.306073 
L 310.223601 109.022127 
L 310.380999 109.022127 
L 310.380999 108.738181 
L 312.846904 108.738181 
L 312.846904 108.454234 
L 313.843758 108.454234 
L 313.843758 108.170288 
L 314.158555 108.170288 
L 314.158555 107.886342 
L 316.939255 107.886342 
L 316.939255 107.602395 
L 317.516382 107.602395 
L 317.516382 107.318449 
L 318.513236 107.318449 
L 318.513236 107.034503 
L 319.037897 107.034503 
L 319.037897 106.750556 
L 324.914094 106.750556 
L 324.914094 106.46661 
L 325.963415 106.46661 
L 325.963415 106.182664 
L 326.120813 106.182664 
L 326.120813 105.898717 
L 327.852192 105.898717 
L 327.852192 105.614771 
L 329.583572 105.614771 
L 329.583572 105.330825 
L 329.898368 105.330825 
L 329.898368 105.046878 
L 330.842757 105.046878 
L 330.842757 104.762932 
L 331.367417 104.762932 
L 331.367417 104.478986 
L 332.888933 104.478986 
L 332.888933 104.195039 
L 333.885788 104.195039 
L 333.99072 103.627146 
L 339.971849 103.627146 
L 339.971849 103.3432 
L 341.2835 103.3432 
L 341.2835 103.059254 
L 341.598296 103.059254 
L 341.598296 102.775307 
L 341.965559 102.775307 
L 342.070491 101.923468 
L 342.542685 101.923468 
L 342.542685 101.639522 
L 343.119812 101.639522 
L 343.119812 101.355576 
L 350.83232 101.355576 
L 350.83232 101.071629 
L 351.199583 101.071629 
L 351.199583 100.787683 
L 353.08836 100.787683 
L 353.08836 100.503737 
L 353.770419 100.503737 
L 353.770419 100.21979 
L 355.764128 100.21979 
L 355.764128 99.935844 
L 357.285644 99.935844 
L 357.285644 99.651898 
L 359.121955 99.651898 
L 359.121955 99.367951 
L 359.384286 99.367951 
L 359.384286 99.084005 
L 361.85019 99.084005 
L 361.85019 98.800059 
L 365.470347 98.800059 
L 365.470347 98.516112 
L 366.257337 98.516112 
L 366.257337 98.232166 
L 367.359124 98.232166 
L 367.359124 97.94822 
L 368.093649 97.94822 
L 368.093649 97.664273 
L 368.565843 97.664273 
L 368.670776 97.096381 
L 368.723242 97.096381 
L 368.723242 96.812434 
L 370.087359 96.812434 
L 370.087359 96.528488 
L 372.815593 96.528488 
L 372.815593 96.244542 
L 373.235321 96.244542 
L 373.235321 95.960595 
L 373.707516 95.960595 
L 373.707516 95.676649 
L 377.694935 95.676649 
L 377.694935 95.392703 
L 377.957266 95.392703 
L 377.957266 95.108756 
L 378.219596 95.108756 
L 378.219596 94.82481 
L 384.148259 94.82481 
L 384.148259 94.540864 
L 386.194435 94.540864 
L 386.194435 94.256917 
L 387.138823 94.256917 
L 387.138823 93.972971 
L 387.873348 93.972971 
L 387.873348 93.689025 
L 389.552262 93.689025 
L 389.552262 93.405078 
L 395.638323 93.405078 
L 395.638323 93.121132 
L 399.153548 93.121132 
L 399.153548 92.837186 
L 400.989859 92.837186 
L 400.989859 92.553239 
L 401.724384 92.553239 
L 401.724384 92.269293 
L 403.088501 92.269293 
L 403.088501 91.985347 
L 404.085356 91.985347 
L 404.085356 91.7014 
L 404.242754 91.7014 
L 404.29522 91.133508 
L 409.909087 91.133508 
L 409.909087 90.849561 
L 410.381281 90.849561 
L 410.381281 90.281669 
L 415.732818 90.281669 
L 415.732818 89.997722 
L 417.621596 89.997722 
L 417.621596 89.713776 
L 419.143111 89.713776 
L 419.143111 89.42983 
L 422.186142 89.42983 
L 422.186142 89.145883 
L 433.833604 89.145883 
L 433.833604 88.861937 
L 434.095934 88.861937 
L 434.095934 88.577991 
L 434.358264 88.577991 
L 434.358264 88.294044 
L 435.774847 88.294044 
L 435.774847 88.010098 
L 438.083353 88.010098 
L 438.083353 87.726152 
L 440.234461 87.726152 
L 440.234461 87.442205 
L 448.051902 87.442205 
L 448.156834 86.874313 
L 448.943825 86.874313 
L 448.943825 86.590366 
L 451.199865 86.590366 
L 451.199865 86.30642 
L 451.462195 86.30642 
L 451.462195 86.022474 
L 452.406584 86.022474 
L 452.406584 85.738527 
L 454.085497 85.738527 
L 454.085497 85.454581 
L 454.820022 85.454581 
L 454.820022 84.886688 
L 457.023596 84.886688 
L 457.023596 84.602742 
L 457.75812 84.602742 
L 457.75812 84.318796 
L 460.27649 84.318796 
L 460.27649 84.034849 
L 464.00158 84.034849 
L 464.00158 83.750903 
L 470.927098 83.750903 
L 470.927098 83.466957 
L 476.488498 83.466957 
L 476.488498 83.18301 
L 478.58714 83.18301 
L 478.58714 82.899064 
L 479.111801 82.899064 
L 479.111801 82.615118 
L 479.374131 82.615118 
L 479.374131 82.331171 
L 479.793859 82.331171 
L 479.793859 82.047225 
L 483.36155 82.047225 
L 483.36155 81.763279 
L 491.021593 81.763279 
L 491.021593 81.479332 
L 492.438176 81.479332 
L 492.438176 81.195386 
L 494.222022 81.195386 
L 494.274488 80.343547 
L 495.113944 80.343547 
L 495.113944 80.059601 
L 507.286067 80.059601 
L 507.286067 79.775654 
L 511.745681 79.775654 
L 511.745681 79.491708 
L 515.103508 79.491708 
L 515.103508 79.207762 
L 516.152829 79.207762 
L 516.152829 78.923815 
L 531.472914 78.923815 
L 531.472914 78.639869 
L 533.414157 78.639869 
L 533.414157 78.355923 
L 534.56841 78.355923 
L 534.56841 78.071976 
L 543.382706 78.071976 
L 543.435172 77.504083 
L 549.993428 77.504083 
L 549.993428 77.220137 
L 556.814014 77.220137 
L 556.814014 76.936191 
L 566.93996 76.936191 
L 566.93996 76.652244 
L 570.140389 76.652244 
L 570.140389 76.368298 
L 572.606293 76.368298 
L 572.606293 76.084352 
L 573.340818 76.084352 
L 573.340818 75.800405 
L 577.905364 75.800405 
L 577.905364 75.516459 
L 578.115228 75.516459 
L 578.115228 75.232513 
L 584.72595 75.232513 
L 584.72595 74.948566 
L 587.139388 74.948566 
L 587.139388 74.66462 
L 591.966264 74.66462 
L 591.966264 74.380674 
L 597.212868 74.380674 
L 597.212868 74.096727 
L 607.076485 74.096727 
L 607.076485 73.812781 
L 612.532953 73.812781 
L 612.532953 73.528835 
L 612.900216 73.528835 
L 612.900216 73.244888 
L 623.131095 73.244888 
L 623.131095 72.960942 
L 648 72.960942 
L 648 72.960942 
" clip-path="url(#p2e56d92767)" style="fill: none; stroke: #ff7f0e; stroke-width: 1.5; stroke-linecap: square"/>
   </g>
   <g id="line2d_15">
    <path d="M 116.571429 499.732287 
L 116.571429 498.880448 
L 116.571429 497.460716 
L 116.571429 497.17677 
L 116.571429 491.213896 
L 116.571429 488.658379 
L 116.571429 487.522594 
L 116.571429 486.670755 
L 116.571429 483.547345 
L 116.571429 482.979453 
L 116.571429 480.707882 
L 116.571429 479.572097 
L 116.571429 478.152365 
L 116.571429 475.596848 
L 116.623895 473.89317 
L 116.623895 470.76976 
L 116.623895 465.090833 
L 116.623895 461.967424 
L 116.623895 459.979799 
L 116.676361 457.424282 
L 116.676361 454.868765 
L 116.676361 452.597195 
L 116.781293 451.461409 
L 116.781293 448.054053 
L 116.781293 444.930644 
L 116.781293 444.078805 
L 116.781293 438.96777 
L 116.833759 435.844361 
L 116.833759 428.461756 
L 116.886225 423.634668 
L 116.886225 420.227312 
L 116.938691 416.252063 
L 116.991157 413.4126 
L 117.096089 410.573137 
L 117.148555 408.869459 
L 117.201021 405.178156 
L 117.305953 401.202908 
L 117.358419 398.079498 
L 117.358419 395.523981 
L 117.410885 392.116625 
L 117.515817 388.709269 
L 117.568283 384.73402 
L 117.830614 379.906932 
L 117.988012 373.944059 
L 118.250342 369.400918 
L 118.40774 363.154098 
L 118.565138 359.746742 
L 118.775002 352.93203 
L 118.932401 346.117318 
L 119.247197 342.14207 
L 119.404595 337.882874 
L 119.824323 331.352109 
L 119.929255 322.833719 
L 120.506382 317.438738 
L 121.135975 311.191919 
L 121.765567 304.09326 
L 122.91982 296.994602 
L 124.126539 289.611997 
L 125.070928 282.797285 
L 126.277647 277.118358 
L 127.904094 272.007324 
L 130.055202 264.62472 
L 132.048912 258.093954 
L 133.727825 251.279242 
L 135.983865 243.328744 
L 138.502235 235.94614 
L 142.122393 227.995642 
L 145.847482 220.045145 
L 150.25463 210.390969 
L 154.556845 204.14415 
L 160.223178 194.773921 
L 166.361705 186.539477 
L 172.710097 177.453194 
L 179.16342 170.922428 
L 187.40059 161.268253 
L 196.109953 153.601702 
L 206.445764 146.78699 
L 216.204448 141.108063 
L 227.484648 136.280975 
L 241.91281 128.330478 
L 256.078643 120.37998 
L 272.238185 113.281322 
L 287.977998 108.454234 
L 306.603444 101.923468 
L 326.225745 97.380327 
L 349.782999 91.985347 
L 377.012877 87.726152 
L 404.819881 84.318796 
L 437.243897 83.18301 
L 468.723524 80.91144 
L 503.508512 77.78803 
L 539.867481 75.232513 
L 578.639888 74.380674 
L 614.579129 73.528835 
L 648 72.960942 
" clip-path="url(#p2e56d92767)" style="fill: none; stroke: #2ca02c; stroke-width: 1.5; stroke-linecap: square"/>
   </g>
   <g id="line2d_16">
    <path d="M 116.571429 499.732287 
L 158.281934 285.920695 
L 648 72.960942 
" clip-path="url(#p2e56d92767)" style="fill: none; stroke: #d62728; stroke-width: 1.5; stroke-linecap: square"/>
   </g>
   <g id="line2d_17">
    <path d="M 116.571429 499.732287 
L 648 72.960942 
" clip-path="url(#p2e56d92767)" style="fill: none; stroke-dasharray: 5.55,2.4; stroke-dashoffset: 0; stroke: #000000; stroke-width: 1.5"/>
   </g>
   <g id="patch_3">
    <path d="M 90 504 
L 90 69.12 
" style="fill: none; stroke: #000000; stroke-width: 0.8; stroke-linejoin: miter; stroke-linecap: square"/>
   </g>
   <g id="patch_4">
    <path d="M 648 504 
L 648 69.12 
" style="fill: none; stroke: #000000; stroke-width: 0.8; stroke-linejoin: miter; stroke-linecap: square"/>
   </g>
   <g id="patch_5">
    <path d="M 90 504 
L 648 504 
" style="fill: none; stroke: #000000; stroke-width: 0.8; stroke-linejoin: miter; stroke-linecap: square"/>
   </g>
   <g id="patch_6">
    <path d="M 90 69.12 
L 648 69.12 
" style="fill: none; stroke: #000000; stroke-width: 0.8; stroke-linejoin: miter; stroke-linecap: square"/>
   </g>
   <g id="text_15">
    <!-- ROC Curve -->
    <g transform="translate(309.067187 63.12)scale(0.22 -0.22)">
     <defs>
      <path id="DejaVuSans-4f" d="M 2522 4238 
Q 1834 4238 1429 3725 
Q 1025 3213 1025 2328 
Q 1025 1447 1429 934 
Q 1834 422 2522 422 
Q 3209 422 3611 934 
Q 4013 1447 4013 2328 
Q 4013 3213 3611 3725 
Q 3209 4238 2522 4238 
z
M 2522 4750 
Q 3503 4750 4090 4092 
Q 4678 3434 4678 2328 
Q 4678 1225 4090 567 
Q 3503 -91 2522 -91 
Q 1538 -91 948 565 
Q 359 1222 359 2328 
Q 359 3434 948 4092 
Q 1538 4750 2522 4750 
z
" transform="scale(0.015625)"/>
      <path id="DejaVuSans-43" d="M 4122 4306 
L 4122 3641 
Q 3803 3938 3442 4084 
Q 3081 4231 2675 4231 
Q 1875 4231 1450 3742 
Q 1025 3253 1025 2328 
Q 1025 1406 1450 917 
Q 1875 428 2675 428 
Q 3081 428 3442 575 
Q 3803 722 4122 1019 
L 4122 359 
Q 3791 134 3420 21 
Q 3050 -91 2638 -91 
Q 1578 -91 968 557 
Q 359 1206 359 2328 
Q 359 3453 968 4101 
Q 1578 4750 2638 4750 
Q 3056 4750 3426 4639 
Q 3797 4528 4122 4306 
z
" transform="scale(0.015625)"/>
     </defs>
     <use xlink:href="#DejaVuSans-52"/>
     <use xlink:href="#DejaVuSans-4f" x="69.482422"/>
     <use xlink:href="#DejaVuSans-43" x="148.193359"/>
     <use xlink:href="#DejaVuSans-20" x="218.017578"/>
     <use xlink:href="#DejaVuSans-43" x="249.804688"/>
     <use xlink:href="#DejaVuSans-75" x="319.628906"/>
     <use xlink:href="#DejaVuSans-72" x="383.007812"/>
     <use xlink:href="#DejaVuSans-76" x="424.121094"/>
     <use xlink:href="#DejaVuSans-65" x="483.300781"/>
    </g>
   </g>
   <g id="legend_1">
    <g id="patch_7">
     <path d="M 390.505 496 
L 636.8 496 
Q 640 496 640 492.8 
L 640 400.015 
Q 640 396.815 636.8 396.815 
L 390.505 396.815 
Q 387.305 396.815 387.305 400.015 
L 387.305 492.8 
Q 387.305 496 390.505 496 
z
" style="fill: #ffffff; opacity: 0.8; stroke: #cccccc; stroke-linejoin: miter"/>
    </g>
    <g id="line2d_18">
     <path d="M 393.705 409.7725 
L 409.705 409.7725 
L 425.705 409.7725 
" style="fill: none; stroke: #1f77b4; stroke-width: 1.5; stroke-linecap: square"/>
    </g>
    <g id="text_16">
     <!-- MAO_XGB (AUC=0.939)  -->
     <g transform="translate(438.505 415.3725)scale(0.16 -0.16)">
      <defs>
       <path id="DejaVuSans-4d" d="M 628 4666 
L 1569 4666 
L 2759 1491 
L 3956 4666 
L 4897 4666 
L 4897 0 
L 4281 0 
L 4281 4097 
L 3078 897 
L 2444 897 
L 1241 4097 
L 1241 0 
L 628 0 
L 628 4666 
z
" transform="scale(0.015625)"/>
       <path id="DejaVuSans-41" d="M 2188 4044 
L 1331 1722 
L 3047 1722 
L 2188 4044 
z
M 1831 4666 
L 2547 4666 
L 4325 0 
L 3669 0 
L 3244 1197 
L 1141 1197 
L 716 0 
L 50 0 
L 1831 4666 
z
" transform="scale(0.015625)"/>
       <path id="DejaVuSans-5f" d="M 3263 -1063 
L 3263 -1509 
L -63 -1509 
L -63 -1063 
L 3263 -1063 
z
" transform="scale(0.015625)"/>
       <path id="DejaVuSans-58" d="M 403 4666 
L 1081 4666 
L 2241 2931 
L 3406 4666 
L 4084 4666 
L 2584 2425 
L 4184 0 
L 3506 0 
L 2194 1984 
L 872 0 
L 191 0 
L 1856 2491 
L 403 4666 
z
" transform="scale(0.015625)"/>
       <path id="DejaVuSans-47" d="M 3809 666 
L 3809 1919 
L 2778 1919 
L 2778 2438 
L 4434 2438 
L 4434 434 
Q 4069 175 3628 42 
Q 3188 -91 2688 -91 
Q 1594 -91 976 548 
Q 359 1188 359 2328 
Q 359 3472 976 4111 
Q 1594 4750 2688 4750 
Q 3144 4750 3555 4637 
Q 3966 4525 4313 4306 
L 4313 3634 
Q 3963 3931 3569 4081 
Q 3175 4231 2741 4231 
Q 1884 4231 1454 3753 
Q 1025 3275 1025 2328 
Q 1025 1384 1454 906 
Q 1884 428 2741 428 
Q 3075 428 3337 486 
Q 3600 544 3809 666 
z
" transform="scale(0.015625)"/>
       <path id="DejaVuSans-42" d="M 1259 2228 
L 1259 519 
L 2272 519 
Q 2781 519 3026 730 
Q 3272 941 3272 1375 
Q 3272 1813 3026 2020 
Q 2781 2228 2272 2228 
L 1259 2228 
z
M 1259 4147 
L 1259 2741 
L 2194 2741 
Q 2656 2741 2882 2914 
Q 3109 3088 3109 3444 
Q 3109 3797 2882 3972 
Q 2656 4147 2194 4147 
L 1259 4147 
z
M 628 4666 
L 2241 4666 
Q 2963 4666 3353 4366 
Q 3744 4066 3744 3513 
Q 3744 3084 3544 2831 
Q 3344 2578 2956 2516 
Q 3422 2416 3680 2098 
Q 3938 1781 3938 1306 
Q 3938 681 3513 340 
Q 3088 0 2303 0 
L 628 0 
L 628 4666 
z
" transform="scale(0.015625)"/>
       <path id="DejaVuSans-28" d="M 1984 4856 
Q 1566 4138 1362 3434 
Q 1159 2731 1159 2009 
Q 1159 1288 1364 580 
Q 1569 -128 1984 -844 
L 1484 -844 
Q 1016 -109 783 600 
Q 550 1309 550 2009 
Q 550 2706 781 3412 
Q 1013 4119 1484 4856 
L 1984 4856 
z
" transform="scale(0.015625)"/>
       <path id="DejaVuSans-55" d="M 556 4666 
L 1191 4666 
L 1191 1831 
Q 1191 1081 1462 751 
Q 1734 422 2344 422 
Q 2950 422 3222 751 
Q 3494 1081 3494 1831 
L 3494 4666 
L 4128 4666 
L 4128 1753 
Q 4128 841 3676 375 
Q 3225 -91 2344 -91 
Q 1459 -91 1007 375 
Q 556 841 556 1753 
L 556 4666 
z
" transform="scale(0.015625)"/>
       <path id="DejaVuSans-3d" d="M 678 2906 
L 4684 2906 
L 4684 2381 
L 678 2381 
L 678 2906 
z
M 678 1631 
L 4684 1631 
L 4684 1100 
L 678 1100 
L 678 1631 
z
" transform="scale(0.015625)"/>
       <path id="DejaVuSans-39" d="M 703 97 
L 703 672 
Q 941 559 1184 500 
Q 1428 441 1663 441 
Q 2288 441 2617 861 
Q 2947 1281 2994 2138 
Q 2813 1869 2534 1725 
Q 2256 1581 1919 1581 
Q 1219 1581 811 2004 
Q 403 2428 403 3163 
Q 403 3881 828 4315 
Q 1253 4750 1959 4750 
Q 2769 4750 3195 4129 
Q 3622 3509 3622 2328 
Q 3622 1225 3098 567 
Q 2575 -91 1691 -91 
Q 1453 -91 1209 -44 
Q 966 3 703 97 
z
M 1959 2075 
Q 2384 2075 2632 2365 
Q 2881 2656 2881 3163 
Q 2881 3666 2632 3958 
Q 2384 4250 1959 4250 
Q 1534 4250 1286 3958 
Q 1038 3666 1038 3163 
Q 1038 2656 1286 2365 
Q 1534 2075 1959 2075 
z
" transform="scale(0.015625)"/>
       <path id="DejaVuSans-33" d="M 2597 2516 
Q 3050 2419 3304 2112 
Q 3559 1806 3559 1356 
Q 3559 666 3084 287 
Q 2609 -91 1734 -91 
Q 1441 -91 1130 -33 
Q 819 25 488 141 
L 488 750 
Q 750 597 1062 519 
Q 1375 441 1716 441 
Q 2309 441 2620 675 
Q 2931 909 2931 1356 
Q 2931 1769 2642 2001 
Q 2353 2234 1838 2234 
L 1294 2234 
L 1294 2753 
L 1863 2753 
Q 2328 2753 2575 2939 
Q 2822 3125 2822 3475 
Q 2822 3834 2567 4026 
Q 2313 4219 1838 4219 
Q 1578 4219 1281 4162 
Q 984 4106 628 3988 
L 628 4550 
Q 988 4650 1302 4700 
Q 1616 4750 1894 4750 
Q 2613 4750 3031 4423 
Q 3450 4097 3450 3541 
Q 3450 3153 3228 2886 
Q 3006 2619 2597 2516 
z
" transform="scale(0.015625)"/>
       <path id="DejaVuSans-29" d="M 513 4856 
L 1013 4856 
Q 1481 4119 1714 3412 
Q 1947 2706 1947 2009 
Q 1947 1309 1714 600 
Q 1481 -109 1013 -844 
L 513 -844 
Q 928 -128 1133 580 
Q 1338 1288 1338 2009 
Q 1338 2731 1133 3434 
Q 928 4138 513 4856 
z
" transform="scale(0.015625)"/>
      </defs>
      <use xlink:href="#DejaVuSans-4d"/>
      <use xlink:href="#DejaVuSans-41" x="86.279297"/>
      <use xlink:href="#DejaVuSans-4f" x="152.9375"/>
      <use xlink:href="#DejaVuSans-5f" x="231.648438"/>
      <use xlink:href="#DejaVuSans-58" x="281.648438"/>
      <use xlink:href="#DejaVuSans-47" x="350.154297"/>
      <use xlink:href="#DejaVuSans-42" x="427.644531"/>
      <use xlink:href="#DejaVuSans-20" x="496.248047"/>
      <use xlink:href="#DejaVuSans-28" x="528.035156"/>
      <use xlink:href="#DejaVuSans-41" x="567.048828"/>
      <use xlink:href="#DejaVuSans-55" x="635.457031"/>
      <use xlink:href="#DejaVuSans-43" x="708.650391"/>
      <use xlink:href="#DejaVuSans-3d" x="778.474609"/>
      <use xlink:href="#DejaVuSans-30" x="862.263672"/>
      <use xlink:href="#DejaVuSans-2e" x="925.886719"/>
      <use xlink:href="#DejaVuSans-39" x="957.673828"/>
      <use xlink:href="#DejaVuSans-33" x="1021.296875"/>
      <use xlink:href="#DejaVuSans-39" x="1084.919922"/>
      <use xlink:href="#DejaVuSans-29" x="1148.542969"/>
      <use xlink:href="#DejaVuSans-20" x="1187.556641"/>
     </g>
    </g>
    <g id="line2d_19">
     <path d="M 393.705 433.7025 
L 409.705 433.7025 
L 425.705 433.7025 
" style="fill: none; stroke: #ff7f0e; stroke-width: 1.5; stroke-linecap: square"/>
    </g>
    <g id="text_17">
     <!-- GBC (AUC=0.895)  -->
     <g transform="translate(438.505 439.3025)scale(0.16 -0.16)">
      <defs>
       <path id="DejaVuSans-35" d="M 691 4666 
L 3169 4666 
L 3169 4134 
L 1269 4134 
L 1269 2991 
Q 1406 3038 1543 3061 
Q 1681 3084 1819 3084 
Q 2600 3084 3056 2656 
Q 3513 2228 3513 1497 
Q 3513 744 3044 326 
Q 2575 -91 1722 -91 
Q 1428 -91 1123 -41 
Q 819 9 494 109 
L 494 744 
Q 775 591 1075 516 
Q 1375 441 1709 441 
Q 2250 441 2565 725 
Q 2881 1009 2881 1497 
Q 2881 1984 2565 2268 
Q 2250 2553 1709 2553 
Q 1456 2553 1204 2497 
Q 953 2441 691 2322 
L 691 4666 
z
" transform="scale(0.015625)"/>
      </defs>
      <use xlink:href="#DejaVuSans-47"/>
      <use xlink:href="#DejaVuSans-42" x="77.490234"/>
      <use xlink:href="#DejaVuSans-43" x="144.34375"/>
      <use xlink:href="#DejaVuSans-20" x="214.167969"/>
      <use xlink:href="#DejaVuSans-28" x="245.955078"/>
      <use xlink:href="#DejaVuSans-41" x="284.96875"/>
      <use xlink:href="#DejaVuSans-55" x="353.376953"/>
      <use xlink:href="#DejaVuSans-43" x="426.570312"/>
      <use xlink:href="#DejaVuSans-3d" x="496.394531"/>
      <use xlink:href="#DejaVuSans-30" x="580.183594"/>
      <use xlink:href="#DejaVuSans-2e" x="643.806641"/>
      <use xlink:href="#DejaVuSans-38" x="675.59375"/>
      <use xlink:href="#DejaVuSans-39" x="739.216797"/>
      <use xlink:href="#DejaVuSans-35" x="802.839844"/>
      <use xlink:href="#DejaVuSans-29" x="866.462891"/>
      <use xlink:href="#DejaVuSans-20" x="905.476562"/>
     </g>
    </g>
    <g id="line2d_20">
     <path d="M 393.705 457.1875 
L 409.705 457.1875 
L 425.705 457.1875 
" style="fill: none; stroke: #2ca02c; stroke-width: 1.5; stroke-linecap: square"/>
    </g>
    <g id="text_18">
     <!-- RF (AUC=0.912)  -->
     <g transform="translate(438.505 462.7875)scale(0.16 -0.16)">
      <use xlink:href="#DejaVuSans-52"/>
      <use xlink:href="#DejaVuSans-46" x="69.482422"/>
      <use xlink:href="#DejaVuSans-20" x="127.001953"/>
      <use xlink:href="#DejaVuSans-28" x="158.789062"/>
      <use xlink:href="#DejaVuSans-41" x="197.802734"/>
      <use xlink:href="#DejaVuSans-55" x="266.210938"/>
      <use xlink:href="#DejaVuSans-43" x="339.404297"/>
      <use xlink:href="#DejaVuSans-3d" x="409.228516"/>
      <use xlink:href="#DejaVuSans-30" x="493.017578"/>
      <use xlink:href="#DejaVuSans-2e" x="556.640625"/>
      <use xlink:href="#DejaVuSans-39" x="588.427734"/>
      <use xlink:href="#DejaVuSans-31" x="652.050781"/>
      <use xlink:href="#DejaVuSans-32" x="715.673828"/>
      <use xlink:href="#DejaVuSans-29" x="779.296875"/>
      <use xlink:href="#DejaVuSans-20" x="818.310547"/>
     </g>
    </g>
    <g id="line2d_21">
     <path d="M 393.705 480.6725 
L 409.705 480.6725 
L 425.705 480.6725 
" style="fill: none; stroke: #d62728; stroke-width: 1.5; stroke-linecap: square"/>
    </g>
    <g id="text_19">
     <!-- DT (AUC=0.711)  -->
     <g transform="translate(438.505 486.2725)scale(0.16 -0.16)">
      <defs>
       <path id="DejaVuSans-44" d="M 1259 4147 
L 1259 519 
L 2022 519 
Q 2988 519 3436 956 
Q 3884 1394 3884 2338 
Q 3884 3275 3436 3711 
Q 2988 4147 2022 4147 
L 1259 4147 
z
M 628 4666 
L 1925 4666 
Q 3281 4666 3915 4102 
Q 4550 3538 4550 2338 
Q 4550 1131 3912 565 
Q 3275 0 1925 0 
L 628 0 
L 628 4666 
z
" transform="scale(0.015625)"/>
       <path id="DejaVuSans-37" d="M 525 4666 
L 3525 4666 
L 3525 4397 
L 1831 0 
L 1172 0 
L 2766 4134 
L 525 4134 
L 525 4666 
z
" transform="scale(0.015625)"/>
      </defs>
      <use xlink:href="#DejaVuSans-44"/>
      <use xlink:href="#DejaVuSans-54" x="77.001953"/>
      <use xlink:href="#DejaVuSans-20" x="138.085938"/>
      <use xlink:href="#DejaVuSans-28" x="169.873047"/>
      <use xlink:href="#DejaVuSans-41" x="208.886719"/>
      <use xlink:href="#DejaVuSans-55" x="277.294922"/>
      <use xlink:href="#DejaVuSans-43" x="350.488281"/>
      <use xlink:href="#DejaVuSans-3d" x="420.3125"/>
      <use xlink:href="#DejaVuSans-30" x="504.101562"/>
      <use xlink:href="#DejaVuSans-2e" x="567.724609"/>
      <use xlink:href="#DejaVuSans-37" x="599.511719"/>
      <use xlink:href="#DejaVuSans-31" x="663.134766"/>
      <use xlink:href="#DejaVuSans-31" x="726.757812"/>
      <use xlink:href="#DejaVuSans-29" x="790.380859"/>
      <use xlink:href="#DejaVuSans-20" x="829.394531"/>
     </g>
    </g>
   </g>
  </g>
 </g>
 <defs>
  <clipPath id="p2e56d92767">
   <rect x="90" y="69.12" width="558" height="434.88"/>
  </clipPath>
 </defs>
</svg>
